<svg version="1.1" xmlns="http://www.w3.org/2000/svg" viewBox="0 0 1579.5555670473468 526.5951599091261" width="1579.5555670473468" height="526.5951599091261" filter="invert(93%) hue-rotate(180deg)" class="excalidraw-svg">
  <!-- svg-source:excalidraw -->
  
  <defs>
    <style class="style-fonts">
      @font-face {
        font-family: "Virgil";
        src: url("https://excalidraw.com/Virgil.woff2");
      }
      @font-face {
        font-family: "Cascadia";
        src: url("https://excalidraw.com/Cascadia.woff2");
      }
      @font-face {
        font-family: "Assistant";
        src: url("https://excalidraw.com/Assistant-Regular.woff2");
      }
    </style>
    
  </defs>
  <g transform="translate(668.2546155624304 208.67456355632237) rotate(0 -19.25 18.75)" stroke="none"><path fill="#1e1e1e" d="M -1.50,3.38 Q -1.50,3.38 -5.66,2.51 -9.82,1.65 -12.06,1.94 -14.31,2.24 -16.60,3.63 -18.90,5.03 -21.73,7.49 -24.56,9.96 -27.20,13.21 -29.83,16.47 -31.48,19.58 -33.13,22.69 -33.12,25.48 -33.12,28.28 -29.62,30.98 -26.12,33.68 -20.97,34.72 -15.82,35.76 -10.60,36.11 -5.39,36.47 -2.97,37.87 -0.55,39.28 -0.14,39.36 0.27,39.44 0.64,39.65 1.01,39.85 1.30,40.17 1.58,40.49 1.75,40.88 1.92,41.27 1.95,41.69 1.99,42.11 1.89,42.53 1.79,42.94 1.56,43.30 1.33,43.65 1.00,43.92 0.67,44.19 0.27,44.34 -0.12,44.48 -0.54,44.50 -0.97,44.51 -1.37,44.38 -1.78,44.26 -2.13,44.01 -2.47,43.77 -2.72,43.42 -2.97,43.08 -3.10,42.67 -3.22,42.27 -3.21,41.84 -3.20,41.42 -3.05,41.02 -2.91,40.62 -2.64,40.29 -2.38,39.95 -2.02,39.72 -1.66,39.49 -1.25,39.39 -0.84,39.29 -0.41,39.32 0.00,39.35 0.39,39.52 0.78,39.69 1.10,39.97 1.41,40.26 1.62,40.62 1.83,40.99 1.92,41.41 2.00,41.83 1.94,42.25 1.88,42.67 1.69,43.05 1.51,43.43 1.21,43.73 0.91,44.04 0.53,44.22 0.15,44.41 -0.26,44.47 -0.69,44.53 -0.68,44.53 -0.68,44.53 -3.17,45.82 -5.66,47.10 -11.98,47.17 -18.31,47.24 -25.42,45.57 -32.54,43.91 -36.77,40.74 -41.00,37.57 -43.02,32.99 -45.03,28.41 -44.46,22.88 -43.89,17.35 -41.50,13.05 -39.11,8.75 -35.63,4.71 -32.15,0.68 -28.03,-2.50 -23.90,-5.68 -19.30,-7.44 -14.71,-9.20 -10.20,-8.87 -5.70,-8.55 -2.09,-5.96 1.50,-3.38 1.88,-3.15 2.26,-2.92 2.58,-2.60 2.90,-2.29 3.13,-1.91 3.36,-1.53 3.50,-1.10 3.63,-0.68 3.66,-0.23 3.69,0.20 3.61,0.64 3.53,1.08 3.35,1.49 3.17,1.89 2.90,2.25 2.62,2.60 2.27,2.88 1.92,3.15 1.52,3.34 1.11,3.52 0.67,3.60 0.24,3.69 -0.20,3.66 -0.65,3.64 -1.07,3.51 -1.50,3.38 -1.50,3.38 L -1.50,3.38 Z"></path></g><g transform="translate(698.2546155624304 240.17456355632237) rotate(0 25.75 -2.75)" stroke="none"><path fill="#1e1e1e" d="M 0,-3.77 Q 0,-3.77 4.74,-4.57 9.48,-5.37 14.36,-5.69 19.24,-6.00 26.13,-6.60 33.01,-7.20 38.32,-7.92 43.63,-8.64 46.10,-8.27 48.57,-7.90 49.00,-7.91 49.42,-7.92 49.83,-7.80 50.24,-7.68 50.58,-7.43 50.93,-7.19 51.18,-6.84 51.43,-6.50 51.56,-6.09 51.68,-5.69 51.67,-5.26 51.67,-4.84 51.52,-4.44 51.38,-4.04 51.11,-3.71 50.85,-3.37 50.49,-3.14 50.14,-2.91 49.72,-2.81 49.31,-2.70 48.89,-2.73 48.46,-2.77 48.07,-2.93 47.68,-3.10 47.36,-3.38 47.05,-3.66 46.83,-4.03 46.62,-4.40 46.54,-4.82 46.46,-5.23 46.51,-5.65 46.57,-6.08 46.75,-6.46 46.94,-6.84 47.24,-7.14 47.54,-7.44 47.92,-7.63 48.30,-7.83 48.72,-7.89 49.14,-7.94 49.56,-7.87 49.97,-7.79 50.35,-7.58 50.72,-7.38 51.00,-7.06 51.29,-6.75 51.46,-6.36 51.63,-5.97 51.67,-5.54 51.70,-5.12 51.60,-4.71 51.50,-4.29 51.28,-3.94 51.05,-3.58 50.72,-3.31 50.39,-3.04 49.99,-2.89 49.59,-2.74 49.59,-2.74 49.59,-2.74 47.45,-1.46 45.31,-0.17 39.75,1.25 34.20,2.69 27.03,3.77 19.86,4.85 14.67,5.11 9.48,5.37 4.74,4.57 0,3.77 -0.45,3.72 -0.90,3.66 -1.32,3.50 -1.75,3.34 -2.13,3.08 -2.50,2.82 -2.80,2.48 -3.10,2.14 -3.32,1.74 -3.53,1.33 -3.64,0.89 -3.74,0.45 -3.74,-0.00 -3.74,-0.45 -3.64,-0.89 -3.53,-1.33 -3.32,-1.74 -3.10,-2.14 -2.80,-2.48 -2.50,-2.82 -2.12,-3.08 -1.75,-3.34 -1.32,-3.50 -0.90,-3.66 -0.45,-3.72 0.00,-3.77 0.00,-3.77 L 0,-3.77 Z"></path></g><g transform="translate(696.2546155624304 217.17456355632237) rotate(0 23.25 -0.75)" stroke="none"><path fill="#1e1e1e" d="M 0.17,-3.90 Q 0.17,-3.90 6.54,-4.59 12.91,-5.27 18.18,-5.60 23.44,-5.93 28.48,-6.38 33.52,-6.84 37.08,-7.18 40.64,-7.53 42.30,-6.43 43.95,-5.32 44.38,-5.31 44.80,-5.29 45.20,-5.14 45.60,-4.99 45.93,-4.72 46.26,-4.45 46.48,-4.09 46.71,-3.73 46.80,-3.32 46.90,-2.90 46.86,-2.48 46.83,-2.06 46.65,-1.67 46.48,-1.28 46.20,-0.97 45.91,-0.65 45.54,-0.45 45.16,-0.24 44.75,-0.17 44.33,-0.09 43.91,-0.15 43.49,-0.21 43.11,-0.41 42.73,-0.60 42.43,-0.90 42.13,-1.21 41.95,-1.59 41.76,-1.97 41.71,-2.39 41.66,-2.81 41.74,-3.23 41.83,-3.65 42.04,-4.01 42.25,-4.38 42.57,-4.66 42.89,-4.94 43.28,-5.11 43.68,-5.27 44.10,-5.30 44.52,-5.33 44.93,-5.23 45.35,-5.12 45.70,-4.89 46.06,-4.65 46.32,-4.32 46.58,-3.99 46.73,-3.59 46.87,-3.18 46.87,-2.76 46.88,-2.33 46.75,-1.93 46.62,-1.53 46.37,-1.18 46.12,-0.84 45.77,-0.60 45.43,-0.35 45.02,-0.23 44.61,-0.11 44.61,-0.11 44.61,-0.11 43.28,1.36 41.95,2.84 38.46,3.39 34.98,3.93 29.54,4.89 24.10,5.84 18.24,6.13 12.38,6.42 6.10,5.16 -0.17,3.90 -0.64,3.82 -1.10,3.74 -1.53,3.56 -1.97,3.37 -2.34,3.09 -2.72,2.80 -3.01,2.43 -3.31,2.07 -3.51,1.64 -3.71,1.21 -3.80,0.75 -3.89,0.29 -3.87,-0.17 -3.85,-0.64 -3.72,-1.09 -3.58,-1.55 -3.35,-1.95 -3.11,-2.36 -2.78,-2.70 -2.45,-3.04 -2.05,-3.29 -1.65,-3.54 -1.20,-3.68 -0.76,-3.83 -0.29,-3.87 0.17,-3.90 0.17,-3.90 L 0.17,-3.90 Z"></path></g><g transform="translate(827.2546155624304 213.67456355632237) rotate(0 -25 17)" stroke="none"><path fill="#1e1e1e" d="M -1.54,3.61 Q -1.54,3.61 -4.84,3.10 -8.14,2.59 -10.98,2.64 -13.82,2.70 -17.42,3.73 -21.01,4.76 -24.97,6.86 -28.93,8.97 -32.43,11.98 -35.93,15.00 -38.15,19.17 -40.37,23.34 -38.52,26.32 -36.67,29.30 -33.68,30.04 -30.70,30.78 -26.56,31.21 -22.43,31.63 -18.13,31.61 -13.84,31.59 -11.76,32.38 -9.68,33.16 -9.26,33.19 -8.83,33.22 -8.44,33.38 -8.05,33.54 -7.73,33.82 -7.41,34.10 -7.19,34.47 -6.98,34.84 -6.89,35.25 -6.80,35.67 -6.86,36.09 -6.91,36.51 -7.09,36.90 -7.27,37.28 -7.57,37.58 -7.87,37.89 -8.24,38.08 -8.62,38.28 -9.04,38.34 -9.46,38.40 -9.88,38.33 -10.30,38.26 -10.67,38.05 -11.04,37.85 -11.33,37.54 -11.62,37.22 -11.80,36.84 -11.97,36.45 -12.01,36.03 -12.05,35.60 -11.95,35.19 -11.86,34.78 -11.63,34.41 -11.41,34.05 -11.08,33.78 -10.76,33.51 -10.36,33.36 -9.96,33.21 -9.54,33.19 -9.11,33.17 -8.70,33.29 -8.30,33.41 -7.95,33.65 -7.60,33.89 -7.35,34.24 -7.09,34.58 -6.96,34.98 -6.83,35.39 -6.84,35.81 -6.84,36.24 -6.98,36.64 -7.12,37.04 -7.39,37.37 -7.65,37.71 -8.00,37.94 -8.36,38.18 -8.77,38.28 -9.18,38.39 -9.18,38.39 -9.18,38.39 -11.07,39.56 -12.96,40.73 -18.01,41.61 -23.05,42.49 -28.72,42.33 -34.39,42.16 -39.59,40.18 -44.78,38.19 -48.32,33.67 -51.86,29.16 -51.45,23.44 -51.04,17.72 -47.45,11.79 -43.87,5.86 -39.13,2.03 -34.39,-1.80 -29.09,-4.31 -23.79,-6.83 -18.47,-7.88 -13.15,-8.92 -8.54,-8.34 -3.92,-7.76 -1.18,-5.69 1.54,-3.61 1.95,-3.37 2.36,-3.13 2.70,-2.80 3.05,-2.47 3.30,-2.07 3.55,-1.67 3.70,-1.22 3.85,-0.77 3.89,-0.30 3.92,0.16 3.85,0.63 3.77,1.10 3.58,1.53 3.39,1.97 3.11,2.35 2.82,2.72 2.46,3.02 2.09,3.32 1.66,3.52 1.23,3.73 0.77,3.82 0.30,3.91 -0.16,3.89 -0.63,3.87 -1.09,3.74 -1.54,3.61 -1.54,3.61 L -1.54,3.61 Z"></path></g><g transform="translate(604.7546155624304 275.67456355632237) rotate(0 -9 16.75)" stroke="none"><path fill="#1e1e1e" d="M -1.96,-3.19 Q -1.96,-3.19 -0.40,-4.90 1.15,-6.62 1.86,-6.90 2.56,-7.18 3.14,-7.44 3.72,-7.71 4.34,-7.83 4.96,-7.95 5.60,-7.91 6.23,-7.88 6.84,-7.70 7.44,-7.51 7.99,-7.19 8.53,-6.87 8.99,-6.42 9.44,-5.98 9.77,-5.44 10.10,-4.89 10.30,-4.29 10.49,-3.69 10.53,-3.05 10.58,-2.42 10.47,-1.80 10.36,-1.17 10.10,-0.59 9.85,-0.01 9.46,0.48 9.07,0.98 8.57,1.38 8.08,1.77 4.91,7.56 1.74,13.35 -1.37,17.30 -4.49,21.24 -7.60,24.86 -10.72,28.47 -13.43,31.47 -16.14,34.46 -18.85,36.16 -21.55,37.85 -21.85,38.16 -22.14,38.47 -22.52,38.66 -22.90,38.86 -23.32,38.92 -23.74,38.99 -24.15,38.92 -24.57,38.85 -24.95,38.64 -25.32,38.44 -25.61,38.13 -25.90,37.82 -26.08,37.43 -26.25,37.05 -26.29,36.62 -26.34,36.20 -26.24,35.79 -26.15,35.37 -25.92,35.01 -25.70,34.65 -25.38,34.37 -25.05,34.10 -24.65,33.95 -24.26,33.79 -23.83,33.77 -23.41,33.75 -23.00,33.87 -22.59,33.99 -22.24,34.23 -21.89,34.47 -21.64,34.81 -21.38,35.15 -21.25,35.56 -21.12,35.96 -21.12,36.38 -21.13,36.81 -21.26,37.21 -21.40,37.61 -21.66,37.95 -21.92,38.29 -22.28,38.52 -22.63,38.76 -23.04,38.87 -23.45,38.98 -23.88,38.95 -24.30,38.92 -24.69,38.76 -25.09,38.60 -25.41,38.32 -25.73,38.05 -25.95,37.68 -26.16,37.31 -26.25,36.90 -26.34,36.48 -26.29,36.06 -26.24,35.64 -26.06,35.26 -25.88,34.87 -25.88,34.87 -25.88,34.87 -25.04,31.44 -24.20,28.00 -21.74,24.54 -19.28,21.09 -16.32,17.65 -13.35,14.21 -10.28,10.35 -7.20,6.49 -3.70,2.25 -0.19,-1.97 1.18,-4.58 2.56,-7.18 3.14,-7.44 3.72,-7.71 4.34,-7.83 4.96,-7.95 5.59,-7.91 6.23,-7.88 6.84,-7.70 7.44,-7.51 7.99,-7.19 8.53,-6.87 8.99,-6.42 9.44,-5.98 9.77,-5.44 10.10,-4.90 10.30,-4.29 10.49,-3.69 10.53,-3.05 10.58,-2.42 10.47,-1.80 10.36,-1.17 10.10,-0.59 9.85,-0.01 9.46,0.48 9.07,0.98 8.58,1.38 8.08,1.77 7.20,1.90 6.31,2.02 4.14,2.60 1.96,3.19 1.55,3.38 1.14,3.57 0.69,3.65 0.25,3.74 -0.19,3.71 -0.64,3.69 -1.07,3.56 -1.51,3.43 -1.90,3.20 -2.28,2.96 -2.61,2.65 -2.93,2.33 -3.16,1.95 -3.40,1.56 -3.54,1.13 -3.68,0.70 -3.71,0.25 -3.74,-0.19 -3.66,-0.64 -3.58,-1.08 -3.40,-1.50 -3.22,-1.91 -2.94,-2.27 -2.67,-2.63 -2.31,-2.91 -1.96,-3.19 -1.96,-3.19 L -1.96,-3.19 Z"></path></g><g transform="translate(624.7546155624304 175.17456355632237) rotate(0 -15.25 -14.25)" stroke="none"><path fill="#1e1e1e" d="M -2.72,2.84 Q -2.72,2.84 -6.85,0.24 -10.98,-2.35 -14.23,-5.47 -17.48,-8.58 -20.45,-11.27 -23.43,-13.96 -25.88,-16.71 -28.33,-19.46 -29.75,-22.53 -31.17,-25.59 -31.44,-25.92 -31.71,-26.25 -31.86,-26.65 -32.01,-27.05 -32.03,-27.47 -32.04,-27.90 -31.92,-28.30 -31.80,-28.71 -31.56,-29.06 -31.31,-29.40 -30.97,-29.66 -30.63,-29.91 -30.22,-30.04 -29.82,-30.16 -29.39,-30.16 -28.97,-30.15 -28.57,-30.01 -28.17,-29.86 -27.83,-29.60 -27.50,-29.34 -27.27,-28.98 -27.04,-28.62 -26.93,-28.21 -26.82,-27.80 -26.85,-27.38 -26.88,-26.95 -27.05,-26.56 -27.21,-26.17 -27.49,-25.85 -27.77,-25.53 -28.14,-25.32 -28.51,-25.11 -28.93,-25.02 -29.34,-24.94 -29.77,-24.99 -30.19,-25.05 -30.57,-25.23 -30.95,-25.42 -31.26,-25.72 -31.56,-26.01 -31.75,-26.39 -31.94,-26.77 -32.00,-27.19 -32.06,-27.61 -31.99,-28.03 -31.91,-28.45 -31.71,-28.82 -31.50,-29.19 -31.19,-29.48 -30.87,-29.77 -30.48,-29.94 -30.10,-30.11 -29.67,-30.15 -29.25,-30.18 -28.84,-30.09 -28.42,-29.99 -28.06,-29.76 -27.70,-29.54 -27.70,-29.54 -27.70,-29.54 -24.33,-28.38 -20.97,-27.22 -18.21,-25.03 -15.45,-22.85 -12.26,-20.00 -9.08,-17.15 -5.95,-14.01 -2.81,-10.87 -0.04,-6.85 2.72,-2.84 3.02,-2.47 3.32,-2.10 3.52,-1.67 3.73,-1.25 3.82,-0.78 3.92,-0.32 3.90,0.15 3.88,0.62 3.75,1.08 3.62,1.53 3.38,1.95 3.15,2.36 2.82,2.70 2.49,3.04 2.09,3.30 1.69,3.55 1.24,3.70 0.79,3.85 0.31,3.89 -0.15,3.93 -0.62,3.85 -1.09,3.78 -1.52,3.59 -1.96,3.41 -2.34,3.12 -2.72,2.84 -2.72,2.84 L -2.72,2.84 Z"></path></g><g transform="translate(849.2546155624304 261.17456355632237) rotate(0 16 16)" stroke="none"><path fill="#1e1e1e" d="M 2.55,-2.39 Q 2.55,-2.39 5.49,-0.83 8.44,0.73 11.10,3.57 13.76,6.42 16.62,9.49 19.48,12.57 22.51,15.70 25.54,18.83 28.40,21.99 31.26,25.15 32.79,28.41 34.31,31.67 34.59,31.99 34.86,32.32 35.02,32.71 35.17,33.11 35.19,33.53 35.21,33.96 35.10,34.36 34.98,34.77 34.74,35.12 34.50,35.47 34.16,35.73 33.82,35.99 33.42,36.12 33.02,36.25 32.59,36.25 32.17,36.25 31.76,36.11 31.36,35.97 31.03,35.72 30.69,35.46 30.45,35.10 30.21,34.75 30.10,34.34 29.99,33.93 30.02,33.51 30.04,33.08 30.20,32.69 30.36,32.29 30.64,31.97 30.91,31.65 31.28,31.43 31.64,31.21 32.06,31.13 32.47,31.04 32.90,31.08 33.32,31.13 33.70,31.31 34.09,31.49 34.40,31.79 34.70,32.08 34.90,32.46 35.10,32.83 35.16,33.25 35.23,33.67 35.16,34.09 35.09,34.51 34.89,34.89 34.69,35.26 34.38,35.55 34.07,35.84 33.68,36.02 33.29,36.19 32.87,36.24 32.45,36.28 32.03,36.19 31.62,36.09 31.26,35.87 30.89,35.65 30.89,35.65 30.89,35.65 27.04,34.20 23.19,32.74 20.27,29.75 17.35,26.76 14.22,23.54 11.09,20.32 8.26,17.24 5.42,14.16 2.80,11.31 0.18,8.46 -1.18,5.43 -2.55,2.39 -2.80,2.05 -3.05,1.71 -3.21,1.32 -3.37,0.93 -3.43,0.51 -3.50,0.09 -3.46,-0.32 -3.42,-0.74 -3.28,-1.14 -3.14,-1.53 -2.91,-1.89 -2.68,-2.24 -2.37,-2.53 -2.06,-2.82 -1.70,-3.03 -1.33,-3.23 -0.92,-3.35 -0.51,-3.46 -0.09,-3.47 0.32,-3.48 0.73,-3.39 1.14,-3.30 1.52,-3.12 1.90,-2.93 2.23,-2.66 2.55,-2.39 2.55,-2.39 L 2.55,-2.39 Z"></path></g><g transform="translate(941.2546155624304 313.17456355632237) rotate(0 -19.25 16.5)" stroke="none"><path fill="#1e1e1e" d="M -1.35,3.29 Q -1.35,3.29 -4.15,3.28 -6.94,3.27 -11.41,4.06 -15.89,4.86 -19.21,7.11 -22.53,9.37 -25.28,11.95 -28.03,14.54 -29.38,17.12 -30.73,19.70 -30.69,22.31 -30.64,24.91 -27.83,26.81 -25.02,28.71 -22.27,29.12 -19.52,29.53 -16.22,29.22 -12.92,28.91 -9.65,28.17 -6.38,27.44 -4.51,27.86 -2.63,28.29 -2.21,28.22 -1.79,28.15 -1.37,28.22 -0.96,28.28 -0.58,28.48 -0.20,28.68 0.08,28.99 0.37,29.29 0.55,29.68 0.73,30.07 0.78,30.49 0.83,30.91 0.74,31.32 0.64,31.74 0.43,32.10 0.21,32.47 -0.10,32.75 -0.43,33.02 -0.82,33.18 -1.22,33.34 -1.64,33.36 -2.07,33.39 -2.48,33.27 -2.88,33.16 -3.24,32.92 -3.59,32.69 -3.85,32.35 -4.11,32.01 -4.24,31.61 -4.38,31.20 -4.38,30.78 -4.38,30.36 -4.25,29.95 -4.11,29.55 -3.85,29.21 -3.60,28.87 -3.25,28.63 -2.90,28.39 -2.49,28.28 -2.08,28.16 -1.65,28.19 -1.23,28.21 -0.83,28.36 -0.44,28.52 -0.11,28.79 0.20,29.07 0.42,29.43 0.64,29.80 0.73,30.21 0.82,30.63 0.78,31.05 0.73,31.47 0.56,31.86 0.38,32.24 0.09,32.55 -0.19,32.86 -0.57,33.06 -0.94,33.26 -0.94,33.26 -0.94,33.26 -2.17,34.74 -3.40,36.21 -7.43,37.96 -11.46,39.71 -16.54,40.49 -21.61,41.28 -26.40,40.22 -31.19,39.15 -34.97,36.41 -38.75,33.67 -40.67,29.40 -42.59,25.14 -42.04,19.66 -41.48,14.19 -38.92,9.94 -36.36,5.68 -32.62,2.34 -28.88,-1.00 -23.69,-3.90 -18.50,-6.81 -14.48,-7.48 -10.46,-8.16 -6.64,-7.73 -2.83,-7.29 -0.73,-5.29 1.35,-3.29 1.73,-3.08 2.10,-2.87 2.42,-2.58 2.73,-2.28 2.96,-1.92 3.20,-1.56 3.34,-1.16 3.48,-0.75 3.52,-0.32 3.56,0.10 3.50,0.52 3.43,0.95 3.27,1.34 3.10,1.74 2.85,2.09 2.60,2.43 2.27,2.71 1.94,2.99 1.55,3.17 1.16,3.36 0.74,3.45 0.32,3.55 -0.09,3.53 -0.52,3.52 -0.94,3.41 -1.35,3.29 -1.35,3.29 L -1.35,3.29 Z"></path></g><g transform="translate(847.7546155624304 189.67456355632237) rotate(0 6.75 -14.25)" stroke="none"><path fill="#1e1e1e" d="M -3.65,-1.30 Q -3.65,-1.30 -3.07,-5.63 -2.49,-9.97 -0.76,-13.65 0.96,-17.34 3.16,-20.59 5.36,-23.84 8.16,-26.18 10.97,-28.52 11.24,-28.85 11.51,-29.17 11.87,-29.40 12.23,-29.62 12.64,-29.72 13.06,-29.81 13.48,-29.77 13.90,-29.73 14.29,-29.56 14.68,-29.39 14.99,-29.10 15.30,-28.81 15.51,-28.44 15.71,-28.06 15.79,-27.64 15.86,-27.23 15.80,-26.81 15.73,-26.39 15.54,-26.01 15.34,-25.63 15.04,-25.33 14.73,-25.04 14.35,-24.85 13.97,-24.67 13.55,-24.62 13.12,-24.57 12.71,-24.65 12.29,-24.74 11.92,-24.96 11.56,-25.17 11.28,-25.49 11.00,-25.81 10.84,-26.20 10.68,-26.60 10.65,-27.02 10.62,-27.44 10.73,-27.86 10.84,-28.27 11.07,-28.62 11.30,-28.98 11.64,-29.24 11.97,-29.50 12.38,-29.64 12.78,-29.78 13.20,-29.78 13.63,-29.79 14.03,-29.66 14.44,-29.53 14.78,-29.28 15.12,-29.02 15.36,-28.67 15.60,-28.32 15.72,-27.92 15.84,-27.51 15.82,-27.08 15.81,-26.66 15.65,-26.26 15.50,-25.87 15.50,-25.87 15.50,-25.87 14.85,-22.30 14.20,-18.74 12.72,-15.62 11.25,-12.49 9.75,-9.31 8.24,-6.12 5.95,-2.41 3.65,1.30 3.44,1.72 3.23,2.14 2.93,2.49 2.63,2.85 2.25,3.12 1.87,3.40 1.43,3.57 1.00,3.75 0.53,3.81 0.07,3.88 -0.39,3.83 -0.85,3.78 -1.29,3.62 -1.73,3.47 -2.12,3.21 -2.51,2.95 -2.83,2.61 -3.15,2.26 -3.37,1.85 -3.60,1.44 -3.72,0.99 -3.84,0.54 -3.85,0.07 -3.86,-0.39 -3.75,-0.84 -3.65,-1.30 -3.65,-1.30 L -3.65,-1.30 Z"></path></g><g transform="translate(895.7546155624304 157.17456355632237) rotate(0 -2.25 -18.5)" stroke="none"><path fill="#1e1e1e" d="M -3.77,0.49 Q -3.77,0.49 -5.07,-2.70 -6.37,-5.89 -6.77,-9.40 -7.17,-12.90 -7.47,-16.71 -7.77,-20.52 -8.10,-23.71 -8.43,-26.91 -7.61,-30.88 -6.79,-34.85 -6.80,-35.28 -6.80,-35.70 -6.67,-36.11 -6.53,-36.51 -6.28,-36.85 -6.02,-37.19 -5.67,-37.43 -5.32,-37.67 -4.91,-37.79 -4.51,-37.91 -4.08,-37.88 -3.66,-37.86 -3.26,-37.71 -2.87,-37.55 -2.54,-37.28 -2.21,-37.01 -1.99,-36.65 -1.77,-36.28 -1.68,-35.87 -1.58,-35.45 -1.63,-35.03 -1.67,-34.61 -1.85,-34.22 -2.02,-33.84 -2.31,-33.52 -2.60,-33.21 -2.98,-33.01 -3.35,-32.81 -3.77,-32.74 -4.19,-32.67 -4.61,-32.74 -5.03,-32.80 -5.41,-33.00 -5.78,-33.20 -6.08,-33.50 -6.37,-33.81 -6.55,-34.19 -6.73,-34.58 -6.78,-35.00 -6.83,-35.42 -6.74,-35.84 -6.65,-36.25 -6.43,-36.62 -6.22,-36.98 -5.90,-37.26 -5.57,-37.54 -5.18,-37.70 -4.79,-37.86 -4.36,-37.88 -3.94,-37.91 -3.53,-37.80 -3.12,-37.69 -2.76,-37.45 -2.41,-37.21 -2.15,-36.88 -1.89,-36.54 -1.75,-36.14 -1.62,-35.74 -1.62,-35.74 -1.62,-35.74 0.51,-32.00 2.64,-28.27 3.12,-24.82 3.60,-21.38 3.87,-17.68 4.13,-13.98 4.39,-10.66 4.64,-7.33 4.21,-3.91 3.77,-0.49 3.77,-0.03 3.78,0.42 3.67,0.87 3.56,1.31 3.36,1.72 3.15,2.13 2.84,2.47 2.54,2.82 2.17,3.08 1.79,3.35 1.37,3.52 0.94,3.68 0.48,3.74 0.03,3.80 -0.42,3.75 -0.87,3.70 -1.30,3.54 -1.73,3.38 -2.11,3.12 -2.49,2.87 -2.80,2.52 -3.11,2.18 -3.32,1.78 -3.54,1.38 -3.65,0.93 -3.77,0.49 -3.77,0.49 L -3.77,0.49 Z"></path></g><g transform="translate(891.2546155624304 135.67456355632237) rotate(0 11 -1)" stroke="none"><path fill="#1e1e1e" d="M -0.45,-4.29 Q -0.45,-4.29 2.21,-5.17 4.88,-6.05 7.88,-6.53 10.87,-7.02 13.48,-7.12 16.08,-7.22 18.55,-6.17 21.03,-5.11 21.45,-5.05 21.87,-4.98 22.24,-4.79 22.62,-4.59 22.92,-4.29 23.21,-3.98 23.40,-3.60 23.58,-3.22 23.63,-2.79 23.68,-2.37 23.59,-1.96 23.51,-1.54 23.29,-1.17 23.08,-0.81 22.76,-0.53 22.44,-0.25 22.04,-0.09 21.65,0.06 21.23,0.09 20.80,0.12 20.39,0.01 19.98,-0.09 19.63,-0.32 19.27,-0.56 19.01,-0.89 18.75,-1.23 18.61,-1.63 18.47,-2.03 18.47,-2.45 18.46,-2.88 18.59,-3.28 18.72,-3.69 18.98,-4.03 19.23,-4.37 19.58,-4.61 19.93,-4.86 20.34,-4.97 20.74,-5.09 21.17,-5.07 21.59,-5.06 21.99,-4.90 22.39,-4.75 22.71,-4.48 23.04,-4.21 23.26,-3.85 23.49,-3.48 23.58,-3.07 23.68,-2.66 23.64,-2.23 23.60,-1.81 23.42,-1.42 23.25,-1.03 22.96,-0.72 22.67,-0.41 22.30,-0.21 21.92,-0.00 21.51,0.06 21.09,0.13 21.09,0.13 21.09,0.13 19.30,1.24 17.52,2.34 15.13,3.00 12.74,3.65 9.39,4.28 6.04,4.90 3.24,4.59 0.45,4.29 -0.06,4.28 -0.58,4.27 -1.09,4.14 -1.59,4.00 -2.05,3.75 -2.50,3.51 -2.89,3.15 -3.27,2.80 -3.56,2.37 -3.85,1.94 -4.02,1.45 -4.20,0.96 -4.25,0.44 -4.31,-0.06 -4.24,-0.58 -4.17,-1.09 -3.97,-1.58 -3.78,-2.06 -3.48,-2.48 -3.18,-2.91 -2.78,-3.25 -2.39,-3.58 -1.92,-3.82 -1.46,-4.05 -0.95,-4.17 -0.45,-4.29 -0.45,-4.29 L -0.45,-4.29 Z"></path></g><g transform="translate(918.2546155624304 147.67456355632237) rotate(0 -0.75 -16.25)" stroke="none"><path fill="#1e1e1e" d="M -4.27,-0.17 Q -4.27,-0.17 -5.12,-3.66 -5.97,-7.16 -6.18,-11.16 -6.39,-15.16 -6.71,-18.28 -7.03,-21.40 -7.21,-23.78 -7.39,-26.17 -5.90,-28.61 -4.42,-31.06 -4.42,-31.48 -4.42,-31.91 -4.29,-32.31 -4.15,-32.71 -3.89,-33.05 -3.63,-33.39 -3.28,-33.63 -2.93,-33.87 -2.52,-33.98 -2.11,-34.09 -1.69,-34.07 -1.26,-34.05 -0.87,-33.89 -0.47,-33.73 -0.15,-33.46 0.16,-33.18 0.38,-32.82 0.60,-32.45 0.69,-32.04 0.78,-31.62 0.74,-31.20 0.69,-30.78 0.51,-30.39 0.33,-30.01 0.04,-29.70 -0.24,-29.39 -0.62,-29.19 -0.99,-28.99 -1.41,-28.93 -1.83,-28.86 -2.25,-28.93 -2.67,-28.99 -3.05,-29.19 -3.42,-29.39 -3.71,-29.70 -4.00,-30.01 -4.18,-30.40 -4.36,-30.78 -4.41,-31.20 -4.45,-31.63 -4.36,-32.04 -4.27,-32.46 -4.05,-32.82 -3.83,-33.19 -3.51,-33.46 -3.18,-33.73 -2.79,-33.89 -2.39,-34.05 -1.97,-34.07 -1.54,-34.09 -1.13,-33.98 -0.72,-33.87 -0.37,-33.63 -0.02,-33.39 0.23,-33.05 0.48,-32.71 0.62,-32.31 0.75,-31.91 0.75,-31.91 0.75,-31.91 2.98,-29.76 5.22,-27.62 5.60,-25.13 5.98,-22.64 6.31,-19.03 6.64,-15.42 6.59,-11.03 6.54,-6.63 5.41,-3.23 4.27,0.17 4.19,0.68 4.10,1.19 3.90,1.67 3.70,2.14 3.39,2.55 3.08,2.96 2.68,3.29 2.28,3.62 1.81,3.84 1.34,4.06 0.84,4.16 0.33,4.26 -0.17,4.24 -0.69,4.22 -1.18,4.07 -1.68,3.93 -2.12,3.67 -2.57,3.41 -2.94,3.06 -3.31,2.70 -3.59,2.26 -3.86,1.82 -4.03,1.33 -4.19,0.85 -4.23,0.33 -4.27,-0.17 -4.27,-0.17 L -4.27,-0.17 Z"></path></g><g transform="translate(520.2546155624304 81.17456355632237) rotate(0 -15.75 15.75)" stroke="none"><path fill="#1e1e1e" d="M -0.19,3.52 Q -0.19,3.52 -2.84,4.43 -5.48,5.33 -7.61,5.51 -9.75,5.68 -11.90,6.15 -14.06,6.63 -16.57,7.90 -19.07,9.18 -20.63,10.95 -22.18,12.72 -23.10,14.72 -24.02,16.72 -24.35,18.92 -24.69,21.12 -23.62,23.13 -22.56,25.15 -20.25,26.84 -17.93,28.52 -17.55,28.70 -17.16,28.87 -16.85,29.16 -16.54,29.45 -16.33,29.83 -16.13,30.20 -16.06,30.62 -15.99,31.04 -16.05,31.46 -16.12,31.88 -16.31,32.25 -16.51,32.63 -16.81,32.93 -17.12,33.22 -17.50,33.40 -17.89,33.59 -18.31,33.64 -18.73,33.69 -19.15,33.60 -19.56,33.51 -19.93,33.30 -20.29,33.08 -20.57,32.76 -20.85,32.44 -21.01,32.04 -21.17,31.65 -21.20,31.23 -21.23,30.80 -21.12,30.39 -21.01,29.98 -20.77,29.63 -20.54,29.27 -20.20,29.01 -19.87,28.75 -19.46,28.61 -19.06,28.47 -18.64,28.47 -18.21,28.47 -17.81,28.60 -17.40,28.73 -17.06,28.98 -16.72,29.24 -16.48,29.59 -16.24,29.94 -16.12,30.35 -16.00,30.75 -16.02,31.18 -16.04,31.60 -16.20,32.00 -16.35,32.40 -16.62,32.72 -16.89,33.05 -17.26,33.27 -17.62,33.49 -18.03,33.59 -18.45,33.68 -18.87,33.64 -19.29,33.60 -19.29,33.60 -19.29,33.60 -24.32,33.32 -29.35,33.05 -32.40,29.86 -35.46,26.67 -35.97,22.79 -36.48,18.92 -35.59,15.06 -34.69,11.21 -32.71,7.75 -30.73,4.29 -27.51,1.35 -24.28,-1.59 -20.26,-3.30 -16.25,-5.00 -13.21,-5.47 -10.17,-5.93 -7.51,-5.92 -4.86,-5.91 -2.33,-4.71 0.19,-3.52 0.61,-3.45 1.03,-3.37 1.42,-3.20 1.81,-3.02 2.14,-2.76 2.48,-2.50 2.74,-2.17 3.01,-1.84 3.18,-1.45 3.36,-1.06 3.44,-0.64 3.52,-0.23 3.49,0.19 3.47,0.61 3.35,1.02 3.22,1.43 3.00,1.79 2.78,2.16 2.48,2.46 2.19,2.76 1.82,2.99 1.46,3.21 1.05,3.34 0.65,3.46 0.22,3.49 -0.19,3.52 -0.19,3.52 L -0.19,3.52 Z"></path></g><g transform="translate(536.2546155624304 120.67456355632237) rotate(0 -1.75 -15.5)" stroke="none"><path fill="#1e1e1e" d="M -3.87,0.55 Q -3.87,0.55 -5.10,-2.35 -6.33,-5.25 -6.85,-8.38 -7.37,-11.50 -7.73,-14.98 -8.08,-18.47 -8.09,-21.52 -8.10,-24.57 -7.07,-27.15 -6.04,-29.73 -6.00,-30.16 -5.96,-30.58 -5.79,-30.97 -5.62,-31.36 -5.33,-31.67 -5.04,-31.98 -4.67,-32.19 -4.30,-32.40 -3.88,-32.47 -3.46,-32.55 -3.04,-32.49 -2.62,-32.43 -2.24,-32.23 -1.87,-32.04 -1.57,-31.74 -1.27,-31.43 -1.08,-31.05 -0.90,-30.67 -0.85,-30.25 -0.79,-29.83 -0.88,-29.41 -0.96,-28.99 -1.17,-28.62 -1.39,-28.26 -1.70,-27.98 -2.02,-27.70 -2.42,-27.53 -2.81,-27.37 -3.23,-27.34 -3.66,-27.31 -4.07,-27.41 -4.48,-27.52 -4.83,-27.75 -5.19,-27.98 -5.45,-28.32 -5.72,-28.65 -5.86,-29.05 -6.00,-29.45 -6.01,-29.88 -6.02,-30.30 -5.89,-30.71 -5.76,-31.11 -5.51,-31.45 -5.26,-31.80 -4.91,-32.04 -4.56,-32.29 -4.15,-32.41 -3.75,-32.53 -3.32,-32.51 -2.90,-32.50 -2.50,-32.35 -2.10,-32.20 -1.77,-31.93 -1.45,-31.66 -1.22,-31.30 -0.99,-30.94 -0.90,-30.52 -0.80,-30.11 -0.80,-30.11 -0.80,-30.11 0.57,-27.82 1.96,-25.54 2.53,-22.58 3.10,-19.61 3.43,-16.39 3.76,-13.17 4.18,-9.99 4.61,-6.81 4.24,-3.68 3.87,-0.55 3.88,-0.08 3.89,0.38 3.78,0.84 3.68,1.30 3.47,1.73 3.26,2.15 2.95,2.51 2.65,2.87 2.27,3.14 1.88,3.42 1.45,3.59 1.01,3.77 0.54,3.84 0.08,3.90 -0.38,3.86 -0.85,3.81 -1.29,3.65 -1.74,3.49 -2.13,3.23 -2.53,2.98 -2.85,2.63 -3.17,2.28 -3.39,1.87 -3.62,1.46 -3.74,1.00 -3.87,0.55 -3.87,0.55 L -3.87,0.55 Z"></path></g><g transform="translate(533.2546155624304 94.17456355632237) rotate(0 9 4.75)" stroke="none"><path fill="#1e1e1e" d="M 4.03,-0.84 Q 4.03,-0.84 5.12,1.68 6.20,4.22 8.39,3.87 10.58,3.51 14.09,5.15 17.61,6.79 18.01,6.91 18.42,7.04 18.76,7.29 19.11,7.54 19.35,7.89 19.60,8.23 19.72,8.64 19.84,9.05 19.83,9.47 19.82,9.90 19.67,10.29 19.52,10.69 19.25,11.02 18.98,11.35 18.62,11.58 18.26,11.81 17.85,11.91 17.44,12.01 17.01,11.97 16.59,11.93 16.20,11.76 15.81,11.59 15.50,11.31 15.18,11.02 14.98,10.65 14.77,10.28 14.69,9.86 14.61,9.44 14.67,9.02 14.73,8.60 14.92,8.22 15.11,7.84 15.42,7.54 15.72,7.25 16.10,7.06 16.48,6.87 16.90,6.82 17.32,6.76 17.74,6.84 18.16,6.93 18.53,7.14 18.90,7.35 19.18,7.67 19.46,7.99 19.63,8.38 19.79,8.77 19.82,9.19 19.86,9.62 19.75,10.03 19.65,10.44 19.41,10.80 19.18,11.15 18.85,11.42 18.52,11.68 18.12,11.83 17.72,11.97 17.29,11.98 16.87,11.99 16.87,11.99 16.87,11.99 13.32,13.01 9.76,14.04 7.53,13.96 5.30,13.89 2.29,12.71 -0.71,11.53 -2.30,9.11 -3.90,6.70 -3.97,3.77 -4.03,0.84 -4.07,0.35 -4.12,-0.14 -4.04,-0.63 -3.96,-1.12 -3.77,-1.58 -3.58,-2.04 -3.28,-2.43 -2.99,-2.83 -2.60,-3.15 -2.22,-3.47 -1.77,-3.68 -1.32,-3.90 -0.84,-4.00 -0.35,-4.10 0.14,-4.09 0.63,-4.07 1.11,-3.93 1.59,-3.80 2.02,-3.55 2.45,-3.31 2.81,-2.96 3.17,-2.62 3.44,-2.20 3.71,-1.79 3.87,-1.31 4.03,-0.84 4.03,-0.84 L 4.03,-0.84 Z"></path></g><g transform="translate(552.7546155624304 110.67456355632237) rotate(0 1.75 -13.25)" stroke="none"><path fill="#1e1e1e" d="M -3.83,-0.88 Q -3.83,-0.88 -3.85,-4.82 -3.87,-8.76 -3.44,-12.51 -3.02,-16.26 -2.78,-19.79 -2.55,-23.32 -1.07,-26.82 0.40,-30.32 0.46,-30.74 0.52,-31.16 0.71,-31.54 0.91,-31.92 1.21,-32.21 1.51,-32.51 1.89,-32.70 2.27,-32.88 2.70,-32.94 3.12,-32.99 3.53,-32.91 3.95,-32.83 4.32,-32.61 4.69,-32.40 4.97,-32.08 5.25,-31.77 5.42,-31.37 5.58,-30.98 5.61,-30.56 5.64,-30.14 5.54,-29.72 5.43,-29.31 5.20,-28.96 4.97,-28.60 4.64,-28.34 4.30,-28.07 3.90,-27.93 3.50,-27.78 3.08,-27.78 2.65,-27.77 2.25,-27.90 1.84,-28.02 1.50,-28.27 1.16,-28.52 0.91,-28.87 0.67,-29.22 0.54,-29.63 0.42,-30.03 0.44,-30.46 0.45,-30.88 0.60,-31.28 0.75,-31.68 1.02,-32.01 1.29,-32.34 1.65,-32.56 2.01,-32.79 2.42,-32.89 2.83,-32.99 3.26,-32.95 3.68,-32.91 4.07,-32.74 4.46,-32.57 4.77,-32.28 5.09,-32.00 5.29,-31.63 5.50,-31.26 5.58,-30.84 5.65,-30.42 5.65,-30.42 5.65,-30.42 7.28,-26.54 8.91,-22.65 8.71,-18.73 8.51,-14.81 7.91,-10.49 7.32,-6.18 5.57,-2.65 3.83,0.88 3.66,1.32 3.50,1.77 3.24,2.16 2.98,2.56 2.63,2.88 2.28,3.20 1.86,3.42 1.44,3.65 0.98,3.77 0.53,3.89 0.05,3.90 -0.41,3.90 -0.87,3.80 -1.33,3.69 -1.76,3.48 -2.18,3.26 -2.54,2.95 -2.90,2.64 -3.17,2.26 -3.45,1.87 -3.62,1.43 -3.80,0.99 -3.86,0.52 -3.93,0.05 -3.88,-0.41 -3.83,-0.88 -3.83,-0.88 L -3.83,-0.88 Z"></path></g><g transform="translate(573.7546155624304 105.67456355632237) rotate(0 7 3)" stroke="none"><path fill="#1e1e1e" d="M -3.82,0.67 Q -3.82,0.67 -4.88,-1.80 -5.93,-4.29 -5.11,-7.62 -4.30,-10.95 -2.23,-13.09 -0.16,-15.22 2.82,-15.79 5.82,-16.36 8.46,-15.08 11.09,-13.80 12.67,-11.11 14.25,-8.42 14.38,-4.85 14.51,-1.28 13.69,1.29 12.88,3.88 11.25,5.86 9.61,7.84 7.60,8.75 5.59,9.65 4.95,9.79 4.31,9.93 3.66,9.91 3.01,9.89 2.38,9.71 1.75,9.54 1.18,9.22 0.61,8.90 0.13,8.45 -0.34,8.00 -0.69,7.45 -1.05,6.90 -1.26,6.29 -1.48,5.67 -1.54,5.02 -1.60,4.37 -1.50,3.72 -1.40,3.07 -1.15,2.47 -0.90,1.86 -0.52,1.34 -0.13,0.81 0.36,0.39 0.86,-0.02 1.45,-0.31 2.04,-0.59 5.38,-0.21 8.72,0.17 13.25,2.52 17.78,4.87 19.53,7.32 21.27,9.76 20.98,13.48 20.69,17.20 17.82,19.78 14.94,22.36 11.97,23.17 8.99,23.97 6.18,24.02 3.36,24.08 0.27,21.70 -2.82,19.32 -3.21,19.17 -3.61,19.01 -3.94,18.74 -4.26,18.47 -4.48,18.11 -4.71,17.75 -4.80,17.33 -4.90,16.92 -4.86,16.50 -4.81,16.07 -4.64,15.69 -4.47,15.30 -4.18,14.99 -3.89,14.68 -3.51,14.47 -3.14,14.27 -2.72,14.20 -2.30,14.12 -1.88,14.19 -1.46,14.25 -1.09,14.45 -0.71,14.64 -0.41,14.95 -0.12,15.26 0.05,15.64 0.24,16.02 0.29,16.44 0.34,16.87 0.25,17.28 0.16,17.70 -0.04,18.06 -0.26,18.43 -0.58,18.71 -0.90,18.99 -1.29,19.15 -1.69,19.31 -2.11,19.34 -2.54,19.36 -2.95,19.25 -3.36,19.14 -3.71,18.91 -4.06,18.67 -4.32,18.34 -4.59,18.00 -4.72,17.60 -4.86,17.20 -4.87,16.78 -4.87,16.35 -4.74,15.95 -4.61,15.54 -4.36,15.20 -4.10,14.86 -3.75,14.62 -3.40,14.38 -2.99,14.26 -2.59,14.14 -2.16,14.16 -1.74,14.18 -1.74,14.18 -1.74,14.18 2.26,12.90 6.27,11.62 8.49,12.80 10.72,13.99 8.16,11.82 5.59,9.65 4.95,9.79 4.31,9.93 3.66,9.91 3.01,9.89 2.38,9.71 1.75,9.54 1.18,9.22 0.61,8.90 0.13,8.45 -0.34,8.00 -0.69,7.45 -1.05,6.91 -1.26,6.29 -1.48,5.67 -1.54,5.02 -1.60,4.37 -1.50,3.72 -1.40,3.07 -1.15,2.47 -0.90,1.86 -0.52,1.34 -0.13,0.81 0.36,0.39 0.86,-0.02 1.45,-0.31 2.04,-0.59 2.49,-0.32 2.94,-0.04 3.57,-2.76 4.20,-5.48 4.01,-3.07 3.82,-0.67 3.85,-0.20 3.88,0.26 3.79,0.72 3.70,1.18 3.51,1.60 3.31,2.03 3.02,2.40 2.73,2.76 2.36,3.05 1.98,3.34 1.56,3.53 1.13,3.72 0.67,3.80 0.20,3.88 -0.25,3.85 -0.72,3.82 -1.17,3.67 -1.61,3.53 -2.01,3.29 -2.41,3.04 -2.74,2.71 -3.07,2.37 -3.31,1.97 -3.55,1.57 -3.69,1.12 -3.82,0.67 -3.82,0.67 L -3.82,0.67 Z"></path></g><g transform="translate(475.25461556243044 332.67456355632237) rotate(0 -7.5 23.75)" stroke="none"><path fill="#1e1e1e" d="M 0,3.64 Q 0,3.64 -2.66,4.60 -5.33,5.56 -7.95,7.61 -10.56,9.65 -12.17,12.61 -13.78,15.56 -14.72,18.89 -15.65,22.23 -15.62,25.29 -15.59,28.36 -14.74,31.02 -13.89,33.68 -12.36,35.72 -10.82,37.76 -7.97,39.26 -5.11,40.76 -2.14,41.51 0.82,42.26 3.78,43.99 6.73,45.72 7.14,45.83 7.55,45.94 7.91,46.18 8.26,46.42 8.52,46.76 8.77,47.10 8.91,47.50 9.05,47.90 9.05,48.33 9.05,48.75 8.91,49.15 8.78,49.56 8.52,49.90 8.26,50.23 7.91,50.47 7.56,50.71 7.15,50.83 6.74,50.94 6.32,50.92 5.89,50.90 5.50,50.74 5.10,50.58 4.78,50.31 4.46,50.03 4.24,49.67 4.02,49.31 3.92,48.89 3.83,48.48 3.88,48.05 3.92,47.63 4.10,47.24 4.28,46.86 4.57,46.55 4.86,46.24 5.24,46.04 5.61,45.84 6.03,45.77 6.45,45.70 6.87,45.77 7.29,45.84 7.67,46.04 8.04,46.24 8.33,46.54 8.63,46.85 8.81,47.24 8.98,47.62 9.03,48.05 9.08,48.47 8.99,48.88 8.90,49.30 8.68,49.66 8.46,50.03 8.14,50.30 7.81,50.58 7.42,50.74 7.02,50.89 6.60,50.92 6.17,50.94 6.17,50.94 6.18,50.94 2.15,51.92 -1.87,52.90 -6.38,51.74 -10.88,50.58 -15.47,47.58 -20.06,44.58 -22.51,40.76 -24.96,36.94 -26.05,32.59 -27.14,28.24 -26.93,23.60 -26.72,18.96 -25.21,14.31 -23.70,9.67 -20.92,5.33 -18.13,1.00 -15.15,-1.27 -12.17,-3.56 -8.88,-4.56 -5.58,-5.56 -2.79,-4.60 0,-3.64 0.43,-3.59 0.87,-3.53 1.28,-3.38 1.69,-3.22 2.05,-2.97 2.41,-2.72 2.70,-2.39 2.99,-2.06 3.20,-1.68 3.40,-1.29 3.51,-0.86 3.61,-0.43 3.61,0.00 3.61,0.43 3.51,0.86 3.40,1.29 3.20,1.68 2.99,2.07 2.70,2.39 2.41,2.72 2.05,2.97 1.69,3.22 1.28,3.38 0.87,3.53 0.43,3.59 -0.00,3.64 -0.00,3.64 L 0,3.64 Z"></path></g><g transform="translate(511.25461556243044 383.67456355632237) rotate(0 -5.5 -21)" stroke="none"><path fill="#1e1e1e" d="M -3.69,1.47 Q -3.69,1.47 -5.45,-1.15 -7.22,-3.78 -8.43,-7.50 -9.64,-11.21 -10.60,-15.51 -11.56,-19.80 -12.33,-24.04 -13.11,-28.29 -13.47,-31.92 -13.84,-35.55 -13.40,-37.31 -12.97,-39.06 -13.00,-39.49 -13.04,-39.91 -12.94,-40.32 -12.83,-40.74 -12.61,-41.09 -12.38,-41.45 -12.05,-41.72 -11.72,-41.99 -11.32,-42.14 -10.92,-42.28 -10.50,-42.30 -10.07,-42.31 -9.66,-42.18 -9.26,-42.06 -8.91,-41.81 -8.57,-41.57 -8.32,-41.22 -8.07,-40.88 -7.94,-40.47 -7.82,-40.07 -7.83,-39.64 -7.84,-39.22 -7.98,-38.82 -8.13,-38.42 -8.39,-38.09 -8.66,-37.75 -9.02,-37.52 -9.37,-37.29 -9.79,-37.19 -10.20,-37.09 -10.62,-37.12 -11.05,-37.15 -11.44,-37.32 -11.83,-37.49 -12.14,-37.77 -12.46,-38.05 -12.67,-38.42 -12.88,-38.79 -12.96,-39.21 -13.04,-39.63 -12.99,-40.05 -12.93,-40.47 -12.74,-40.85 -12.56,-41.23 -12.26,-41.53 -11.96,-41.83 -11.58,-42.02 -11.20,-42.21 -10.78,-42.27 -10.35,-42.33 -9.94,-42.25 -9.52,-42.17 -9.15,-41.96 -8.78,-41.76 -8.49,-41.44 -8.21,-41.13 -8.04,-40.74 -7.87,-40.35 -7.87,-40.35 -7.87,-40.35 -6.65,-39.01 -5.44,-37.66 -3.97,-34.00 -2.50,-30.34 -1.66,-26.23 -0.82,-22.12 -0.01,-18.24 0.79,-14.36 1.70,-11.04 2.62,-7.71 3.15,-4.59 3.69,-1.47 3.81,-1.01 3.94,-0.55 3.94,-0.07 3.95,0.40 3.85,0.87 3.74,1.34 3.53,1.77 3.31,2.20 3.00,2.56 2.69,2.93 2.30,3.21 1.91,3.48 1.46,3.66 1.02,3.84 0.54,3.91 0.07,3.97 -0.40,3.92 -0.88,3.88 -1.33,3.71 -1.78,3.55 -2.18,3.29 -2.58,3.02 -2.90,2.67 -3.23,2.31 -3.46,1.89 -3.69,1.47 -3.69,1.47 L -3.69,1.47 Z"></path></g><g transform="translate(502.25461556243044 366.67456355632237) rotate(0 8.5 -3.75)" stroke="none"><path fill="#1e1e1e" d="M -1.38,-3.68 Q -1.38,-3.68 0.62,-5.31 2.63,-6.95 6.43,-8.85 10.23,-10.76 12.68,-10.64 15.13,-10.52 15.53,-10.63 15.94,-10.75 16.37,-10.73 16.79,-10.71 17.19,-10.56 17.58,-10.40 17.91,-10.13 18.23,-9.85 18.46,-9.49 18.68,-9.13 18.77,-8.71 18.87,-8.30 18.82,-7.88 18.78,-7.46 18.60,-7.07 18.43,-6.68 18.14,-6.37 17.85,-6.06 17.47,-5.86 17.10,-5.66 16.68,-5.59 16.26,-5.51 15.84,-5.58 15.42,-5.65 15.04,-5.84 14.67,-6.04 14.37,-6.35 14.08,-6.65 13.90,-7.04 13.72,-7.42 13.67,-7.85 13.62,-8.27 13.71,-8.68 13.80,-9.10 14.01,-9.46 14.23,-9.83 14.55,-10.11 14.88,-10.38 15.27,-10.54 15.66,-10.70 16.09,-10.73 16.51,-10.75 16.92,-10.64 17.33,-10.53 17.69,-10.30 18.04,-10.06 18.30,-9.72 18.56,-9.39 18.69,-8.98 18.83,-8.58 18.84,-8.16 18.84,-7.73 18.71,-7.33 18.57,-6.93 18.32,-6.59 18.06,-6.25 17.71,-6.01 17.36,-5.76 17.36,-5.76 17.36,-5.76 16.40,-4.04 15.45,-2.32 13.35,-0.65 11.25,1.02 8.91,2.26 6.56,3.50 3.97,3.59 1.38,3.68 0.91,3.79 0.45,3.90 -0.01,3.90 -0.48,3.90 -0.94,3.78 -1.40,3.67 -1.82,3.44 -2.24,3.22 -2.59,2.91 -2.95,2.59 -3.21,2.20 -3.48,1.81 -3.65,1.36 -3.82,0.92 -3.87,0.45 -3.93,-0.01 -3.87,-0.48 -3.81,-0.95 -3.64,-1.39 -3.47,-1.83 -3.20,-2.22 -2.93,-2.61 -2.57,-2.93 -2.22,-3.24 -1.80,-3.46 -1.37,-3.68 -1.38,-3.68 L -1.38,-3.68 Z"></path></g><g transform="translate(529.2546155624304 378.17456355632237) rotate(0 -4.5 -19.75)" stroke="none"><path fill="#1e1e1e" d="M -4.23,1.22 Q -4.23,1.22 -7.58,-7.46 -10.93,-16.15 -11.77,-22.13 -12.60,-28.12 -11.95,-32.67 -11.30,-37.22 -11.29,-37.64 -11.29,-38.07 -11.15,-38.47 -11.01,-38.87 -10.75,-39.21 -10.49,-39.54 -10.14,-39.78 -9.79,-40.01 -9.38,-40.13 -8.97,-40.24 -8.54,-40.21 -8.12,-40.18 -7.73,-40.02 -7.33,-39.86 -7.01,-39.59 -6.69,-39.31 -6.47,-38.94 -6.25,-38.58 -6.17,-38.16 -6.08,-37.75 -6.13,-37.33 -6.18,-36.90 -6.36,-36.52 -6.54,-36.13 -6.83,-35.83 -7.13,-35.52 -7.50,-35.32 -7.88,-35.13 -8.30,-35.06 -8.72,-35.00 -9.14,-35.07 -9.56,-35.14 -9.93,-35.34 -10.31,-35.54 -10.60,-35.85 -10.89,-36.16 -11.06,-36.55 -11.24,-36.94 -11.28,-37.36 -11.32,-37.78 -11.23,-38.20 -11.13,-38.61 -10.91,-38.98 -10.69,-39.34 -10.37,-39.61 -10.04,-39.88 -9.64,-40.04 -9.25,-40.19 -8.82,-40.21 -8.40,-40.23 -7.99,-40.12 -7.58,-40.00 -7.23,-39.76 -6.88,-39.52 -6.63,-39.18 -6.37,-38.84 -6.24,-38.43 -6.11,-38.03 -6.11,-38.03 -6.11,-38.03 -4.12,-34.09 -2.14,-30.15 -0.77,-24.82 0.58,-19.49 2.41,-10.36 4.23,-1.22 4.31,-0.70 4.40,-0.18 4.36,0.34 4.31,0.87 4.15,1.38 3.98,1.88 3.69,2.33 3.41,2.78 3.03,3.15 2.65,3.52 2.19,3.78 1.73,4.05 1.21,4.20 0.70,4.35 0.17,4.37 -0.35,4.39 -0.87,4.28 -1.39,4.18 -1.87,3.95 -2.35,3.72 -2.76,3.39 -3.17,3.05 -3.49,2.63 -3.81,2.20 -4.02,1.71 -4.23,1.22 -4.23,1.22 L -4.23,1.22 Z"></path></g><g transform="translate(540.7546155624304 362.17456355632237) rotate(0 9.5 10.25)" stroke="none"><path fill="#1e1e1e" d="M -3.16,1.90 Q -3.16,1.90 -4.89,0.35 -6.62,-1.18 -5.65,-4.64 -4.69,-8.10 -2.31,-9.50 0.05,-10.90 2.72,-10.87 5.39,-10.84 7.96,-10.01 10.53,-9.17 12.82,-7.27 15.11,-5.37 16.55,-2.70 17.99,-0.02 18.45,2.95 18.91,5.93 18.39,8.98 17.87,12.04 15.77,11.36 13.68,10.67 17.07,11.26 20.47,11.85 23.84,15.51 27.21,19.18 26.58,22.43 25.96,25.68 22.85,28.06 19.73,30.44 16.54,31.01 13.35,31.57 9.53,28.99 5.71,26.40 5.32,26.23 4.93,26.05 4.62,25.77 4.31,25.48 4.11,25.10 3.90,24.73 3.83,24.31 3.76,23.89 3.82,23.47 3.89,23.05 4.08,22.67 4.28,22.30 4.58,22.00 4.89,21.71 5.27,21.52 5.65,21.34 6.08,21.29 6.50,21.24 6.91,21.33 7.33,21.41 7.70,21.63 8.06,21.85 8.34,22.17 8.62,22.49 8.78,22.88 8.94,23.27 8.97,23.70 9.00,24.12 8.89,24.53 8.78,24.94 8.54,25.30 8.31,25.65 7.97,25.91 7.64,26.17 7.24,26.31 6.83,26.45 6.41,26.46 5.98,26.46 5.58,26.33 5.18,26.20 4.84,25.94 4.49,25.69 4.25,25.34 4.01,24.99 3.89,24.58 3.77,24.18 3.79,23.75 3.81,23.33 3.97,22.93 4.12,22.53 4.39,22.21 4.66,21.88 5.02,21.66 5.39,21.43 5.80,21.34 6.21,21.24 6.64,21.29 7.06,21.33 7.06,21.33 7.06,21.33 10.66,21.63 14.26,21.93 11.38,20.56 8.51,19.19 7.13,15.37 5.76,11.56 6.60,9.24 7.44,6.93 7.22,4.77 6.99,2.61 4.92,1.32 2.85,0.03 3.01,-2.26 3.17,-4.56 3.17,-3.23 3.16,-1.90 3.34,-1.49 3.52,-1.08 3.60,-0.64 3.68,-0.21 3.65,0.23 3.63,0.67 3.49,1.10 3.36,1.52 3.13,1.90 2.89,2.28 2.58,2.60 2.26,2.91 1.88,3.14 1.50,3.37 1.07,3.50 0.65,3.63 0.20,3.66 -0.23,3.68 -0.67,3.60 -1.11,3.52 -1.51,3.33 -1.92,3.15 -2.27,2.87 -2.62,2.60 -2.89,2.25 -3.16,1.89 -3.16,1.89 L -3.16,1.90 Z"></path></g><g transform="translate(962.7546155624304 356.17456355632237) rotate(0 -1.25 -20.5)" stroke="none"><path fill="#1e1e1e" d="M -3.99,0.63 Q -3.99,0.63 -5.19,-1.98 -6.38,-4.59 -6.78,-8.21 -7.19,-11.84 -7.35,-16.22 -7.51,-20.59 -7.42,-25.38 -7.34,-30.18 -6.20,-34.59 -5.07,-39.01 -5.01,-39.43 -4.95,-39.85 -4.76,-40.23 -4.58,-40.61 -4.28,-40.91 -3.98,-41.21 -3.60,-41.40 -3.21,-41.59 -2.79,-41.65 -2.37,-41.71 -1.96,-41.63 -1.54,-41.55 -1.17,-41.34 -0.80,-41.13 -0.51,-40.81 -0.23,-40.50 -0.06,-40.11 0.10,-39.72 0.13,-39.29 0.17,-38.87 0.07,-38.46 -0.03,-38.04 -0.26,-37.69 -0.48,-37.33 -0.81,-37.06 -1.15,-36.79 -1.54,-36.65 -1.94,-36.50 -2.37,-36.49 -2.79,-36.48 -3.20,-36.60 -3.61,-36.73 -3.95,-36.97 -4.30,-37.22 -4.54,-37.57 -4.79,-37.91 -4.92,-38.32 -5.04,-38.72 -5.03,-39.15 -5.02,-39.57 -4.87,-39.97 -4.73,-40.37 -4.46,-40.70 -4.20,-41.03 -3.84,-41.26 -3.48,-41.49 -3.07,-41.59 -2.66,-41.70 -2.23,-41.66 -1.81,-41.63 -1.42,-41.46 -1.03,-41.29 -0.71,-41.01 -0.40,-40.73 -0.19,-40.36 0.01,-39.99 0.09,-39.57 0.17,-39.15 0.17,-39.15 0.17,-39.15 1.55,-34.88 2.94,-30.61 3.43,-25.79 3.92,-20.97 4.04,-16.94 4.16,-12.92 4.40,-9.62 4.65,-6.33 4.32,-3.48 3.99,-0.63 4.01,-0.14 4.03,0.34 3.93,0.82 3.83,1.29 3.62,1.73 3.41,2.17 3.10,2.55 2.79,2.93 2.39,3.22 2.00,3.51 1.55,3.70 1.10,3.89 0.62,3.96 0.14,4.04 -0.34,4.00 -0.82,3.96 -1.29,3.80 -1.75,3.64 -2.16,3.38 -2.57,3.12 -2.91,2.77 -3.24,2.41 -3.48,1.99 -3.73,1.56 -3.86,1.10 -3.99,0.63 -3.99,0.63 L -3.99,0.63 Z"></path></g><g transform="translate(958.2546155624304 336.17456355632237) rotate(0 13.25 1.75)" stroke="none"><path fill="#1e1e1e" d="M 1.54,-3.34 Q 1.54,-3.34 3.70,-3.30 5.86,-3.26 8.69,-3.74 11.52,-4.22 15.80,-4.93 20.09,-5.64 22.70,-4.10 25.32,-2.57 25.74,-2.52 26.16,-2.47 26.55,-2.29 26.93,-2.11 27.23,-1.81 27.54,-1.51 27.73,-1.14 27.93,-0.76 27.99,-0.34 28.05,0.07 27.98,0.49 27.91,0.91 27.70,1.28 27.50,1.65 27.19,1.94 26.88,2.23 26.49,2.41 26.10,2.58 25.68,2.62 25.25,2.66 24.84,2.56 24.43,2.47 24.07,2.24 23.70,2.02 23.43,1.69 23.16,1.37 23.01,0.97 22.86,0.57 22.84,0.15 22.82,-0.27 22.94,-0.67 23.06,-1.08 23.30,-1.43 23.54,-1.78 23.89,-2.03 24.23,-2.29 24.63,-2.42 25.04,-2.55 25.46,-2.54 25.89,-2.54 26.29,-2.40 26.69,-2.26 27.02,-1.99 27.36,-1.73 27.59,-1.38 27.83,-1.02 27.93,-0.61 28.04,-0.20 28.01,0.21 27.99,0.64 27.82,1.03 27.66,1.42 27.38,1.74 27.10,2.06 26.74,2.28 26.37,2.49 25.95,2.58 25.54,2.66 25.54,2.66 25.54,2.66 21.59,4.40 17.63,6.14 15.20,6.56 12.78,6.98 10.09,7.21 7.40,7.44 4.50,7.07 1.60,6.71 0.03,5.02 -1.54,3.34 -1.91,3.10 -2.29,2.87 -2.60,2.55 -2.91,2.24 -3.14,1.85 -3.36,1.47 -3.49,1.05 -3.62,0.62 -3.64,0.18 -3.66,-0.25 -3.58,-0.69 -3.50,-1.12 -3.31,-1.53 -3.13,-1.93 -2.85,-2.27 -2.57,-2.62 -2.22,-2.89 -1.87,-3.16 -1.46,-3.34 -1.06,-3.52 -0.62,-3.59 -0.18,-3.67 0.25,-3.64 0.69,-3.61 1.11,-3.47 1.54,-3.34 1.54,-3.34 L 1.54,-3.34 Z"></path></g><g transform="translate(987.2546155624304 359.17456355632237) rotate(0 -1.75 -23.75)" stroke="none"><path fill="#1e1e1e" d="M -3.89,0.59 Q -3.89,0.59 -5.70,-4.86 -7.51,-10.32 -8.07,-15.58 -8.63,-20.85 -8.82,-25.77 -9.01,-30.69 -8.79,-34.80 -8.58,-38.91 -7.13,-42.49 -5.68,-46.08 -5.60,-46.49 -5.51,-46.91 -5.30,-47.28 -5.08,-47.64 -4.76,-47.92 -4.44,-48.20 -4.05,-48.36 -3.65,-48.52 -3.23,-48.55 -2.81,-48.58 -2.40,-48.47 -1.98,-48.36 -1.63,-48.13 -1.28,-47.89 -1.01,-47.56 -0.75,-47.22 -0.61,-46.82 -0.47,-46.42 -0.47,-45.99 -0.46,-45.57 -0.60,-45.17 -0.73,-44.76 -0.98,-44.42 -1.23,-44.08 -1.58,-43.84 -1.93,-43.59 -2.34,-43.48 -2.75,-43.36 -3.17,-43.38 -3.60,-43.39 -3.99,-43.55 -4.39,-43.70 -4.72,-43.97 -5.04,-44.24 -5.27,-44.61 -5.49,-44.97 -5.59,-45.38 -5.68,-45.79 -5.64,-46.22 -5.60,-46.64 -5.43,-47.03 -5.25,-47.42 -4.96,-47.73 -4.67,-48.04 -4.30,-48.24 -3.93,-48.45 -3.51,-48.52 -3.09,-48.59 -2.67,-48.53 -2.25,-48.46 -1.87,-48.27 -1.49,-48.07 -1.20,-47.77 -0.90,-47.46 -0.72,-47.08 -0.54,-46.70 -0.49,-46.27 -0.44,-45.85 -0.44,-45.85 -0.44,-45.85 0.70,-42.50 1.85,-39.15 2.25,-35.19 2.65,-31.22 2.89,-26.62 3.14,-22.02 3.60,-17.06 4.06,-12.10 3.97,-6.35 3.89,-0.59 3.90,-0.12 3.92,0.35 3.82,0.81 3.72,1.27 3.51,1.70 3.31,2.13 3.00,2.49 2.70,2.86 2.32,3.14 1.93,3.42 1.50,3.60 1.06,3.79 0.59,3.86 0.12,3.93 -0.34,3.89 -0.82,3.85 -1.26,3.69 -1.71,3.54 -2.11,3.28 -2.51,3.02 -2.84,2.68 -3.16,2.33 -3.40,1.92 -3.63,1.51 -3.76,1.05 -3.89,0.59 -3.89,0.59 L -3.89,0.59 Z"></path></g><g transform="translate(1007.2546155624304 346.67456355632237) rotate(0 10.75 14.5)" stroke="none"><path fill="#1e1e1e" d="M 0,3.95 Q 0,3.95 -2.90,3.75 -5.80,3.55 -7.09,0.95 -8.39,-1.64 -7.64,-4.03 -6.89,-6.42 -4.73,-8.03 -2.58,-9.64 1.16,-10.23 4.92,-10.82 8.17,-10.04 11.43,-9.27 14.15,-7.22 16.87,-5.18 18.43,-2.12 20.00,0.92 20.23,4.35 20.47,7.77 19.05,11.16 17.63,14.55 16.02,16.30 14.42,18.05 13.75,18.31 13.09,18.56 12.55,18.99 12.01,19.41 11.39,19.69 10.76,19.97 10.09,20.09 9.42,20.21 8.74,20.17 8.05,20.13 7.40,19.93 6.75,19.72 6.16,19.37 5.58,19.01 5.09,18.53 4.61,18.05 4.26,17.46 3.90,16.87 3.70,16.22 3.50,15.57 3.46,14.88 3.42,14.20 3.54,13.53 3.66,12.86 3.94,12.23 4.23,11.61 4.65,11.07 5.07,10.53 7.07,9.55 9.06,8.56 11.86,8.56 14.65,8.57 17.55,9.51 20.44,10.46 23.24,12.58 26.04,14.70 27.94,17.59 29.83,20.48 30.45,24.41 31.06,28.34 29.10,32.10 27.15,35.87 23.75,37.64 20.35,39.42 15.92,38.99 11.49,38.55 8.54,35.98 5.59,33.42 5.21,33.23 4.83,33.04 4.52,32.74 4.22,32.45 4.03,32.07 3.84,31.69 3.78,31.27 3.72,30.85 3.80,30.43 3.87,30.01 4.08,29.64 4.29,29.27 4.60,28.98 4.92,28.70 5.30,28.53 5.69,28.35 6.12,28.32 6.54,28.28 6.95,28.38 7.37,28.48 7.73,28.71 8.09,28.93 8.35,29.26 8.62,29.59 8.77,29.99 8.92,30.39 8.93,30.81 8.95,31.24 8.83,31.64 8.70,32.05 8.46,32.40 8.21,32.75 7.87,33.00 7.53,33.25 7.12,33.37 6.72,33.50 6.29,33.49 5.87,33.48 5.47,33.34 5.07,33.19 4.73,32.93 4.40,32.67 4.17,32.31 3.94,31.95 3.83,31.54 3.73,31.13 3.76,30.71 3.79,30.28 3.96,29.89 4.12,29.50 4.40,29.18 4.69,28.86 5.05,28.65 5.42,28.44 5.84,28.36 6.26,28.27 6.68,28.33 7.10,28.38 7.10,28.38 7.10,28.38 10.27,27.65 13.43,26.92 16.61,27.32 19.79,27.72 19.04,25.60 18.29,23.48 15.69,21.02 13.09,18.56 12.55,18.99 12.01,19.41 11.39,19.69 10.77,19.97 10.09,20.09 9.42,20.21 8.74,20.17 8.05,20.13 7.40,19.93 6.75,19.72 6.16,19.37 5.58,19.01 5.09,18.53 4.61,18.05 4.26,17.46 3.90,16.87 3.70,16.22 3.50,15.57 3.46,14.89 3.42,14.20 3.54,13.53 3.66,12.86 3.94,12.23 4.22,11.61 4.65,11.07 5.07,10.53 7.19,8.97 9.30,7.40 8.63,4.40 7.96,1.39 5.42,0.71 2.87,0.02 1.46,-1.76 0.05,-3.55 0.02,-3.75 0,-3.95 0.47,-3.90 0.94,-3.84 1.39,-3.67 1.83,-3.50 2.23,-3.23 2.62,-2.96 2.94,-2.60 3.25,-2.24 3.47,-1.82 3.70,-1.40 3.81,-0.94 3.92,-0.47 3.92,0.00 3.92,0.47 3.81,0.94 3.70,1.40 3.47,1.82 3.25,2.24 2.94,2.60 2.62,2.96 2.23,3.23 1.83,3.50 1.39,3.67 0.94,3.84 0.47,3.90 -0.00,3.95 -0.00,3.95 L 0,3.95 Z"></path></g><g stroke-linecap="round" transform="translate(10 10) rotate(0 779.7777835236734 253.29757995456302)"><path d="M32 0 C576.35 5.63, 1121.11 6.22, 1527.56 0 M32 0 C338.62 4.79, 645.48 4.68, 1527.56 0 M1527.56 0 C1546.93 1.67, 1558.93 8.72, 1559.56 32 M1527.56 0 C1549.32 1.79, 1559.85 11.58, 1559.56 32 M1559.56 32 C1559.26 164.48, 1557.72 297.88, 1559.56 474.6 M1559.56 32 C1559.09 131.9, 1559.64 232.61, 1559.56 474.6 M1559.56 474.6 C1559.89 496.57, 1548.76 504.82, 1527.56 506.6 M1559.56 474.6 C1557.8 494.65, 1548.66 505.45, 1527.56 506.6 M1527.56 506.6 C1087.7 504.23, 648.28 503.6, 32 506.6 M1527.56 506.6 C1156.18 510.06, 784.26 509.76, 32 506.6 M32 506.6 C12.58 508.54, 1.35 496.34, 0 474.6 M32 506.6 C10.94 507.74, -0.55 497.04, 0 474.6 M0 474.6 C-0.01 361, 0.04 244.92, 0 32 M0 474.6 C1.63 347.33, 1.92 219.58, 0 32 M0 32 C-0.69 12.27, 9.82 0.49, 32 0 M0 32 C1.66 10.66, 12.15 -0.66, 32 0" stroke="transparent" stroke-width="2" fill="none"></path></g></svg>