<svg version="1.1" xmlns="http://www.w3.org/2000/svg" viewBox="0 0 940.3973799126638 521.0404120443741" width="940.3973799126638" height="521.0404120443741" filter="invert(93%) hue-rotate(180deg)" class="excalidraw-svg">
  <!-- svg-source:excalidraw -->
  
  <defs>
    <style class="style-fonts">
      @font-face {
        font-family: "Virgil";
        src: url("https://excalidraw.com/Virgil.woff2");
      }
      @font-face {
        font-family: "Cascadia";
        src: url("https://excalidraw.com/Cascadia.woff2");
      }
      @font-face {
        font-family: "Assistant";
        src: url("https://excalidraw.com/Assistant-Regular.woff2");
      }
    </style>
    
  </defs>
  <g stroke-linecap="round"><g transform="translate(301.13118063655213 244.84594294544456) rotate(0 0.1165465993522048 22.872067921996262)"><path d="M0 0 C0.04 7.62, 0.19 38.12, 0.23 45.74 M0 0 C0.04 7.62, 0.19 38.12, 0.23 45.74" stroke="#ffffff" stroke-width="1" fill="none"></path></g></g><mask></mask><g stroke-linecap="round"><g transform="translate(509.4577673060603 349.21378346882534) rotate(0 27.467166356182815 -0.3414102936205836)"><path d="M0 0 C9.16 -0.11, 45.78 -0.57, 54.93 -0.68 M0 0 C9.16 -0.11, 45.78 -0.57, 54.93 -0.68" stroke="#ffffff" stroke-width="1" fill="none"></path></g></g><mask></mask><g stroke-linecap="round" transform="translate(291.71408212895165 227.0983085888239) rotate(0 8.9491037071312 9.338195172658686)"><path d="M11.25 2.5 C12.28 3.67, 13.31 4.84, 15.65 7.5 M11.25 2.5 C12.46 3.88, 13.67 5.26, 15.65 7.5 M15.65 7.5 C17.9 10, 17.9 10, 15.65 12.5 M15.65 7.5 C17.9 10, 17.9 10, 15.65 12.5 M15.65 12.5 C13.93 13.93, 12.22 15.37, 11.25 16.18 M15.65 12.5 C14.02 13.86, 12.39 15.22, 11.25 16.18 M11.25 16.18 C9 18.68, 9 18.68, 6.75 16.18 M11.25 16.18 C9 18.68, 9 18.68, 6.75 16.18 M6.75 16.18 C5.28 14.97, 3.8 13.77, 2.25 12.5 M6.75 16.18 C5.28 14.97, 3.8 13.77, 2.25 12.5 M2.25 12.5 C0 10, 0 10, 2.25 7.5 M2.25 12.5 C0 10, 0 10, 2.25 7.5 M2.25 7.5 C3.16 6.49, 4.06 5.49, 6.75 2.5 M2.25 7.5 C3.17 6.47, 4.1 5.45, 6.75 2.5 M6.75 2.5 C9 0, 9 0, 11.25 2.5 M6.75 2.5 C9 0, 9 0, 11.25 2.5" stroke="#ffffff" stroke-width="1" fill="none"></path></g><g stroke-linecap="round"><g transform="translate(762.215575645434 246.4355712427057) rotate(0 0.5868898098107707 26.39964200043559)"><path d="M0 0 C0.2 8.8, 0.98 44, 1.17 52.8 M0 0 C0.2 8.8, 0.98 44, 1.17 52.8" stroke="#ffffff" stroke-width="1" fill="none"></path></g></g><mask></mask><g stroke-linecap="round" transform="translate(753.6227558553132 227.8636581686053) rotate(0 8.9491037071312 9.338195172658686)"><path d="M7.77 1.46 C7.77 1.46, 7.77 1.46, 7.77 1.46 M7.77 1.46 C7.77 1.46, 7.77 1.46, 7.77 1.46" stroke="#ffffff" stroke-width="2" fill="none"></path><path d="M11.25 2.5 C12.34 3.74, 13.44 4.99, 15.65 7.5 M11.25 2.5 C12.58 4.01, 13.91 5.53, 15.65 7.5 M15.65 7.5 C17.9 10, 17.9 10, 15.65 12.5 M15.65 7.5 C17.9 10, 17.9 10, 15.65 12.5 M15.65 12.5 C14.6 13.37, 13.56 14.25, 11.25 16.18 M15.65 12.5 C14.39 13.55, 13.14 14.6, 11.25 16.18 M11.25 16.18 C9 18.68, 9 18.68, 6.75 16.18 M11.25 16.18 C9 18.68, 9 18.68, 6.75 16.18 M6.75 16.18 C5.67 15.3, 4.59 14.41, 2.25 12.5 M6.75 16.18 C5.34 15.03, 3.94 13.88, 2.25 12.5 M2.25 12.5 C0 10, 0 10, 2.25 7.5 M2.25 12.5 C0 10, 0 10, 2.25 7.5 M2.25 7.5 C3.32 6.31, 4.39 5.12, 6.75 2.5 M2.25 7.5 C3.22 6.42, 4.19 5.35, 6.75 2.5 M6.75 2.5 C9 0, 9 0, 11.25 2.5 M6.75 2.5 C9 0, 9 0, 11.25 2.5" stroke="#ffffff" stroke-width="4" fill="none"></path></g><g stroke-linecap="round" transform="translate(562.7533747319228 337.5109305357849) rotate(0 10.592275507646491 10.592275507646463)"><path d="M13.75 2.75 C14.8 3.98, 15.84 5.21, 18.43 8.25 M13.75 2.75 C15.37 4.65, 16.98 6.55, 18.43 8.25 M18.43 8.25 C21.18 11, 21.18 11, 18.43 13.75 M18.43 8.25 C21.18 11, 21.18 11, 18.43 13.75 M18.43 13.75 C17.07 15.12, 15.7 16.49, 13.75 18.43 M18.43 13.75 C16.86 15.33, 15.28 16.91, 13.75 18.43 M13.75 18.43 C11 21.18, 11 21.18, 8.25 18.43 M13.75 18.43 C11 21.18, 11 21.18, 8.25 18.43 M8.25 18.43 C6.88 17.27, 5.52 16.11, 2.75 13.75 M8.25 18.43 C7.02 17.39, 5.79 16.34, 2.75 13.75 M2.75 13.75 C0 11, 0 11, 2.75 8.25 M2.75 13.75 C0 11, 0 11, 2.75 8.25 M2.75 8.25 C4.37 6.63, 5.99 5.01, 8.25 2.75 M2.75 8.25 C4.1 6.9, 5.45 5.55, 8.25 2.75 M8.25 2.75 C11 0, 11 0, 13.75 2.75 M8.25 2.75 C11 0, 11 0, 13.75 2.75" stroke="#ffffff" stroke-width="1" fill="none"></path></g><g stroke-linecap="round" transform="translate(756.7535960503548 230.444421472364) rotate(0 5.982231876745914 6.526071138268264)"><path d="M5.42 0.73 C5.42 0.73, 5.42 0.73, 5.42 0.73 M5.42 0.73 C5.42 0.73, 5.42 0.73, 5.42 0.73" stroke="#ffffff" stroke-width="2" fill="none"></path><path d="M7.5 1.75 C8.14 2.51, 8.79 3.27, 10.46 5.25 M7.5 1.75 C8.28 2.67, 9.06 3.59, 10.46 5.25 M10.46 5.25 C11.96 7, 11.96 7, 10.46 8.75 M10.46 5.25 C11.96 7, 11.96 7, 10.46 8.75 M10.46 8.75 C9.82 9.31, 9.17 9.86, 7.5 11.3 M10.46 8.75 C9.78 9.34, 9.09 9.93, 7.5 11.3 M7.5 11.3 C6 13.05, 6 13.05, 4.5 11.3 M7.5 11.3 C6 13.05, 6 13.05, 4.5 11.3 M4.5 11.3 C3.3 10.28, 2.1 9.26, 1.5 8.75 M4.5 11.3 C3.88 10.77, 3.25 10.24, 1.5 8.75 M1.5 8.75 C0 7, 0 7, 1.5 5.25 M1.5 8.75 C0 7, 0 7, 1.5 5.25 M1.5 5.25 C2.66 3.9, 3.81 2.55, 4.5 1.75 M1.5 5.25 C2.66 3.9, 3.82 2.55, 4.5 1.75 M4.5 1.75 C6 0, 6 0, 7.5 1.75 M4.5 1.75 C6 0, 6 0, 7.5 1.75" stroke="#ffffff" stroke-width="4" fill="none"></path></g><g stroke-linecap="round" transform="translate(760.3712726800552 233.96403746645166) rotate(0 2.660917204649536 1.995687903487152)"><path d="M0.44 1.71 C0.44 1.71, 0.44 1.71, 0.44 1.71 M0.44 1.71 C0.44 1.71, 0.44 1.71, 0.44 1.71" stroke="#ffffff" stroke-width="2" fill="none"></path><path d="M3.75 0.5 C3.93 0.72, 4.11 0.94, 4.57 1.5 M3.75 0.5 C3.96 0.75, 4.17 1.01, 4.57 1.5 M4.57 1.5 C5.32 2, 5.32 2, 4.57 2.5 M4.57 1.5 C5.32 2, 5.32 2, 4.57 2.5 M4.57 2.5 C4.28 2.85, 4 3.19, 3.75 3.49 M4.57 2.5 C4.35 2.76, 4.14 3.03, 3.75 3.49 M3.75 3.49 C3 3.99, 3 3.99, 2.25 3.49 M3.75 3.49 C3 3.99, 3 3.99, 2.25 3.49 M2.25 3.49 C1.68 3.11, 1.11 2.74, 0.75 2.5 M2.25 3.49 C1.8 3.2, 1.36 2.9, 0.75 2.5 M0.75 2.5 C0 2, 0 2, 0.75 1.5 M0.75 2.5 C0 2, 0 2, 0.75 1.5 M0.75 1.5 C1.14 1.24, 1.53 0.98, 2.25 0.5 M0.75 1.5 C1.27 1.15, 1.79 0.81, 2.25 0.5 M2.25 0.5 C3 0, 3 0, 3.75 0.5 M2.25 0.5 C3 0, 3 0, 3.75 0.5" stroke="#ffffff" stroke-width="4" fill="none"></path></g><g stroke-linecap="round"><g transform="translate(591.9835396499022 136.82925669435105) rotate(0 24.225186958325196 -0.08728017802710042)"><path d="M0 0 C8.08 -0.03, 40.38 -0.15, 48.45 -0.17 M0 0 C8.08 -0.03, 40.38 -0.15, 48.45 -0.17" stroke="#ffffff" stroke-width="1" fill="none"></path></g></g><mask></mask></svg>