<svg version="1.1" xmlns="http://www.w3.org/2000/svg" viewBox="0 0 1340 93" width="1340" height="93" filter="invert(93%) hue-rotate(180deg)" class="excalidraw-svg">
  <!-- svg-source:excalidraw -->
  
  <defs>
    <style class="style-fonts">
      @font-face {
        font-family: "Virgil";
        src: url("https://excalidraw.com/Virgil.woff2");
      }
      @font-face {
        font-family: "Cascadia";
        src: url("https://excalidraw.com/Cascadia.woff2");
      }
      @font-face {
        font-family: "Assistant";
        src: url("https://excalidraw.com/Assistant-Regular.woff2");
      }
    </style>
    
  </defs>
  <g transform="translate(40 28) rotate(0 -15 15.5)" stroke="none"><path fill="#1e1e1e" d="M -1.17,0.78 Q -1.17,0.78 -2.25,0.29 -3.32,-0.19 -4.72,-0.56 -6.12,-0.94 -7.83,-0.93 -9.53,-0.93 -10.88,-0.30 -12.24,0.32 -13.89,1.40 -15.53,2.49 -16.68,3.15 -17.84,3.82 -18.66,4.51 -19.48,5.21 -20.42,6.08 -21.36,6.95 -22.44,8.22 -23.52,9.50 -24.68,10.81 -25.84,12.13 -26.50,13.31 -27.16,14.50 -27.00,15.83 -26.84,17.15 -26.92,18.72 -26.99,20.28 -26.55,21.33 -26.12,22.38 -25.47,23.85 -24.82,25.31 -23.75,26.97 -22.69,28.64 -21.93,29.66 -21.17,30.68 -19.69,31.10 -18.22,31.52 -16.97,31.65 -15.72,31.78 -14.34,31.81 -12.97,31.85 -11.38,31.46 -9.79,31.07 -8.25,30.63 -6.71,30.20 -4.49,29.39 -2.27,28.57 -2.13,28.41 -2.00,28.24 -1.82,28.13 -1.64,28.02 -1.43,27.97 -1.22,27.92 -1.01,27.94 -0.80,27.96 -0.61,28.04 -0.41,28.13 -0.26,28.27 -0.10,28.42 -0.00,28.60 0.10,28.79 0.13,29.00 0.17,29.21 0.14,29.42 0.11,29.63 0.02,29.82 -0.07,30.01 -0.22,30.15 -0.37,30.30 -0.57,30.40 -0.76,30.49 -0.97,30.51 -1.18,30.54 -1.39,30.50 -1.59,30.46 -1.78,30.35 -1.96,30.25 -2.10,30.09 -2.24,29.93 -2.33,29.73 -2.41,29.53 -2.42,29.32 -2.44,29.11 -2.39,28.90 -2.33,28.70 -2.22,28.52 -2.10,28.34 -1.93,28.21 -1.77,28.08 -1.57,28.01 -1.37,27.94 -1.15,27.93 -0.94,27.93 -0.74,27.99 -0.54,28.06 -0.36,28.18 -0.19,28.31 -0.07,28.48 0.04,28.66 0.10,28.86 0.16,29.06 0.15,29.28 0.15,29.49 0.07,29.69 0.00,29.89 0.00,29.89 0.00,29.89 -1.65,32.50 -3.31,35.10 -4.86,35.77 -6.42,36.43 -8.35,36.91 -10.29,37.39 -12.34,37.74 -14.40,38.08 -16.18,37.96 -17.97,37.83 -20.06,37.23 -22.15,36.62 -23.54,36.10 -24.93,35.57 -26.26,34.00 -27.59,32.42 -28.53,31.16 -29.47,29.90 -29.96,28.88 -30.45,27.86 -30.92,26.82 -31.39,25.78 -31.69,24.43 -32.00,23.07 -32.49,22.00 -32.98,20.94 -33.03,19.81 -33.08,18.68 -33.04,17.07 -33.00,15.45 -32.90,14.35 -32.80,13.25 -32.17,11.99 -31.55,10.74 -31.09,9.46 -30.63,8.19 -29.67,7.06 -28.71,5.94 -27.17,4.12 -25.63,2.29 -24.54,1.30 -23.45,0.30 -22.20,-0.66 -20.95,-1.64 -19.94,-2.20 -18.93,-2.77 -17.68,-3.56 -16.43,-4.36 -15.37,-4.94 -14.32,-5.52 -13.22,-5.89 -12.12,-6.26 -10.87,-6.64 -9.62,-7.02 -7.58,-6.92 -5.53,-6.82 -4.40,-6.61 -3.27,-6.41 -1.96,-5.56 -0.64,-4.72 0.18,-3.99 1.02,-3.25 1.10,-2.02 1.17,-0.78 1.25,-0.63 1.32,-0.47 1.36,-0.31 1.40,-0.14 1.40,0.02 1.40,0.19 1.35,0.35 1.31,0.52 1.23,0.67 1.15,0.82 1.03,0.94 0.91,1.07 0.77,1.16 0.63,1.26 0.47,1.31 0.31,1.37 0.14,1.39 -0.02,1.41 -0.19,1.38 -0.36,1.36 -0.51,1.30 -0.67,1.24 -0.81,1.14 -0.95,1.04 -1.06,0.91 -1.17,0.78 -1.17,0.78 L -1.17,0.78 Z"></path></g><g transform="translate(52 49) rotate(0 7.5 9.5)" stroke="none"><path fill="#1e1e1e" d="M -0.97,-1.46 Q -0.97,-1.46 -0.37,-2.42 0.23,-3.38 1.25,-3.98 2.28,-4.58 3.99,-5.06 5.69,-5.54 7.34,-5.64 8.98,-5.73 10.18,-5.75 11.39,-5.77 12.49,-5.34 13.60,-4.90 14.87,-3.94 16.14,-2.98 16.45,-1.31 16.76,0.34 16.33,1.51 15.91,2.68 14.85,3.94 13.78,5.20 12.27,6.40 10.76,7.59 9.83,8.41 8.91,9.23 10.16,9.51 11.42,9.79 12.79,10.89 14.16,11.99 15.18,12.53 16.20,13.08 16.84,14.02 17.48,14.96 18.16,16.11 18.83,17.27 18.46,19.66 18.09,22.04 17.13,22.84 16.17,23.63 14.96,24.29 13.74,24.94 12.59,25.08 11.44,25.22 9.86,25.24 8.28,25.26 5.80,24.28 3.32,23.31 3.11,23.27 2.90,23.24 2.71,23.14 2.52,23.04 2.38,22.89 2.23,22.73 2.14,22.54 2.05,22.35 2.03,22.14 2.00,21.92 2.05,21.72 2.10,21.51 2.21,21.33 2.31,21.15 2.48,21.01 2.64,20.87 2.84,20.79 3.03,20.71 3.25,20.70 3.46,20.69 3.66,20.75 3.87,20.80 4.04,20.92 4.22,21.04 4.35,21.21 4.48,21.38 4.54,21.58 4.61,21.78 4.61,21.99 4.61,22.21 4.54,22.41 4.48,22.61 4.35,22.78 4.22,22.95 4.04,23.07 3.87,23.19 3.66,23.24 3.46,23.30 3.25,23.29 3.03,23.28 2.84,23.20 2.64,23.12 2.48,22.98 2.32,22.85 2.21,22.66 2.10,22.48 2.05,22.27 2.00,22.07 2.03,21.86 2.05,21.64 2.14,21.45 2.23,21.26 2.37,21.10 2.52,20.95 2.71,20.85 2.90,20.75 3.11,20.72 3.32,20.68 3.32,20.68 3.32,20.68 5.12,19.71 6.92,18.73 8.34,18.68 9.75,18.63 11.02,18.22 12.29,17.80 11.25,17.17 10.21,16.54 9.26,15.67 8.30,14.79 6.87,13.66 5.43,12.53 4.64,11.36 3.85,10.19 3.77,8.69 3.69,7.20 4.25,6.26 4.81,5.33 6.17,4.13 7.54,2.92 8.55,2.12 9.56,1.31 10.82,0.78 12.08,0.25 10.60,0.02 9.13,-0.21 7.48,-0.14 5.82,-0.08 4.52,0.50 3.21,1.08 2.09,1.27 0.97,1.46 0.78,1.56 0.59,1.65 0.39,1.70 0.18,1.75 -0.02,1.74 -0.24,1.74 -0.44,1.69 -0.65,1.63 -0.83,1.53 -1.02,1.43 -1.18,1.28 -1.33,1.14 -1.45,0.96 -1.57,0.79 -1.64,0.59 -1.71,0.39 -1.73,0.18 -1.76,-0.02 -1.73,-0.23 -1.70,-0.44 -1.62,-0.64 -1.54,-0.84 -1.42,-1.01 -1.29,-1.18 -1.13,-1.32 -0.97,-1.46 -0.97,-1.46 L -0.97,-1.46 Z"></path></g><g transform="translate(95 63) rotate(0 -2.5 -19)" stroke="none"><path fill="#1e1e1e" d="M -1.65,0.33 Q -1.65,0.33 -2.58,-0.97 -3.51,-2.28 -3.74,-4.95 -3.97,-7.61 -4.42,-10.75 -4.87,-13.89 -5.18,-15.72 -5.50,-17.54 -5.66,-19.38 -5.81,-21.21 -6.10,-23.59 -6.40,-25.96 -6.48,-27.96 -6.57,-29.96 -6.61,-31.08 -6.64,-32.20 -6.47,-35.40 -6.29,-38.60 -6.27,-38.81 -6.24,-39.02 -6.15,-39.21 -6.06,-39.40 -5.91,-39.56 -5.76,-39.71 -5.58,-39.81 -5.39,-39.90 -5.18,-39.94 -4.97,-39.97 -4.76,-39.93 -4.55,-39.90 -4.36,-39.79 -4.17,-39.69 -4.03,-39.54 -3.89,-39.38 -3.80,-39.19 -3.71,-38.99 -3.69,-38.78 -3.67,-38.57 -3.72,-38.36 -3.76,-38.16 -3.88,-37.98 -3.99,-37.79 -4.15,-37.66 -4.31,-37.52 -4.51,-37.45 -4.71,-37.37 -4.92,-37.36 -5.13,-37.35 -5.34,-37.41 -5.54,-37.47 -5.72,-37.59 -5.89,-37.71 -6.02,-37.88 -6.15,-38.05 -6.21,-38.25 -6.28,-38.46 -6.28,-38.67 -6.27,-38.88 -6.20,-39.08 -6.13,-39.28 -6.00,-39.45 -5.87,-39.62 -5.70,-39.73 -5.52,-39.85 -5.31,-39.91 -5.11,-39.96 -4.90,-39.95 -4.68,-39.93 -4.49,-39.85 -4.29,-39.77 -4.13,-39.63 -3.97,-39.50 -3.86,-39.31 -3.76,-39.13 -3.71,-38.92 -3.67,-38.71 -3.67,-38.71 -3.67,-38.71 -2.85,-36.96 -2.03,-35.21 -1.59,-33.88 -1.16,-32.55 -1.07,-31.47 -0.98,-30.40 -0.77,-28.59 -0.56,-26.79 -0.15,-24.26 0.24,-21.73 0.38,-20.16 0.52,-18.59 0.89,-16.45 1.26,-14.31 1.34,-12.62 1.43,-10.92 1.77,-9.39 2.12,-7.85 2.24,-5.65 2.36,-3.46 2.00,-1.89 1.65,-0.33 1.66,-0.12 1.68,0.07 1.64,0.27 1.61,0.47 1.53,0.66 1.45,0.84 1.33,1.00 1.20,1.17 1.05,1.29 0.89,1.42 0.71,1.51 0.52,1.59 0.32,1.63 0.12,1.67 -0.07,1.66 -0.27,1.65 -0.47,1.60 -0.66,1.54 -0.84,1.44 -1.01,1.34 -1.16,1.20 -1.30,1.05 -1.41,0.88 -1.52,0.71 -1.58,0.52 -1.65,0.32 -1.65,0.32 L -1.65,0.33 Z"></path></g><g transform="translate(92 43) rotate(0 10.5 2)" stroke="none"><path fill="#1e1e1e" d="M 1.30,-1.30 Q 1.30,-1.30 2.33,-0.62 3.37,0.04 5.43,0.58 7.49,1.12 8.70,1.27 9.90,1.42 11.61,1.54 13.33,1.66 15.41,1.89 17.48,2.12 18.77,2.05 20.05,1.99 20.25,1.93 20.46,1.87 20.67,1.88 20.88,1.89 21.08,1.96 21.28,2.04 21.44,2.17 21.61,2.31 21.72,2.49 21.83,2.67 21.88,2.88 21.93,3.08 21.91,3.29 21.89,3.51 21.81,3.70 21.72,3.89 21.58,4.05 21.43,4.21 21.25,4.31 21.06,4.41 20.85,4.45 20.64,4.49 20.43,4.46 20.22,4.43 20.03,4.33 19.84,4.23 19.69,4.08 19.55,3.93 19.45,3.74 19.36,3.55 19.34,3.34 19.31,3.13 19.35,2.92 19.39,2.71 19.50,2.53 19.61,2.34 19.77,2.20 19.93,2.06 20.12,1.98 20.32,1.90 20.53,1.88 20.74,1.87 20.95,1.92 21.15,1.97 21.33,2.09 21.51,2.21 21.64,2.37 21.77,2.54 21.84,2.74 21.91,2.94 21.92,3.15 21.92,3.37 21.86,3.57 21.79,3.77 21.67,3.94 21.54,4.11 21.37,4.24 21.19,4.36 21.19,4.36 21.19,4.36 18.31,5.23 15.42,6.11 14.35,6.20 13.28,6.30 12.10,6.35 10.92,6.40 9.18,6.31 7.45,6.23 5.86,5.72 4.28,5.20 3.09,4.88 1.89,4.56 0.98,3.98 0.07,3.40 -0.61,2.35 -1.30,1.30 -1.43,1.12 -1.57,0.95 -1.66,0.74 -1.75,0.54 -1.79,0.32 -1.83,0.11 -1.82,-0.11 -1.80,-0.33 -1.74,-0.54 -1.67,-0.75 -1.56,-0.94 -1.44,-1.13 -1.29,-1.29 -1.13,-1.44 -0.94,-1.56 -0.75,-1.67 -0.54,-1.74 -0.33,-1.80 -0.11,-1.82 0.11,-1.83 0.32,-1.79 0.54,-1.75 0.74,-1.66 0.95,-1.57 1.12,-1.43 1.30,-1.30 1.30,-1.30 L 1.30,-1.30 Z"></path></g><g transform="translate(118 61) rotate(0 0 -18)" stroke="none"><path fill="#1e1e1e" d="M 1.47,-0.49 Q 1.47,-0.49 1.99,0.12 2.52,0.74 3.07,0.84 3.62,0.94 3.69,1.29 3.76,1.64 3.75,2.00 3.73,2.35 3.63,2.70 3.53,3.04 3.35,3.35 3.18,3.65 2.93,3.91 2.68,4.17 2.38,4.36 2.08,4.55 1.74,4.66 1.40,4.77 1.05,4.80 0.69,4.83 0.34,4.77 -0.00,4.72 -0.33,4.58 -0.65,4.44 -0.94,4.22 -1.22,4.01 -1.45,3.73 -1.67,3.46 -1.83,3.13 -1.98,2.81 -2.07,1.66 -2.16,0.50 -2.18,-1.52 -2.21,-3.55 -2.49,-4.83 -2.78,-6.10 -2.92,-7.47 -3.07,-8.84 -3.14,-10.92 -3.21,-13.00 -3.23,-15.01 -3.24,-17.02 -3.23,-19.03 -3.22,-21.03 -3.21,-22.17 -3.20,-23.31 -3.15,-24.65 -3.11,-26.00 -2.95,-28.09 -2.79,-30.18 -2.64,-31.56 -2.49,-32.94 -2.35,-35.60 -2.22,-38.25 -2.21,-38.46 -2.21,-38.68 -2.13,-38.88 -2.06,-39.07 -1.93,-39.24 -1.79,-39.41 -1.62,-39.52 -1.44,-39.63 -1.23,-39.69 -1.02,-39.74 -0.81,-39.72 -0.60,-39.70 -0.40,-39.62 -0.21,-39.53 -0.05,-39.39 0.10,-39.25 0.20,-39.06 0.31,-38.88 0.34,-38.67 0.38,-38.46 0.36,-38.25 0.33,-38.04 0.23,-37.85 0.14,-37.66 -0.00,-37.51 -0.15,-37.36 -0.34,-37.27 -0.53,-37.17 -0.74,-37.14 -0.96,-37.11 -1.16,-37.15 -1.37,-37.19 -1.56,-37.30 -1.74,-37.40 -1.88,-37.56 -2.03,-37.72 -2.11,-37.92 -2.19,-38.11 -2.21,-38.32 -2.23,-38.54 -2.18,-38.74 -2.12,-38.95 -2.01,-39.13 -1.89,-39.31 -1.73,-39.44 -1.56,-39.57 -1.36,-39.64 -1.16,-39.72 -0.95,-39.72 -0.74,-39.73 -0.54,-39.67 -0.33,-39.60 -0.16,-39.48 0.00,-39.35 0.13,-39.18 0.25,-39.01 0.31,-38.81 0.37,-38.60 0.37,-38.60 0.37,-38.60 1.43,-35.78 2.49,-32.96 2.64,-31.57 2.80,-30.18 2.96,-28.10 3.12,-26.01 3.16,-24.67 3.21,-23.33 3.23,-22.20 3.25,-21.06 3.28,-19.08 3.31,-17.10 3.33,-15.14 3.36,-13.18 3.39,-11.33 3.43,-9.48 3.52,-8.37 3.61,-7.26 3.90,-5.40 4.18,-3.54 3.90,-1.29 3.62,0.94 3.69,1.29 3.76,1.64 3.75,2.00 3.73,2.35 3.63,2.70 3.53,3.04 3.35,3.35 3.18,3.65 2.93,3.91 2.68,4.17 2.38,4.36 2.08,4.55 1.74,4.66 1.40,4.77 1.05,4.80 0.69,4.83 0.34,4.77 -0.00,4.72 -0.33,4.58 -0.65,4.44 -0.94,4.22 -1.22,4.01 -1.45,3.73 -1.67,3.46 -1.83,3.13 -1.98,2.81 -1.67,2.75 -1.37,2.70 -1.42,1.59 -1.47,0.49 -1.51,0.30 -1.54,0.12 -1.54,-0.06 -1.53,-0.24 -1.48,-0.42 -1.42,-0.60 -1.33,-0.77 -1.24,-0.93 -1.11,-1.06 -0.98,-1.20 -0.82,-1.30 -0.66,-1.40 -0.48,-1.46 -0.30,-1.52 -0.12,-1.53 0.06,-1.55 0.24,-1.52 0.43,-1.49 0.60,-1.41 0.77,-1.34 0.92,-1.23 1.07,-1.11 1.19,-0.97 1.31,-0.82 1.39,-0.65 1.47,-0.49 1.47,-0.49 L 1.47,-0.49 Z"></path></g><g transform="translate(151 82) rotate(0 -1.5 -12.5)" stroke="none"><path fill="#1e1e1e" d="M 0,1.80 Q 0,1.80 -0.57,2.31 -1.15,2.82 -2.28,2.80 -3.42,2.79 -4.52,2.35 -5.63,1.91 -6.72,1.39 -7.82,0.88 -8.98,-0.08 -10.14,-1.04 -10.03,-3.50 -9.91,-5.95 -9.14,-6.83 -8.37,-7.70 -7.70,-8.56 -7.03,-9.42 -5.97,-10.33 -4.91,-11.25 -4.02,-12.44 -3.13,-13.64 -2.14,-15.27 -1.16,-16.89 0.02,-18.32 1.21,-19.74 1.72,-21.02 2.24,-22.30 2.94,-23.90 3.64,-25.50 3.69,-25.71 3.74,-25.92 3.85,-26.10 3.97,-26.28 4.13,-26.41 4.30,-26.55 4.50,-26.62 4.69,-26.70 4.91,-26.70 5.12,-26.71 5.32,-26.65 5.53,-26.59 5.70,-26.47 5.87,-26.34 6.00,-26.17 6.12,-26.00 6.19,-25.80 6.25,-25.60 6.25,-25.38 6.24,-25.17 6.17,-24.97 6.10,-24.77 5.97,-24.60 5.84,-24.44 5.66,-24.32 5.48,-24.21 5.27,-24.15 5.07,-24.10 4.86,-24.12 4.65,-24.13 4.45,-24.21 4.25,-24.30 4.09,-24.44 3.93,-24.58 3.83,-24.76 3.72,-24.95 3.68,-25.15 3.64,-25.36 3.67,-25.57 3.69,-25.78 3.79,-25.97 3.88,-26.17 4.03,-26.32 4.18,-26.47 4.37,-26.56 4.56,-26.66 4.77,-26.69 4.98,-26.72 5.19,-26.68 5.40,-26.64 5.58,-26.54 5.77,-26.44 5.91,-26.28 6.05,-26.12 6.14,-25.93 6.22,-25.73 6.24,-25.52 6.26,-25.31 6.26,-25.31 6.26,-25.31 6.20,-22.21 6.15,-19.10 5.72,-17.81 5.29,-16.52 4.42,-15.38 3.56,-14.24 3.00,-13.20 2.43,-12.15 1.16,-10.44 -0.11,-8.74 -1.24,-7.54 -2.38,-6.33 -3.45,-4.95 -4.52,-3.56 -2.83,-3.19 -1.15,-2.82 -0.57,-2.31 0,-1.80 0.21,-1.78 0.43,-1.75 0.63,-1.67 0.84,-1.60 1.01,-1.47 1.19,-1.35 1.34,-1.18 1.48,-1.02 1.58,-0.83 1.69,-0.64 1.74,-0.42 1.79,-0.21 1.79,0.00 1.79,0.21 1.74,0.42 1.69,0.64 1.58,0.83 1.48,1.02 1.34,1.19 1.19,1.35 1.01,1.47 0.83,1.60 0.63,1.67 0.43,1.75 0.21,1.78 -0.00,1.80 -0.00,1.80 L 0,1.80 Z"></path></g><g transform="translate(148 56) rotate(0 7 13.5)" stroke="none"><path fill="#1e1e1e" d="M 2.26,0.56 Q 2.26,0.56 2.01,1.61 1.75,2.66 2.55,3.66 3.35,4.66 3.90,5.59 4.45,6.53 5.57,7.78 6.69,9.03 7.86,10.19 9.03,11.35 9.85,12.14 10.67,12.93 12.00,13.93 13.33,14.92 14.05,15.78 14.77,16.64 15.84,18.47 16.91,20.30 17.25,21.39 17.58,22.49 17.38,23.82 17.18,25.15 16.21,26.67 15.24,28.19 13.50,28.99 11.76,29.79 10.05,29.90 8.34,30.01 5.85,29.16 3.36,28.31 3.15,28.27 2.94,28.24 2.76,28.14 2.57,28.04 2.42,27.89 2.27,27.73 2.18,27.54 2.09,27.35 2.07,27.14 2.05,26.93 2.09,26.72 2.14,26.51 2.24,26.33 2.35,26.15 2.52,26.01 2.68,25.87 2.87,25.79 3.07,25.71 3.28,25.70 3.49,25.69 3.70,25.74 3.90,25.80 4.08,25.92 4.26,26.04 4.39,26.21 4.52,26.37 4.58,26.58 4.65,26.78 4.65,26.99 4.65,27.20 4.59,27.40 4.52,27.60 4.39,27.77 4.26,27.94 4.09,28.06 3.91,28.18 3.71,28.24 3.50,28.30 3.29,28.29 3.08,28.28 2.88,28.20 2.68,28.12 2.52,27.98 2.36,27.85 2.25,27.67 2.14,27.48 2.09,27.28 2.05,27.07 2.07,26.86 2.09,26.65 2.18,26.45 2.27,26.26 2.41,26.11 2.56,25.95 2.75,25.85 2.93,25.75 3.14,25.72 3.35,25.68 3.35,25.68 3.35,25.68 4.84,24.85 6.33,24.03 7.94,23.93 9.55,23.82 10.61,23.41 11.67,22.99 10.92,21.21 10.17,19.42 8.55,18.04 6.92,16.65 6.13,15.82 5.33,14.98 4.16,13.71 2.99,12.45 2.14,11.50 1.28,10.55 0.31,9.03 -0.65,7.50 -1.59,5.77 -2.53,4.05 -2.71,2.99 -2.90,1.93 -2.58,0.68 -2.26,-0.56 -2.16,-0.83 -2.06,-1.09 -1.90,-1.32 -1.74,-1.55 -1.53,-1.74 -1.32,-1.92 -1.07,-2.05 -0.82,-2.19 -0.54,-2.25 -0.27,-2.32 0.00,-2.32 0.28,-2.32 0.56,-2.25 0.83,-2.18 1.08,-2.05 1.33,-1.92 1.54,-1.73 1.75,-1.54 1.91,-1.31 2.07,-1.08 2.17,-0.81 2.27,-0.55 2.30,-0.27 2.33,0.00 2.30,0.28 2.26,0.56 2.26,0.56 L 2.26,0.56 Z"></path></g><g transform="translate(148 62) rotate(0 4.5 -8.5)" stroke="none"><path fill="#1e1e1e" d="M -1.10,1.10 Q -1.10,1.10 -1.77,0.60 -2.45,0.10 -3.04,-1.39 -3.63,-2.88 -3.71,-4.03 -3.79,-5.18 -3.65,-7.02 -3.51,-8.85 -2.75,-10.55 -1.98,-12.25 -1.29,-13.15 -0.60,-14.06 0.38,-15.16 1.36,-16.27 2.53,-17.46 3.69,-18.66 4.91,-18.59 6.13,-18.51 7.16,-18.15 8.19,-17.80 9.35,-16.78 10.50,-15.75 11.35,-14.41 12.20,-13.07 12.74,-11.54 13.29,-10.00 13.34,-8.89 13.39,-7.78 13.40,-6.26 13.40,-4.74 12.37,-2.46 11.33,-0.17 11.28,0.02 11.22,0.23 11.10,0.40 10.99,0.58 10.82,0.71 10.65,0.84 10.45,0.91 10.25,0.98 10.03,0.98 9.82,0.98 9.62,0.91 9.42,0.84 9.25,0.72 9.08,0.59 8.96,0.41 8.84,0.24 8.78,0.03 8.72,-0.16 8.73,-0.37 8.74,-0.59 8.82,-0.78 8.90,-0.98 9.04,-1.14 9.17,-1.31 9.35,-1.42 9.54,-1.53 9.74,-1.57 9.95,-1.62 10.16,-1.60 10.37,-1.58 10.57,-1.49 10.76,-1.40 10.91,-1.25 11.07,-1.11 11.17,-0.92 11.27,-0.73 11.31,-0.52 11.34,-0.32 11.31,-0.11 11.27,0.09 11.18,0.28 11.08,0.47 10.92,0.62 10.77,0.76 10.58,0.85 10.38,0.94 10.17,0.97 9.96,0.99 9.75,0.95 9.55,0.90 9.36,0.79 9.18,0.69 9.04,0.52 8.91,0.36 8.83,0.17 8.75,-0.02 8.73,-0.23 8.72,-0.45 8.72,-0.44 8.72,-0.44 8.65,-2.59 8.59,-4.73 8.58,-6.21 8.57,-7.68 8.53,-8.89 8.49,-10.09 8.37,-11.27 8.25,-12.45 7.37,-13.39 6.49,-14.33 5.35,-14.35 4.22,-14.37 3.34,-13.56 2.47,-12.76 1.58,-11.40 0.69,-10.04 0.10,-8.85 -0.47,-7.66 -0.31,-6.49 -0.15,-5.32 0.00,-3.86 0.15,-2.40 0.62,-1.75 1.10,-1.10 1.21,-0.95 1.33,-0.80 1.40,-0.63 1.48,-0.46 1.51,-0.27 1.55,-0.09 1.54,0.09 1.53,0.28 1.47,0.45 1.41,0.63 1.32,0.79 1.22,0.95 1.09,1.09 0.95,1.22 0.79,1.32 0.63,1.41 0.45,1.47 0.28,1.53 0.09,1.54 -0.09,1.55 -0.27,1.51 -0.46,1.48 -0.63,1.40 -0.80,1.33 -0.95,1.21 -1.10,1.10 -1.10,1.10 L -1.10,1.10 Z"></path></g><g transform="translate(201 68) rotate(0 -3 -18)" stroke="none"><path fill="#1e1e1e" d="M -0.81,1.21 Q -0.81,1.21 -1.99,1.12 -3.18,1.03 -4.59,-0.44 -5.99,-1.92 -6.76,-3.57 -7.52,-5.21 -8.08,-7.17 -8.64,-9.12 -8.73,-10.23 -8.82,-11.35 -8.86,-12.69 -8.90,-14.04 -8.90,-16.33 -8.91,-18.63 -8.91,-20.17 -8.90,-21.71 -8.88,-22.95 -8.85,-24.20 -8.48,-25.64 -8.12,-27.07 -7.89,-28.86 -7.67,-30.64 -7.22,-31.93 -6.78,-33.22 -5.63,-34.55 -4.47,-35.87 -4.36,-36.05 -4.25,-36.23 -4.08,-36.37 -3.92,-36.50 -3.72,-36.58 -3.52,-36.65 -3.31,-36.66 -3.09,-36.67 -2.89,-36.61 -2.69,-36.55 -2.51,-36.43 -2.34,-36.30 -2.21,-36.13 -2.09,-35.96 -2.02,-35.76 -1.96,-35.56 -1.96,-35.34 -1.97,-35.13 -2.04,-34.93 -2.11,-34.73 -2.24,-34.56 -2.37,-34.40 -2.55,-34.28 -2.73,-34.16 -2.93,-34.11 -3.14,-34.06 -3.35,-34.07 -3.56,-34.09 -3.76,-34.17 -3.95,-34.25 -4.11,-34.39 -4.27,-34.53 -4.38,-34.72 -4.49,-34.90 -4.53,-35.11 -4.57,-35.32 -4.54,-35.53 -4.52,-35.74 -4.43,-35.93 -4.33,-36.12 -4.18,-36.27 -4.04,-36.42 -3.85,-36.52 -3.66,-36.62 -3.45,-36.65 -3.24,-36.68 -3.03,-36.64 -2.82,-36.60 -2.63,-36.50 -2.45,-36.40 -2.30,-36.24 -2.16,-36.08 -2.07,-35.89 -1.99,-35.69 -1.97,-35.48 -1.95,-35.27 -2.00,-35.06 -2.05,-34.86 -2.05,-34.86 -2.05,-34.86 -2.26,-32.60 -2.48,-30.34 -2.47,-29.24 -2.46,-28.14 -2.80,-26.15 -3.13,-24.16 -3.10,-22.94 -3.07,-21.73 -3.06,-20.19 -3.05,-18.66 -3.03,-16.41 -3.01,-14.17 -2.99,-12.95 -2.97,-11.73 -2.87,-10.22 -2.77,-8.70 -2.46,-7.29 -2.15,-5.88 -1.21,-4.61 -0.26,-3.33 0.27,-2.27 0.81,-1.21 0.94,-1.10 1.07,-0.98 1.18,-0.84 1.28,-0.69 1.34,-0.53 1.41,-0.37 1.43,-0.19 1.46,-0.02 1.44,0.15 1.42,0.32 1.36,0.49 1.30,0.65 1.20,0.80 1.10,0.95 0.97,1.07 0.84,1.18 0.69,1.27 0.54,1.35 0.36,1.40 0.19,1.44 0.02,1.45 -0.15,1.45 -0.32,1.41 -0.49,1.37 -0.65,1.29 -0.81,1.21 -0.81,1.21 L -0.81,1.21 Z"></path></g><g transform="translate(217 48) rotate(0 2 14)" stroke="none"><path fill="#1e1e1e" d="M -0.54,1.63 Q -0.54,1.63 -1.28,1.65 -2.02,1.67 -2.75,2.85 -3.48,4.03 -3.85,5.57 -4.23,7.10 -3.94,8.85 -3.65,10.60 -2.58,10.08 -1.51,9.56 -0.29,8.38 0.91,7.21 1.49,6.09 2.07,4.97 3.00,3.41 3.92,1.86 4.67,0.48 5.43,-0.89 5.67,-1.14 5.90,-1.38 6.19,-1.56 6.48,-1.75 6.81,-1.85 7.14,-1.96 7.48,-1.99 7.82,-2.01 8.16,-1.95 8.50,-1.90 8.81,-1.76 9.13,-1.63 9.40,-1.42 9.67,-1.21 9.89,-0.95 10.10,-0.68 10.25,-0.37 10.39,-0.06 10.46,0.27 10.53,0.60 10.51,0.95 10.50,1.29 10.40,1.62 10.30,1.95 10.13,2.24 9.96,2.54 9.94,0.89 9.93,-0.74 10.40,0.22 10.88,1.19 11.32,3.22 11.75,5.26 11.84,6.94 11.94,8.62 12.35,10.03 12.76,11.44 13.10,13.05 13.44,14.66 13.65,15.90 13.86,17.14 13.95,18.25 14.03,19.36 14.09,20.71 14.14,22.07 14.17,23.18 14.19,24.29 13.83,25.61 13.46,26.94 12.84,27.96 12.21,28.97 11.26,29.70 10.31,30.43 8.53,31.16 6.76,31.88 5.56,31.96 4.35,32.05 3.06,31.65 1.77,31.26 0.30,30.00 -1.15,28.74 -1.65,26.23 -2.14,23.72 -2.17,23.51 -2.21,23.30 -2.17,23.09 -2.13,22.88 -2.03,22.69 -1.93,22.50 -1.78,22.36 -1.62,22.21 -1.43,22.13 -1.23,22.04 -1.02,22.02 -0.81,22.00 -0.60,22.04 -0.40,22.09 -0.22,22.20 -0.03,22.31 0.09,22.48 0.23,22.64 0.31,22.84 0.38,23.04 0.39,23.25 0.40,23.46 0.34,23.66 0.28,23.87 0.16,24.04 0.04,24.22 -0.12,24.35 -0.29,24.47 -0.49,24.54 -0.69,24.60 -0.90,24.60 -1.12,24.60 -1.32,24.53 -1.52,24.46 -1.69,24.33 -1.85,24.20 -1.97,24.02 -2.09,23.85 -2.14,23.64 -2.20,23.44 -2.19,23.23 -2.17,23.01 -2.09,22.82 -2.01,22.62 -1.87,22.46 -1.73,22.30 -1.55,22.19 -1.37,22.08 -1.16,22.04 -0.95,22.00 -0.74,22.02 -0.53,22.04 -0.34,22.14 -0.15,22.23 0.00,22.37 0.15,22.52 0.25,22.71 0.35,22.90 0.35,22.90 0.35,22.90 1.53,23.75 2.71,24.59 3.88,25.10 5.05,25.61 6.21,25.15 7.37,24.70 7.60,23.44 7.82,22.18 7.80,20.94 7.79,19.71 7.71,18.13 7.64,16.54 7.27,15.23 6.90,13.92 6.80,12.71 6.70,11.50 6.33,9.37 5.95,7.24 5.87,6.09 5.79,4.94 5.80,3.77 5.81,2.60 5.62,0.85 5.43,-0.89 5.67,-1.14 5.90,-1.38 6.19,-1.56 6.48,-1.75 6.81,-1.85 7.14,-1.96 7.48,-1.99 7.82,-2.01 8.16,-1.95 8.50,-1.90 8.81,-1.76 9.12,-1.63 9.40,-1.42 9.67,-1.21 9.89,-0.95 10.10,-0.68 10.25,-0.37 10.39,-0.06 10.46,0.27 10.53,0.60 10.51,0.95 10.50,1.29 10.40,1.62 10.30,1.95 10.13,2.24 9.96,2.54 9.34,3.54 8.72,4.55 8.18,5.48 7.65,6.41 6.98,7.64 6.32,8.87 5.52,9.98 4.72,11.08 3.89,11.89 3.05,12.69 1.76,13.77 0.47,14.85 -0.48,15.36 -1.45,15.87 -2.93,16.00 -4.40,16.13 -6.03,14.91 -7.66,13.70 -8.19,12.54 -8.71,11.38 -9.11,10.29 -9.50,9.20 -9.40,7.70 -9.29,6.21 -9.02,4.98 -8.75,3.76 -7.91,2.15 -7.06,0.55 -5.98,-0.44 -4.89,-1.44 -3.16,-2.13 -1.42,-2.82 -0.44,-2.22 0.54,-1.63 0.73,-1.54 0.91,-1.45 1.07,-1.32 1.23,-1.19 1.36,-1.02 1.48,-0.86 1.56,-0.66 1.65,-0.47 1.68,-0.27 1.71,-0.06 1.70,0.13 1.68,0.34 1.61,0.53 1.55,0.73 1.44,0.91 1.33,1.08 1.18,1.23 1.03,1.37 0.85,1.47 0.67,1.58 0.47,1.63 0.27,1.69 0.06,1.70 -0.13,1.71 -0.34,1.67 -0.54,1.63 -0.54,1.63 L -0.54,1.63 Z"></path></g><g transform="translate(234 31) rotate(0 6.5 22)" stroke="none"><path fill="#1e1e1e" d="M 0.80,-1.61 Q 0.80,-1.61 2.06,-1.24 3.32,-0.88 4.25,-0.30 5.18,0.26 7.18,1.87 9.17,3.48 10.30,4.52 11.43,5.55 12.18,6.95 12.93,8.35 13.41,9.31 13.90,10.27 14.48,11.65 15.06,13.03 15.63,14.83 16.20,16.63 16.49,18.10 16.78,19.58 16.91,20.83 17.04,22.08 17.10,23.50 17.16,24.92 16.90,27.88 16.63,30.84 16.18,32.40 15.73,33.96 15.26,35.42 14.79,36.89 13.89,38.63 13.00,40.37 11.52,41.93 10.04,43.49 8.73,44.40 7.42,45.32 6.37,45.76 5.32,46.21 2.38,45.75 -0.54,45.29 -0.75,45.27 -0.96,45.24 -1.15,45.15 -1.34,45.06 -1.50,44.91 -1.65,44.76 -1.75,44.57 -1.84,44.38 -1.87,44.17 -1.91,43.96 -1.87,43.75 -1.83,43.54 -1.73,43.36 -1.63,43.17 -1.47,43.03 -1.31,42.88 -1.12,42.80 -0.93,42.71 -0.71,42.69 -0.50,42.67 -0.30,42.72 -0.09,42.77 0.08,42.88 0.26,42.99 0.40,43.15 0.53,43.32 0.61,43.52 0.68,43.71 0.69,43.93 0.70,44.14 0.64,44.34 0.58,44.55 0.46,44.72 0.34,44.89 0.17,45.02 0.00,45.15 -0.20,45.21 -0.40,45.28 -0.61,45.27 -0.82,45.27 -1.02,45.20 -1.22,45.13 -1.39,45.00 -1.56,44.87 -1.67,44.69 -1.79,44.51 -1.85,44.31 -1.90,44.10 -1.89,43.89 -1.87,43.68 -1.79,43.48 -1.71,43.29 -1.57,43.13 -1.43,42.97 -1.24,42.86 -1.06,42.75 -0.85,42.71 -0.65,42.67 -0.65,42.67 -0.65,42.67 1.55,41.49 3.77,40.32 4.62,39.63 5.47,38.95 6.37,38.11 7.27,37.27 7.92,36.07 8.56,34.87 9.01,33.47 9.47,32.06 9.83,30.94 10.19,29.82 10.45,27.46 10.71,25.10 10.65,22.84 10.59,20.58 10.46,19.46 10.32,18.34 9.90,16.74 9.48,15.15 9.08,13.95 8.68,12.75 8.07,11.07 7.45,9.39 6.47,8.35 5.49,7.31 4.48,6.24 3.48,5.17 2.37,4.17 1.27,3.18 0.23,2.39 -0.80,1.61 -0.98,1.49 -1.16,1.37 -1.31,1.21 -1.46,1.05 -1.56,0.86 -1.67,0.67 -1.73,0.46 -1.78,0.25 -1.79,0.03 -1.79,-0.18 -1.74,-0.39 -1.69,-0.60 -1.60,-0.80 -1.50,-0.99 -1.36,-1.16 -1.22,-1.32 -1.04,-1.45 -0.86,-1.58 -0.66,-1.66 -0.46,-1.74 -0.25,-1.77 -0.03,-1.80 0.18,-1.78 0.39,-1.75 0.60,-1.68 0.80,-1.61 0.80,-1.61 L 0.80,-1.61 Z"></path></g><g transform="translate(313 39) rotate(0 13.5 0)" stroke="none"><path fill="#1e1e1e" d="M 0,-1.69 Q 0,-1.69 1.15,-2.21 2.3,-2.73 3.36,-2.73 4.42,-2.74 6.75,-2.75 9.07,-2.77 10.49,-2.76 11.90,-2.76 14.03,-2.73 16.16,-2.70 17.55,-2.66 18.94,-2.63 20.39,-2.58 21.85,-2.52 23.04,-2.49 24.23,-2.46 25.77,-1.89 27.32,-1.31 27.53,-1.27 27.73,-1.24 27.92,-1.14 28.11,-1.04 28.26,-0.89 28.40,-0.73 28.49,-0.54 28.58,-0.35 28.60,-0.14 28.63,0.07 28.58,0.27 28.54,0.48 28.43,0.66 28.32,0.85 28.15,0.98 27.99,1.12 27.79,1.20 27.60,1.28 27.39,1.29 27.17,1.30 26.97,1.24 26.76,1.19 26.59,1.07 26.41,0.95 26.28,0.78 26.15,0.61 26.09,0.41 26.02,0.21 26.02,-0.00 26.02,-0.21 26.09,-0.41 26.16,-0.61 26.28,-0.78 26.41,-0.95 26.59,-1.07 26.76,-1.19 26.97,-1.24 27.17,-1.30 27.39,-1.29 27.60,-1.28 27.80,-1.20 27.99,-1.12 28.15,-0.98 28.32,-0.84 28.43,-0.66 28.54,-0.48 28.58,-0.27 28.63,-0.07 28.60,0.14 28.58,0.35 28.49,0.54 28.40,0.73 28.26,0.89 28.11,1.04 27.92,1.14 27.73,1.24 27.52,1.27 27.31,1.31 27.32,1.31 27.32,1.31 25.77,1.89 24.23,2.46 23.04,2.49 21.85,2.52 20.39,2.58 18.94,2.63 17.55,2.66 16.16,2.70 14.03,2.73 11.90,2.76 10.49,2.76 9.07,2.77 6.75,2.75 4.42,2.74 3.36,2.73 2.3,2.73 1.15,2.21 0,1.69 -0.20,1.67 -0.40,1.64 -0.59,1.57 -0.78,1.50 -0.95,1.38 -1.12,1.27 -1.26,1.11 -1.39,0.96 -1.49,0.78 -1.58,0.60 -1.63,0.40 -1.68,0.20 -1.68,-0.00 -1.68,-0.20 -1.63,-0.40 -1.58,-0.60 -1.49,-0.78 -1.39,-0.96 -1.26,-1.11 -1.12,-1.27 -0.95,-1.38 -0.78,-1.50 -0.59,-1.57 -0.40,-1.64 -0.20,-1.67 0.00,-1.69 0.00,-1.69 L 0,-1.69 Z"></path></g><g transform="translate(332 52) rotate(0 -1.5 -11)" stroke="none"><path fill="#1e1e1e" d="M -1.66,0.41 Q -1.66,0.41 -2.34,-0.63 -3.02,-1.69 -3.20,-2.90 -3.38,-4.12 -3.92,-6.76 -4.45,-9.41 -4.54,-11.13 -4.63,-12.85 -4.94,-15.31 -5.24,-17.76 -4.76,-19.49 -4.27,-21.21 -4.25,-21.42 -4.22,-21.63 -4.13,-21.82 -4.04,-22.02 -3.90,-22.17 -3.75,-22.32 -3.56,-22.42 -3.37,-22.52 -3.16,-22.55 -2.95,-22.59 -2.74,-22.55 -2.53,-22.51 -2.35,-22.41 -2.16,-22.31 -2.01,-22.16 -1.87,-22.00 -1.78,-21.81 -1.69,-21.61 -1.67,-21.40 -1.65,-21.19 -1.70,-20.98 -1.74,-20.78 -1.86,-20.60 -1.97,-20.41 -2.13,-20.28 -2.29,-20.14 -2.49,-20.06 -2.69,-19.99 -2.90,-19.98 -3.11,-19.97 -3.32,-20.03 -3.52,-20.08 -3.70,-20.20 -3.87,-20.33 -4.00,-20.50 -4.13,-20.67 -4.19,-20.87 -4.26,-21.07 -4.26,-21.28 -4.26,-21.49 -4.19,-21.70 -4.12,-21.90 -3.99,-22.06 -3.86,-22.23 -3.68,-22.35 -3.50,-22.47 -3.30,-22.52 -3.09,-22.58 -2.88,-22.57 -2.67,-22.55 -2.47,-22.47 -2.28,-22.39 -2.11,-22.25 -1.95,-22.11 -1.85,-21.93 -1.74,-21.75 -1.69,-21.54 -1.65,-21.33 -1.65,-21.33 -1.65,-21.33 -1.01,-19.78 -0.37,-18.22 -0.20,-17.07 -0.03,-15.93 0.34,-14.50 0.71,-13.08 0.79,-11.49 0.87,-9.89 0.93,-8.59 0.98,-7.28 1.43,-5.09 1.87,-2.90 1.76,-1.66 1.66,-0.41 1.68,-0.21 1.71,-0.00 1.68,0.19 1.66,0.40 1.59,0.59 1.51,0.79 1.40,0.96 1.28,1.13 1.13,1.26 0.97,1.40 0.79,1.50 0.61,1.59 0.41,1.64 0.21,1.69 0.00,1.69 -0.20,1.69 -0.40,1.65 -0.60,1.60 -0.78,1.50 -0.96,1.41 -1.12,1.27 -1.27,1.13 -1.39,0.96 -1.51,0.80 -1.58,0.60 -1.66,0.41 -1.66,0.41 L -1.66,0.41 Z"></path></g><g transform="translate(386 31) rotate(0 11.5 7)" stroke="none"><path fill="#1e1e1e" d="M -1.48,0.98 Q -1.48,0.98 -2.41,0.36 -3.34,-0.26 -4.29,-1.70 -5.25,-3.14 -5.11,-5.29 -4.97,-7.45 -4.53,-8.95 -4.08,-10.46 -2.44,-12.06 -0.80,-13.67 0.21,-14.26 1.23,-14.85 2.58,-15.22 3.93,-15.59 5.10,-15.71 6.27,-15.83 7.34,-15.87 8.41,-15.91 10.53,-15.56 12.65,-15.21 13.98,-14.31 15.32,-13.41 16.60,-12.68 17.87,-11.96 18.73,-10.88 19.58,-9.80 20.51,-8.71 21.45,-7.63 21.96,-6.28 22.46,-4.92 22.59,-3.78 22.72,-2.64 22.77,-1.25 22.83,0.13 22.47,1.43 22.11,2.73 21.56,3.67 21.02,4.60 20.02,6.19 19.03,7.77 17.42,9.19 15.82,10.61 14.91,11.82 14.01,13.03 12.93,13.82 11.86,14.62 10.87,15.19 9.87,15.77 8.94,16.96 8.00,18.14 7.07,18.71 6.14,19.29 5.54,20.22 4.94,21.16 4.47,22.18 4.00,23.20 5.08,23.47 6.17,23.74 7.54,23.86 8.91,23.99 10.71,23.64 12.51,23.29 14.11,23.00 15.72,22.72 16.94,22.55 18.17,22.37 19.81,21.77 21.46,21.17 23.45,21.46 25.45,21.74 25.66,21.75 25.88,21.76 26.08,21.83 26.27,21.90 26.44,22.04 26.61,22.17 26.72,22.35 26.83,22.53 26.88,22.74 26.93,22.94 26.92,23.15 26.90,23.37 26.81,23.56 26.73,23.76 26.59,23.91 26.44,24.07 26.26,24.17 26.07,24.28 25.86,24.32 25.66,24.36 25.45,24.33 25.23,24.30 25.04,24.20 24.85,24.11 24.71,23.96 24.56,23.81 24.46,23.62 24.37,23.43 24.34,23.21 24.31,23.00 24.35,22.80 24.39,22.59 24.50,22.40 24.60,22.22 24.76,22.08 24.92,21.94 25.12,21.85 25.31,21.77 25.52,21.75 25.74,21.74 25.94,21.79 26.15,21.84 26.33,21.95 26.51,22.07 26.64,22.24 26.77,22.40 26.84,22.60 26.92,22.80 26.92,23.01 26.93,23.23 26.86,23.43 26.80,23.63 26.67,23.80 26.55,23.98 26.38,24.10 26.20,24.22 26.00,24.28 25.80,24.35 25.80,24.35 25.80,24.35 24.69,25.22 23.59,26.10 22.52,26.62 21.45,27.14 19.48,27.67 17.51,28.19 16.22,28.58 14.94,28.97 13.81,29.08 12.68,29.20 10.69,29.56 8.69,29.92 7.01,29.79 5.33,29.66 3.69,29.03 2.05,28.41 0.50,27.06 -1.04,25.71 -1.47,24.51 -1.90,23.31 -1.73,21.75 -1.55,20.18 -0.47,18.59 0.60,17.00 1.20,16.07 1.81,15.14 3.26,14.01 4.72,12.88 6.62,11.31 8.52,9.73 9.56,8.87 10.59,8.01 12.07,6.62 13.56,5.23 14.35,4.30 15.15,3.36 16.13,1.76 17.11,0.16 17.06,-0.95 17.00,-2.07 16.51,-3.54 16.01,-5.01 14.91,-6.37 13.81,-7.73 12.28,-8.67 10.75,-9.61 9.70,-9.79 8.65,-9.96 6.94,-9.86 5.24,-9.76 3.90,-9.27 2.56,-8.78 1.64,-8.08 0.71,-7.38 0.31,-6.28 -0.07,-5.18 0.48,-4.18 1.04,-3.18 1.26,-2.08 1.48,-0.98 1.57,-0.79 1.67,-0.60 1.72,-0.39 1.76,-0.18 1.76,0.02 1.76,0.24 1.70,0.45 1.65,0.65 1.55,0.84 1.44,1.03 1.30,1.19 1.15,1.35 0.97,1.46 0.80,1.58 0.59,1.66 0.39,1.73 0.18,1.75 -0.02,1.77 -0.24,1.74 -0.45,1.72 -0.65,1.64 -0.85,1.56 -1.02,1.43 -1.20,1.31 -1.34,1.14 -1.48,0.98 -1.48,0.98 L -1.48,0.98 Z"></path></g><g transform="translate(459 52) rotate(0 1.5 -19.5)" stroke="none"><path fill="#1e1e1e" d="M 1.47,0.98 Q 1.47,0.98 1.13,2.04 0.80,3.10 -0.01,3.81 -0.83,4.52 -2.37,5.00 -3.91,5.48 -5.57,5.50 -7.23,5.52 -8.23,5.01 -9.24,4.49 -10.54,3.35 -11.84,2.20 -13.01,0.69 -14.18,-0.82 -14.64,-1.80 -15.11,-2.78 -16.05,-4.97 -16.98,-7.17 -17.26,-8.85 -17.55,-10.53 -17.91,-12.18 -18.27,-13.82 -18.46,-15.26 -18.65,-16.70 -18.73,-18.24 -18.81,-19.78 -18.52,-21.33 -18.24,-22.88 -18.15,-24.06 -18.07,-25.24 -17.37,-27.34 -16.68,-29.43 -15.64,-31.94 -14.61,-34.46 -14.04,-35.57 -13.46,-36.69 -12.48,-37.98 -11.50,-39.27 -10.57,-40.01 -9.63,-40.74 -8.46,-41.53 -7.28,-42.32 -5.85,-42.82 -4.42,-43.32 -2.81,-43.78 -1.21,-44.23 0.63,-44.17 2.49,-44.11 5.10,-43.70 7.71,-43.29 9.46,-42.45 11.21,-41.62 12.74,-40.20 14.28,-38.77 15.47,-37.28 16.66,-35.79 17.37,-34.96 18.08,-34.13 18.88,-32.60 19.68,-31.07 20.42,-28.50 21.17,-25.94 21.36,-24.89 21.56,-23.84 21.36,-21.07 21.16,-18.29 20.76,-16.00 20.37,-13.71 19.85,-12.25 19.33,-10.78 18.74,-9.75 18.15,-8.71 16.93,-7.30 15.71,-5.88 14.63,-4.75 13.56,-3.62 11.95,-2.63 10.34,-1.64 8.23,-0.65 6.12,0.33 4.27,0.50 2.42,0.67 0.55,0.20 -1.32,-0.25 -1.53,-0.52 -1.75,-0.79 -1.86,-0.90 -1.97,-1.01 -2.06,-1.15 -2.14,-1.28 -2.19,-1.43 -2.24,-1.58 -2.25,-1.74 -2.26,-1.90 -2.23,-2.05 -2.21,-2.21 -2.14,-2.36 -2.08,-2.50 -1.98,-2.63 -1.89,-2.75 -1.76,-2.85 -1.64,-2.95 -1.49,-3.02 -1.35,-3.08 -1.19,-3.11 -1.04,-3.14 -0.88,-3.13 -0.72,-3.12 -0.57,-3.08 -0.42,-3.03 -0.28,-2.95 -0.15,-2.87 0.09,-2.45 0.34,-2.03 0.34,-1.82 0.34,-1.61 0.27,-1.41 0.20,-1.21 0.07,-1.04 -0.05,-0.87 -0.23,-0.75 -0.41,-0.63 -0.61,-0.58 -0.82,-0.52 -1.03,-0.54 -1.24,-0.55 -1.44,-0.63 -1.64,-0.71 -1.80,-0.85 -1.96,-0.99 -2.06,-1.17 -2.17,-1.36 -2.22,-1.56 -2.26,-1.77 -2.24,-1.98 -2.21,-2.19 -2.12,-2.39 -2.03,-2.58 -1.88,-2.73 -1.73,-2.88 -1.55,-2.98 -1.36,-3.08 -1.15,-3.11 -0.94,-3.14 -0.73,-3.11 -0.52,-3.07 -0.33,-2.97 -0.14,-2.87 -0.00,-2.71 0.14,-2.56 0.22,-2.36 0.31,-2.17 0.33,-1.96 0.35,-1.75 0.30,-1.54 0.26,-1.33 0.15,-1.15 0.04,-0.97 -0.12,-0.84 -0.28,-0.70 -0.48,-0.62 -0.68,-0.55 -0.89,-0.54 -1.10,-0.53 -1.31,-0.59 -1.51,-0.64 -1.69,-0.76 -1.86,-0.89 -1.99,-1.06 -2.11,-1.23 -1.93,-1.01 -1.75,-0.79 -1.86,-0.90 -1.97,-1.01 -2.06,-1.15 -2.14,-1.28 -2.19,-1.43 -2.24,-1.58 -2.25,-1.74 -2.26,-1.90 -2.23,-2.05 -2.21,-2.21 -2.14,-2.36 -2.08,-2.50 -1.98,-2.63 -1.89,-2.75 -1.76,-2.85 -1.64,-2.95 -1.49,-3.01 -1.35,-3.08 -1.19,-3.11 -1.04,-3.14 -0.88,-3.13 -0.72,-3.12 -0.57,-3.08 -0.42,-3.03 -0.28,-2.95 -0.15,-2.87 0.98,-3.84 2.13,-4.81 3.88,-5.01 5.63,-5.22 6.56,-5.89 7.49,-6.57 8.48,-7.08 9.47,-7.58 10.45,-8.62 11.44,-9.66 12.35,-10.66 13.26,-11.65 14.00,-13.18 14.75,-14.71 15.11,-16.76 15.47,-18.81 15.56,-21.64 15.65,-24.47 15.27,-25.90 14.89,-27.33 14.29,-28.87 13.70,-30.41 12.92,-31.31 12.15,-32.21 11.18,-33.43 10.22,-34.66 9.39,-35.56 8.56,-36.47 7.45,-37.05 6.34,-37.63 5.27,-37.90 4.20,-38.17 2.39,-38.45 0.59,-38.74 -0.47,-38.32 -1.53,-37.91 -2.80,-37.66 -4.06,-37.41 -5.15,-36.67 -6.24,-35.93 -7.24,-34.95 -8.24,-33.98 -8.82,-32.84 -9.41,-31.70 -9.98,-30.72 -10.55,-29.73 -10.85,-28.59 -11.15,-27.45 -11.70,-26.08 -12.24,-24.72 -12.61,-22.36 -12.98,-20.01 -12.93,-18.70 -12.88,-17.40 -12.75,-16.21 -12.62,-15.03 -12.24,-13.19 -11.86,-11.35 -11.74,-10.25 -11.63,-9.15 -11.21,-8.03 -10.80,-6.90 -10.19,-5.46 -9.59,-4.02 -8.53,-2.35 -7.48,-0.68 -6.44,-0.18 -5.40,0.31 -4.25,0.33 -3.10,0.34 -2.28,-0.31 -1.47,-0.98 -1.33,-1.14 -1.19,-1.30 -1.02,-1.42 -0.84,-1.55 -0.64,-1.63 -0.45,-1.71 -0.23,-1.73 -0.02,-1.76 0.18,-1.74 0.39,-1.72 0.59,-1.65 0.79,-1.57 0.97,-1.46 1.15,-1.34 1.29,-1.18 1.43,-1.02 1.54,-0.84 1.64,-0.65 1.69,-0.44 1.75,-0.24 1.75,-0.02 1.75,0.18 1.71,0.39 1.66,0.60 1.56,0.79 1.47,0.98 1.47,0.98 L 1.47,0.98 Z"></path></g><g transform="translate(488 52) rotate(0 4.5 11)" stroke="none"><path fill="#1e1e1e" d="M 0.42,-1.71 Q 0.42,-1.71 1.67,-1.83 2.92,-1.94 4.75,-1.45 6.57,-0.95 8.05,-0.35 9.52,0.23 10.48,0.86 11.44,1.49 12.20,2.32 12.96,3.15 13.27,4.66 13.58,6.17 13.19,7.53 12.79,8.90 12.05,9.72 11.31,10.54 10.03,11.88 8.75,13.22 7.72,13.85 6.69,14.47 5.48,15.26 4.28,16.04 2.73,16.99 1.19,17.95 2.34,17.97 3.50,18.00 5.02,18.57 6.55,19.13 8.10,19.90 9.65,20.67 9.86,20.71 10.07,20.75 10.25,20.86 10.44,20.97 10.58,21.13 10.72,21.29 10.80,21.48 10.88,21.68 10.89,21.89 10.91,22.10 10.86,22.31 10.80,22.51 10.68,22.69 10.57,22.87 10.40,23.00 10.23,23.13 10.03,23.20 9.83,23.27 9.62,23.28 9.41,23.28 9.21,23.21 9.00,23.15 8.83,23.02 8.66,22.90 8.54,22.72 8.42,22.55 8.36,22.34 8.30,22.14 8.31,21.93 8.32,21.72 8.39,21.52 8.47,21.32 8.60,21.15 8.74,20.99 8.92,20.88 9.10,20.77 9.30,20.72 9.51,20.67 9.72,20.69 9.93,20.71 10.13,20.80 10.32,20.88 10.48,21.03 10.64,21.17 10.74,21.36 10.84,21.54 10.88,21.75 10.91,21.96 10.88,22.17 10.85,22.38 10.76,22.57 10.66,22.76 10.51,22.91 10.35,23.06 10.16,23.15 9.97,23.24 9.76,23.27 9.55,23.29 9.55,23.29 9.55,23.29 7.56,23.81 5.57,24.32 3.88,23.88 2.19,23.43 0.18,22.33 -1.81,21.23 -2.69,20.54 -3.57,19.84 -3.91,18.51 -4.25,17.18 -3.47,15.94 -2.68,14.71 -1.55,13.81 -0.41,12.92 0.49,12.25 1.39,11.57 2.68,10.75 3.97,9.93 5.22,9.20 6.47,8.46 7.75,7.21 9.03,5.95 7.90,5.34 6.78,4.72 5.76,4.34 4.74,3.95 3.20,3.52 1.67,3.09 0.62,2.40 -0.42,1.71 -0.62,1.63 -0.82,1.56 -1.00,1.43 -1.17,1.31 -1.31,1.15 -1.45,0.99 -1.55,0.80 -1.65,0.62 -1.70,0.41 -1.75,0.20 -1.75,-0.00 -1.75,-0.21 -1.69,-0.42 -1.64,-0.63 -1.54,-0.81 -1.44,-1.00 -1.30,-1.16 -1.16,-1.32 -0.99,-1.44 -0.81,-1.56 -0.61,-1.64 -0.41,-1.71 -0.20,-1.74 0.00,-1.76 0.21,-1.73 0.42,-1.71 0.42,-1.71 L 0.42,-1.71 Z"></path></g><g transform="translate(535 62) rotate(0 -3.5 -15.5)" stroke="none"><path fill="#1e1e1e" d="M -0.42,1.70 Q -0.42,1.70 -1.68,1.82 -2.95,1.95 -4.14,1.31 -5.34,0.67 -6.15,-0.57 -6.95,-1.81 -7.43,-3.07 -7.90,-4.33 -8.39,-5.72 -8.87,-7.10 -9.13,-8.46 -9.39,-9.82 -9.54,-11.99 -9.69,-14.15 -9.71,-15.84 -9.72,-17.54 -9.40,-19.11 -9.08,-20.69 -8.57,-23.18 -8.06,-25.68 -7.50,-26.79 -6.95,-27.89 -5.19,-30.03 -3.43,-32.17 -3.29,-32.33 -3.15,-32.49 -2.97,-32.60 -2.79,-32.71 -2.58,-32.75 -2.37,-32.80 -2.16,-32.78 -1.95,-32.75 -1.76,-32.66 -1.56,-32.57 -1.41,-32.43 -1.26,-32.28 -1.16,-32.09 -1.06,-31.91 -1.02,-31.70 -0.99,-31.49 -1.02,-31.28 -1.06,-31.07 -1.16,-30.88 -1.26,-30.69 -1.41,-30.55 -1.57,-30.40 -1.76,-30.31 -1.95,-30.22 -2.16,-30.20 -2.37,-30.18 -2.58,-30.22 -2.79,-30.27 -2.97,-30.38 -3.15,-30.49 -3.29,-30.65 -3.43,-30.81 -3.51,-31.01 -3.58,-31.21 -3.60,-31.42 -3.61,-31.63 -3.55,-31.84 -3.49,-32.04 -3.37,-32.22 -3.25,-32.39 -3.08,-32.52 -2.92,-32.65 -2.71,-32.72 -2.51,-32.78 -2.30,-32.78 -2.09,-32.78 -1.89,-32.71 -1.68,-32.65 -1.52,-32.52 -1.35,-32.39 -1.23,-32.21 -1.11,-32.04 -1.05,-31.83 -1.00,-31.63 -1.01,-31.42 -1.02,-31.20 -1.10,-31.01 -1.18,-30.81 -1.18,-30.81 -1.18,-30.81 -2.05,-27.58 -2.93,-24.35 -3.20,-23.20 -3.47,-22.05 -3.85,-19.80 -4.22,-17.56 -4.21,-15.93 -4.19,-14.31 -4.17,-13.23 -4.15,-12.14 -3.94,-10.50 -3.73,-8.86 -3.28,-7.51 -2.82,-6.17 -2.23,-4.63 -1.64,-3.10 -0.61,-2.40 0.42,-1.70 0.62,-1.62 0.82,-1.55 0.99,-1.43 1.17,-1.31 1.31,-1.15 1.45,-0.99 1.54,-0.80 1.64,-0.61 1.69,-0.41 1.74,-0.20 1.74,0.00 1.74,0.21 1.69,0.42 1.64,0.62 1.54,0.81 1.44,1.00 1.30,1.16 1.16,1.31 0.98,1.43 0.81,1.55 0.61,1.63 0.41,1.70 0.20,1.73 -0.00,1.75 -0.21,1.73 -0.42,1.70 -0.42,1.70 L -0.42,1.70 Z"></path></g><g transform="translate(548 42) rotate(0 2 15)" stroke="none"><path fill="#1e1e1e" d="M 0.91,1.37 Q 0.91,1.37 0.17,2.10 -0.55,2.84 -1.58,4.12 -2.61,5.39 -2.75,6.79 -2.90,8.20 -2.68,9.81 -2.45,11.43 -3.70,11.43 -4.95,11.44 -4.00,10.78 -3.05,10.12 -2.15,8.77 -1.24,7.42 -0.79,6.33 -0.34,5.25 0.16,4.18 0.67,3.10 1.12,2.10 1.57,1.09 1.54,0.56 1.51,0.02 1.63,-0.24 1.75,-0.52 1.93,-0.76 2.11,-1.00 2.35,-1.19 2.58,-1.37 2.86,-1.50 3.13,-1.63 3.42,-1.69 3.72,-1.74 4.02,-1.73 4.32,-1.71 4.61,-1.63 4.90,-1.54 5.16,-1.39 5.42,-1.24 5.63,-1.03 5.85,-0.82 6.01,-0.56 6.17,-0.31 6.26,-0.02 6.35,0.26 6.37,0.56 6.39,0.86 6.34,1.15 6.29,1.45 5.76,0.21 5.23,-1.01 6.36,0.26 7.49,1.55 8.01,3.43 8.53,5.31 9.04,6.79 9.55,8.27 9.88,9.34 10.21,10.41 10.40,11.69 10.60,12.96 11.13,14.92 11.66,16.88 11.80,19.02 11.94,21.16 11.98,22.91 12.02,24.67 11.68,26.05 11.35,27.44 10.86,28.63 10.37,29.83 9.56,30.74 8.75,31.66 7.30,32.61 5.85,33.56 3.55,33.11 1.25,32.67 0.98,30.03 0.71,27.40 0.73,27.19 0.75,26.98 0.83,26.78 0.91,26.59 1.06,26.43 1.20,26.27 1.38,26.17 1.57,26.06 1.78,26.02 1.99,25.98 2.20,26.01 2.41,26.04 2.60,26.14 2.79,26.23 2.94,26.38 3.09,26.53 3.18,26.72 3.28,26.91 3.30,27.12 3.33,27.34 3.29,27.54 3.25,27.75 3.15,27.94 3.04,28.12 2.88,28.26 2.72,28.41 2.53,28.49 2.33,28.57 2.12,28.59 1.91,28.61 1.70,28.55 1.50,28.50 1.32,28.39 1.14,28.27 1.01,28.11 0.87,27.94 0.80,27.74 0.73,27.54 0.72,27.33 0.72,27.12 0.78,26.91 0.84,26.71 0.97,26.54 1.09,26.37 1.27,26.24 1.44,26.12 1.64,26.06 1.84,26.00 2.06,26.00 2.27,26.01 2.47,26.08 2.67,26.16 2.83,26.29 3.00,26.42 3.11,26.60 3.23,26.78 3.28,26.99 3.33,27.19 3.33,27.19 3.33,27.19 4.08,27.22 4.83,27.25 5.39,25.94 5.96,24.62 5.96,22.96 5.97,21.29 5.97,20.18 5.98,19.06 5.92,17.56 5.86,16.06 5.30,14.01 4.75,11.97 4.39,10.17 4.02,8.37 3.58,6.98 3.14,5.59 2.91,4.19 2.68,2.80 2.09,1.41 1.51,0.02 1.63,-0.24 1.75,-0.52 1.93,-0.76 2.11,-1.00 2.35,-1.19 2.58,-1.37 2.86,-1.50 3.13,-1.63 3.42,-1.69 3.72,-1.74 4.02,-1.73 4.32,-1.71 4.61,-1.63 4.90,-1.54 5.16,-1.39 5.42,-1.24 5.63,-1.03 5.85,-0.82 6.01,-0.56 6.17,-0.31 6.26,-0.02 6.35,0.26 6.37,0.56 6.39,0.86 6.34,1.15 6.29,1.45 6.13,1.92 5.97,2.39 5.41,3.41 4.85,4.43 4.31,5.50 3.78,6.57 2.96,8.29 2.14,10.01 1.45,11.07 0.76,12.13 -0.63,13.03 -2.04,13.92 -4.11,13.06 -6.18,12.20 -6.58,10.65 -6.99,9.11 -6.93,7.82 -6.87,6.54 -6.70,5.46 -6.53,4.38 -5.58,2.94 -4.64,1.50 -3.76,0.47 -2.89,-0.54 -1.90,-0.95 -0.91,-1.37 -0.73,-1.45 -0.55,-1.54 -0.36,-1.59 -0.17,-1.63 0.02,-1.63 0.22,-1.63 0.41,-1.58 0.60,-1.53 0.78,-1.43 0.95,-1.34 1.10,-1.20 1.25,-1.07 1.36,-0.90 1.47,-0.74 1.53,-0.55 1.60,-0.36 1.62,-0.17 1.64,0.02 1.61,0.22 1.59,0.42 1.51,0.60 1.44,0.78 1.33,0.95 1.21,1.11 1.06,1.24 0.91,1.37 0.91,1.37 L 0.91,1.37 Z"></path></g><g transform="translate(568 25) rotate(0 4 18)" stroke="none"><path fill="#1e1e1e" d="M 0.41,-1.66 Q 0.41,-1.66 1.70,-1.69 2.98,-1.72 3.93,-1.10 4.87,-0.49 5.88,0.71 6.89,1.92 8.19,3.63 9.49,5.35 9.93,7.34 10.36,9.32 10.75,10.72 11.14,12.11 11.08,14.33 11.02,16.54 10.98,18.12 10.94,19.69 10.62,21.48 10.30,23.27 9.87,25.13 9.45,26.99 8.91,28.29 8.36,29.60 7.74,31.43 7.13,33.26 5.96,34.66 4.80,36.05 2.18,36.64 -0.44,37.23 -0.65,37.23 -0.86,37.24 -1.07,37.17 -1.27,37.11 -1.44,36.99 -1.61,36.86 -1.74,36.69 -1.86,36.51 -1.92,36.31 -1.98,36.11 -1.98,35.90 -1.97,35.68 -1.90,35.48 -1.82,35.29 -1.69,35.12 -1.55,34.95 -1.38,34.84 -1.20,34.73 -0.99,34.68 -0.78,34.63 -0.57,34.65 -0.36,34.66 -0.16,34.75 0.02,34.83 0.18,34.98 0.34,35.12 0.44,35.30 0.54,35.49 0.58,35.70 0.62,35.91 0.59,36.12 0.56,36.33 0.47,36.52 0.37,36.71 0.22,36.86 0.07,37.01 -0.11,37.10 -0.30,37.19 -0.51,37.22 -0.72,37.25 -0.93,37.21 -1.14,37.17 -1.32,37.06 -1.51,36.96 -1.65,36.80 -1.79,36.64 -1.87,36.44 -1.96,36.25 -1.97,36.04 -1.99,35.82 -1.94,35.62 -1.89,35.41 -1.77,35.23 -1.66,35.05 -1.49,34.92 -1.32,34.79 -1.12,34.72 -0.92,34.65 -0.92,34.65 -0.92,34.65 -0.16,33.49 0.60,32.34 1.51,31.12 2.42,29.89 3.10,27.77 3.77,25.65 4.19,23.89 4.61,22.13 4.91,20.81 5.21,19.50 5.27,17.82 5.34,16.15 5.52,14.78 5.71,13.41 5.32,11.78 4.93,10.16 4.90,9.09 4.87,8.02 3.83,6.52 2.79,5.01 2.20,3.94 1.61,2.87 0.59,2.27 -0.41,1.66 -0.61,1.59 -0.80,1.51 -0.97,1.40 -1.14,1.28 -1.28,1.12 -1.41,0.97 -1.51,0.78 -1.60,0.60 -1.65,0.40 -1.70,0.20 -1.70,-0.00 -1.70,-0.21 -1.65,-0.41 -1.60,-0.61 -1.50,-0.79 -1.41,-0.98 -1.27,-1.13 -1.13,-1.29 -0.96,-1.40 -0.79,-1.52 -0.59,-1.59 -0.40,-1.67 -0.19,-1.69 0.00,-1.71 0.21,-1.69 0.41,-1.66 0.41,-1.66 L 0.41,-1.66 Z"></path></g><g stroke-linecap="round"><g transform="translate(634 42) rotate(0 84.5 -0.5)"><path d="M0.99 0.79 C29.38 0.53, 141.22 -1.41, 169.23 -1.52 M0.04 0.16 C28.39 0.06, 140.36 0.04, 168.4 -0.25" stroke="#1e1e1e" stroke-width="1" fill="none"></path></g><g transform="translate(634 42) rotate(0 84.5 -0.5)"><path d="M144.95 8.41 C151.11 6.81, 153.78 4.69, 168.4 -0.25 M144.95 8.41 C154.75 4.4, 164.34 0.95, 168.4 -0.25" stroke="#1e1e1e" stroke-width="1" fill="none"></path></g><g transform="translate(634 42) rotate(0 84.5 -0.5)"><path d="M144.87 -8.69 C151.06 -6.76, 153.74 -5.34, 168.4 -0.25 M144.87 -8.69 C154.54 -5.95, 164.16 -2.64, 168.4 -0.25" stroke="#1e1e1e" stroke-width="1" fill="none"></path></g></g><mask></mask><g transform="translate(853 29) rotate(0 4 12)" stroke="none"><path fill="#1e1e1e" d="M -1.19,0.79 Q -1.19,0.79 -2.17,0.24 -3.16,-0.30 -4.15,-1.59 -5.14,-2.87 -5.06,-4.12 -4.97,-5.36 -4.38,-6.69 -3.78,-8.01 -2.87,-8.67 -1.95,-9.32 -0.80,-9.96 0.34,-10.59 1.86,-11.14 3.37,-11.69 4.45,-11.80 5.53,-11.90 7.17,-11.94 8.81,-11.98 10.02,-11.58 11.23,-11.19 12.58,-10.59 13.92,-9.99 14.81,-8.90 15.71,-7.82 16.65,-5.89 17.59,-3.97 17.70,-2.81 17.81,-1.66 17.43,0.36 17.04,2.39 16.02,4.06 15.01,5.74 13.49,6.98 11.97,8.21 10.82,8.82 9.66,9.43 8.12,10.42 6.58,11.41 6.13,11.46 5.69,11.50 5.36,11.59 5.04,11.67 4.70,11.68 4.36,11.68 4.03,11.61 3.70,11.53 3.40,11.38 3.10,11.23 2.85,11.01 2.59,10.79 2.40,10.51 2.20,10.24 2.08,9.92 1.95,9.61 1.91,9.28 1.86,8.94 1.90,8.61 1.93,8.27 2.05,7.95 2.16,7.64 2.35,7.36 2.54,7.08 2.79,6.85 3.04,6.62 3.33,6.46 3.63,6.30 5.27,7.19 6.91,8.07 8.03,8.70 9.16,9.33 10.45,10.22 11.75,11.11 12.81,11.68 13.86,12.25 14.69,13.30 15.51,14.34 16.59,15.83 17.68,17.32 18.21,19.45 18.74,21.58 18.43,22.84 18.12,24.10 17.55,25.58 16.99,27.05 15.96,28.25 14.94,29.45 13.90,30.13 12.86,30.81 11.34,31.87 9.82,32.93 8.16,33.62 6.49,34.31 4.85,34.59 3.21,34.87 1.33,34.98 -0.54,35.09 -2.24,35.10 -3.94,35.10 -6.38,34.07 -8.82,33.04 -8.94,32.86 -9.05,32.68 -9.11,32.48 -9.16,32.27 -9.15,32.06 -9.14,31.85 -9.06,31.65 -8.98,31.46 -8.84,31.29 -8.70,31.13 -8.52,31.03 -8.33,30.92 -8.12,30.87 -7.92,30.83 -7.71,30.86 -7.49,30.88 -7.30,30.97 -7.11,31.06 -6.96,31.21 -6.80,31.36 -6.71,31.55 -6.61,31.74 -6.58,31.95 -6.54,32.16 -6.58,32.36 -6.62,32.57 -6.72,32.76 -6.82,32.95 -6.97,33.09 -7.13,33.24 -7.32,33.32 -7.52,33.41 -7.73,33.43 -7.94,33.45 -8.15,33.41 -8.35,33.36 -8.54,33.25 -8.72,33.14 -8.85,32.97 -8.99,32.81 -9.07,32.61 -9.14,32.41 -9.15,32.20 -9.16,31.99 -9.10,31.78 -9.04,31.58 -8.92,31.41 -8.80,31.23 -8.63,31.10 -8.46,30.98 -8.26,30.91 -8.06,30.84 -7.85,30.85 -7.63,30.85 -7.43,30.92 -7.23,30.99 -7.06,31.12 -6.90,31.25 -6.90,31.25 -6.90,31.25 -6.10,30.11 -5.31,28.97 -3.96,28.91 -2.61,28.85 -0.84,28.80 0.92,28.76 2.47,28.66 4.01,28.56 5.35,28.07 6.68,27.57 8.16,26.60 9.64,25.62 10.75,24.56 11.86,23.49 12.41,22.22 12.96,20.94 12.54,19.91 12.12,18.89 11.16,17.56 10.19,16.24 8.81,15.44 7.42,14.64 5.93,13.48 4.44,12.33 3.62,11.66 2.80,10.99 4.24,11.24 5.69,11.50 5.36,11.59 5.04,11.67 4.70,11.68 4.36,11.68 4.03,11.61 3.70,11.53 3.40,11.38 3.10,11.23 2.85,11.01 2.59,10.79 2.40,10.51 2.20,10.24 2.08,9.92 1.95,9.61 1.91,9.28 1.86,8.94 1.90,8.61 1.93,8.27 2.05,7.95 2.16,7.64 2.35,7.36 2.54,7.08 2.79,6.85 3.04,6.62 3.33,6.46 3.63,6.30 3.89,6.53 4.16,6.77 5.14,5.95 6.12,5.13 7.07,4.64 8.02,4.15 9.18,3.26 10.34,2.37 11.18,1.18 12.02,-0.01 11.95,-1.52 11.89,-3.03 11.18,-4.13 10.47,-5.24 8.82,-5.59 7.17,-5.94 5.98,-5.90 4.78,-5.85 3.44,-5.47 2.10,-5.10 1.48,-4.12 0.86,-3.14 1.02,-1.96 1.19,-0.79 1.26,-0.64 1.34,-0.48 1.38,-0.31 1.42,-0.14 1.42,0.02 1.41,0.19 1.37,0.36 1.33,0.52 1.24,0.68 1.16,0.83 1.04,0.95 0.93,1.08 0.78,1.18 0.64,1.27 0.48,1.33 0.32,1.39 0.14,1.41 -0.02,1.43 -0.19,1.40 -0.36,1.38 -0.52,1.32 -0.68,1.25 -0.82,1.15 -0.96,1.05 -1.07,0.92 -1.19,0.79 -1.19,0.79 L -1.19,0.79 Z"></path></g><g transform="translate(922 34) rotate(0 -12 9.5)" stroke="none"><path fill="#1e1e1e" d="M -1.76,-0.58 Q -1.76,-0.58 -1.90,-1.32 -2.04,-2.06 -3.64,-2.77 -5.23,-3.48 -7.55,-2.91 -9.87,-2.34 -11.34,-1.26 -12.81,-0.19 -13.87,0.81 -14.93,1.81 -15.71,2.55 -16.49,3.30 -17.23,4.29 -17.98,5.28 -18.49,6.37 -18.99,7.46 -19.67,8.50 -20.35,9.54 -20.78,11.15 -21.22,12.75 -21.42,14.66 -21.62,16.57 -21.09,17.94 -20.56,19.30 -19.59,19.92 -18.63,20.55 -17.56,21.07 -16.50,21.60 -15.35,22.05 -14.21,22.51 -13.12,22.68 -12.04,22.86 -9.69,23.77 -7.35,24.68 -7.14,24.71 -6.93,24.75 -6.74,24.85 -6.56,24.95 -6.41,25.11 -6.27,25.26 -6.18,25.46 -6.09,25.65 -6.07,25.86 -6.05,26.07 -6.10,26.28 -6.14,26.49 -6.25,26.67 -6.37,26.85 -6.53,26.99 -6.69,27.12 -6.89,27.20 -7.09,27.28 -7.30,27.29 -7.51,27.30 -7.72,27.24 -7.92,27.18 -8.10,27.06 -8.27,26.94 -8.40,26.77 -8.53,26.60 -8.59,26.39 -8.66,26.19 -8.66,25.98 -8.65,25.77 -8.58,25.57 -8.51,25.37 -8.38,25.20 -8.25,25.03 -8.08,24.91 -7.90,24.79 -7.69,24.74 -7.49,24.68 -7.28,24.70 -7.07,24.71 -6.87,24.79 -6.67,24.87 -6.51,25.01 -6.35,25.15 -6.24,25.33 -6.13,25.52 -6.09,25.72 -6.05,25.93 -6.07,26.14 -6.10,26.35 -6.19,26.55 -6.28,26.74 -6.43,26.89 -6.57,27.04 -6.76,27.14 -6.95,27.24 -7.16,27.27 -7.37,27.31 -7.37,27.31 -7.37,27.31 -9.94,28.12 -12.51,28.93 -13.61,28.88 -14.71,28.82 -16.34,28.32 -17.97,27.81 -19.35,27.36 -20.74,26.92 -22.09,26.09 -23.44,25.27 -24.37,24.52 -25.31,23.76 -25.95,22.73 -26.60,21.69 -27.07,20.48 -27.54,19.26 -27.85,17.75 -28.16,16.24 -28.09,15.01 -28.01,13.79 -27.81,12.40 -27.61,11.01 -27.19,9.44 -26.76,7.86 -25.88,6.17 -25.00,4.49 -24.15,2.84 -23.31,1.20 -22.22,-0.17 -21.13,-1.55 -20.31,-2.33 -19.48,-3.11 -18.13,-4.34 -16.77,-5.57 -15.82,-6.26 -14.86,-6.95 -13.17,-7.85 -11.49,-8.75 -9.84,-9.13 -8.20,-9.51 -6.60,-9.68 -5.00,-9.86 -3.59,-9.46 -2.17,-9.05 -1.18,-8.43 -0.19,-7.82 0.84,-6.91 1.89,-6.00 2.36,-4.80 2.84,-3.60 3.02,-2.49 3.19,-1.38 2.47,-0.39 1.76,0.58 1.66,0.78 1.57,0.99 1.42,1.16 1.28,1.33 1.10,1.47 0.92,1.60 0.72,1.69 0.51,1.78 0.29,1.81 0.07,1.85 -0.14,1.83 -0.37,1.81 -0.58,1.74 -0.79,1.67 -0.98,1.55 -1.17,1.43 -1.32,1.27 -1.48,1.11 -1.59,0.92 -1.70,0.72 -1.77,0.51 -1.83,0.29 -1.84,0.07 -1.85,-0.14 -1.80,-0.36 -1.76,-0.58 -1.76,-0.58 L -1.76,-0.58 Z"></path></g><g transform="translate(961 65) rotate(0 -3.5 -13.5)" stroke="none"><path fill="#1e1e1e" d="M 0,1.72 Q 0,1.72 -0.90,1.97 -1.80,2.23 -2.96,1.83 -4.12,1.43 -5.20,0.38 -6.27,-0.66 -7.24,-2.44 -8.22,-4.21 -8.82,-6.51 -9.42,-8.82 -9.24,-11.78 -9.06,-14.75 -8.63,-16.49 -8.20,-18.24 -7.69,-19.64 -7.19,-21.04 -6.66,-22.40 -6.13,-23.77 -5.47,-24.81 -4.82,-25.86 -3.65,-26.93 -2.47,-28.01 -2.34,-28.18 -2.22,-28.35 -2.04,-28.47 -1.87,-28.59 -1.66,-28.64 -1.46,-28.70 -1.24,-28.69 -1.03,-28.68 -0.83,-28.60 -0.64,-28.53 -0.47,-28.39 -0.31,-28.25 -0.20,-28.07 -0.09,-27.89 -0.04,-27.68 -0.00,-27.48 -0.02,-27.27 -0.04,-27.05 -0.13,-26.86 -0.22,-26.67 -0.36,-26.51 -0.51,-26.36 -0.69,-26.26 -0.88,-26.16 -1.09,-26.12 -1.30,-26.08 -1.51,-26.12 -1.72,-26.15 -1.91,-26.25 -2.10,-26.35 -2.24,-26.50 -2.39,-26.66 -2.48,-26.85 -2.57,-27.04 -2.59,-27.25 -2.62,-27.46 -2.57,-27.67 -2.53,-27.88 -2.42,-28.06 -2.31,-28.24 -2.15,-28.38 -1.99,-28.52 -1.79,-28.60 -1.60,-28.68 -1.38,-28.69 -1.17,-28.70 -0.97,-28.65 -0.76,-28.59 -0.59,-28.47 -0.41,-28.36 -0.28,-28.19 -0.15,-28.02 -0.08,-27.82 -0.01,-27.62 -0.01,-27.41 -0.01,-27.19 -0.08,-26.99 -0.14,-26.79 -0.14,-26.79 -0.14,-26.79 -0.71,-24.44 -1.29,-22.09 -1.72,-20.65 -2.15,-19.22 -2.56,-18.09 -2.97,-16.96 -3.33,-15.46 -3.70,-13.97 -3.95,-12.48 -4.21,-10.99 -4.11,-9.31 -4.00,-7.63 -3.70,-6.25 -3.40,-4.88 -2.52,-3.55 -1.64,-2.23 -0.82,-1.97 0,-1.72 0.20,-1.69 0.41,-1.67 0.60,-1.59 0.80,-1.52 0.97,-1.40 1.14,-1.28 1.27,-1.13 1.41,-0.97 1.51,-0.79 1.61,-0.61 1.66,-0.40 1.70,-0.20 1.70,0.00 1.70,0.20 1.66,0.40 1.61,0.61 1.51,0.79 1.41,0.97 1.27,1.13 1.14,1.28 0.97,1.40 0.80,1.52 0.60,1.59 0.41,1.67 0.20,1.69 -0.00,1.72 -0.00,1.72 L 0,1.72 Z"></path></g><g transform="translate(976 45) rotate(0 -4.5 8.5)" stroke="none"><path fill="#1e1e1e" d="M -0.55,1.66 Q -0.55,1.66 -1.44,1.81 -2.33,1.95 -1.29,3.26 -0.26,4.56 0.52,6.38 1.30,8.20 1.87,9.31 2.43,10.42 2.62,11.75 2.81,13.09 2.38,14.89 1.96,16.70 0.33,18.23 -1.29,19.76 -2.64,20.17 -3.99,20.58 -6.93,19.29 -9.88,17.99 -9.98,17.81 -10.09,17.62 -10.13,17.41 -10.17,17.21 -10.14,17.00 -10.11,16.79 -10.01,16.59 -9.92,16.40 -9.77,16.25 -9.62,16.10 -9.43,16.01 -9.24,15.92 -9.03,15.89 -8.82,15.86 -8.61,15.90 -8.40,15.94 -8.21,16.04 -8.03,16.15 -7.89,16.31 -7.75,16.46 -7.66,16.66 -7.58,16.86 -7.56,17.07 -7.54,17.28 -7.60,17.48 -7.65,17.69 -7.76,17.87 -7.88,18.05 -8.04,18.18 -8.21,18.31 -8.41,18.39 -8.61,18.46 -8.82,18.47 -9.03,18.47 -9.23,18.41 -9.44,18.35 -9.61,18.22 -9.78,18.10 -9.91,17.93 -10.03,17.75 -10.09,17.55 -10.15,17.35 -10.15,17.14 -10.14,16.92 -10.07,16.72 -10.00,16.52 -9.86,16.36 -9.73,16.19 -9.55,16.08 -9.37,15.96 -9.17,15.91 -8.96,15.86 -8.75,15.88 -8.54,15.90 -8.34,15.98 -8.15,16.07 -7.99,16.21 -7.83,16.35 -7.83,16.35 -7.83,16.35 -6.60,15.56 -5.36,14.78 -4.11,14.45 -2.86,14.11 -2.86,12.86 -2.86,11.61 -3.48,10.25 -4.09,8.88 -4.91,7.30 -5.72,5.72 -6.25,4.49 -6.77,3.26 -6.91,2.06 -7.05,0.87 -6.39,-0.40 -5.72,-1.69 -4.72,-2.26 -3.73,-2.83 -2.42,-2.97 -1.11,-3.10 -0.28,-2.38 0.55,-1.66 0.74,-1.57 0.93,-1.48 1.10,-1.34 1.26,-1.21 1.39,-1.04 1.51,-0.87 1.60,-0.68 1.68,-0.48 1.71,-0.28 1.75,-0.07 1.73,0.13 1.71,0.35 1.65,0.55 1.58,0.75 1.47,0.93 1.35,1.10 1.20,1.25 1.05,1.40 0.87,1.50 0.68,1.61 0.48,1.67 0.28,1.73 0.07,1.74 -0.14,1.74 -0.34,1.70 -0.55,1.66 -0.55,1.66 L -0.55,1.66 Z"></path></g><g transform="translate(983 34) rotate(0 2 18)" stroke="none"><path fill="#1e1e1e" d="M 1.23,-1.23 Q 1.23,-1.23 2.41,-0.68 3.59,-0.13 4.43,0.95 5.27,2.04 6.17,3.31 7.07,4.57 7.89,6.52 8.72,8.47 9.05,9.61 9.39,10.75 9.58,12.60 9.77,14.44 9.87,16.46 9.98,18.48 10.00,19.79 10.02,21.09 9.72,22.81 9.41,24.52 8.96,25.90 8.50,27.27 7.84,28.94 7.17,30.61 6.24,32.32 5.30,34.03 4.16,35.10 3.02,36.17 0.26,36.71 -2.50,37.24 -2.71,37.24 -2.92,37.24 -3.12,37.18 -3.32,37.11 -3.49,36.98 -3.66,36.85 -3.78,36.67 -3.90,36.50 -3.96,36.29 -4.01,36.09 -4.00,35.88 -3.99,35.66 -3.91,35.47 -3.83,35.27 -3.69,35.11 -3.56,34.95 -3.37,34.84 -3.19,34.73 -2.98,34.68 -2.78,34.64 -2.57,34.66 -2.35,34.68 -2.16,34.77 -1.97,34.86 -1.82,35.01 -1.66,35.16 -1.56,35.34 -1.46,35.53 -1.43,35.74 -1.39,35.95 -1.43,36.16 -1.46,36.37 -1.56,36.56 -1.66,36.74 -1.82,36.89 -1.97,37.04 -2.17,37.13 -2.36,37.21 -2.57,37.24 -2.78,37.26 -2.99,37.21 -3.20,37.17 -3.38,37.06 -3.56,36.95 -3.70,36.79 -3.83,36.62 -3.91,36.43 -3.99,36.23 -4.00,36.02 -4.01,35.80 -3.96,35.60 -3.90,35.39 -3.78,35.22 -3.66,35.04 -3.49,34.92 -3.32,34.79 -3.12,34.72 -2.92,34.65 -2.92,34.65 -2.92,34.65 -1.82,33.23 -0.73,31.80 0.12,30.57 0.97,29.35 1.62,28.24 2.27,27.13 2.84,25.22 3.42,23.31 3.68,22.21 3.94,21.11 3.95,19.86 3.95,18.61 3.91,16.75 3.87,14.88 3.61,12.71 3.35,10.53 2.87,9.11 2.40,7.69 1.12,5.64 -0.14,3.58 -0.68,2.40 -1.23,1.23 -1.35,1.06 -1.48,0.90 -1.57,0.70 -1.66,0.51 -1.69,0.31 -1.73,0.10 -1.72,-0.10 -1.71,-0.31 -1.64,-0.51 -1.58,-0.71 -1.47,-0.89 -1.36,-1.07 -1.22,-1.22 -1.07,-1.36 -0.89,-1.47 -0.71,-1.58 -0.51,-1.64 -0.31,-1.71 -0.10,-1.72 0.10,-1.73 0.31,-1.69 0.51,-1.66 0.70,-1.57 0.90,-1.48 1.06,-1.35 1.23,-1.23 1.23,-1.23 L 1.23,-1.23 Z"></path></g><g transform="translate(1029 37) rotate(0 13 2)" stroke="none"><path fill="#1e1e1e" d="M 0.42,1.68 Q 0.42,1.68 -0.52,2.51 -1.47,3.34 -1.12,2.21 -0.77,1.08 -1.28,0.00 -1.79,-1.06 -0.45,-1.06 0.89,-1.06 2.42,-0.73 3.95,-0.40 5.91,-0.31 7.86,-0.23 9.36,-0.17 10.85,-0.12 12.85,0.22 14.85,0.58 16.08,0.71 17.31,0.84 18.38,0.93 19.44,1.03 21.76,1.21 24.07,1.39 26.76,2.04 29.44,2.68 29.65,2.72 29.86,2.75 30.04,2.85 30.23,2.95 30.38,3.10 30.52,3.26 30.61,3.45 30.70,3.65 30.72,3.86 30.75,4.07 30.70,4.28 30.65,4.48 30.54,4.66 30.43,4.85 30.27,4.98 30.11,5.12 29.91,5.20 29.71,5.28 29.50,5.29 29.29,5.30 29.09,5.24 28.88,5.18 28.71,5.06 28.53,4.95 28.40,4.78 28.27,4.61 28.21,4.40 28.14,4.20 28.14,3.99 28.14,3.78 28.21,3.58 28.28,3.38 28.41,3.21 28.53,3.04 28.71,2.92 28.89,2.80 29.09,2.74 29.30,2.69 29.51,2.70 29.72,2.71 29.92,2.79 30.11,2.87 30.28,3.01 30.44,3.15 30.55,3.33 30.66,3.51 30.70,3.72 30.75,3.93 30.72,4.14 30.70,4.35 30.61,4.54 30.52,4.73 30.37,4.89 30.23,5.04 30.04,5.14 29.85,5.24 29.64,5.27 29.43,5.31 29.43,5.31 29.43,5.31 26.73,5.94 24.03,6.57 22.70,6.65 21.36,6.73 20.26,6.76 19.16,6.80 17.94,6.78 16.72,6.76 15.28,6.63 13.83,6.50 12.23,6.23 10.63,5.96 9.08,5.91 7.53,5.86 5.02,5.70 2.52,5.54 0.87,5.28 -0.77,5.02 -1.96,4.93 -3.15,4.84 -4.46,3.27 -5.78,1.70 -4.45,-0.24 -3.12,-2.19 -1.77,-1.94 -0.42,-1.68 -0.21,-1.70 -0.00,-1.73 0.20,-1.70 0.40,-1.68 0.60,-1.61 0.80,-1.53 0.97,-1.41 1.14,-1.30 1.28,-1.14 1.42,-0.98 1.52,-0.80 1.61,-0.61 1.66,-0.41 1.71,-0.21 1.72,-0.00 1.72,0.20 1.67,0.40 1.62,0.60 1.52,0.79 1.42,0.97 1.29,1.13 1.15,1.29 0.98,1.41 0.81,1.53 0.61,1.60 0.42,1.68 0.42,1.68 L 0.42,1.68 Z"></path></g><g transform="translate(1044 52) rotate(0 -1.5 -12)" stroke="none"><path fill="#1e1e1e" d="M -1.96,0.32 Q -1.96,0.32 -2.58,-1.34 -3.20,-3.01 -3.38,-5.32 -3.55,-7.63 -3.62,-9.74 -3.69,-11.85 -3.95,-13.07 -4.21,-14.28 -4.31,-16.23 -4.40,-18.19 -4.23,-20.58 -4.06,-22.97 -4.08,-23.18 -4.11,-23.39 -4.07,-23.60 -4.03,-23.81 -3.93,-24.00 -3.82,-24.18 -3.66,-24.32 -3.51,-24.46 -3.31,-24.55 -3.12,-24.63 -2.90,-24.65 -2.69,-24.67 -2.49,-24.61 -2.28,-24.56 -2.10,-24.45 -1.92,-24.33 -1.79,-24.17 -1.66,-24.00 -1.58,-23.80 -1.51,-23.60 -1.50,-23.39 -1.50,-23.18 -1.56,-22.97 -1.62,-22.77 -1.75,-22.60 -1.87,-22.43 -2.04,-22.30 -2.22,-22.18 -2.42,-22.12 -2.62,-22.05 -2.84,-22.06 -3.05,-22.07 -3.25,-22.14 -3.45,-22.21 -3.61,-22.35 -3.78,-22.48 -3.89,-22.66 -4.01,-22.84 -4.06,-23.04 -4.11,-23.25 -4.09,-23.46 -4.07,-23.67 -3.99,-23.87 -3.91,-24.06 -3.76,-24.22 -3.62,-24.38 -3.44,-24.49 -3.25,-24.59 -3.04,-24.63 -2.83,-24.67 -2.62,-24.64 -2.41,-24.61 -2.22,-24.52 -2.03,-24.42 -1.88,-24.27 -1.73,-24.12 -1.64,-23.93 -1.54,-23.74 -1.54,-23.74 -1.54,-23.74 -0.37,-21.16 0.79,-18.57 0.96,-16.99 1.13,-15.41 1.49,-13.71 1.85,-12.01 1.88,-9.97 1.91,-7.94 1.98,-5.91 2.05,-3.88 2.00,-2.10 1.96,-0.32 1.97,-0.08 1.98,0.15 1.93,0.38 1.88,0.62 1.78,0.83 1.68,1.05 1.53,1.24 1.38,1.42 1.19,1.57 1.00,1.71 0.78,1.81 0.56,1.90 0.32,1.94 0.08,1.98 -0.15,1.96 -0.39,1.95 -0.61,1.87 -0.84,1.80 -1.04,1.67 -1.25,1.54 -1.41,1.37 -1.58,1.20 -1.70,0.99 -1.82,0.78 -1.89,0.55 -1.96,0.32 -1.96,0.32 L -1.96,0.32 Z"></path></g><g transform="translate(1130 61) rotate(0 1.5 -16.5)" stroke="none"><path fill="#1e1e1e" d="M 1.69,-0.56 Q 1.69,-0.56 2.19,0.05 2.69,0.66 3.15,0.80 3.62,0.94 3.69,1.29 3.76,1.64 3.75,2.00 3.73,2.35 3.63,2.70 3.53,3.04 3.35,3.35 3.18,3.65 2.93,3.91 2.68,4.17 2.38,4.36 2.08,4.55 1.74,4.66 1.40,4.77 1.05,4.80 0.69,4.83 0.34,4.77 -0.00,4.72 -0.33,4.58 -0.65,4.44 -0.94,4.22 -1.22,4.01 -1.45,3.73 -1.67,3.46 -1.83,3.13 -1.98,2.81 -2.04,1.66 -2.09,0.51 -2.10,-0.96 -2.11,-2.43 -1.82,-4.55 -1.52,-6.67 -1.42,-7.95 -1.31,-9.23 -1.28,-10.88 -1.24,-12.52 -1.22,-14.67 -1.21,-16.81 -1.20,-18.31 -1.19,-19.80 -0.85,-21.83 -0.51,-23.86 -0.36,-25.08 -0.21,-26.30 -0.09,-27.65 0.01,-28.99 0.14,-30.14 0.26,-31.30 0.97,-33.36 1.68,-35.43 1.71,-35.64 1.75,-35.85 1.85,-36.03 1.95,-36.22 2.11,-36.37 2.26,-36.51 2.45,-36.60 2.65,-36.69 2.86,-36.71 3.07,-36.73 3.28,-36.69 3.48,-36.64 3.67,-36.53 3.85,-36.42 3.98,-36.26 4.12,-36.09 4.20,-35.90 4.28,-35.70 4.29,-35.49 4.30,-35.27 4.24,-35.07 4.18,-34.87 4.06,-34.69 3.94,-34.52 3.77,-34.39 3.60,-34.26 3.40,-34.19 3.20,-34.13 2.99,-34.13 2.77,-34.13 2.57,-34.20 2.37,-34.27 2.20,-34.39 2.03,-34.52 1.92,-34.70 1.80,-34.88 1.74,-35.08 1.69,-35.29 1.70,-35.50 1.71,-35.71 1.79,-35.91 1.87,-36.11 2.01,-36.27 2.15,-36.43 2.33,-36.54 2.51,-36.65 2.72,-36.69 2.93,-36.73 3.14,-36.71 3.35,-36.69 3.54,-36.60 3.73,-36.51 3.89,-36.36 4.04,-36.21 4.14,-36.02 4.24,-35.84 4.27,-35.63 4.31,-35.42 4.31,-35.42 4.31,-35.42 4.99,-33.31 5.67,-31.20 5.74,-29.99 5.82,-28.77 5.83,-27.26 5.84,-25.74 5.75,-24.30 5.65,-22.85 5.41,-21.30 5.16,-19.75 5.15,-18.25 5.14,-16.75 5.11,-14.54 5.08,-12.33 5.01,-10.50 4.94,-8.67 4.80,-7.19 4.66,-5.71 4.37,-4.04 4.08,-2.36 3.85,-0.70 3.62,0.94 3.69,1.29 3.76,1.64 3.75,2.00 3.73,2.35 3.63,2.70 3.53,3.04 3.35,3.35 3.18,3.65 2.93,3.91 2.68,4.17 2.38,4.36 2.08,4.55 1.74,4.66 1.40,4.77 1.05,4.80 0.69,4.83 0.34,4.77 -0.00,4.72 -0.33,4.58 -0.65,4.44 -0.94,4.22 -1.22,4.01 -1.45,3.73 -1.67,3.46 -1.83,3.13 -1.98,2.81 -1.76,2.80 -1.54,2.78 -1.61,1.67 -1.69,0.56 -1.73,0.35 -1.77,0.14 -1.76,-0.07 -1.75,-0.28 -1.69,-0.49 -1.63,-0.69 -1.53,-0.88 -1.42,-1.07 -1.27,-1.22 -1.12,-1.38 -0.94,-1.49 -0.76,-1.61 -0.55,-1.67 -0.35,-1.74 -0.14,-1.76 0.07,-1.78 0.28,-1.74 0.49,-1.71 0.69,-1.62 0.89,-1.54 1.06,-1.41 1.23,-1.28 1.37,-1.11 1.50,-0.95 1.59,-0.75 1.69,-0.56 1.69,-0.56 L 1.69,-0.56 Z"></path></g><g transform="translate(1134 40) rotate(0 -12.5 -8)" stroke="none"><path fill="#1e1e1e" d="M 0.47,1.91 Q 0.47,1.91 -0.60,2.46 -1.68,3.02 -3.49,3.67 -5.29,4.32 -7.30,4.09 -9.30,3.85 -10.68,3.84 -12.05,3.83 -14.10,3.42 -16.14,3.01 -17.65,2.94 -19.16,2.86 -20.70,2.86 -22.25,2.86 -23.72,2.63 -25.19,2.41 -26.13,1.73 -27.07,1.06 -27.05,-0.79 -27.04,-2.66 -26.58,-4.17 -26.12,-5.68 -25.72,-6.86 -25.33,-8.04 -24.77,-9.44 -24.22,-10.84 -23.68,-11.77 -23.13,-12.70 -22.61,-14.06 -22.08,-15.42 -21.21,-16.57 -20.34,-17.72 -20.29,-17.92 -20.23,-18.13 -20.11,-18.31 -20.00,-18.48 -19.83,-18.61 -19.66,-18.74 -19.46,-18.81 -19.26,-18.88 -19.05,-18.88 -18.84,-18.89 -18.63,-18.82 -18.43,-18.76 -18.26,-18.63 -18.09,-18.50 -17.97,-18.33 -17.85,-18.15 -17.79,-17.95 -17.73,-17.74 -17.74,-17.53 -17.75,-17.32 -17.83,-17.12 -17.90,-16.92 -18.04,-16.76 -18.18,-16.60 -18.36,-16.48 -18.54,-16.37 -18.74,-16.33 -18.95,-16.28 -19.16,-16.30 -19.37,-16.32 -19.57,-16.41 -19.76,-16.49 -19.92,-16.64 -20.07,-16.78 -20.17,-16.97 -20.28,-17.16 -20.31,-17.37 -20.35,-17.58 -20.32,-17.79 -20.28,-18.00 -20.19,-18.18 -20.09,-18.37 -19.94,-18.52 -19.78,-18.67 -19.59,-18.76 -19.40,-18.85 -19.19,-18.88 -18.98,-18.90 -18.77,-18.86 -18.56,-18.81 -18.38,-18.71 -18.19,-18.60 -18.06,-18.44 -17.92,-18.28 -17.84,-18.08 -17.76,-17.88 -17.74,-17.67 -17.73,-17.46 -17.73,-17.46 -17.73,-17.46 -17.53,-14.82 -17.34,-12.19 -17.64,-10.89 -17.94,-9.59 -18.40,-8.46 -18.86,-7.33 -19.55,-5.87 -20.25,-4.42 -20.72,-3.45 -21.18,-2.48 -21.93,-1.30 -22.68,-0.12 -23.00,-1.26 -23.32,-2.41 -22.26,-2.62 -21.20,-2.84 -20.08,-2.82 -18.95,-2.79 -17.25,-2.68 -15.55,-2.56 -14.54,-2.15 -13.53,-1.74 -11.82,-1.66 -10.11,-1.58 -7.73,-1.32 -5.36,-1.05 -4.14,-1.46 -2.91,-1.87 -1.69,-1.89 -0.47,-1.91 -0.24,-1.93 -0.00,-1.96 0.22,-1.94 0.46,-1.91 0.68,-1.82 0.90,-1.74 1.10,-1.61 1.30,-1.47 1.45,-1.30 1.61,-1.12 1.72,-0.91 1.83,-0.70 1.89,-0.47 1.95,-0.24 1.95,-0.00 1.95,0.23 1.89,0.46 1.84,0.69 1.73,0.90 1.62,1.11 1.46,1.29 1.31,1.46 1.11,1.60 0.92,1.74 0.69,1.82 0.47,1.91 0.47,1.91 L 0.47,1.91 Z"></path></g><g transform="translate(1166 66) rotate(0 -0.5 -17.5)" stroke="none"><path fill="#1e1e1e" d="M -1.72,0.43 Q -1.72,0.43 -2.58,-0.57 -3.44,-1.58 -3.61,-3.16 -3.79,-4.73 -3.85,-6.25 -3.92,-7.76 -3.95,-10.14 -3.98,-12.51 -4.00,-14.66 -4.02,-16.81 -4.02,-18.30 -4.03,-19.79 -4.03,-21.57 -4.03,-23.36 -4.00,-25.44 -3.98,-27.52 -3.61,-28.91 -3.24,-30.30 -3.06,-31.72 -2.88,-33.14 -2.26,-33.99 -1.64,-34.83 -1.78,-34.99 -1.93,-35.15 -2.01,-35.34 -2.09,-35.54 -2.11,-35.75 -2.13,-35.96 -2.07,-36.17 -2.02,-36.37 -1.91,-36.55 -1.79,-36.73 -1.63,-36.86 -1.46,-37.00 -1.26,-37.07 -1.06,-37.14 -0.85,-37.15 -0.64,-37.15 -0.43,-37.09 -0.23,-37.03 -0.06,-36.90 0.10,-36.78 0.23,-36.60 0.35,-36.43 0.41,-36.23 0.47,-36.03 0.47,-35.81 0.46,-35.60 0.39,-35.40 0.31,-35.20 0.18,-35.04 0.05,-34.87 -0.12,-34.76 -0.30,-34.64 -0.51,-34.59 -0.71,-34.54 -0.93,-34.56 -1.14,-34.58 -1.33,-34.66 -1.53,-34.75 -1.68,-34.89 -1.84,-35.03 -1.95,-35.22 -2.05,-35.40 -2.09,-35.61 -2.13,-35.82 -2.10,-36.03 -2.07,-36.24 -1.98,-36.43 -1.88,-36.62 -1.73,-36.77 -1.58,-36.92 -1.39,-37.01 -1.20,-37.11 -0.99,-37.14 -0.78,-37.16 -0.57,-37.12 -0.36,-37.08 -0.18,-36.98 0.00,-36.87 0.00,-36.87 0.00,-36.87 1.33,-34.02 2.66,-31.17 2.32,-29.31 1.98,-27.46 2.00,-25.41 2.03,-23.36 2.04,-21.59 2.04,-19.81 2.04,-18.32 2.05,-16.84 2.05,-14.71 2.05,-12.57 2.06,-10.28 2.08,-7.98 2.11,-6.62 2.15,-5.27 2.22,-4.14 2.29,-3.01 2.00,-1.72 1.72,-0.43 1.75,-0.21 1.77,-0.00 1.75,0.20 1.72,0.42 1.65,0.62 1.57,0.82 1.45,0.99 1.33,1.17 1.17,1.31 1.01,1.46 0.82,1.56 0.63,1.66 0.42,1.71 0.22,1.76 0.00,1.76 -0.20,1.76 -0.41,1.71 -0.62,1.66 -0.81,1.56 -1.00,1.46 -1.16,1.32 -1.32,1.18 -1.45,1.00 -1.57,0.83 -1.64,0.63 -1.72,0.43 -1.72,0.43 L -1.72,0.43 Z"></path></g><g transform="translate(1162 45) rotate(0 8.5 3)" stroke="none"><path fill="#1e1e1e" d="M 1.38,-1.38 Q 1.38,-1.38 2.50,-0.79 3.61,-0.20 4.70,0.43 5.79,1.08 7.24,1.43 8.68,1.77 10.20,1.95 11.72,2.13 14.20,3.37 16.68,4.62 16.88,4.68 17.08,4.75 17.25,4.88 17.42,5.00 17.54,5.18 17.66,5.35 17.72,5.56 17.78,5.76 17.77,5.97 17.76,6.19 17.69,6.38 17.61,6.58 17.47,6.74 17.34,6.91 17.16,7.02 16.97,7.13 16.77,7.18 16.56,7.23 16.35,7.20 16.14,7.18 15.94,7.10 15.75,7.01 15.59,6.86 15.44,6.72 15.34,6.53 15.24,6.35 15.20,6.14 15.16,5.93 15.20,5.72 15.23,5.51 15.33,5.32 15.42,5.13 15.58,4.98 15.73,4.83 15.92,4.74 16.11,4.65 16.32,4.63 16.54,4.60 16.74,4.65 16.95,4.69 17.13,4.80 17.32,4.91 17.46,5.07 17.60,5.23 17.68,5.42 17.76,5.62 17.77,5.83 17.78,6.05 17.73,6.25 17.67,6.46 17.56,6.63 17.44,6.81 17.27,6.94 17.10,7.07 16.90,7.14 16.70,7.21 16.49,7.21 16.28,7.21 16.28,7.21 16.28,7.21 13.81,7.44 11.35,7.67 10.23,7.62 9.11,7.57 7.13,7.04 5.14,6.50 3.40,5.69 1.66,4.88 0.74,4.27 -0.16,3.65 -0.77,2.52 -1.38,1.38 -1.53,1.20 -1.68,1.01 -1.77,0.80 -1.87,0.58 -1.91,0.35 -1.96,0.11 -1.94,-0.11 -1.93,-0.35 -1.86,-0.58 -1.79,-0.80 -1.66,-1.00 -1.54,-1.21 -1.37,-1.37 -1.21,-1.54 -1.00,-1.66 -0.80,-1.79 -0.58,-1.86 -0.35,-1.93 -0.11,-1.94 0.11,-1.96 0.35,-1.91 0.58,-1.87 0.80,-1.77 1.01,-1.68 1.20,-1.53 1.38,-1.38 1.38,-1.38 L 1.38,-1.38 Z"></path></g><g transform="translate(1184 68) rotate(0 -1 -18.5)" stroke="none"><path fill="#1e1e1e" d="M -1.85,0.46 Q -1.85,0.46 -2.72,-0.54 -3.58,-1.55 -3.77,-2.80 -3.95,-4.06 -4.28,-5.16 -4.60,-6.26 -4.80,-8.23 -4.99,-10.20 -5.08,-12.16 -5.16,-14.12 -5.19,-16.09 -5.22,-18.07 -5.23,-19.19 -5.24,-20.31 -5.23,-22.24 -5.21,-24.16 -5.20,-25.55 -5.19,-26.94 -4.78,-29.40 -4.37,-31.85 -3.34,-34.71 -2.32,-37.58 -2.28,-37.78 -2.24,-37.99 -2.14,-38.18 -2.03,-38.36 -1.87,-38.50 -1.71,-38.64 -1.52,-38.73 -1.32,-38.81 -1.11,-38.83 -0.90,-38.84 -0.69,-38.79 -0.49,-38.74 -0.31,-38.63 -0.13,-38.51 -0.00,-38.34 0.13,-38.18 0.20,-37.98 0.27,-37.78 0.28,-37.57 0.28,-37.35 0.22,-37.15 0.16,-36.95 0.03,-36.78 -0.08,-36.60 -0.26,-36.48 -0.43,-36.36 -0.63,-36.30 -0.84,-36.23 -1.05,-36.24 -1.26,-36.25 -1.46,-36.32 -1.66,-36.39 -1.82,-36.53 -1.99,-36.66 -2.10,-36.84 -2.22,-37.02 -2.27,-37.23 -2.32,-37.43 -2.30,-37.65 -2.28,-37.86 -2.20,-38.05 -2.11,-38.25 -1.97,-38.40 -1.83,-38.56 -1.64,-38.67 -1.46,-38.77 -1.25,-38.81 -1.04,-38.85 -0.83,-38.82 -0.62,-38.79 -0.43,-38.70 -0.24,-38.60 -0.09,-38.45 0.05,-38.30 0.14,-38.11 0.24,-37.92 0.27,-37.71 0.29,-37.50 0.29,-37.50 0.29,-37.50 0.93,-35.28 1.56,-33.06 1.54,-31.78 1.52,-30.49 1.35,-28.72 1.19,-26.95 1.21,-25.56 1.22,-24.18 1.25,-22.28 1.27,-20.38 1.29,-19.27 1.30,-18.16 1.32,-16.24 1.34,-14.33 1.38,-12.53 1.42,-10.74 1.51,-9.29 1.60,-7.85 2.02,-5.45 2.43,-3.04 2.14,-1.75 1.85,-0.46 1.88,-0.23 1.90,-0.00 1.88,0.22 1.85,0.45 1.77,0.66 1.69,0.88 1.56,1.07 1.43,1.26 1.26,1.41 1.08,1.56 0.88,1.67 0.68,1.78 0.45,1.83 0.23,1.89 0.00,1.89 -0.22,1.89 -0.44,1.84 -0.67,1.78 -0.87,1.68 -1.07,1.57 -1.25,1.42 -1.42,1.27 -1.55,1.08 -1.68,0.89 -1.77,0.67 -1.85,0.46 -1.85,0.46 L -1.85,0.46 Z"></path></g><g transform="translate(1204 61) rotate(0 7.5 8.5)" stroke="none"><path fill="#1e1e1e" d="M -1.61,-0.80 Q -1.61,-0.80 -1.74,-1.73 -1.88,-2.65 -0.97,-3.42 -0.07,-4.18 1.31,-4.71 2.69,-5.24 4.33,-5.55 5.97,-5.87 7.34,-5.55 8.72,-5.23 10.72,-4.66 12.73,-4.08 14.01,-3.08 15.29,-2.08 15.65,-0.51 16.01,1.04 15.45,3.01 14.88,4.98 13.96,5.69 13.03,6.40 11.50,7.57 9.97,8.74 8.65,9.90 7.33,11.07 6.36,11.64 5.38,12.21 4.10,12.92 2.82,13.62 3.60,14.67 4.38,15.71 5.13,16.53 5.89,17.34 7.76,17.17 9.63,17.01 10.89,17.13 12.15,17.26 13.82,17.97 15.49,18.68 15.70,18.72 15.91,18.75 16.10,18.85 16.29,18.95 16.43,19.10 16.58,19.26 16.67,19.45 16.76,19.64 16.78,19.86 16.80,20.07 16.76,20.27 16.71,20.48 16.60,20.66 16.49,20.85 16.33,20.98 16.17,21.12 15.97,21.20 15.77,21.28 15.56,21.29 15.35,21.30 15.14,21.24 14.94,21.19 14.76,21.07 14.59,20.95 14.46,20.78 14.33,20.61 14.26,20.41 14.19,20.21 14.19,19.99 14.20,19.78 14.26,19.58 14.33,19.38 14.46,19.21 14.59,19.04 14.76,18.92 14.94,18.80 15.15,18.75 15.35,18.69 15.56,18.70 15.77,18.71 15.97,18.79 16.17,18.87 16.33,19.01 16.49,19.15 16.60,19.33 16.71,19.51 16.76,19.72 16.80,19.92 16.78,20.14 16.76,20.35 16.67,20.54 16.58,20.73 16.43,20.89 16.28,21.04 16.10,21.14 15.91,21.24 15.70,21.27 15.49,21.31 15.49,21.31 15.49,21.31 13.81,22.02 12.12,22.73 10.83,22.83 9.54,22.94 7.54,22.96 5.55,22.97 4.34,22.79 3.13,22.60 1.56,21.57 -0.00,20.54 -1.57,19.15 -3.15,17.77 -3.58,16.53 -4.01,15.30 -3.77,13.66 -3.53,12.03 -2.29,10.48 -1.04,8.93 -0.01,8.41 1.00,7.89 2.10,7.22 3.20,6.55 4.14,5.68 5.07,4.81 6.57,3.76 8.06,2.71 9.52,2.06 10.98,1.40 9.76,1.10 8.54,0.80 7.14,0.45 5.75,0.11 4.39,0.23 3.03,0.35 2.32,0.58 1.61,0.80 1.49,0.98 1.37,1.16 1.21,1.31 1.05,1.46 0.86,1.56 0.67,1.67 0.46,1.72 0.25,1.78 0.03,1.78 -0.18,1.79 -0.39,1.74 -0.60,1.69 -0.79,1.59 -0.99,1.50 -1.15,1.36 -1.32,1.22 -1.45,1.04 -1.57,0.86 -1.65,0.66 -1.73,0.46 -1.76,0.25 -1.80,0.03 -1.77,-0.18 -1.75,-0.39 -1.68,-0.60 -1.61,-0.80 -1.61,-0.80 L -1.61,-0.80 Z"></path></g><g transform="translate(1243 67) rotate(0 3 -16)" stroke="none"><path fill="#1e1e1e" d="M 1.34,1.34 Q 1.34,1.34 1.03,2.22 0.73,3.11 -1.15,3.87 -3.03,4.62 -4.26,4.33 -5.49,4.04 -7.05,3.33 -8.61,2.62 -9.53,1.72 -10.45,0.82 -11.15,-0.20 -11.85,-1.23 -12.40,-2.23 -12.96,-3.22 -13.32,-4.57 -13.69,-5.92 -13.86,-8.64 -14.04,-11.37 -14.05,-12.70 -14.07,-14.03 -13.78,-16.01 -13.48,-17.99 -12.44,-21.00 -11.39,-24.01 -10.33,-26.19 -9.27,-28.38 -8.16,-30.02 -7.05,-31.66 -5.96,-32.96 -4.87,-34.27 -4.12,-35.10 -3.37,-35.94 -2.24,-36.79 -1.11,-37.64 -0.03,-38.27 1.05,-38.91 2.43,-39.31 3.82,-39.71 5.88,-39.84 7.94,-39.97 9.95,-38.90 11.95,-37.84 13.18,-36.80 14.41,-35.75 15.38,-34.54 16.36,-33.33 17.13,-31.77 17.90,-30.21 18.53,-27.97 19.15,-25.74 19.41,-24.16 19.67,-22.58 19.78,-20.66 19.88,-18.75 19.62,-16.57 19.35,-14.40 18.59,-12.15 17.83,-9.90 17.27,-7.99 16.70,-6.09 16.09,-4.74 15.47,-3.40 14.92,-2.30 14.38,-1.20 13.00,0.21 11.62,1.63 10.18,2.73 8.73,3.83 6.81,5.18 4.89,6.53 2.74,7.01 0.60,7.49 -1.19,7.31 -3.00,7.14 -3.21,6.73 -3.42,6.33 -3.65,6.31 -3.88,6.29 -4.10,6.21 -4.31,6.13 -4.51,6.00 -4.70,5.88 -4.86,5.71 -5.02,5.54 -5.13,5.33 -5.24,5.13 -5.30,4.91 -5.36,4.68 -5.37,4.45 -5.37,4.22 -5.32,3.99 -5.27,3.77 -5.17,3.56 -5.07,3.35 -4.92,3.17 -4.77,3.00 -4.58,2.86 -4.39,2.73 -4.18,2.64 -3.96,2.55 -3.73,2.52 -3.50,2.48 -3.00,1.77 -2.50,1.06 -2.34,0.92 -2.19,0.77 -1.99,0.69 -1.80,0.60 -1.59,0.58 -1.38,0.56 -1.17,0.61 -0.96,0.66 -0.78,0.77 -0.60,0.88 -0.47,1.05 -0.33,1.21 -0.26,1.41 -0.18,1.61 -0.17,1.82 -0.16,2.03 -0.22,2.24 -0.28,2.44 -0.41,2.61 -0.53,2.79 -0.70,2.91 -0.87,3.04 -1.07,3.10 -1.27,3.17 -1.49,3.17 -1.70,3.16 -1.90,3.09 -2.10,3.02 -2.27,2.89 -2.43,2.76 -2.55,2.58 -2.67,2.40 -2.72,2.20 -2.77,1.99 -2.76,1.78 -2.75,1.57 -2.66,1.37 -2.58,1.18 -2.44,1.02 -2.30,0.86 -2.12,0.75 -1.93,0.64 -1.73,0.60 -1.52,0.56 -1.31,0.58 -1.10,0.61 -0.90,0.70 -0.71,0.80 -0.56,0.94 -0.41,1.09 -0.31,1.28 -0.22,1.47 -0.18,1.68 -0.15,1.89 -0.19,2.10 -0.23,2.31 -0.33,2.50 -0.43,2.68 -0.43,2.68 -0.43,2.68 -1.92,4.51 -3.41,6.33 -3.65,6.31 -3.88,6.29 -4.10,6.21 -4.31,6.13 -4.51,6.00 -4.70,5.88 -4.86,5.71 -5.02,5.54 -5.13,5.33 -5.24,5.13 -5.30,4.91 -5.36,4.68 -5.37,4.45 -5.37,4.22 -5.32,3.99 -5.27,3.77 -5.17,3.56 -5.07,3.35 -4.92,3.17 -4.77,3.00 -4.58,2.86 -4.39,2.73 -4.18,2.64 -3.96,2.55 -3.73,2.52 -3.50,2.48 -2.35,2.43 -1.20,2.37 -0.07,2.18 1.06,1.98 2.22,1.35 3.38,0.71 4.27,-0.05 5.17,-0.82 7.15,-2.36 9.13,-3.91 10.06,-5.83 10.99,-7.76 11.58,-9.81 12.17,-11.87 12.77,-13.53 13.37,-15.20 13.59,-16.81 13.81,-18.42 13.72,-20.01 13.63,-21.60 13.43,-22.85 13.22,-24.11 12.76,-25.83 12.29,-27.55 11.31,-29.27 10.33,-31.00 8.90,-32.45 7.46,-33.90 6.37,-33.74 5.28,-33.59 3.90,-33.05 2.52,-32.51 1.22,-31.37 -0.07,-30.22 -0.98,-29.15 -1.89,-28.08 -2.77,-26.85 -3.65,-25.62 -4.58,-23.75 -5.50,-21.89 -6.42,-19.42 -7.34,-16.96 -7.60,-15.52 -7.87,-14.09 -7.86,-12.79 -7.84,-11.50 -7.76,-9.37 -7.68,-7.23 -7.19,-5.85 -6.70,-4.47 -5.89,-3.05 -5.09,-1.64 -4.06,-1.22 -3.03,-0.81 -2.18,-1.07 -1.34,-1.34 -1.16,-1.48 -0.98,-1.62 -0.77,-1.72 -0.56,-1.81 -0.34,-1.85 -0.11,-1.89 0.11,-1.88 0.34,-1.87 0.56,-1.80 0.78,-1.73 0.97,-1.61 1.17,-1.49 1.33,-1.33 1.49,-1.17 1.61,-0.97 1.73,-0.78 1.80,-0.56 1.87,-0.34 1.88,-0.11 1.89,0.11 1.85,0.34 1.81,0.56 1.72,0.77 1.62,0.98 1.48,1.16 1.34,1.34 1.34,1.34 L 1.34,1.34 Z"></path></g><g transform="translate(1295 74) rotate(0 0 -22)" stroke="none"><path fill="#1e1e1e" d="M -1.37,1.03 Q -1.37,1.03 -2.50,0.07 -3.63,-0.87 -4.14,-1.84 -4.65,-2.80 -5.47,-3.74 -6.30,-4.68 -6.78,-6.29 -7.27,-7.90 -7.66,-9.45 -8.04,-11.01 -8.25,-12.40 -8.45,-13.79 -8.54,-15.30 -8.64,-16.80 -8.38,-19.07 -8.13,-21.34 -8.04,-22.98 -7.94,-24.62 -7.59,-26.42 -7.23,-28.21 -6.75,-29.63 -6.28,-31.06 -5.42,-32.66 -4.57,-34.26 -3.99,-35.58 -3.42,-36.91 -2.77,-37.98 -2.12,-39.06 -0.97,-40.77 0.17,-42.48 2.47,-43.61 4.76,-44.75 4.95,-44.83 5.15,-44.92 5.36,-44.95 5.57,-44.97 5.78,-44.92 5.99,-44.88 6.17,-44.77 6.35,-44.66 6.49,-44.50 6.62,-44.34 6.70,-44.14 6.78,-43.94 6.79,-43.73 6.80,-43.52 6.75,-43.31 6.69,-43.11 6.57,-42.93 6.45,-42.76 6.28,-42.63 6.11,-42.50 5.91,-42.43 5.71,-42.36 5.50,-42.36 5.29,-42.36 5.09,-42.43 4.88,-42.50 4.72,-42.63 4.55,-42.76 4.43,-42.93 4.31,-43.11 4.25,-43.31 4.19,-43.52 4.21,-43.73 4.22,-43.94 4.30,-44.14 4.37,-44.34 4.51,-44.50 4.65,-44.66 4.83,-44.77 5.01,-44.88 5.22,-44.92 5.43,-44.97 5.64,-44.95 5.85,-44.92 6.04,-44.83 6.24,-44.75 6.39,-44.60 6.54,-44.45 6.64,-44.27 6.74,-44.08 6.78,-43.87 6.81,-43.66 6.78,-43.45 6.74,-43.24 6.64,-43.05 6.54,-42.86 6.39,-42.72 6.24,-42.57 6.24,-42.57 6.24,-42.57 4.91,-40.43 3.58,-38.30 2.60,-36.54 1.62,-34.78 0.97,-33.19 0.33,-31.60 -0.32,-30.42 -0.98,-29.23 -1.36,-28.14 -1.75,-27.06 -2.06,-25.66 -2.38,-24.26 -2.50,-22.45 -2.62,-20.64 -2.89,-18.85 -3.15,-17.05 -3.11,-15.76 -3.07,-14.47 -2.96,-13.34 -2.84,-12.21 -2.48,-10.53 -2.12,-8.85 -1.71,-7.70 -1.30,-6.55 -0.55,-5.13 0.18,-3.72 0.78,-2.37 1.37,-1.03 1.48,-0.85 1.58,-0.67 1.64,-0.47 1.70,-0.27 1.70,-0.06 1.71,0.14 1.67,0.34 1.63,0.54 1.54,0.73 1.45,0.92 1.32,1.08 1.19,1.24 1.02,1.36 0.85,1.49 0.66,1.57 0.47,1.65 0.27,1.68 0.06,1.72 -0.13,1.70 -0.34,1.68 -0.54,1.62 -0.73,1.55 -0.91,1.44 -1.09,1.33 -1.23,1.18 -1.37,1.03 -1.37,1.03 L -1.37,1.03 Z"></path></g><g transform="translate(1312 37) rotate(0 1 15.5)" stroke="none"><path fill="#1e1e1e" d="M 1.37,0.91 Q 1.37,0.91 0.97,1.89 0.58,2.88 -0.03,4.07 -0.64,5.27 -1.10,6.88 -1.56,8.48 -1.69,9.95 -1.82,11.42 -1.86,13.46 -1.89,15.50 -1.90,16.79 -1.90,18.08 -1.90,19.21 -1.90,20.33 -1.90,21.67 -1.90,23.01 -1.70,24.11 -1.50,25.21 -1.31,26.30 -1.12,27.40 -0.66,28.50 -0.19,29.61 1.11,29.51 2.42,29.42 3.55,28.58 4.67,27.74 4.79,27.56 4.90,27.39 5.07,27.25 5.24,27.12 5.44,27.05 5.64,26.98 5.85,26.97 6.06,26.97 6.26,27.03 6.47,27.10 6.64,27.22 6.81,27.35 6.93,27.52 7.06,27.69 7.12,27.90 7.18,28.10 7.17,28.31 7.16,28.52 7.09,28.72 7.01,28.92 6.88,29.09 6.75,29.25 6.57,29.36 6.39,29.48 6.18,29.53 5.97,29.58 5.76,29.56 5.55,29.54 5.36,29.46 5.16,29.37 5.00,29.23 4.85,29.09 4.74,28.90 4.64,28.71 4.60,28.51 4.56,28.30 4.59,28.09 4.62,27.88 4.72,27.69 4.81,27.50 4.96,27.35 5.12,27.20 5.31,27.10 5.50,27.01 5.71,26.98 5.92,26.96 6.13,27.00 6.34,27.04 6.52,27.14 6.70,27.25 6.85,27.41 6.99,27.57 7.07,27.76 7.15,27.96 7.17,28.17 7.18,28.38 7.13,28.59 7.08,28.79 7.08,28.79 7.08,28.79 6.12,30.25 5.17,31.71 4.22,32.49 3.27,33.27 1.57,33.61 -0.11,33.95 -1.64,33.21 -3.17,32.47 -3.76,31.23 -4.35,29.99 -4.85,28.42 -5.34,26.85 -5.71,24.93 -6.08,23.01 -6.08,21.67 -6.08,20.33 -6.08,19.20 -6.07,18.07 -6.06,15.72 -6.04,13.38 -6.01,12.29 -5.99,11.20 -5.73,9.10 -5.46,6.99 -5.07,5.59 -4.68,4.20 -3.78,2.38 -2.88,0.56 -2.12,-0.17 -1.37,-0.91 -1.24,-1.06 -1.11,-1.22 -0.95,-1.33 -0.79,-1.45 -0.60,-1.52 -0.42,-1.59 -0.22,-1.62 -0.02,-1.65 0.17,-1.63 0.36,-1.61 0.55,-1.54 0.74,-1.47 0.91,-1.36 1.07,-1.25 1.21,-1.10 1.34,-0.96 1.44,-0.78 1.53,-0.61 1.58,-0.41 1.63,-0.22 1.64,-0.02 1.64,0.17 1.60,0.36 1.55,0.56 1.46,0.73 1.37,0.91 1.37,0.91 L 1.37,0.91 Z"></path></g><g transform="translate(1322 32) rotate(0 4 23)" stroke="none"><path fill="#1e1e1e" d="M 0.45,-1.36 Q 0.45,-1.36 1.49,-1.60 2.52,-1.84 4.70,-0.05 6.88,1.74 7.41,3.15 7.95,4.56 8.43,6.23 8.90,7.91 9.40,9.76 9.89,11.62 10.14,13.74 10.38,15.86 10.48,17.31 10.58,18.77 10.63,20.56 10.67,22.36 10.69,24.27 10.71,26.18 10.42,28.34 10.13,30.50 10.02,31.83 9.91,33.15 9.54,34.81 9.17,36.46 8.69,37.81 8.21,39.17 7.62,40.19 7.03,41.20 5.93,42.87 4.83,44.53 3.09,45.96 1.35,47.38 1.20,47.53 1.04,47.67 0.85,47.76 0.66,47.85 0.45,47.87 0.23,47.90 0.03,47.85 -0.17,47.80 -0.35,47.69 -0.53,47.58 -0.67,47.42 -0.81,47.26 -0.89,47.06 -0.96,46.86 -0.98,46.65 -0.99,46.44 -0.93,46.23 -0.87,46.03 -0.75,45.85 -0.63,45.68 -0.46,45.55 -0.29,45.42 -0.09,45.36 0.10,45.29 0.31,45.29 0.52,45.29 0.72,45.36 0.93,45.43 1.09,45.55 1.26,45.68 1.38,45.86 1.50,46.04 1.56,46.24 1.61,46.44 1.60,46.66 1.59,46.87 1.51,47.07 1.43,47.26 1.29,47.43 1.16,47.59 0.97,47.70 0.79,47.81 0.58,47.85 0.38,47.90 0.17,47.87 -0.04,47.85 -0.23,47.76 -0.42,47.67 -0.57,47.52 -0.73,47.38 -0.83,47.19 -0.93,47.00 -0.96,46.79 -0.99,46.58 -0.96,46.37 -0.93,46.16 -0.83,45.97 -0.73,45.79 -0.73,45.79 -0.73,45.79 0.31,43.08 1.36,40.38 2.21,38.83 3.06,37.29 3.44,36.25 3.82,35.21 4.12,33.95 4.43,32.68 4.56,31.20 4.69,29.72 4.96,27.97 5.23,26.22 5.22,24.35 5.21,22.48 5.18,20.79 5.15,19.10 5.08,17.76 5.01,16.42 4.85,14.69 4.70,12.95 4.24,11.13 3.78,9.31 3.19,7.01 2.59,4.70 1.75,3.85 0.92,2.99 0.23,2.18 -0.45,1.36 -0.61,1.28 -0.76,1.21 -0.90,1.10 -1.03,0.99 -1.13,0.85 -1.24,0.71 -1.31,0.55 -1.37,0.39 -1.40,0.22 -1.43,0.05 -1.42,-0.11 -1.40,-0.28 -1.35,-0.45 -1.29,-0.61 -1.20,-0.76 -1.11,-0.90 -0.98,-1.02 -0.86,-1.14 -0.71,-1.23 -0.56,-1.32 -0.39,-1.36 -0.23,-1.41 -0.05,-1.42 0.11,-1.43 0.28,-1.39 0.45,-1.36 0.45,-1.36 L 0.45,-1.36 Z"></path></g></svg>