<svg version="1.1" xmlns="http://www.w3.org/2000/svg" viewBox="0 0 1374 82" width="1374" height="82" filter="invert(93%) hue-rotate(180deg)" class="excalidraw-svg">
  <!-- svg-source:excalidraw -->
  
  <defs>
    <style class="style-fonts">
      @font-face {
        font-family: "Virgil";
        src: url("https://excalidraw.com/Virgil.woff2");
      }
      @font-face {
        font-family: "Cascadia";
        src: url("https://excalidraw.com/Cascadia.woff2");
      }
      @font-face {
        font-family: "Assistant";
        src: url("https://excalidraw.com/Assistant-Regular.woff2");
      }
    </style>
    
  </defs>
  <g transform="translate(35 17) rotate(0 -4.5 15.5)" stroke="none"><path fill="#1e1e1e" d="M -1.00,1.00 Q -1.00,1.00 -2.23,0.51 -3.46,0.01 -4.38,-0.61 -5.29,-1.24 -6.60,-1.01 -7.91,-0.78 -9.30,-0.33 -10.70,0.12 -12.51,1.39 -14.33,2.67 -15.29,3.52 -16.25,4.38 -17.24,5.34 -18.23,6.30 -19.19,7.65 -20.14,8.99 -21.12,10.88 -22.09,12.77 -22.14,14.26 -22.18,15.75 -21.75,17.65 -21.32,19.54 -20.53,20.52 -19.74,21.49 -19.05,22.56 -18.37,23.63 -17.55,24.51 -16.73,25.38 -15.77,26.36 -14.80,27.34 -13.50,28.28 -12.20,29.22 -10.88,29.66 -9.56,30.11 -8.20,30.58 -6.83,31.05 -5.65,31.47 -4.47,31.89 -2.79,32.05 -1.12,32.21 0.42,32.22 1.96,32.23 3.58,31.84 5.20,31.44 6.34,30.79 7.48,30.14 9.05,29.56 10.62,28.97 12.70,28.71 14.78,28.45 14.92,28.29 15.07,28.14 15.26,28.04 15.45,27.95 15.66,27.92 15.87,27.88 16.08,27.92 16.29,27.96 16.48,28.06 16.66,28.16 16.81,28.32 16.95,28.47 17.04,28.67 17.12,28.86 17.14,29.07 17.16,29.28 17.12,29.49 17.07,29.70 16.96,29.88 16.84,30.06 16.68,30.20 16.52,30.33 16.32,30.41 16.12,30.48 15.91,30.49 15.70,30.50 15.49,30.44 15.29,30.38 15.11,30.26 14.94,30.14 14.81,29.97 14.69,29.80 14.62,29.59 14.56,29.39 14.56,29.18 14.56,28.97 14.63,28.77 14.70,28.57 14.83,28.40 14.96,28.23 15.14,28.11 15.32,28.00 15.52,27.94 15.73,27.89 15.94,27.90 16.15,27.92 16.35,28.00 16.55,28.08 16.71,28.22 16.87,28.36 16.97,28.54 17.08,28.73 17.12,28.93 17.17,29.14 17.14,29.35 17.11,29.56 17.02,29.76 16.93,29.95 16.93,29.95 16.93,29.95 14.89,32.02 12.84,34.10 11.81,34.53 10.78,34.95 9.49,35.47 8.21,35.99 6.39,36.52 4.58,37.05 3.30,37.39 2.01,37.74 0.35,37.72 -1.31,37.70 -2.96,37.57 -4.62,37.44 -6.27,36.91 -7.91,36.39 -9.19,36.08 -10.47,35.77 -11.61,35.09 -12.74,34.41 -14.28,33.79 -15.82,33.18 -17.24,32.17 -18.66,31.17 -19.66,30.16 -20.66,29.15 -21.68,28.04 -22.70,26.94 -23.38,25.92 -24.06,24.91 -25.00,23.58 -25.94,22.26 -26.46,20.24 -26.97,18.23 -27.39,16.17 -27.80,14.12 -27.68,12.81 -27.56,11.50 -26.98,9.87 -26.40,8.24 -25.57,6.88 -24.73,5.52 -24.03,4.40 -23.32,3.28 -22.27,2.24 -21.22,1.19 -20.07,0.12 -18.92,-0.94 -17.74,-1.75 -16.57,-2.55 -15.74,-3.35 -14.91,-4.14 -13.86,-4.63 -12.81,-5.12 -11.28,-5.58 -9.75,-6.03 -7.86,-6.33 -5.97,-6.63 -4.50,-6.28 -3.03,-5.92 -1.50,-4.69 0.01,-3.46 0.51,-2.23 1.00,-1.00 1.11,-0.86 1.21,-0.73 1.28,-0.57 1.35,-0.42 1.38,-0.25 1.41,-0.08 1.40,0.08 1.39,0.25 1.34,0.41 1.29,0.58 1.20,0.72 1.11,0.87 0.99,0.99 0.87,1.11 0.72,1.20 0.58,1.29 0.41,1.34 0.25,1.39 0.08,1.40 -0.08,1.41 -0.25,1.38 -0.42,1.35 -0.57,1.28 -0.73,1.21 -0.86,1.11 -1.00,1.00 -1.00,1.00 L -1.00,1.00 Z"></path></g><g transform="translate(72 41) rotate(0 8 10.5)" stroke="none"><path fill="#1e1e1e" d="M -1.12,-1.12 Q -1.12,-1.12 -0.67,-1.91 -0.23,-2.70 0.98,-3.17 2.19,-3.64 4.25,-3.50 6.32,-3.35 7.56,-3.12 8.81,-2.88 10.25,-1.65 11.69,-0.41 11.61,0.88 11.54,2.18 11.00,3.50 10.46,4.83 9.89,5.87 9.32,6.92 10.44,7.82 11.55,8.72 12.66,9.71 13.77,10.71 14.81,11.68 15.85,12.66 16.85,13.99 17.85,15.32 18.51,16.40 19.18,17.49 18.98,19.50 18.78,21.51 16.83,22.96 14.88,24.41 12.54,25.04 10.21,25.67 8.33,25.80 6.45,25.92 4.20,24.63 1.94,23.34 1.78,23.32 1.63,23.31 1.48,23.25 1.33,23.20 1.20,23.11 1.07,23.02 0.96,22.90 0.85,22.79 0.78,22.65 0.70,22.51 0.66,22.36 0.62,22.20 0.62,22.04 0.62,21.89 0.66,21.73 0.69,21.58 0.76,21.44 0.83,21.30 0.94,21.18 1.04,21.06 1.17,20.96 1.30,20.87 1.45,20.81 1.59,20.76 1.75,20.74 1.91,20.71 1.85,20.72 1.78,20.72 2.00,20.73 2.21,20.75 2.41,20.82 2.60,20.90 2.76,21.04 2.93,21.18 3.04,21.36 3.15,21.54 3.19,21.75 3.24,21.96 3.21,22.17 3.19,22.38 3.10,22.57 3.01,22.77 2.86,22.92 2.72,23.07 2.53,23.17 2.34,23.27 2.13,23.31 1.92,23.34 1.71,23.31 1.50,23.27 1.32,23.17 1.13,23.07 0.98,22.92 0.84,22.76 0.75,22.57 0.66,22.38 0.64,22.17 0.61,21.95 0.66,21.75 0.71,21.54 0.82,21.36 0.92,21.18 1.09,21.04 1.25,20.90 1.45,20.82 1.64,20.74 1.86,20.73 2.07,20.72 2.27,20.78 2.48,20.84 2.65,20.96 2.83,21.08 2.96,21.24 3.09,21.41 3.15,21.62 3.22,21.82 3.22,22.03 3.22,22.24 3.15,22.44 3.08,22.64 2.96,22.81 2.83,22.98 2.65,23.10 2.47,23.22 2.21,23.28 1.94,23.34 1.78,23.32 1.63,23.31 1.48,23.25 1.33,23.20 1.20,23.11 1.07,23.02 0.96,22.90 0.85,22.79 0.78,22.65 0.70,22.51 0.66,22.36 0.62,22.20 0.62,22.04 0.62,21.89 0.66,21.73 0.69,21.58 0.76,21.44 0.83,21.30 0.94,21.18 1.04,21.06 1.17,20.96 1.30,20.87 1.45,20.81 1.59,20.76 1.75,20.74 1.91,20.71 3.15,20.35 4.39,19.99 6.17,19.97 7.95,19.95 9.58,19.86 11.22,19.78 12.84,19.24 14.46,18.69 13.56,17.28 12.66,15.87 11.71,14.88 10.75,13.88 9.68,12.85 8.61,11.81 7.57,11.24 6.53,10.67 5.72,9.70 4.92,8.73 5.06,7.10 5.21,5.47 5.86,4.24 6.51,3.00 7.02,1.88 7.52,0.75 6.35,0.69 5.17,0.63 3.85,0.51 2.53,0.40 1.82,0.76 1.12,1.12 0.97,1.24 0.82,1.35 0.64,1.43 0.47,1.51 0.28,1.55 0.09,1.58 -0.09,1.57 -0.28,1.56 -0.46,1.50 -0.65,1.44 -0.81,1.34 -0.98,1.25 -1.11,1.11 -1.25,0.97 -1.34,0.81 -1.44,0.65 -1.50,0.46 -1.56,0.28 -1.57,0.09 -1.58,-0.09 -1.55,-0.28 -1.51,-0.47 -1.43,-0.64 -1.35,-0.82 -1.24,-0.97 -1.12,-1.12 -1.12,-1.12 L -1.12,-1.12 Z"></path></g><g transform="translate(107 50) rotate(0 -2.5 -14.5)" stroke="none"><path fill="#1e1e1e" d="M -1.88,0 Q -1.88,0 -2.27,-1.13 -2.66,-2.27 -3.11,-4.53 -3.56,-6.79 -3.89,-8.36 -4.22,-9.93 -4.39,-11.35 -4.56,-12.76 -4.62,-13.97 -4.69,-15.17 -4.96,-16.27 -5.23,-17.38 -5.59,-18.75 -5.95,-20.12 -6.19,-22.54 -6.42,-24.96 -6.32,-27.09 -6.21,-29.22 -6.21,-29.44 -6.20,-29.65 -6.13,-29.85 -6.06,-30.05 -5.93,-30.22 -5.80,-30.38 -5.62,-30.50 -5.44,-30.62 -5.24,-30.67 -5.03,-30.72 -4.82,-30.71 -4.61,-30.69 -4.41,-30.61 -4.21,-30.53 -4.05,-30.39 -3.90,-30.25 -3.79,-30.07 -3.68,-29.88 -3.64,-29.67 -3.60,-29.47 -3.62,-29.25 -3.65,-29.04 -3.74,-28.85 -3.83,-28.66 -3.98,-28.51 -4.13,-28.36 -4.32,-28.26 -4.51,-28.16 -4.72,-28.13 -4.93,-28.10 -5.14,-28.14 -5.35,-28.18 -5.54,-28.28 -5.72,-28.38 -5.86,-28.54 -6.01,-28.70 -6.09,-28.89 -6.18,-29.09 -6.20,-29.30 -6.22,-29.51 -6.17,-29.72 -6.12,-29.92 -6.01,-30.10 -5.90,-30.28 -5.73,-30.42 -5.57,-30.55 -5.37,-30.63 -5.17,-30.70 -4.96,-30.71 -4.75,-30.72 -4.54,-30.66 -4.34,-30.60 -4.16,-30.48 -3.99,-30.35 -3.87,-30.18 -3.74,-30.01 -3.67,-29.81 -3.61,-29.61 -3.61,-29.61 -3.61,-29.61 -2.48,-27.48 -1.34,-25.35 -1.07,-23.49 -0.79,-21.63 -0.31,-20.14 0.16,-18.64 0.57,-16.01 0.98,-13.38 1.10,-12.19 1.23,-11.01 1.57,-9.16 1.92,-7.31 1.98,-6.22 2.04,-5.12 2.35,-3.72 2.66,-2.32 2.27,-1.16 1.88,0 1.86,0.22 1.83,0.45 1.75,0.66 1.67,0.87 1.54,1.06 1.41,1.25 1.24,1.40 1.07,1.55 0.87,1.66 0.66,1.76 0.44,1.82 0.22,1.87 -0.00,1.87 -0.22,1.87 -0.44,1.82 -0.66,1.76 -0.87,1.66 -1.07,1.55 -1.24,1.40 -1.41,1.25 -1.54,1.06 -1.67,0.87 -1.75,0.66 -1.83,0.45 -1.86,0.22 -1.88,-0.00 -1.88,-0.00 L -1.88,0 Z"></path></g><g transform="translate(103 36) rotate(0 10 0.5)" stroke="none"><path fill="#1e1e1e" d="M 0.44,-1.78 Q 0.44,-1.78 1.69,-1.88 2.93,-1.97 4.12,-1.86 5.31,-1.74 7.10,-1.74 8.90,-1.74 10.74,-1.72 12.58,-1.70 14.56,-1.57 16.53,-1.45 18.08,-0.88 19.63,-0.31 19.83,-0.27 20.04,-0.24 20.23,-0.14 20.42,-0.04 20.57,0.10 20.71,0.26 20.80,0.45 20.89,0.64 20.91,0.86 20.94,1.07 20.89,1.27 20.84,1.48 20.74,1.66 20.63,1.85 20.46,1.98 20.30,2.12 20.10,2.20 19.91,2.28 19.69,2.29 19.48,2.30 19.28,2.24 19.07,2.19 18.90,2.07 18.72,1.95 18.59,1.78 18.46,1.61 18.40,1.41 18.33,1.21 18.33,0.99 18.33,0.78 18.40,0.58 18.46,0.38 18.59,0.21 18.72,0.04 18.90,-0.07 19.07,-0.19 19.28,-0.24 19.48,-0.30 19.70,-0.29 19.91,-0.28 20.11,-0.20 20.30,-0.12 20.46,0.01 20.63,0.15 20.74,0.33 20.85,0.51 20.89,0.72 20.94,0.92 20.91,1.14 20.89,1.35 20.80,1.54 20.71,1.73 20.57,1.89 20.42,2.04 20.23,2.14 20.04,2.24 19.83,2.27 19.62,2.31 19.62,2.31 19.62,2.31 17.08,2.98 14.54,3.65 12.60,3.68 10.65,3.72 8.97,3.70 7.28,3.69 6.07,3.64 4.86,3.59 3.26,3.35 1.66,3.12 0.60,2.45 -0.44,1.78 -0.65,1.70 -0.86,1.62 -1.04,1.50 -1.22,1.37 -1.37,1.20 -1.52,1.04 -1.62,0.84 -1.72,0.64 -1.77,0.43 -1.83,0.21 -1.82,-0.00 -1.82,-0.22 -1.77,-0.44 -1.72,-0.65 -1.61,-0.85 -1.51,-1.05 -1.36,-1.21 -1.21,-1.38 -1.03,-1.50 -0.85,-1.63 -0.64,-1.71 -0.43,-1.79 -0.21,-1.81 0.00,-1.84 0.22,-1.81 0.44,-1.78 0.44,-1.78 L 0.44,-1.78 Z"></path></g><g transform="translate(129 47) rotate(0 0 -13)" stroke="none"><path fill="#1e1e1e" d="M -1.78,0 Q -1.78,0 -2.44,-1.72 -3.10,-3.44 -3.11,-5.04 -3.12,-6.64 -3.12,-8.87 -3.12,-11.11 -3.10,-13.16 -3.09,-15.20 -3.07,-16.29 -3.05,-17.38 -3.00,-19.31 -2.95,-21.25 -2.13,-23.96 -1.31,-26.67 -1.27,-26.88 -1.24,-27.09 -1.14,-27.27 -1.04,-27.46 -0.89,-27.61 -0.73,-27.75 -0.54,-27.84 -0.35,-27.93 -0.14,-27.96 0.07,-27.98 0.27,-27.93 0.48,-27.89 0.66,-27.78 0.85,-27.67 0.98,-27.51 1.12,-27.34 1.20,-27.15 1.28,-26.95 1.29,-26.74 1.30,-26.52 1.24,-26.32 1.19,-26.12 1.07,-25.94 0.95,-25.76 0.78,-25.64 0.61,-25.51 0.41,-25.44 0.21,-25.37 -0.00,-25.37 -0.21,-25.37 -0.41,-25.44 -0.61,-25.51 -0.78,-25.64 -0.95,-25.76 -1.07,-25.94 -1.19,-26.12 -1.24,-26.32 -1.30,-26.53 -1.29,-26.74 -1.28,-26.95 -1.20,-27.15 -1.12,-27.34 -0.98,-27.51 -0.84,-27.67 -0.66,-27.78 -0.48,-27.89 -0.27,-27.93 -0.07,-27.98 0.14,-27.96 0.35,-27.93 0.54,-27.84 0.73,-27.75 0.89,-27.61 1.04,-27.46 1.14,-27.27 1.24,-27.09 1.27,-26.88 1.31,-26.67 1.31,-26.67 1.31,-26.67 2.13,-23.96 2.95,-21.25 3.00,-19.31 3.05,-17.38 3.07,-16.29 3.09,-15.20 3.10,-13.16 3.12,-11.11 3.12,-8.87 3.12,-6.64 3.11,-5.04 3.10,-3.44 2.44,-1.72 1.78,0 1.75,0.21 1.73,0.42 1.65,0.62 1.57,0.82 1.45,1.00 1.33,1.18 1.17,1.32 1.01,1.46 0.82,1.56 0.63,1.66 0.42,1.71 0.21,1.76 -0.00,1.76 -0.21,1.76 -0.42,1.71 -0.63,1.66 -0.82,1.56 -1.01,1.46 -1.17,1.32 -1.33,1.18 -1.45,1.00 -1.57,0.82 -1.65,0.62 -1.73,0.42 -1.75,0.21 -1.78,-0.00 -1.78,-0.00 L -1.78,0 Z"></path></g><g transform="translate(158 60) rotate(0 -5.5 -10.5)" stroke="none"><path fill="#1e1e1e" d="M 1.31,1.31 Q 1.31,1.31 1.00,2.19 0.69,3.07 -1.00,3.81 -2.69,4.55 -4.62,4.21 -6.55,3.87 -8.14,3.06 -9.73,2.25 -10.85,1.95 -11.97,1.65 -12.60,0.73 -13.23,-0.18 -13.13,-2.45 -13.03,-4.72 -12.58,-5.75 -12.14,-6.78 -11.66,-7.78 -11.19,-8.78 -10.56,-9.92 -9.92,-11.05 -9.41,-12.39 -8.90,-13.73 -8.46,-14.77 -8.03,-15.81 -7.44,-17.07 -6.85,-18.34 -6.34,-19.32 -5.82,-20.31 -5.23,-21.07 -4.64,-21.83 -4.78,-21.98 -4.92,-22.14 -5.01,-22.34 -5.09,-22.53 -5.11,-22.74 -5.13,-22.95 -5.08,-23.16 -5.03,-23.37 -4.92,-23.55 -4.81,-23.73 -4.64,-23.86 -4.48,-24.00 -4.28,-24.07 -4.08,-24.15 -3.87,-24.15 -3.66,-24.16 -3.45,-24.10 -3.25,-24.04 -3.08,-23.92 -2.90,-23.80 -2.78,-23.62 -2.65,-23.45 -2.59,-23.25 -2.52,-23.05 -2.53,-22.84 -2.53,-22.62 -2.60,-22.42 -2.67,-22.22 -2.80,-22.06 -2.94,-21.89 -3.11,-21.77 -3.29,-21.66 -3.50,-21.60 -3.70,-21.55 -3.92,-21.57 -4.13,-21.58 -4.32,-21.66 -4.52,-21.75 -4.68,-21.89 -4.84,-22.03 -4.94,-22.21 -5.05,-22.39 -5.09,-22.60 -5.13,-22.81 -5.11,-23.02 -5.08,-23.23 -4.99,-23.42 -4.90,-23.62 -4.75,-23.77 -4.60,-23.92 -4.41,-24.01 -4.22,-24.11 -4.01,-24.14 -3.80,-24.17 -3.59,-24.13 -3.38,-24.10 -3.19,-23.99 -3.01,-23.89 -3.01,-23.89 -3.01,-23.89 -1.87,-21.68 -0.72,-19.47 -1.21,-18.31 -1.69,-17.14 -2.35,-15.41 -3.01,-13.68 -3.52,-12.16 -4.03,-10.64 -4.71,-9.02 -5.40,-7.41 -6.21,-5.97 -7.01,-4.54 -7.94,-3.60 -8.87,-2.66 -7.25,-2.11 -5.63,-1.56 -4.31,-1.17 -2.99,-0.77 -2.15,-1.04 -1.31,-1.31 -1.14,-1.45 -0.96,-1.59 -0.75,-1.68 -0.55,-1.77 -0.33,-1.82 -0.11,-1.86 0.11,-1.84 0.33,-1.83 0.55,-1.76 0.76,-1.69 0.95,-1.58 1.14,-1.46 1.30,-1.30 1.46,-1.14 1.58,-0.95 1.69,-0.76 1.76,-0.55 1.83,-0.33 1.84,-0.11 1.86,0.11 1.82,0.33 1.77,0.55 1.68,0.75 1.59,0.96 1.45,1.14 1.31,1.31 1.31,1.31 L 1.31,1.31 Z"></path></g><g transform="translate(156 49) rotate(0 0.5 8)" stroke="none"><path fill="#1e1e1e" d="M 1.71,-1.28 Q 1.71,-1.28 2.62,-0.18 3.52,0.91 4.82,2.20 6.11,3.50 6.57,4.76 7.04,6.02 7.27,7.49 7.50,8.95 7.55,10.17 7.60,11.38 7.19,12.46 6.78,13.55 5.72,14.98 4.65,16.41 3.23,17.34 1.81,18.27 -0.92,17.79 -3.66,17.30 -3.87,17.27 -4.08,17.24 -4.27,17.14 -4.46,17.05 -4.61,16.89 -4.76,16.74 -4.85,16.55 -4.94,16.36 -4.97,16.15 -4.99,15.94 -4.95,15.73 -4.91,15.52 -4.80,15.34 -4.69,15.15 -4.53,15.01 -4.37,14.87 -4.18,14.79 -3.98,14.71 -3.77,14.70 -3.56,14.68 -3.35,14.74 -3.15,14.79 -2.97,14.91 -2.79,15.02 -2.66,15.19 -2.53,15.36 -2.46,15.56 -2.39,15.76 -2.38,15.97 -2.38,16.19 -2.45,16.39 -2.51,16.59 -2.64,16.76 -2.76,16.93 -2.94,17.05 -3.11,17.17 -3.32,17.23 -3.52,17.29 -3.73,17.29 -3.95,17.28 -4.14,17.20 -4.34,17.13 -4.51,16.99 -4.67,16.85 -4.78,16.67 -4.89,16.49 -4.94,16.29 -4.99,16.08 -4.97,15.87 -4.95,15.66 -4.86,15.46 -4.78,15.27 -4.63,15.11 -4.49,14.96 -4.30,14.85 -4.12,14.75 -3.91,14.71 -3.70,14.68 -3.70,14.68 -3.70,14.68 -2.21,13.90 -0.73,13.12 0.23,12.61 1.19,12.09 1.76,11.20 2.34,10.30 2.29,8.79 2.24,7.29 1.93,6.19 1.62,5.10 0.77,4.39 -0.07,3.68 -0.89,2.48 -1.71,1.28 -1.84,1.06 -1.96,0.83 -2.04,0.58 -2.11,0.34 -2.12,0.08 -2.13,-0.17 -2.08,-0.42 -2.02,-0.67 -1.91,-0.91 -1.80,-1.14 -1.64,-1.34 -1.48,-1.54 -1.27,-1.69 -1.06,-1.85 -0.83,-1.95 -0.59,-2.05 -0.33,-2.09 -0.08,-2.13 0.17,-2.11 0.43,-2.09 0.67,-2.01 0.91,-1.93 1.13,-1.79 1.35,-1.65 1.53,-1.47 1.71,-1.28 1.71,-1.28 L 1.71,-1.28 Z"></path></g><g transform="translate(152 50) rotate(0 -1 -7)" stroke="none"><path fill="#1e1e1e" d="M 0,1.62 Q 0,1.62 -1.02,1.98 -2.04,2.34 -3.24,1.77 -4.44,1.20 -5.73,-0.14 -7.02,-1.50 -7.20,-2.82 -7.38,-4.15 -7.81,-5.74 -8.23,-7.33 -7.84,-8.37 -7.46,-9.41 -7.18,-11.21 -6.90,-13.00 -5.65,-14.38 -4.41,-15.76 -3.34,-16.28 -2.26,-16.81 -0.62,-16.74 1.00,-16.67 2.78,-15.89 4.56,-15.11 4.93,-12.23 5.30,-9.35 5.27,-9.14 5.24,-8.93 5.15,-8.73 5.06,-8.54 4.91,-8.39 4.76,-8.24 4.57,-8.15 4.38,-8.05 4.17,-8.02 3.96,-7.99 3.75,-8.03 3.54,-8.07 3.35,-8.17 3.17,-8.28 3.02,-8.44 2.88,-8.59 2.80,-8.79 2.71,-8.98 2.69,-9.19 2.68,-9.41 2.73,-9.61 2.78,-9.82 2.89,-10.00 3.00,-10.18 3.17,-10.31 3.33,-10.45 3.53,-10.52 3.73,-10.59 3.94,-10.60 4.16,-10.61 4.36,-10.55 4.56,-10.48 4.74,-10.36 4.91,-10.24 5.03,-10.07 5.16,-9.89 5.22,-9.69 5.29,-9.49 5.28,-9.28 5.28,-9.06 5.20,-8.86 5.13,-8.66 5.00,-8.50 4.87,-8.33 4.69,-8.22 4.51,-8.10 4.30,-8.05 4.10,-8.00 3.89,-8.01 3.67,-8.03 3.48,-8.11 3.28,-8.20 3.12,-8.34 2.97,-8.48 2.86,-8.66 2.75,-8.85 2.71,-9.06 2.67,-9.26 2.67,-9.26 2.67,-9.26 2.34,-10.64 2.00,-12.01 0.67,-12.62 -0.66,-13.23 -1.69,-12.20 -2.72,-11.16 -2.80,-9.96 -2.88,-8.75 -2.92,-7.43 -2.96,-6.10 -3.06,-4.91 -3.16,-3.71 -2.28,-3.02 -1.40,-2.34 -0.70,-1.98 0,-1.62 0.19,-1.60 0.38,-1.57 0.57,-1.50 0.75,-1.43 0.91,-1.32 1.07,-1.21 1.20,-1.06 1.33,-0.92 1.42,-0.74 1.51,-0.57 1.56,-0.38 1.61,-0.19 1.61,0.00 1.61,0.19 1.56,0.38 1.51,0.57 1.42,0.74 1.33,0.92 1.20,1.06 1.07,1.21 0.91,1.32 0.75,1.43 0.57,1.50 0.38,1.57 0.19,1.60 -0.00,1.62 -0.00,1.62 L 0,1.62 Z"></path></g><g transform="translate(219 21) rotate(0 -4 14)" stroke="none"><path fill="#1e1e1e" d="M 1.05,1.05 Q 1.05,1.05 0.60,2.32 0.14,3.59 -1.03,4.81 -2.21,6.02 -2.68,7.06 -3.15,8.10 -3.63,9.41 -4.10,10.72 -4.57,12.48 -5.05,14.24 -5.18,15.81 -5.31,17.37 -4.89,18.39 -4.47,19.41 -4.03,20.43 -3.58,21.45 -2.68,22.87 -1.77,24.30 -0.92,25.47 -0.06,26.65 0.13,26.72 0.33,26.79 0.49,26.92 0.66,27.05 0.77,27.23 0.89,27.41 0.94,27.62 1.00,27.82 0.98,28.03 0.96,28.25 0.88,28.44 0.80,28.64 0.66,28.80 0.52,28.96 0.33,29.06 0.15,29.17 -0.05,29.21 -0.26,29.25 -0.47,29.22 -0.68,29.20 -0.87,29.10 -1.06,29.01 -1.21,28.86 -1.36,28.71 -1.46,28.52 -1.56,28.33 -1.59,28.12 -1.62,27.91 -1.58,27.70 -1.54,27.49 -1.44,27.31 -1.33,27.12 -1.17,26.98 -1.02,26.84 -0.82,26.75 -0.63,26.67 -0.42,26.65 -0.20,26.63 -0.00,26.68 0.20,26.73 0.38,26.84 0.56,26.95 0.69,27.12 0.83,27.28 0.90,27.48 0.98,27.68 0.98,27.89 0.99,28.11 0.93,28.31 0.87,28.51 0.75,28.69 0.62,28.86 0.45,28.99 0.28,29.11 0.08,29.17 -0.12,29.24 -0.33,29.23 -0.54,29.23 -0.54,29.23 -0.54,29.23 -3.10,28.52 -5.66,27.80 -6.71,26.27 -7.76,24.75 -8.33,23.58 -8.89,22.42 -9.30,21.16 -9.70,19.89 -10.16,18.89 -10.61,17.89 -10.55,15.71 -10.48,13.53 -10.05,12.50 -9.62,11.47 -9.30,9.59 -8.97,7.70 -8.29,6.17 -7.61,4.63 -6.86,3.46 -6.11,2.30 -4.85,1.07 -3.59,-0.14 -2.32,-0.60 -1.05,-1.05 -0.91,-1.16 -0.77,-1.27 -0.60,-1.35 -0.44,-1.42 -0.26,-1.45 -0.09,-1.49 0.08,-1.48 0.26,-1.46 0.44,-1.41 0.61,-1.36 0.76,-1.26 0.92,-1.17 1.04,-1.04 1.17,-0.92 1.26,-0.76 1.36,-0.61 1.41,-0.44 1.46,-0.26 1.48,-0.08 1.49,0.09 1.45,0.26 1.42,0.44 1.35,0.60 1.27,0.77 1.16,0.91 1.05,1.05 1.05,1.05 L 1.05,1.05 Z"></path></g><g transform="translate(237 33) rotate(0 -1 14)" stroke="none"><path fill="#1e1e1e" d="M -1.20,1.20 Q -1.20,1.20 -2.05,0.94 -2.90,0.68 -4.16,1.85 -5.43,3.02 -5.54,4.25 -5.66,5.48 -5.22,6.51 -4.78,7.54 -4.09,8.85 -3.41,10.16 -2.89,9.08 -2.36,8.01 -1.79,6.85 -1.21,5.68 -0.63,4.25 -0.05,2.83 0.02,2.99 0.10,3.16 0.15,2.86 0.21,2.57 0.33,2.30 0.45,2.03 0.63,1.80 0.81,1.56 1.04,1.38 1.28,1.20 1.54,1.08 1.81,0.95 2.11,0.90 2.40,0.84 2.69,0.86 2.99,0.88 3.27,0.97 3.55,1.05 3.81,1.20 4.06,1.36 4.27,1.57 4.48,1.77 4.63,2.03 4.79,2.28 4.88,2.56 4.97,2.84 4.99,3.14 5.00,3.44 5.70,4.41 6.39,5.39 6.94,7.38 7.49,9.36 7.82,10.58 8.15,11.80 8.37,13.01 8.60,14.22 8.72,15.62 8.85,17.02 8.89,18.18 8.93,19.33 8.61,21.46 8.29,23.58 7.71,25.15 7.12,26.71 6.01,28.05 4.89,29.39 3.94,29.94 3.00,30.49 1.85,31.10 0.69,31.71 -0.82,32.25 -2.35,32.78 -5.18,30.83 -8.02,28.87 -8.09,28.67 -8.15,28.47 -8.16,28.25 -8.16,28.04 -8.09,27.84 -8.02,27.64 -7.89,27.47 -7.77,27.30 -7.59,27.18 -7.41,27.06 -7.21,27.00 -7.01,26.94 -6.79,26.95 -6.58,26.97 -6.38,27.04 -6.19,27.12 -6.02,27.26 -5.86,27.40 -5.75,27.58 -5.64,27.76 -5.59,27.97 -5.55,28.17 -5.57,28.38 -5.59,28.60 -5.68,28.79 -5.77,28.98 -5.91,29.14 -6.06,29.29 -6.25,29.39 -6.44,29.49 -6.64,29.53 -6.85,29.56 -7.06,29.53 -7.27,29.50 -7.46,29.40 -7.65,29.30 -7.80,29.14 -7.94,28.99 -8.03,28.80 -8.12,28.60 -8.15,28.39 -8.17,28.18 -8.13,27.98 -8.08,27.77 -7.97,27.58 -7.86,27.40 -7.70,27.26 -7.54,27.13 -7.34,27.05 -7.15,26.97 -6.93,26.96 -6.72,26.94 -6.52,27.00 -6.31,27.06 -6.14,27.17 -5.96,27.29 -5.83,27.46 -5.70,27.63 -5.70,27.63 -5.70,27.63 -4.75,27.20 -3.81,26.76 -2.45,26.35 -1.10,25.94 0.07,25.10 1.24,24.27 1.89,23.01 2.54,21.76 2.79,20.57 3.03,19.38 3.05,17.80 3.07,16.22 3.00,14.96 2.92,13.70 2.54,11.60 2.17,9.49 1.82,7.76 1.46,6.03 0.78,4.59 0.10,3.16 0.15,2.86 0.21,2.57 0.33,2.30 0.45,2.03 0.63,1.80 0.81,1.56 1.04,1.38 1.28,1.20 1.54,1.08 1.81,0.95 2.11,0.90 2.40,0.84 2.69,0.86 2.99,0.88 3.27,0.97 3.55,1.05 3.81,1.20 4.06,1.36 4.27,1.57 4.48,1.77 4.63,2.03 4.79,2.28 4.88,2.56 4.97,2.84 4.99,3.14 5.00,3.44 4.48,4.92 3.96,6.41 3.14,7.76 2.33,9.11 1.61,10.22 0.90,11.33 -0.33,12.38 -1.58,13.42 -3.52,13.65 -5.47,13.88 -6.92,12.70 -8.38,11.52 -8.87,9.71 -9.36,7.91 -9.90,6.00 -10.44,4.09 -10.27,2.72 -10.09,1.36 -8.99,-0.27 -7.88,-1.91 -6.63,-2.82 -5.37,-3.74 -4.21,-4.06 -3.05,-4.38 -1.22,-3.68 0.60,-2.98 0.90,-2.09 1.20,-1.20 1.32,-1.03 1.45,-0.87 1.53,-0.69 1.62,-0.50 1.65,-0.30 1.69,-0.10 1.68,0.10 1.66,0.30 1.60,0.50 1.54,0.69 1.44,0.87 1.33,1.04 1.19,1.19 1.04,1.33 0.87,1.44 0.69,1.54 0.50,1.60 0.30,1.66 0.10,1.68 -0.10,1.69 -0.30,1.65 -0.50,1.62 -0.69,1.53 -0.87,1.45 -1.03,1.32 -1.20,1.19 -1.20,1.20 L -1.20,1.20 Z"></path></g><g transform="translate(252 23) rotate(0 5.5 16)" stroke="none"><path fill="#1e1e1e" d="M 0.77,-1.55 Q 0.77,-1.55 2.06,-1.19 3.34,-0.83 4.46,0.15 5.58,1.14 6.98,2.73 8.38,4.31 9.37,5.37 10.37,6.43 10.90,7.73 11.43,9.03 12.05,10.61 12.68,12.19 12.80,13.28 12.91,14.37 13.12,16.93 13.32,19.48 13.25,20.84 13.18,22.20 12.85,23.66 12.51,25.13 11.90,26.88 11.28,28.63 10.25,30.26 9.22,31.90 7.05,32.46 4.88,33.03 4.67,33.09 4.47,33.15 4.26,33.14 4.04,33.13 3.84,33.06 3.65,32.98 3.48,32.85 3.32,32.71 3.21,32.53 3.09,32.35 3.04,32.14 3.00,31.94 3.02,31.73 3.04,31.51 3.12,31.32 3.21,31.13 3.35,30.97 3.50,30.81 3.68,30.71 3.87,30.61 4.08,30.57 4.29,30.53 4.50,30.56 4.71,30.59 4.90,30.69 5.08,30.79 5.23,30.94 5.38,31.09 5.47,31.28 5.57,31.47 5.59,31.69 5.62,31.90 5.58,32.10 5.53,32.31 5.43,32.50 5.32,32.68 5.16,32.82 5.00,32.96 4.80,33.04 4.61,33.12 4.40,33.14 4.18,33.15 3.98,33.10 3.77,33.05 3.60,32.93 3.42,32.81 3.29,32.65 3.16,32.48 3.08,32.28 3.01,32.08 3.01,31.87 3.01,31.65 3.07,31.45 3.14,31.25 3.26,31.08 3.39,30.91 3.56,30.78 3.74,30.66 3.74,30.66 3.74,30.66 3.95,29.43 4.17,28.19 4.94,26.87 5.72,25.54 6.04,24.53 6.36,23.51 6.66,22.02 6.96,20.52 7.27,18.96 7.58,17.39 7.23,16.12 6.87,14.86 6.90,13.67 6.93,12.49 6.02,10.62 5.11,8.75 4.19,7.27 3.28,5.80 2.26,4.46 1.25,3.13 0.23,2.34 -0.77,1.55 -0.95,1.43 -1.12,1.32 -1.26,1.16 -1.40,1.01 -1.51,0.83 -1.61,0.64 -1.66,0.44 -1.71,0.24 -1.72,0.03 -1.72,-0.17 -1.68,-0.37 -1.63,-0.58 -1.54,-0.77 -1.44,-0.95 -1.31,-1.11 -1.17,-1.27 -1.00,-1.39 -0.83,-1.52 -0.64,-1.59 -0.44,-1.67 -0.24,-1.70 -0.03,-1.73 0.17,-1.71 0.38,-1.69 0.57,-1.62 0.77,-1.55 0.77,-1.55 L 0.77,-1.55 Z"></path></g><g transform="translate(336 29) rotate(0 12 0.5)" stroke="none"><path fill="#1e1e1e" d="M 0.43,-1.74 Q 0.43,-1.74 1.72,-2.01 3.01,-2.27 4.82,-2.14 6.63,-2.01 7.89,-1.97 9.16,-1.93 10.26,-1.90 11.36,-1.88 13.01,-1.84 14.67,-1.80 16.32,-1.76 17.97,-1.71 20.82,-1.01 23.66,-0.31 23.87,-0.27 24.08,-0.24 24.27,-0.14 24.46,-0.04 24.60,0.10 24.75,0.26 24.84,0.45 24.93,0.64 24.95,0.85 24.97,1.07 24.93,1.27 24.88,1.48 24.77,1.66 24.66,1.85 24.50,1.98 24.34,2.12 24.14,2.20 23.95,2.28 23.73,2.29 23.52,2.30 23.32,2.24 23.11,2.19 22.94,2.07 22.76,1.95 22.63,1.78 22.50,1.61 22.43,1.41 22.37,1.21 22.37,0.99 22.37,0.78 22.43,0.58 22.50,0.38 22.63,0.21 22.76,0.04 22.94,-0.07 23.11,-0.19 23.32,-0.24 23.52,-0.30 23.73,-0.29 23.95,-0.28 24.14,-0.20 24.34,-0.12 24.50,0.01 24.66,0.15 24.77,0.33 24.88,0.51 24.93,0.72 24.97,0.92 24.95,1.14 24.93,1.35 24.84,1.54 24.75,1.73 24.60,1.89 24.46,2.04 24.27,2.14 24.08,2.24 23.87,2.27 23.66,2.31 23.66,2.31 23.66,2.31 20.82,3.01 17.97,3.71 16.32,3.76 14.66,3.80 13.00,3.83 11.34,3.86 10.20,3.88 9.07,3.90 7.70,3.88 6.33,3.86 5.21,3.80 4.09,3.74 2.84,3.58 1.58,3.42 0.57,2.58 -0.43,1.74 -0.63,1.66 -0.84,1.59 -1.02,1.46 -1.19,1.34 -1.34,1.18 -1.48,1.01 -1.58,0.82 -1.68,0.63 -1.73,0.42 -1.78,0.21 -1.78,-0.00 -1.78,-0.22 -1.73,-0.43 -1.68,-0.64 -1.57,-0.83 -1.47,-1.02 -1.33,-1.18 -1.18,-1.35 -1.01,-1.47 -0.83,-1.59 -0.62,-1.67 -0.42,-1.74 -0.20,-1.77 0.00,-1.80 0.22,-1.77 0.43,-1.74 0.43,-1.74 L 0.43,-1.74 Z"></path></g><g transform="translate(348 44) rotate(0 -1.5 -11)" stroke="none"><path fill="#1e1e1e" d="M -1.66,0.55 Q -1.66,0.55 -2.28,-0.18 -2.90,-0.92 -3.56,-2.16 -4.23,-3.41 -4.38,-4.48 -4.54,-5.55 -5.03,-7.46 -5.52,-9.37 -5.59,-11.44 -5.65,-13.50 -5.59,-15.39 -5.53,-17.27 -4.92,-19.35 -4.31,-21.42 -4.27,-21.63 -4.24,-21.84 -4.14,-22.03 -4.04,-22.22 -3.89,-22.37 -3.73,-22.51 -3.54,-22.60 -3.35,-22.69 -3.14,-22.71 -2.92,-22.74 -2.72,-22.69 -2.51,-22.65 -2.33,-22.54 -2.15,-22.43 -2.01,-22.27 -1.87,-22.10 -1.79,-21.91 -1.71,-21.71 -1.70,-21.50 -1.69,-21.28 -1.75,-21.08 -1.80,-20.87 -1.92,-20.70 -2.04,-20.52 -2.21,-20.39 -2.38,-20.27 -2.58,-20.20 -2.78,-20.13 -2.99,-20.13 -3.21,-20.13 -3.41,-20.20 -3.61,-20.26 -3.78,-20.39 -3.95,-20.52 -4.07,-20.70 -4.19,-20.87 -4.24,-21.08 -4.30,-21.28 -4.29,-21.49 -4.28,-21.71 -4.20,-21.90 -4.12,-22.10 -3.98,-22.26 -3.85,-22.43 -3.66,-22.54 -3.48,-22.65 -3.27,-22.69 -3.07,-22.74 -2.86,-22.71 -2.64,-22.69 -2.45,-22.60 -2.26,-22.51 -2.10,-22.37 -1.95,-22.22 -1.85,-22.03 -1.75,-21.85 -1.72,-21.64 -1.68,-21.43 -1.68,-21.43 -1.68,-21.43 -1.06,-19.36 -0.45,-17.29 -0.38,-16.15 -0.31,-15.00 -0.25,-13.40 -0.18,-11.80 -0.15,-10.61 -0.13,-9.42 0.28,-8.36 0.70,-7.30 0.72,-6.11 0.74,-4.91 1.25,-3.71 1.75,-2.52 1.71,-1.53 1.66,-0.55 1.70,-0.34 1.74,-0.14 1.74,0.07 1.73,0.28 1.67,0.48 1.61,0.68 1.50,0.87 1.40,1.05 1.25,1.20 1.10,1.35 0.93,1.47 0.75,1.58 0.55,1.65 0.35,1.71 0.13,1.73 -0.07,1.75 -0.28,1.71 -0.48,1.68 -0.68,1.60 -0.87,1.51 -1.04,1.39 -1.21,1.26 -1.34,1.10 -1.48,0.93 -1.57,0.74 -1.66,0.55 -1.66,0.55 L -1.66,0.55 Z"></path></g><g transform="translate(482 11) rotate(0 -12 17.5)" stroke="none"><path fill="#1e1e1e" d="M -0.52,1.57 Q -0.52,1.57 -1.51,1.66 -2.49,1.74 -3.69,1.67 -4.89,1.59 -6.45,1.58 -8.02,1.57 -9.81,1.58 -11.61,1.60 -13.28,1.61 -14.96,1.61 -16.08,1.62 -17.20,1.63 -17.44,2.95 -17.67,4.27 -18.10,5.84 -18.53,7.40 -18.52,8.85 -18.52,10.30 -16.41,10.78 -14.31,11.26 -12.81,11.72 -11.31,12.18 -10.01,12.30 -8.70,12.42 -7.68,12.86 -6.66,13.30 -5.41,13.71 -4.15,14.12 -2.65,15.19 -1.15,16.26 -0.16,16.77 0.82,17.29 2.01,18.32 3.20,19.36 3.97,20.47 4.73,21.58 4.92,23.31 5.10,25.03 4.49,26.56 3.88,28.09 2.97,29.52 2.06,30.95 0.98,31.81 -0.09,32.67 -1.56,33.59 -3.04,34.51 -4.17,35.19 -5.30,35.86 -6.91,36.57 -8.52,37.27 -10.46,37.85 -12.40,38.43 -14.42,38.71 -16.44,38.99 -17.52,39.01 -18.59,39.03 -19.84,38.65 -21.09,38.28 -22.17,38.20 -23.25,38.12 -25.58,36.54 -27.91,34.97 -28.01,34.78 -28.10,34.59 -28.14,34.38 -28.17,34.17 -28.14,33.96 -28.10,33.75 -28.00,33.56 -27.90,33.38 -27.75,33.23 -27.59,33.09 -27.40,33.00 -27.20,32.91 -26.99,32.89 -26.78,32.87 -26.57,32.91 -26.37,32.96 -26.18,33.07 -26.00,33.18 -25.87,33.34 -25.73,33.51 -25.65,33.70 -25.57,33.90 -25.56,34.11 -25.55,34.32 -25.61,34.53 -25.67,34.73 -25.79,34.91 -25.91,35.08 -26.08,35.21 -26.25,35.34 -26.45,35.41 -26.65,35.47 -26.86,35.47 -27.08,35.47 -27.28,35.40 -27.48,35.33 -27.65,35.20 -27.82,35.08 -27.93,34.90 -28.05,34.72 -28.11,34.52 -28.16,34.31 -28.15,34.10 -28.14,33.89 -28.06,33.69 -27.98,33.49 -27.84,33.33 -27.70,33.17 -27.52,33.06 -27.34,32.95 -27.13,32.91 -26.92,32.86 -26.71,32.89 -26.50,32.91 -26.31,33.00 -26.12,33.09 -25.96,33.24 -25.81,33.39 -25.81,33.39 -25.81,33.39 -24.93,32.69 -24.04,31.99 -22.67,32.06 -21.30,32.13 -19.09,32.47 -16.88,32.81 -15.56,32.66 -14.25,32.51 -13.03,32.13 -11.81,31.76 -10.49,31.27 -9.18,30.79 -8.15,30.22 -7.12,29.65 -6.07,29.26 -5.02,28.86 -3.50,27.63 -1.98,26.40 -1.33,24.81 -0.69,23.22 -1.71,22.19 -2.74,21.17 -4.07,20.33 -5.40,19.49 -6.40,18.88 -7.41,18.28 -9.08,17.77 -10.76,17.26 -12.58,16.75 -14.40,16.23 -16.10,15.83 -17.79,15.42 -18.96,15.34 -20.12,15.25 -21.59,14.16 -23.06,13.06 -23.25,11.63 -23.44,10.21 -23.37,9.11 -23.30,8.01 -22.79,6.55 -22.28,5.10 -22.28,3.65 -22.27,2.20 -22.19,1.05 -22.11,-0.10 -21.09,-1.62 -20.07,-3.14 -18.63,-3.39 -17.20,-3.63 -16.08,-3.62 -14.96,-3.61 -13.28,-3.60 -11.60,-3.59 -9.77,-3.57 -7.95,-3.54 -6.26,-3.49 -4.58,-3.44 -2.76,-3.17 -0.95,-2.89 -0.21,-2.23 0.52,-1.57 0.70,-1.48 0.88,-1.40 1.04,-1.27 1.19,-1.14 1.31,-0.98 1.43,-0.82 1.51,-0.64 1.59,-0.46 1.62,-0.26 1.65,-0.06 1.64,0.13 1.62,0.33 1.56,0.52 1.49,0.71 1.39,0.87 1.28,1.04 1.14,1.18 0.99,1.32 0.82,1.42 0.65,1.52 0.45,1.58 0.26,1.63 0.06,1.64 -0.13,1.65 -0.32,1.61 -0.52,1.57 -0.52,1.57 L -0.52,1.57 Z"></path></g><g transform="translate(551 49) rotate(0 -2.5 -16.5)" stroke="none"><path fill="#1e1e1e" d="M 1.44,0.72 Q 1.44,0.72 1.57,1.63 1.70,2.55 0.84,3.29 -0.01,4.03 -1.07,4.28 -2.12,4.52 -3.32,4.20 -4.52,3.88 -5.66,3.37 -6.80,2.87 -7.89,2.51 -8.98,2.14 -10.36,1.55 -11.74,0.96 -12.99,-0.10 -14.24,-1.18 -14.97,-2.21 -15.70,-3.25 -16.57,-4.23 -17.43,-5.20 -18.41,-6.64 -19.39,-8.09 -19.97,-9.20 -20.56,-10.31 -21.09,-11.36 -21.61,-12.40 -22.14,-13.95 -22.67,-15.49 -22.79,-16.80 -22.92,-18.11 -22.46,-19.90 -21.99,-21.68 -21.48,-23.23 -20.97,-24.77 -20.46,-25.82 -19.95,-26.88 -19.12,-27.89 -18.29,-28.90 -17.55,-30.08 -16.81,-31.27 -15.48,-32.18 -14.16,-33.10 -13.28,-33.94 -12.40,-34.78 -10.80,-35.25 -9.20,-35.73 -7.63,-36.25 -6.06,-36.77 -4.53,-37.27 -3.00,-37.76 -1.89,-37.81 -0.78,-37.85 0.73,-37.85 2.25,-37.85 3.54,-37.85 4.83,-37.85 6.68,-37.16 8.53,-36.46 9.67,-36.18 10.80,-35.89 11.92,-35.32 13.03,-34.75 14.23,-33.24 15.43,-31.74 16.47,-30.25 17.50,-28.76 17.72,-27.35 17.94,-25.93 17.97,-24.44 18.00,-22.94 18.01,-21.16 18.02,-19.38 17.58,-17.45 17.14,-15.52 17.07,-14.01 17.00,-12.49 16.54,-11.36 16.08,-10.23 15.57,-9.14 15.06,-8.05 14.56,-7.03 14.06,-6.02 13.48,-4.93 12.89,-3.84 11.95,-3.19 11.01,-2.54 9.82,-1.75 8.64,-0.97 7.30,-0.62 5.97,-0.26 4.50,-0.13 3.03,0.00 1.91,0.00 0.79,0.00 -0.73,-0.08 -2.25,-0.17 -1.82,-0.06 -1.38,0.03 -1.54,0.01 -1.69,0.00 -1.84,-0.05 -1.99,-0.11 -2.12,-0.20 -2.25,-0.29 -2.36,-0.40 -2.46,-0.52 -2.53,-0.66 -2.61,-0.80 -2.65,-0.96 -2.68,-1.11 -2.68,-1.27 -2.68,-1.43 -2.65,-1.58 -2.61,-1.73 -2.54,-1.87 -2.46,-2.02 -2.36,-2.13 -2.25,-2.25 -2.12,-2.34 -1.99,-2.43 -1.84,-2.49 -1.70,-2.55 -1.54,-2.56 -1.38,-2.58 -0.81,-2.24 -0.23,-1.90 -0.16,-1.70 -0.09,-1.50 -0.08,-1.29 -0.08,-1.08 -0.15,-0.87 -0.21,-0.67 -0.34,-0.50 -0.46,-0.33 -0.64,-0.21 -0.81,-0.09 -1.02,-0.03 -1.22,0.02 -1.43,0.01 -1.64,0.01 -1.84,-0.06 -2.04,-0.14 -2.21,-0.27 -2.37,-0.41 -2.48,-0.59 -2.59,-0.77 -2.64,-0.97 -2.69,-1.18 -2.67,-1.39 -2.65,-1.60 -2.56,-1.80 -2.48,-1.99 -2.33,-2.15 -2.19,-2.30 -2.00,-2.41 -1.82,-2.51 -1.61,-2.55 -1.40,-2.58 -1.19,-2.55 -0.98,-2.52 -0.79,-2.42 -0.60,-2.33 -0.45,-2.17 -0.30,-2.02 -0.21,-1.83 -0.12,-1.64 -0.09,-1.43 -0.07,-1.22 -0.11,-1.01 -0.15,-0.80 -0.26,-0.62 -0.37,-0.43 -0.53,-0.29 -0.69,-0.15 -0.88,-0.07 -1.08,0.00 -1.29,0.01 -1.50,0.03 -1.71,-0.02 -1.92,-0.07 -2.09,-0.19 -2.27,-0.30 -1.82,-0.13 -1.38,0.03 -1.54,0.01 -1.69,0.00 -1.84,-0.05 -1.99,-0.11 -2.12,-0.20 -2.25,-0.29 -2.36,-0.40 -2.46,-0.52 -2.53,-0.66 -2.61,-0.80 -2.65,-0.96 -2.68,-1.11 -2.68,-1.27 -2.68,-1.43 -2.65,-1.58 -2.61,-1.73 -2.54,-1.87 -2.46,-2.02 -2.36,-2.13 -2.25,-2.25 -2.12,-2.34 -1.99,-2.43 -1.84,-2.49 -1.70,-2.54 -1.54,-2.56 -1.38,-2.58 -1.32,-4.27 -1.26,-5.95 0.21,-6.00 1.70,-6.06 3.20,-6.17 4.70,-6.29 5.73,-6.63 6.77,-6.97 7.87,-8.21 8.96,-9.45 9.60,-10.49 10.24,-11.53 10.64,-13.29 11.05,-15.06 11.52,-16.60 11.99,-18.15 11.98,-19.69 11.97,-21.23 11.97,-22.66 11.97,-24.10 12.05,-25.43 12.13,-26.76 11.48,-27.87 10.82,-28.99 9.35,-30.13 7.87,-31.27 6.35,-31.70 4.83,-32.14 3.05,-32.14 1.27,-32.13 -0.14,-32.11 -1.56,-32.09 -2.66,-31.82 -3.76,-31.54 -4.99,-31.31 -6.22,-31.08 -8.13,-30.42 -10.05,-29.76 -10.85,-28.97 -11.66,-28.19 -12.43,-27.35 -13.20,-26.52 -13.96,-25.76 -14.73,-24.99 -15.45,-23.41 -16.18,-21.83 -16.63,-20.47 -17.08,-19.10 -17.04,-17.95 -17.00,-16.80 -16.46,-15.45 -15.93,-14.11 -15.44,-13.15 -14.96,-12.19 -14.52,-11.20 -14.09,-10.20 -13.03,-9.07 -11.97,-7.94 -11.11,-6.68 -10.24,-5.42 -9.30,-4.49 -8.36,-3.57 -6.92,-3.05 -5.48,-2.53 -4.16,-1.39 -2.85,-0.25 -2.14,-0.48 -1.44,-0.72 -1.33,-0.88 -1.22,-1.04 -1.08,-1.17 -0.94,-1.30 -0.77,-1.40 -0.60,-1.49 -0.41,-1.54 -0.22,-1.59 -0.03,-1.59 0.16,-1.60 0.35,-1.55 0.54,-1.51 0.71,-1.43 0.88,-1.34 1.03,-1.21 1.18,-1.09 1.29,-0.93 1.41,-0.77 1.48,-0.59 1.55,-0.41 1.58,-0.22 1.61,-0.03 1.59,0.16 1.57,0.35 1.50,0.53 1.44,0.72 1.44,0.72 L 1.44,0.72 Z"></path></g><g transform="translate(576 46) rotate(0 2.5 10)" stroke="none"><path fill="#1e1e1e" d="M -1.54,-0.51 Q -1.54,-0.51 -1.56,-1.56 -1.57,-2.60 -0.86,-3.44 -0.14,-4.29 1.54,-4.79 3.22,-5.28 4.30,-4.93 5.37,-4.58 6.78,-3.96 8.18,-3.34 9.64,-2.43 11.09,-1.52 11.80,0.13 12.50,1.80 12.14,3.68 11.77,5.56 10.76,7.21 9.75,8.86 8.73,10.01 7.71,11.16 6.18,12.39 4.66,13.62 3.68,14.18 2.71,14.73 1.72,15.58 0.73,16.42 -0.54,17.27 -1.83,18.12 -0.42,19.07 0.98,20.01 2.15,20.01 3.33,20.00 5.50,20.84 7.68,21.68 7.89,21.72 8.10,21.75 8.29,21.85 8.48,21.95 8.62,22.10 8.77,22.26 8.86,22.45 8.95,22.64 8.97,22.86 8.99,23.07 8.95,23.27 8.90,23.48 8.79,23.66 8.68,23.85 8.52,23.98 8.36,24.12 8.16,24.20 7.96,24.28 7.75,24.29 7.54,24.30 7.33,24.24 7.13,24.19 6.95,24.07 6.78,23.95 6.65,23.78 6.52,23.61 6.45,23.41 6.38,23.21 6.38,22.99 6.39,22.78 6.45,22.58 6.52,22.38 6.65,22.21 6.78,22.04 6.95,21.92 7.13,21.80 7.34,21.75 7.54,21.69 7.75,21.70 7.96,21.71 8.16,21.79 8.36,21.87 8.52,22.01 8.68,22.15 8.79,22.33 8.90,22.51 8.95,22.72 8.99,22.92 8.97,23.14 8.95,23.35 8.86,23.54 8.77,23.73 8.62,23.89 8.47,24.04 8.29,24.14 8.10,24.24 7.89,24.27 7.68,24.31 7.68,24.31 7.68,24.31 5.95,25.11 4.23,25.92 3.16,25.93 2.09,25.94 0.74,25.80 -0.60,25.65 -1.64,25.12 -2.69,24.59 -3.83,23.97 -4.98,23.35 -5.89,22.65 -6.81,21.94 -7.35,20.66 -7.88,19.38 -7.67,17.82 -7.47,16.27 -6.70,15.50 -5.93,14.72 -5.03,13.92 -4.14,13.11 -2.92,12.04 -1.70,10.97 -0.02,9.93 1.65,8.90 2.67,8.12 3.69,7.35 4.68,6.34 5.67,5.34 6.56,3.79 7.46,2.24 6.33,1.21 5.20,0.18 3.96,-0.33 2.72,-0.84 2.13,-0.16 1.54,0.51 1.46,0.69 1.37,0.86 1.25,1.02 1.12,1.17 0.97,1.29 0.81,1.41 0.63,1.48 0.45,1.56 0.26,1.59 0.06,1.62 -0.12,1.61 -0.32,1.59 -0.51,1.53 -0.69,1.47 -0.86,1.36 -1.02,1.26 -1.16,1.12 -1.30,0.97 -1.39,0.80 -1.49,0.63 -1.55,0.45 -1.60,0.26 -1.61,0.06 -1.62,-0.13 -1.58,-0.32 -1.54,-0.51 -1.54,-0.51 L -1.54,-0.51 Z"></path></g><g transform="translate(624 58) rotate(0 -2.5 -15.5)" stroke="none"><path fill="#1e1e1e" d="M -0.70,1.40 Q -0.70,1.40 -1.51,1.57 -2.32,1.75 -3.68,0.72 -5.05,-0.30 -6.12,-1.72 -7.20,-3.15 -7.82,-4.27 -8.43,-5.39 -8.80,-6.46 -9.16,-7.52 -9.38,-8.79 -9.60,-10.06 -9.69,-11.51 -9.77,-12.96 -9.49,-14.47 -9.20,-15.97 -9.12,-17.13 -9.04,-18.28 -8.62,-19.52 -8.20,-20.77 -7.64,-22.52 -7.08,-24.28 -6.14,-26.07 -5.19,-27.86 -4.08,-29.43 -2.98,-31.00 -0.96,-31.98 1.04,-32.97 1.24,-33.04 1.44,-33.11 1.65,-33.12 1.87,-33.12 2.07,-33.06 2.27,-32.99 2.44,-32.87 2.61,-32.74 2.74,-32.57 2.86,-32.40 2.92,-32.19 2.98,-31.99 2.98,-31.78 2.97,-31.57 2.90,-31.37 2.82,-31.17 2.69,-31.00 2.55,-30.84 2.37,-30.72 2.19,-30.61 1.99,-30.56 1.78,-30.51 1.57,-30.53 1.36,-30.55 1.16,-30.63 0.97,-30.72 0.81,-30.86 0.65,-31.00 0.55,-31.19 0.45,-31.37 0.41,-31.58 0.37,-31.79 0.40,-32.00 0.43,-32.21 0.52,-32.40 0.62,-32.59 0.77,-32.74 0.92,-32.89 1.11,-32.98 1.30,-33.08 1.51,-33.10 1.72,-33.13 1.93,-33.09 2.14,-33.05 2.33,-32.94 2.51,-32.84 2.65,-32.68 2.79,-32.52 2.87,-32.33 2.96,-32.13 2.97,-31.92 2.99,-31.71 2.94,-31.50 2.89,-31.29 2.77,-31.12 2.65,-30.94 2.49,-30.81 2.32,-30.67 2.32,-30.67 2.32,-30.67 1.92,-29.55 1.51,-28.43 1.00,-27.42 0.49,-26.41 -0.29,-24.92 -1.09,-23.43 -1.72,-22.28 -2.36,-21.13 -2.82,-19.43 -3.27,-17.74 -3.65,-15.46 -4.03,-13.18 -3.90,-11.24 -3.77,-9.29 -3.04,-7.24 -2.30,-5.20 -1.14,-4.05 0.02,-2.90 0.36,-2.15 0.70,-1.40 0.86,-1.30 1.01,-1.19 1.14,-1.05 1.27,-0.91 1.36,-0.75 1.45,-0.58 1.50,-0.40 1.55,-0.21 1.55,-0.03 1.56,0.15 1.52,0.34 1.47,0.52 1.39,0.69 1.31,0.86 1.18,1.01 1.06,1.15 0.91,1.26 0.75,1.37 0.58,1.44 0.40,1.51 0.21,1.54 0.03,1.57 -0.15,1.55 -0.34,1.53 -0.52,1.46 -0.70,1.40 -0.70,1.40 L -0.70,1.40 Z"></path></g><g transform="translate(646 38) rotate(0 -3.5 13)" stroke="none"><path fill="#1e1e1e" d="M -0.38,1.55 Q -0.38,1.55 -1.51,1.55 -2.63,1.54 -3.84,2.03 -5.05,2.51 -5.89,3.25 -6.72,3.98 -6.91,5.22 -7.10,6.46 -5.88,6.51 -4.66,6.56 -3.51,6.20 -2.36,5.83 -1.42,4.89 -0.47,3.96 1.69,3.27 3.86,2.59 4.72,3.77 5.57,4.96 5.65,6.09 5.73,7.22 5.75,8.62 5.77,10.02 6.17,11.27 6.58,12.52 6.71,14.12 6.83,15.71 6.87,17.22 6.91,18.73 6.94,19.95 6.96,21.16 6.96,22.30 6.96,23.43 6.50,24.59 6.05,25.75 4.94,27.07 3.84,28.39 2.87,28.94 1.90,29.49 0.70,29.70 -0.49,29.91 -2.09,29.98 -3.70,30.04 -5.41,30.04 -7.12,30.03 -8.30,29.60 -9.48,29.17 -9.50,27.28 -9.52,25.39 -9.67,25.33 -9.82,25.28 -9.95,25.19 -10.08,25.10 -10.19,24.99 -10.30,24.87 -10.37,24.73 -10.45,24.59 -10.49,24.44 -10.53,24.29 -10.53,24.13 -10.53,23.97 -10.50,23.82 -10.46,23.66 -10.39,23.52 -10.32,23.38 -10.22,23.26 -10.12,23.14 -9.99,23.05 -9.86,22.95 -9.71,22.90 -9.56,22.84 -9.41,22.82 -9.25,22.79 -9.09,22.81 -8.94,22.83 -9.16,22.82 -9.39,22.80 -9.18,22.81 -8.96,22.82 -8.77,22.90 -8.57,22.97 -8.40,23.11 -8.24,23.24 -8.13,23.42 -8.01,23.60 -7.97,23.81 -7.92,24.02 -7.94,24.23 -7.96,24.44 -8.04,24.63 -8.13,24.83 -8.27,24.98 -8.42,25.14 -8.60,25.24 -8.79,25.35 -9.00,25.38 -9.21,25.42 -9.42,25.39 -9.63,25.36 -9.82,25.26 -10.01,25.16 -10.16,25.01 -10.30,24.86 -10.40,24.67 -10.49,24.48 -10.51,24.27 -10.54,24.06 -10.50,23.85 -10.45,23.64 -10.35,23.46 -10.24,23.27 -10.08,23.13 -9.92,22.99 -9.73,22.91 -9.53,22.83 -9.32,22.81 -9.10,22.80 -8.90,22.85 -8.69,22.91 -8.52,23.02 -8.34,23.14 -8.21,23.31 -8.08,23.47 -8.01,23.67 -7.93,23.88 -7.93,24.09 -7.93,24.30 -7.99,24.50 -8.06,24.70 -8.18,24.88 -8.31,25.05 -8.48,25.17 -8.66,25.29 -9.09,25.34 -9.52,25.39 -9.67,25.33 -9.82,25.28 -9.95,25.19 -10.08,25.10 -10.19,24.99 -10.30,24.87 -10.37,24.73 -10.45,24.59 -10.49,24.44 -10.53,24.29 -10.53,24.13 -10.53,23.97 -10.50,23.82 -10.46,23.66 -10.39,23.52 -10.32,23.38 -10.22,23.26 -10.12,23.14 -9.99,23.05 -9.86,22.95 -9.71,22.90 -9.56,22.84 -9.41,22.82 -9.25,22.79 -9.09,22.81 -8.94,22.83 -8.73,23.02 -8.53,23.21 -7.09,23.56 -5.64,23.91 -3.96,23.89 -2.27,23.87 -1.01,23.60 0.24,23.33 0.63,22.25 1.02,21.17 1.05,19.96 1.07,18.76 1.08,17.32 1.09,15.87 1.00,14.27 0.91,12.67 0.56,10.77 0.21,8.86 0.61,7.44 1.01,6.02 2.00,6.72 3.00,7.42 1.81,8.47 0.63,9.52 -0.45,10.03 -1.55,10.54 -3.16,10.96 -4.78,11.39 -5.89,11.32 -7.00,11.24 -8.47,10.30 -9.94,9.36 -10.68,7.72 -11.42,6.09 -11.59,4.98 -11.76,3.87 -10.74,2.25 -9.72,0.63 -8.41,-0.41 -7.10,-1.45 -6.10,-1.88 -5.10,-2.30 -3.53,-2.50 -1.96,-2.69 -0.78,-2.12 0.38,-1.55 0.57,-1.48 0.75,-1.42 0.91,-1.30 1.06,-1.19 1.19,-1.05 1.32,-0.90 1.41,-0.73 1.50,-0.56 1.55,-0.37 1.59,-0.18 1.59,0.00 1.59,0.19 1.54,0.38 1.50,0.57 1.41,0.74 1.31,0.91 1.19,1.06 1.06,1.20 0.90,1.31 0.74,1.42 0.56,1.49 0.37,1.56 0.18,1.58 -0.00,1.60 -0.19,1.58 -0.38,1.55 -0.38,1.55 L -0.38,1.55 Z"></path></g><g transform="translate(658 27) rotate(0 7.5 18.5)" stroke="none"><path fill="#1e1e1e" d="M 1.11,-1.48 Q 1.11,-1.48 2.58,-1.04 4.04,-0.60 4.89,0.09 5.74,0.78 7.28,2.12 8.83,3.46 9.75,4.40 10.67,5.34 11.29,6.33 11.91,7.31 13.36,9.09 14.80,10.86 15.38,11.93 15.95,13.00 16.56,14.45 17.17,15.90 17.49,17.31 17.80,18.71 17.93,19.93 18.06,21.15 18.13,22.91 18.21,24.67 17.87,26.08 17.53,27.50 16.55,29.55 15.57,31.59 14.52,33.19 13.47,34.79 12.51,35.47 11.55,36.16 10.68,36.89 9.80,37.62 6.49,37.33 3.19,37.05 3.06,36.87 2.94,36.70 2.88,36.49 2.82,36.29 2.83,36.08 2.84,35.86 2.92,35.67 3.00,35.47 3.13,35.30 3.27,35.14 3.45,35.03 3.63,34.92 3.84,34.87 4.04,34.82 4.26,34.84 4.47,34.86 4.66,34.95 4.85,35.04 5.01,35.18 5.17,35.33 5.27,35.51 5.37,35.70 5.41,35.91 5.44,36.12 5.41,36.33 5.38,36.54 5.28,36.73 5.18,36.92 5.03,37.06 4.88,37.21 4.69,37.30 4.49,37.39 4.28,37.42 4.07,37.45 3.86,37.40 3.66,37.36 3.47,37.25 3.29,37.14 3.15,36.98 3.01,36.82 2.93,36.63 2.85,36.43 2.84,36.22 2.82,36.00 2.88,35.80 2.93,35.59 3.05,35.42 3.17,35.24 3.33,35.11 3.50,34.98 3.70,34.91 3.90,34.84 4.12,34.84 4.33,34.84 4.53,34.90 4.73,34.97 4.90,35.09 5.07,35.22 5.07,35.22 5.07,35.22 5.92,33.56 6.76,31.90 8.08,30.83 9.40,29.77 10.21,28.53 11.02,27.28 11.38,25.99 11.73,24.70 11.69,23.21 11.65,21.72 11.47,19.97 11.28,18.22 10.85,17.05 10.42,15.88 9.66,14.15 8.91,12.42 7.59,10.93 6.28,9.44 5.16,8.03 4.03,6.61 2.29,5.33 0.55,4.05 -0.28,2.77 -1.11,1.48 -1.27,1.33 -1.44,1.17 -1.56,0.98 -1.68,0.79 -1.75,0.58 -1.82,0.37 -1.84,0.15 -1.85,-0.07 -1.82,-0.29 -1.78,-0.51 -1.69,-0.72 -1.61,-0.92 -1.47,-1.10 -1.34,-1.28 -1.16,-1.42 -0.99,-1.57 -0.79,-1.66 -0.59,-1.76 -0.37,-1.80 -0.15,-1.85 0.07,-1.84 0.29,-1.83 0.51,-1.77 0.72,-1.71 0.92,-1.60 1.11,-1.48 1.11,-1.48 L 1.11,-1.48 Z"></path></g><g transform="translate(722 35) rotate(0 43.5 -2.5)" stroke="none"><path fill="#1e1e1e" d="M 0,-1.73 Q 0,-1.73 1.15,-2.23 2.3,-2.73 3.64,-2.74 4.99,-2.76 6.16,-3.04 7.32,-3.31 8.95,-3.46 10.59,-3.61 12.73,-3.68 14.87,-3.75 16.34,-3.77 17.81,-3.80 19.59,-3.82 21.37,-3.84 23.27,-3.85 25.18,-3.86 27.42,-3.87 29.66,-3.87 30.93,-4.14 32.20,-4.41 34.17,-4.55 36.14,-4.70 38.11,-4.76 40.09,-4.82 41.49,-4.84 42.90,-4.87 44.65,-4.88 46.41,-4.89 48.30,-4.90 50.20,-4.90 51.57,-4.91 52.95,-4.91 54.45,-5.18 55.95,-5.45 57.98,-5.59 60.02,-5.73 61.43,-5.79 62.85,-5.85 64.04,-5.87 65.22,-5.89 66.31,-5.90 67.39,-5.91 68.72,-5.92 70.04,-5.92 71.82,-5.93 73.59,-5.93 75.81,-6.33 78.03,-6.73 79.17,-6.79 80.30,-6.85 81.68,-6.88 83.06,-6.90 85.22,-6.55 87.37,-6.19 87.58,-6.21 87.79,-6.23 88.00,-6.17 88.20,-6.12 88.38,-6.01 88.56,-5.89 88.69,-5.72 88.83,-5.56 88.90,-5.36 88.97,-5.16 88.97,-4.95 88.98,-4.73 88.92,-4.53 88.85,-4.33 88.73,-4.16 88.60,-3.98 88.43,-3.86 88.26,-3.74 88.05,-3.68 87.85,-3.62 87.64,-3.62 87.42,-3.63 87.23,-3.70 87.03,-3.78 86.86,-3.91 86.70,-4.05 86.58,-4.23 86.47,-4.41 86.42,-4.61 86.37,-4.82 86.39,-5.03 86.41,-5.24 86.49,-5.44 86.58,-5.63 86.72,-5.79 86.86,-5.95 87.05,-6.05 87.23,-6.15 87.44,-6.19 87.65,-6.23 87.86,-6.20 88.07,-6.17 88.26,-6.08 88.45,-5.98 88.60,-5.83 88.75,-5.68 88.84,-5.49 88.94,-5.30 88.96,-5.09 88.99,-4.88 88.95,-4.67 88.91,-4.46 88.80,-4.27 88.70,-4.09 88.54,-3.95 88.38,-3.81 88.18,-3.72 87.99,-3.64 87.99,-3.64 87.99,-3.64 85.57,-2.35 83.16,-1.06 81.87,-1.02 80.59,-0.99 78.69,-0.84 76.79,-0.70 75.21,-0.38 73.63,-0.06 71.84,-0.06 70.06,-0.05 67.70,-0.04 65.34,-0.03 64.20,-0.01 63.07,0.00 61.73,0.05 60.39,0.09 58.65,0.20 56.91,0.30 54.94,0.61 52.97,0.92 51.59,0.92 50.21,0.92 48.32,0.92 46.44,0.92 44.71,0.92 42.99,0.93 41.62,0.95 40.24,0.97 38.39,1.02 36.53,1.06 34.90,1.16 33.27,1.26 31.48,1.57 29.69,1.88 27.44,1.87 25.19,1.87 23.29,1.87 21.40,1.86 19.64,1.86 17.89,1.86 16.45,1.88 15.02,1.90 13.03,1.94 11.05,1.97 9.73,2.07 8.42,2.16 6.71,2.46 5.01,2.76 3.65,2.74 2.3,2.73 1.15,2.23 0,1.73 -0.20,1.71 -0.41,1.68 -0.61,1.61 -0.80,1.53 -0.97,1.41 -1.15,1.29 -1.29,1.14 -1.42,0.98 -1.52,0.80 -1.62,0.61 -1.67,0.41 -1.72,0.20 -1.72,-0.00 -1.72,-0.20 -1.67,-0.41 -1.62,-0.61 -1.52,-0.80 -1.42,-0.98 -1.29,-1.14 -1.15,-1.29 -0.97,-1.41 -0.80,-1.53 -0.61,-1.61 -0.41,-1.68 -0.20,-1.71 0.00,-1.73 0.00,-1.73 L 0,-1.73 Z"></path></g><g transform="translate(811 38) rotate(0 -1 -9)" stroke="none"><path fill="#1e1e1e" d="M -1.61,0.53 Q -1.61,0.53 -2.29,-0.19 -2.97,-0.92 -3.23,-2.75 -3.49,-4.58 -3.49,-6.14 -3.50,-7.71 -3.47,-9.22 -3.45,-10.73 -3.40,-11.95 -3.36,-13.16 -2.98,-14.98 -2.60,-16.81 -2.74,-16.96 -2.89,-17.11 -2.98,-17.30 -3.08,-17.50 -3.10,-17.71 -3.13,-17.92 -3.08,-18.13 -3.04,-18.33 -2.93,-18.52 -2.83,-18.70 -2.66,-18.84 -2.50,-18.98 -2.31,-19.06 -2.11,-19.14 -1.90,-19.15 -1.69,-19.17 -1.48,-19.11 -1.28,-19.06 -1.10,-18.94 -0.92,-18.82 -0.79,-18.66 -0.66,-18.49 -0.59,-18.29 -0.52,-18.09 -0.52,-17.88 -0.52,-17.66 -0.58,-17.46 -0.65,-17.26 -0.77,-17.09 -0.90,-16.92 -1.07,-16.80 -1.25,-16.68 -1.45,-16.62 -1.66,-16.56 -1.87,-16.57 -2.08,-16.58 -2.28,-16.65 -2.48,-16.73 -2.64,-16.86 -2.81,-17.00 -2.92,-17.18 -3.03,-17.36 -3.08,-17.57 -3.12,-17.78 -3.10,-17.99 -3.08,-18.20 -3.00,-18.39 -2.91,-18.59 -2.77,-18.74 -2.62,-18.90 -2.43,-19.00 -2.25,-19.10 -2.04,-19.14 -1.83,-19.17 -1.62,-19.14 -1.41,-19.11 -1.22,-19.01 -1.03,-18.92 -1.03,-18.92 -1.03,-18.92 0.16,-16.04 1.36,-13.16 1.41,-11.95 1.45,-10.74 1.49,-9.25 1.53,-7.76 1.58,-6.33 1.64,-4.89 1.73,-3.70 1.82,-2.52 1.72,-1.53 1.61,-0.53 1.65,-0.33 1.69,-0.13 1.69,0.06 1.68,0.27 1.62,0.47 1.56,0.66 1.46,0.84 1.36,1.02 1.21,1.17 1.07,1.32 0.90,1.43 0.72,1.54 0.53,1.60 0.34,1.67 0.13,1.68 -0.06,1.70 -0.27,1.66 -0.47,1.63 -0.66,1.55 -0.85,1.47 -1.01,1.35 -1.18,1.22 -1.31,1.06 -1.44,0.91 -1.52,0.72 -1.61,0.53 -1.61,0.53 L -1.61,0.53 Z"></path></g><g transform="translate(814 25) rotate(0 8 6.5)" stroke="none"><path fill="#1e1e1e" d="M 1.22,-0.81 Q 1.22,-0.81 2.39,-0.35 3.56,0.11 4.76,1.07 5.96,2.04 7.22,2.47 8.49,2.90 9.69,2.96 10.89,3.01 12.04,3.45 13.19,3.89 14.28,3.98 15.37,4.07 16.05,4.34 16.74,4.62 17.09,4.67 17.44,4.72 17.77,4.85 18.10,4.98 18.39,5.19 18.68,5.40 18.91,5.67 19.14,5.94 19.29,6.26 19.45,6.57 19.53,6.92 19.61,7.27 19.60,7.62 19.59,7.98 19.50,8.32 19.41,8.66 19.24,8.98 19.07,9.29 18.83,9.55 18.59,9.81 18.29,10.00 17.99,10.20 17.66,10.32 17.32,10.44 16.97,10.47 16.62,10.51 15.56,11.10 14.51,11.70 13.06,12.21 11.61,12.73 10.15,13.22 8.68,13.72 7.64,14.21 6.59,14.70 4.79,14.32 2.98,13.94 2.78,14.01 2.59,14.09 2.37,14.10 2.16,14.11 1.96,14.05 1.75,14.00 1.58,13.88 1.40,13.76 1.28,13.59 1.15,13.42 1.08,13.22 1.01,13.01 1.01,12.80 1.02,12.59 1.08,12.39 1.15,12.19 1.28,12.02 1.41,11.85 1.59,11.73 1.76,11.61 1.97,11.56 2.17,11.50 2.39,11.51 2.60,11.53 2.80,11.61 2.99,11.69 3.15,11.82 3.32,11.96 3.42,12.14 3.53,12.33 3.58,12.53 3.62,12.74 3.60,12.95 3.57,13.16 3.48,13.36 3.39,13.55 3.25,13.70 3.10,13.86 2.91,13.96 2.72,14.05 2.51,14.09 2.30,14.12 2.09,14.09 1.89,14.05 1.70,13.95 1.51,13.85 1.37,13.69 1.22,13.54 1.13,13.35 1.04,13.15 1.02,12.94 1.00,12.73 1.05,12.52 1.09,12.32 1.20,12.13 1.31,11.95 1.48,11.82 1.64,11.68 1.64,11.68 1.64,11.68 3.44,10.28 5.24,8.88 6.66,8.28 8.07,7.67 9.50,7.19 10.93,6.72 11.96,6.38 12.99,6.05 14.86,5.33 16.74,4.62 17.09,4.67 17.44,4.72 17.77,4.85 18.10,4.98 18.39,5.19 18.68,5.40 18.91,5.67 19.14,5.94 19.29,6.26 19.45,6.57 19.53,6.92 19.61,7.27 19.60,7.62 19.59,7.98 19.50,8.32 19.41,8.66 19.24,8.98 19.07,9.29 18.83,9.55 18.59,9.81 18.29,10.00 17.99,10.20 17.66,10.32 17.32,10.44 16.97,10.47 16.62,10.51 15.26,10.15 13.90,9.79 12.34,9.48 10.78,9.17 9.51,8.90 8.23,8.64 6.70,8.12 5.16,7.60 3.50,6.88 1.83,6.16 0.28,4.75 -1.26,3.33 -1.24,2.07 -1.22,0.81 -1.30,0.65 -1.38,0.50 -1.42,0.32 -1.46,0.15 -1.46,-0.02 -1.46,-0.20 -1.41,-0.37 -1.37,-0.54 -1.28,-0.70 -1.20,-0.85 -1.08,-0.98 -0.96,-1.12 -0.81,-1.21 -0.66,-1.31 -0.49,-1.37 -0.32,-1.43 -0.15,-1.45 0.02,-1.47 0.20,-1.45 0.37,-1.42 0.54,-1.36 0.70,-1.29 0.85,-1.19 0.99,-1.08 1.11,-0.95 1.22,-0.81 1.22,-0.81 L 1.22,-0.81 Z"></path></g><g transform="translate(886 22) rotate(0 12.5 14.5)" stroke="none"><path fill="#1e1e1e" d="M -1.87,0.62 Q -1.87,0.62 -2.67,-0.06 -3.48,-0.76 -3.54,-2.08 -3.60,-3.41 -3.15,-4.49 -2.70,-5.58 -1.18,-6.77 0.33,-7.95 1.68,-8.33 3.03,-8.70 4.17,-8.80 5.32,-8.90 6.68,-8.93 8.04,-8.96 10.26,-8.61 12.48,-8.25 13.70,-8.11 14.91,-7.97 16.21,-7.57 17.51,-7.18 18.47,-6.61 19.43,-6.05 20.57,-5.16 21.71,-4.27 22.45,-3.03 23.20,-1.78 22.94,-0.62 22.69,0.54 21.13,2.39 19.58,4.25 18.55,5.29 17.52,6.34 16.50,7.25 15.48,8.16 16.39,9.14 17.30,10.12 18.22,11.16 19.14,12.21 20.08,12.90 21.01,13.58 21.83,14.29 22.65,15.00 23.49,16.06 24.33,17.13 24.97,18.16 25.60,19.20 26.17,20.21 26.74,21.21 27.28,22.22 27.82,23.22 28.30,25.01 28.78,26.80 28.50,28.23 28.22,29.66 27.66,30.68 27.09,31.69 26.01,32.65 24.93,33.61 23.90,34.24 22.88,34.88 21.86,35.43 20.84,35.99 19.50,36.35 18.15,36.71 16.13,37.29 14.10,37.87 12.30,37.65 10.50,37.44 8.46,37.33 6.43,37.22 5.02,36.86 3.61,36.49 1.67,35.39 -0.27,34.29 -0.42,34.24 -0.57,34.20 -0.71,34.12 -0.84,34.04 -0.96,33.92 -1.07,33.81 -1.15,33.68 -1.23,33.54 -1.28,33.39 -1.33,33.24 -1.34,33.08 -1.35,32.92 -1.32,32.77 -1.29,32.61 -1.23,32.47 -1.16,32.32 -1.07,32.20 -0.97,32.07 -0.85,31.97 -0.72,31.88 -0.58,31.81 -0.43,31.75 -0.28,31.72 -0.12,31.69 0.03,31.70 0.18,31.70 0.24,31.72 0.29,31.73 0.49,31.82 0.68,31.90 0.84,32.05 0.99,32.19 1.09,32.38 1.19,32.57 1.23,32.78 1.27,32.99 1.23,33.20 1.20,33.41 1.10,33.60 1.00,33.78 0.85,33.93 0.70,34.08 0.51,34.17 0.31,34.26 0.10,34.28 -0.10,34.31 -0.31,34.27 -0.51,34.22 -0.70,34.11 -0.88,34.01 -1.02,33.84 -1.16,33.68 -1.24,33.49 -1.32,33.29 -1.33,33.08 -1.34,32.87 -1.29,32.66 -1.23,32.46 -1.12,32.28 -1.00,32.10 -0.83,31.97 -0.66,31.84 -0.46,31.77 -0.26,31.70 -0.05,31.70 0.15,31.70 0.36,31.77 0.56,31.83 0.73,31.96 0.90,32.09 1.02,32.26 1.14,32.44 1.20,32.64 1.26,32.85 1.25,33.06 1.24,33.27 1.16,33.47 1.08,33.67 0.95,33.83 0.81,33.99 0.63,34.10 0.45,34.21 0.24,34.26 0.03,34.31 -0.11,34.30 -0.27,34.29 -0.42,34.24 -0.57,34.20 -0.71,34.12 -0.84,34.04 -0.96,33.92 -1.07,33.81 -1.15,33.68 -1.23,33.54 -1.28,33.39 -1.33,33.24 -1.34,33.08 -1.35,32.92 -1.32,32.77 -1.29,32.61 -1.23,32.47 -1.16,32.32 -1.07,32.20 -0.97,32.07 -0.85,31.98 -0.72,31.88 -0.58,31.81 -0.43,31.75 -0.28,31.72 -0.12,31.69 0.03,31.70 0.18,31.70 1.90,30.89 3.62,30.07 5.17,30.48 6.71,30.89 7.83,30.93 8.95,30.98 10.23,31.09 11.50,31.20 13.06,31.43 14.62,31.66 15.68,31.15 16.74,30.64 18.24,30.10 19.74,29.56 20.90,28.99 22.06,28.41 22.36,27.13 22.67,25.85 22.19,24.87 21.71,23.89 20.78,22.10 19.85,20.31 18.75,19.02 17.66,17.72 16.04,16.06 14.41,14.40 13.43,13.70 12.45,13.01 11.41,11.74 10.38,10.47 10.24,8.33 10.10,6.20 11.09,5.28 12.09,4.36 13.30,3.27 14.51,2.17 15.41,1.23 16.31,0.28 17.66,0.12 19.00,-0.03 17.76,-0.61 16.52,-1.18 15.52,-1.67 14.52,-2.17 12.64,-2.37 10.77,-2.57 9.49,-2.75 8.21,-2.92 7.03,-2.88 5.85,-2.84 4.09,-2.76 2.33,-2.68 2.10,-1.65 1.87,-0.62 1.92,-0.39 1.96,-0.15 1.95,0.07 1.95,0.31 1.88,0.54 1.81,0.77 1.69,0.98 1.57,1.18 1.41,1.35 1.24,1.53 1.04,1.65 0.84,1.78 0.62,1.86 0.39,1.93 0.15,1.95 -0.08,1.97 -0.31,1.93 -0.55,1.89 -0.76,1.80 -0.98,1.71 -1.17,1.56 -1.36,1.42 -1.51,1.23 -1.67,1.05 -1.77,0.83 -1.87,0.62 -1.87,0.62 L -1.87,0.62 Z"></path></g><g transform="translate(958 31) rotate(0 -10 7)" stroke="none"><path fill="#1e1e1e" d="M -1.76,0 Q -1.76,0 -2.14,-0.86 -2.52,-1.72 -3.45,-3.04 -4.39,-4.36 -5.66,-5.20 -6.93,-6.04 -8.13,-5.97 -9.34,-5.91 -10.53,-5.92 -11.72,-5.93 -12.69,-4.99 -13.67,-4.06 -14.81,-2.85 -15.95,-1.63 -16.76,0.19 -17.57,2.01 -17.66,3.66 -17.76,5.30 -17.54,7.69 -17.32,10.07 -16.95,11.49 -16.58,12.90 -15.87,14.05 -15.16,15.19 -13.99,16.87 -12.81,18.54 -11.38,19.11 -9.95,19.67 -8.64,19.81 -7.32,19.95 -5.77,19.47 -4.22,18.99 -2.02,18.46 0.18,17.92 0.39,17.87 0.59,17.81 0.80,17.83 1.02,17.84 1.21,17.93 1.41,18.01 1.57,18.15 1.73,18.29 1.83,18.47 1.94,18.66 1.98,18.87 2.02,19.07 1.99,19.29 1.97,19.50 1.87,19.69 1.78,19.88 1.63,20.03 1.48,20.18 1.29,20.28 1.10,20.37 0.89,20.40 0.68,20.43 0.47,20.40 0.27,20.36 0.08,20.25 -0.10,20.15 -0.24,19.99 -0.38,19.84 -0.47,19.64 -0.55,19.45 -0.57,19.24 -0.59,19.02 -0.54,18.82 -0.49,18.61 -0.38,18.43 -0.26,18.25 -0.10,18.12 0.05,17.98 0.25,17.91 0.45,17.83 0.66,17.83 0.88,17.82 1.08,17.88 1.28,17.94 1.46,18.06 1.63,18.18 1.76,18.36 1.88,18.53 1.95,18.73 2.01,18.93 2.01,19.15 2.00,19.36 1.93,19.56 1.86,19.76 1.73,19.92 1.59,20.09 1.42,20.21 1.24,20.32 1.24,20.32 1.24,20.32 -0.48,22.15 -2.20,23.98 -3.62,24.54 -5.03,25.10 -6.28,25.47 -7.53,25.83 -8.71,25.77 -9.89,25.71 -11.19,25.44 -12.48,25.17 -14.20,24.37 -15.92,23.58 -17.19,22.16 -18.46,20.75 -19.36,19.76 -20.25,18.76 -20.86,17.86 -21.47,16.96 -22.04,15.73 -22.60,14.50 -23.04,12.81 -23.48,11.12 -23.78,9.20 -24.08,7.28 -24.05,6.12 -24.03,4.96 -23.94,3.52 -23.85,2.08 -23.57,0.78 -23.30,-0.51 -22.60,-2.18 -21.90,-3.85 -21.19,-4.91 -20.48,-5.97 -19.45,-7.06 -18.41,-8.14 -16.38,-9.69 -14.35,-11.24 -13.14,-11.64 -11.92,-12.05 -10.47,-12.02 -9.02,-12.00 -7.63,-11.84 -6.23,-11.69 -4.66,-11.00 -3.09,-10.32 -1.66,-9.22 -0.23,-8.11 0.77,-6.74 1.78,-5.37 2.15,-3.54 2.52,-1.72 2.14,-0.86 1.76,0 1.73,0.21 1.71,0.42 1.63,0.62 1.55,0.81 1.43,0.99 1.31,1.16 1.15,1.30 1.00,1.44 0.81,1.54 0.62,1.64 0.41,1.69 0.21,1.74 -0.00,1.74 -0.21,1.74 -0.41,1.69 -0.62,1.64 -0.81,1.54 -1.00,1.44 -1.15,1.30 -1.31,1.16 -1.43,0.99 -1.55,0.81 -1.63,0.61 -1.71,0.42 -1.73,0.21 -1.76,-0.00 -1.76,-0.00 L -1.76,0 Z"></path></g><g transform="translate(987 49) rotate(0 -1.5 -13)" stroke="none"><path fill="#1e1e1e" d="M 0.54,1.62 Q 0.54,1.62 -0.20,2.25 -0.95,2.88 -2.44,3.20 -3.92,3.52 -5.09,3.60 -6.25,3.69 -7.51,3.35 -8.77,3.02 -9.69,2.48 -10.61,1.94 -11.96,1.04 -13.32,0.14 -14.33,-0.94 -15.34,-2.04 -16.20,-3.76 -17.06,-5.49 -17.46,-7.49 -17.86,-9.49 -17.90,-10.81 -17.94,-12.14 -17.64,-13.62 -17.33,-15.11 -16.79,-17.15 -16.25,-19.19 -15.52,-20.69 -14.79,-22.18 -14.11,-23.25 -13.43,-24.32 -12.22,-25.77 -11.02,-27.22 -9.95,-27.99 -8.88,-28.77 -7.86,-29.35 -6.85,-29.93 -4.72,-30.44 -2.60,-30.94 -1.50,-30.99 -0.41,-31.03 0.85,-30.66 2.13,-30.29 3.51,-29.49 4.89,-28.69 6.30,-27.79 7.70,-26.89 8.87,-25.70 10.03,-24.50 11.41,-22.74 12.79,-20.97 13.37,-18.80 13.95,-16.63 14.24,-15.59 14.53,-14.54 14.42,-12.63 14.32,-10.71 13.93,-9.06 13.55,-7.40 13.05,-6.03 12.55,-4.65 11.28,-2.89 10.02,-1.13 9.23,-0.19 8.44,0.73 7.29,1.63 6.13,2.53 5.15,2.98 4.18,3.44 2.45,4.06 0.73,4.69 -0.37,4.76 -1.48,4.84 -3.19,4.60 -4.90,4.36 -3.42,3.14 -1.94,1.91 -2.10,1.89 -2.25,1.88 -2.40,1.83 -2.55,1.77 -2.68,1.69 -2.82,1.60 -2.92,1.48 -3.03,1.37 -3.11,1.23 -3.19,1.09 -3.23,0.94 -3.27,0.79 -3.27,0.63 -3.28,0.47 -3.24,0.31 -3.21,0.16 -3.14,0.02 -3.07,-0.11 -2.97,-0.23 -2.86,-0.36 -2.74,-0.45 -2.61,-0.54 -2.46,-0.60 -2.31,-0.66 -2.16,-0.68 -2.00,-0.71 -1.97,-0.71 -1.93,-0.71 -1.72,-0.67 -1.51,-0.62 -1.33,-0.52 -1.14,-0.41 -1.00,-0.26 -0.86,-0.10 -0.78,0.09 -0.69,0.28 -0.68,0.49 -0.66,0.71 -0.71,0.91 -0.76,1.12 -0.88,1.30 -0.99,1.48 -1.16,1.61 -1.33,1.74 -1.53,1.81 -1.72,1.89 -1.94,1.89 -2.15,1.90 -2.35,1.84 -2.56,1.77 -2.73,1.65 -2.90,1.52 -3.02,1.35 -3.15,1.18 -3.21,0.97 -3.27,0.77 -3.26,0.56 -3.26,0.35 -3.19,0.15 -3.11,-0.04 -2.98,-0.21 -2.84,-0.37 -2.67,-0.49 -2.49,-0.60 -2.28,-0.65 -2.07,-0.70 -1.86,-0.68 -1.65,-0.67 -1.45,-0.58 -1.26,-0.50 -1.10,-0.36 -0.94,-0.21 -0.84,-0.03 -0.74,0.15 -0.70,0.36 -0.66,0.56 -0.69,0.77 -0.71,0.99 -0.81,1.18 -0.90,1.37 -1.06,1.52 -1.21,1.67 -1.40,1.76 -1.59,1.85 -1.76,1.88 -1.94,1.91 -2.10,1.89 -2.25,1.88 -2.40,1.83 -2.55,1.77 -2.68,1.69 -2.82,1.60 -2.92,1.48 -3.03,1.37 -3.11,1.23 -3.19,1.09 -3.23,0.94 -3.27,0.79 -3.27,0.63 -3.28,0.47 -3.24,0.31 -3.21,0.16 -3.14,0.02 -3.07,-0.11 -2.97,-0.23 -2.86,-0.36 -2.74,-0.45 -2.61,-0.54 -2.46,-0.60 -2.31,-0.66 -2.16,-0.68 -2.00,-0.71 -2.59,-0.83 -3.17,-0.96 -1.60,-1.17 -0.03,-1.38 1.22,-1.92 2.48,-2.47 3.77,-3.69 5.07,-4.91 5.90,-5.89 6.73,-6.87 7.11,-7.87 7.48,-8.87 7.98,-10.97 8.48,-13.07 8.09,-14.99 7.70,-16.91 7.22,-17.89 6.75,-18.87 5.52,-20.26 4.29,-21.66 2.99,-22.50 1.69,-23.34 0.66,-24.09 -0.37,-24.85 -1.71,-24.79 -3.06,-24.73 -4.26,-24.19 -5.46,-23.65 -6.43,-22.87 -7.40,-22.08 -8.36,-20.79 -9.32,-19.49 -10.25,-17.78 -11.17,-16.07 -11.56,-14.15 -11.95,-12.23 -11.85,-10.13 -11.74,-8.02 -11.01,-6.36 -10.28,-4.71 -8.91,-3.72 -7.54,-2.73 -6.43,-2.20 -5.33,-1.67 -3.91,-1.70 -2.49,-1.73 -1.51,-1.67 -0.54,-1.62 -0.33,-1.66 -0.13,-1.70 0.06,-1.70 0.27,-1.69 0.47,-1.63 0.67,-1.57 0.85,-1.47 1.03,-1.37 1.18,-1.22 1.32,-1.08 1.43,-0.90 1.54,-0.73 1.61,-0.53 1.68,-0.34 1.69,-0.13 1.71,0.06 1.68,0.27 1.64,0.47 1.56,0.66 1.48,0.85 1.36,1.02 1.23,1.18 1.07,1.31 0.91,1.45 0.72,1.53 0.54,1.62 0.54,1.62 L 0.54,1.62 Z"></path></g><g transform="translate(1011 53) rotate(0 -1 7.5)" stroke="none"><path fill="#1e1e1e" d="M -0.53,1.60 Q -0.53,1.60 -1.48,1.59 -2.44,1.58 -3.70,1.44 -4.95,1.29 -5.83,0.62 -6.71,-0.05 -6.78,-1.77 -6.85,-3.49 -5.53,-4.56 -4.21,-5.62 -2.57,-6.21 -0.94,-6.80 0.41,-6.49 1.76,-6.18 3.56,-5.69 5.35,-5.19 6.83,-4.05 8.31,-2.91 8.90,-1.95 9.48,-1.00 9.74,0.64 10.00,2.29 9.58,3.52 9.15,4.76 7.76,6.38 6.38,8.00 5.02,9.08 3.65,10.15 2.60,10.70 1.55,11.25 0.49,11.92 -0.57,12.59 -2.67,13.62 -4.77,14.65 -5.95,15.66 -7.14,16.68 -7.84,15.15 -8.55,13.62 -6.61,14.07 -4.68,14.52 -3.40,14.67 -2.11,14.83 -0.39,15.25 1.32,15.66 2.97,16.00 4.62,16.33 6.45,16.55 8.28,16.76 8.49,16.77 8.70,16.78 8.90,16.85 9.10,16.93 9.27,17.06 9.43,17.20 9.54,17.38 9.66,17.56 9.71,17.76 9.76,17.97 9.74,18.18 9.72,18.39 9.63,18.59 9.55,18.78 9.40,18.94 9.26,19.10 9.08,19.20 8.89,19.30 8.68,19.34 8.47,19.38 8.26,19.35 8.05,19.32 7.86,19.22 7.67,19.13 7.52,18.97 7.37,18.82 7.28,18.63 7.19,18.44 7.16,18.23 7.13,18.02 7.18,17.81 7.22,17.60 7.32,17.42 7.43,17.23 7.59,17.09 7.75,16.95 7.94,16.87 8.14,16.79 8.35,16.77 8.56,16.76 8.77,16.81 8.98,16.86 9.15,16.98 9.33,17.09 9.46,17.26 9.59,17.43 9.67,17.63 9.74,17.83 9.74,18.04 9.75,18.25 9.68,18.46 9.62,18.66 9.49,18.83 9.37,19.00 9.19,19.12 9.02,19.25 8.82,19.31 8.61,19.37 8.61,19.37 8.61,19.37 6.56,20.43 4.50,21.49 2.32,21.45 0.15,21.41 -1.18,21.20 -2.51,20.99 -4.48,20.77 -6.46,20.54 -8.06,20.16 -9.66,19.78 -11.23,18.52 -12.80,17.27 -12.04,14.58 -11.28,11.89 -9.94,10.79 -8.60,9.68 -7.12,9.12 -5.65,8.55 -4.77,7.88 -3.88,7.22 -2.02,6.18 -0.17,5.15 0.82,4.41 1.82,3.66 2.96,2.59 4.11,1.52 3.17,0.65 2.23,-0.21 0.86,-0.61 -0.50,-1.02 -1.66,-0.73 -2.83,-0.45 -3.10,-1.79 -3.36,-3.14 -2.18,-2.94 -1.00,-2.73 -0.23,-2.17 0.53,-1.60 0.72,-1.51 0.90,-1.43 1.06,-1.30 1.22,-1.17 1.34,-1.01 1.46,-0.84 1.54,-0.65 1.62,-0.47 1.65,-0.27 1.69,-0.06 1.67,0.13 1.65,0.33 1.59,0.53 1.53,0.72 1.42,0.89 1.31,1.07 1.16,1.21 1.01,1.35 0.84,1.45 0.66,1.55 0.46,1.61 0.27,1.67 0.06,1.67 -0.13,1.68 -0.33,1.64 -0.53,1.60 -0.53,1.60 L -0.53,1.60 Z"></path></g><g transform="translate(1039 50) rotate(0 -2 -12.5)" stroke="none"><path fill="#1e1e1e" d="M -0.44,1.76 Q -0.44,1.76 -1.69,1.90 -2.95,2.04 -5.02,0.97 -7.10,-0.09 -8.23,-1.21 -9.37,-2.34 -9.93,-3.69 -10.50,-5.03 -10.71,-7.13 -10.92,-9.22 -10.95,-10.31 -10.97,-11.40 -10.68,-13.28 -10.38,-15.17 -9.88,-16.46 -9.39,-17.74 -8.90,-18.79 -8.41,-19.83 -7.46,-21.10 -6.51,-22.37 -4.70,-23.92 -2.89,-25.47 0.34,-25.88 3.57,-26.28 3.78,-26.26 3.99,-26.24 4.19,-26.16 4.38,-26.08 4.54,-25.93 4.70,-25.79 4.80,-25.61 4.91,-25.42 4.95,-25.21 4.99,-25.00 4.96,-24.79 4.93,-24.58 4.83,-24.39 4.74,-24.20 4.59,-24.05 4.44,-23.90 4.25,-23.81 4.06,-23.71 3.85,-23.68 3.64,-23.66 3.43,-23.70 3.22,-23.74 3.04,-23.84 2.85,-23.95 2.71,-24.10 2.57,-24.26 2.48,-24.46 2.40,-24.65 2.38,-24.86 2.37,-25.08 2.42,-25.28 2.47,-25.49 2.58,-25.67 2.70,-25.85 2.86,-25.98 3.03,-26.11 3.23,-26.19 3.43,-26.26 3.64,-26.26 3.85,-26.27 4.06,-26.21 4.26,-26.15 4.43,-26.02 4.60,-25.90 4.73,-25.72 4.85,-25.55 4.91,-25.35 4.98,-25.15 4.97,-24.93 4.96,-24.72 4.89,-24.52 4.82,-24.32 4.68,-24.16 4.55,-23.99 4.37,-23.88 4.19,-23.76 3.99,-23.71 3.78,-23.66 3.78,-23.66 3.78,-23.66 2.78,-22.86 1.78,-22.06 0.54,-21.03 -0.69,-20.00 -1.81,-18.62 -2.94,-17.24 -3.69,-15.67 -4.44,-14.09 -4.70,-12.78 -4.97,-11.47 -4.95,-9.49 -4.94,-7.51 -4.54,-6.35 -4.14,-5.20 -2.89,-4.19 -1.64,-3.19 -0.60,-2.47 0.44,-1.76 0.64,-1.68 0.84,-1.60 1.02,-1.47 1.20,-1.35 1.35,-1.19 1.49,-1.02 1.59,-0.83 1.69,-0.63 1.75,-0.42 1.80,-0.21 1.80,0.00 1.80,0.22 1.74,0.43 1.69,0.64 1.59,0.84 1.49,1.03 1.34,1.19 1.19,1.36 1.01,1.48 0.83,1.60 0.63,1.68 0.42,1.76 0.21,1.78 -0.00,1.81 -0.22,1.78 -0.44,1.76 -0.44,1.76 L -0.44,1.76 Z"></path></g><g transform="translate(1052 34) rotate(0 0.5 14.5)" stroke="none"><path fill="#1e1e1e" d="M 0.95,1.43 Q 0.95,1.43 0.23,2.21 -0.49,2.99 -1.02,4.24 -1.56,5.49 -2.71,4.86 -3.86,4.24 -2.66,3.44 -1.46,2.64 -0.54,1.72 0.37,0.79 1.60,-0.52 2.82,-1.83 3.10,-2.37 3.37,-2.91 3.69,-3.04 4.01,-3.17 4.34,-3.22 4.68,-3.27 5.02,-3.24 5.36,-3.20 5.68,-3.09 6.01,-2.98 6.29,-2.79 6.58,-2.61 6.81,-2.36 7.04,-2.11 7.21,-1.81 7.38,-1.51 7.47,-1.18 7.56,-0.85 7.57,-0.51 7.58,-0.17 7.50,0.15 7.43,0.48 7.28,0.79 7.13,1.10 6.91,1.36 6.69,1.62 6.42,1.82 6.14,2.02 6.83,0.27 7.52,-1.48 7.73,-0.10 7.94,1.27 7.96,2.97 7.98,4.66 7.99,6.48 7.99,8.30 8.22,9.53 8.45,10.76 8.64,12.31 8.83,13.86 8.90,15.04 8.96,16.22 9.02,17.93 9.07,19.64 9.11,21.47 9.15,23.30 9.16,25.03 9.18,26.76 8.78,28.02 8.38,29.29 7.65,30.28 6.92,31.27 5.51,32.00 4.10,32.73 2.53,32.94 0.96,33.15 -0.44,32.79 -1.84,32.44 -2.81,31.86 -3.78,31.27 -5.00,28.41 -6.22,25.55 -6.23,25.34 -6.24,25.12 -6.18,24.92 -6.12,24.71 -6.00,24.54 -5.88,24.36 -5.71,24.24 -5.54,24.11 -5.34,24.04 -5.14,23.98 -4.93,23.98 -4.71,23.98 -4.51,24.05 -4.31,24.12 -4.14,24.25 -3.98,24.38 -3.86,24.56 -3.74,24.73 -3.68,24.94 -3.63,25.14 -3.64,25.35 -3.66,25.57 -3.74,25.76 -3.82,25.96 -3.95,26.12 -4.09,26.28 -4.28,26.39 -4.46,26.50 -4.67,26.54 -4.87,26.59 -5.09,26.56 -5.30,26.54 -5.49,26.45 -5.68,26.36 -5.83,26.21 -5.99,26.06 -6.09,25.87 -6.18,25.68 -6.22,25.47 -6.25,25.26 -6.21,25.06 -6.18,24.85 -6.08,24.66 -5.98,24.47 -5.82,24.33 -5.66,24.18 -5.47,24.09 -5.28,24.01 -5.07,23.99 -4.85,23.96 -4.65,24.01 -4.44,24.06 -4.26,24.17 -4.08,24.28 -3.94,24.44 -3.81,24.61 -3.73,24.80 -3.65,25.00 -3.65,25.00 -3.65,25.00 -2.47,25.15 -1.29,25.30 -0.32,26.01 0.64,26.71 1.73,26.63 2.81,26.56 2.82,24.93 2.84,23.30 2.87,21.50 2.89,19.70 2.88,18.10 2.87,16.50 2.78,14.53 2.69,12.56 2.34,10.43 1.99,8.30 2.00,6.49 2.00,4.68 2.14,2.89 2.27,1.11 2.82,-0.90 3.37,-2.91 3.69,-3.04 4.01,-3.17 4.34,-3.22 4.68,-3.27 5.02,-3.24 5.36,-3.20 5.68,-3.09 6.00,-2.98 6.29,-2.79 6.58,-2.61 6.81,-2.36 7.04,-2.11 7.21,-1.81 7.38,-1.51 7.47,-1.18 7.56,-0.86 7.57,-0.51 7.58,-0.17 7.50,0.15 7.43,0.48 7.28,0.79 7.13,1.10 6.91,1.36 6.69,1.62 6.42,1.82 6.14,2.02 5.68,2.81 5.22,3.59 4.16,4.61 3.11,5.62 1.98,6.62 0.85,7.61 -0.81,8.23 -2.47,8.86 -3.89,8.32 -5.30,7.77 -5.79,6.39 -6.28,5.02 -5.94,3.59 -5.61,2.16 -4.28,0.73 -2.95,-0.69 -1.95,-1.06 -0.95,-1.43 -0.76,-1.52 -0.58,-1.62 -0.38,-1.66 -0.17,-1.71 0.02,-1.70 0.23,-1.70 0.43,-1.65 0.63,-1.60 0.81,-1.50 1.00,-1.40 1.15,-1.26 1.30,-1.12 1.42,-0.94 1.53,-0.77 1.60,-0.58 1.67,-0.38 1.70,-0.17 1.72,0.02 1.69,0.23 1.66,0.43 1.58,0.63 1.51,0.82 1.39,0.99 1.27,1.16 1.11,1.29 0.95,1.43 0.95,1.43 L 0.95,1.43 Z"></path></g><g transform="translate(1066 26) rotate(0 1 14)" stroke="none"><path fill="#1e1e1e" d="M 1.13,-1.51 Q 1.13,-1.51 2.53,-0.93 3.94,-0.36 5.06,1.14 6.19,2.65 7.40,3.94 8.61,5.22 9.07,6.57 9.53,7.91 9.68,9.08 9.83,10.25 10.05,12.61 10.26,14.98 9.86,17.03 9.46,19.09 8.98,20.33 8.49,21.57 7.54,22.95 6.59,24.32 5.41,25.31 4.24,26.29 2.49,27.44 0.75,28.58 -2.25,28.87 -5.27,29.17 -5.48,29.18 -5.69,29.20 -5.90,29.15 -6.10,29.10 -6.28,28.99 -6.46,28.87 -6.59,28.71 -6.73,28.54 -6.80,28.34 -6.88,28.14 -6.88,27.93 -6.89,27.72 -6.83,27.52 -6.77,27.31 -6.64,27.14 -6.52,26.97 -6.35,26.84 -6.17,26.72 -5.97,26.65 -5.77,26.59 -5.56,26.60 -5.34,26.60 -5.14,26.67 -4.94,26.75 -4.78,26.88 -4.61,27.01 -4.50,27.19 -4.38,27.37 -4.33,27.58 -4.28,27.78 -4.29,27.99 -4.31,28.21 -4.39,28.40 -4.48,28.60 -4.62,28.75 -4.76,28.91 -4.95,29.02 -5.13,29.12 -5.34,29.16 -5.55,29.20 -5.76,29.18 -5.97,29.15 -6.16,29.05 -6.35,28.96 -6.50,28.81 -6.65,28.66 -6.75,28.47 -6.84,28.28 -6.87,28.07 -6.90,27.86 -6.86,27.65 -6.82,27.44 -6.72,27.26 -6.61,27.07 -6.45,26.93 -6.30,26.79 -6.10,26.70 -5.91,26.62 -5.91,26.62 -5.91,26.62 -4.06,25.22 -2.21,23.81 -0.90,22.68 0.40,21.55 1.57,20.40 2.74,19.25 3.37,17.46 4.01,15.67 4.30,14.51 4.60,13.35 4.23,12.12 3.86,10.89 3.55,9.13 3.23,7.37 1.94,5.59 0.65,3.81 -0.23,2.66 -1.13,1.51 -1.30,1.35 -1.46,1.20 -1.58,1.00 -1.71,0.81 -1.78,0.59 -1.85,0.38 -1.87,0.15 -1.89,-0.07 -1.85,-0.30 -1.82,-0.52 -1.73,-0.73 -1.64,-0.94 -1.50,-1.12 -1.36,-1.31 -1.19,-1.45 -1.01,-1.60 -0.80,-1.69 -0.60,-1.79 -0.37,-1.84 -0.15,-1.88 0.07,-1.88 0.30,-1.87 0.52,-1.80 0.74,-1.74 0.93,-1.63 1.13,-1.51 1.13,-1.51 L 1.13,-1.51 Z"></path></g><g transform="translate(1102 39) rotate(0 10.5 1)" stroke="none"><path fill="#1e1e1e" d="M 0.40,-1.61 Q 0.40,-1.61 1.69,-1.85 2.98,-2.08 4.04,-1.56 5.10,-1.05 6.20,-0.94 7.30,-0.83 9.38,-0.76 11.46,-0.68 13.48,-0.62 15.51,-0.55 17.94,0.06 20.37,0.68 20.58,0.72 20.79,0.75 20.97,0.85 21.16,0.95 21.31,1.10 21.45,1.26 21.54,1.45 21.63,1.64 21.65,1.86 21.68,2.07 21.63,2.27 21.59,2.48 21.48,2.66 21.37,2.85 21.20,2.98 21.04,3.12 20.84,3.20 20.65,3.28 20.43,3.29 20.22,3.30 20.02,3.24 19.81,3.19 19.64,3.07 19.46,2.95 19.33,2.78 19.20,2.61 19.14,2.41 19.07,2.21 19.07,1.99 19.07,1.78 19.14,1.58 19.21,1.38 19.33,1.21 19.46,1.04 19.64,0.92 19.81,0.80 20.02,0.75 20.22,0.69 20.44,0.70 20.65,0.71 20.85,0.79 21.04,0.87 21.21,1.01 21.37,1.15 21.48,1.33 21.59,1.51 21.63,1.72 21.68,1.92 21.65,2.14 21.63,2.35 21.54,2.54 21.45,2.73 21.31,2.89 21.16,3.04 20.97,3.14 20.78,3.24 20.57,3.27 20.36,3.31 20.36,3.31 20.36,3.31 17.93,3.93 15.49,4.54 13.44,4.59 11.39,4.64 10.31,4.65 9.22,4.66 7.18,4.55 5.14,4.44 3.37,3.83 1.61,3.23 0.60,2.42 -0.40,1.61 -0.59,1.54 -0.78,1.47 -0.94,1.35 -1.11,1.24 -1.24,1.09 -1.37,0.94 -1.46,0.76 -1.56,0.58 -1.60,0.39 -1.65,0.19 -1.65,-0.00 -1.65,-0.20 -1.60,-0.40 -1.55,-0.59 -1.46,-0.77 -1.36,-0.95 -1.23,-1.10 -1.10,-1.25 -0.93,-1.36 -0.77,-1.47 -0.58,-1.55 -0.39,-1.62 -0.19,-1.64 0.00,-1.66 0.20,-1.64 0.40,-1.61 0.40,-1.61 L 0.40,-1.61 Z"></path></g><g transform="translate(1115 50) rotate(0 -0.5 -8.5)" stroke="none"><path fill="#1e1e1e" d="M -1.62,0.54 Q -1.62,0.54 -2.41,-0.15 -3.20,-0.85 -3.41,-2.05 -3.62,-3.24 -3.72,-4.94 -3.83,-6.64 -3.83,-7.90 -3.83,-9.15 -3.80,-10.26 -3.77,-11.36 -3.04,-14.40 -2.31,-17.44 -2.27,-17.65 -2.24,-17.86 -2.14,-18.05 -2.04,-18.23 -1.89,-18.38 -1.73,-18.53 -1.54,-18.61 -1.35,-18.70 -1.14,-18.73 -0.92,-18.75 -0.72,-18.70 -0.51,-18.66 -0.33,-18.55 -0.14,-18.44 -0.01,-18.28 0.12,-18.12 0.20,-17.92 0.28,-17.72 0.29,-17.51 0.30,-17.30 0.24,-17.09 0.19,-16.89 0.07,-16.71 -0.04,-16.54 -0.21,-16.41 -0.38,-16.28 -0.58,-16.21 -0.78,-16.14 -0.99,-16.14 -1.21,-16.14 -1.41,-16.21 -1.61,-16.28 -1.78,-16.41 -1.95,-16.54 -2.07,-16.71 -2.19,-16.89 -2.24,-17.09 -2.30,-17.30 -2.29,-17.51 -2.28,-17.72 -2.20,-17.92 -2.12,-18.12 -1.98,-18.28 -1.85,-18.44 -1.66,-18.55 -1.48,-18.66 -1.27,-18.70 -1.07,-18.75 -0.85,-18.73 -0.64,-18.70 -0.45,-18.62 -0.26,-18.53 -0.10,-18.38 0.04,-18.23 0.14,-18.05 0.24,-17.86 0.27,-17.65 0.31,-17.44 0.31,-17.44 0.31,-17.44 1.05,-14.41 1.78,-11.38 1.82,-10.29 1.86,-9.20 1.88,-7.19 1.91,-5.19 1.98,-3.89 2.05,-2.59 1.83,-1.56 1.62,-0.54 1.66,-0.33 1.70,-0.13 1.69,0.06 1.68,0.27 1.63,0.47 1.57,0.67 1.47,0.85 1.36,1.02 1.22,1.17 1.08,1.32 0.90,1.43 0.73,1.54 0.53,1.61 0.34,1.67 0.13,1.69 -0.06,1.71 -0.27,1.67 -0.47,1.64 -0.66,1.56 -0.85,1.48 -1.02,1.35 -1.18,1.23 -1.31,1.07 -1.44,0.91 -1.53,0.72 -1.62,0.54 -1.62,0.54 L -1.62,0.54 Z"></path></g><g transform="translate(1192 52) rotate(0 0.5 -11)" stroke="none"><path fill="#1e1e1e" d="M 1.55,0 Q 1.55,0 1.91,1.15 2.26,2.3 2.56,3.11 2.86,3.93 2.81,4.27 2.77,4.62 2.65,4.94 2.53,5.26 2.33,5.55 2.14,5.83 1.88,6.06 1.62,6.29 1.31,6.45 1.01,6.61 0.67,6.69 0.34,6.77 -0.00,6.77 -0.34,6.77 -0.67,6.69 -1.01,6.61 -1.31,6.45 -1.62,6.29 -1.88,6.06 -2.14,5.83 -2.33,5.55 -2.53,5.26 -2.65,4.94 -2.77,4.62 -2.81,4.27 -2.86,3.93 -2.90,2.39 -2.95,0.85 -2.96,-0.25 -2.97,-1.36 -2.97,-3.30 -2.98,-5.24 -2.98,-6.61 -2.97,-7.98 -2.96,-9.42 -2.95,-10.87 -2.62,-12.62 -2.29,-14.37 -2.17,-15.70 -2.04,-17.03 -1.89,-18.83 -1.74,-20.63 -1.02,-23.52 -0.31,-26.40 -0.27,-26.61 -0.24,-26.82 -0.14,-27.01 -0.04,-27.20 0.10,-27.34 0.26,-27.49 0.45,-27.58 0.64,-27.67 0.86,-27.69 1.07,-27.71 1.27,-27.67 1.48,-27.62 1.66,-27.51 1.85,-27.40 1.98,-27.24 2.12,-27.08 2.20,-26.88 2.28,-26.68 2.29,-26.47 2.30,-26.26 2.24,-26.05 2.18,-25.85 2.07,-25.67 1.95,-25.50 1.78,-25.37 1.61,-25.24 1.41,-25.17 1.20,-25.10 0.99,-25.10 0.78,-25.11 0.58,-25.17 0.38,-25.24 0.21,-25.37 0.04,-25.50 -0.07,-25.68 -0.19,-25.85 -0.25,-26.06 -0.30,-26.26 -0.29,-26.47 -0.28,-26.69 -0.20,-26.88 -0.12,-27.08 0.01,-27.24 0.15,-27.40 0.33,-27.51 0.51,-27.62 0.72,-27.67 0.93,-27.71 1.14,-27.69 1.35,-27.67 1.54,-27.58 1.73,-27.49 1.89,-27.34 2.04,-27.19 2.14,-27.01 2.24,-26.82 2.27,-26.61 2.31,-26.40 2.31,-26.40 2.31,-26.40 2.99,-23.45 3.67,-20.50 3.68,-18.53 3.68,-16.56 3.56,-14.91 3.44,-13.26 3.20,-12.05 2.95,-10.85 2.96,-9.41 2.97,-7.98 2.98,-6.61 2.98,-5.24 2.97,-3.30 2.97,-1.36 2.96,-0.25 2.95,0.85 2.90,2.39 2.86,3.93 2.81,4.27 2.77,4.62 2.65,4.94 2.53,5.26 2.33,5.55 2.14,5.83 1.88,6.06 1.62,6.29 1.31,6.45 1.01,6.61 0.67,6.69 0.34,6.77 0.00,6.77 -0.34,6.77 -0.67,6.69 -1.01,6.61 -1.31,6.45 -1.62,6.29 -1.88,6.06 -2.14,5.83 -2.33,5.55 -2.53,5.26 -2.65,4.94 -2.77,4.62 -2.81,4.27 -2.86,3.93 -2.56,3.11 -2.26,2.3 -1.91,1.15 -1.55,0 -1.53,-0.18 -1.51,-0.37 -1.44,-0.54 -1.38,-0.72 -1.27,-0.87 -1.16,-1.03 -1.02,-1.15 -0.88,-1.28 -0.71,-1.37 -0.55,-1.45 -0.37,-1.50 -0.18,-1.54 0.00,-1.54 0.18,-1.54 0.37,-1.50 0.55,-1.45 0.71,-1.37 0.88,-1.28 1.02,-1.15 1.16,-1.03 1.27,-0.87 1.38,-0.72 1.44,-0.54 1.51,-0.37 1.53,-0.18 1.55,0.00 1.55,0.00 L 1.55,0 Z"></path></g><g transform="translate(1192 37) rotate(0 -10 -6.5)" stroke="none"><path fill="#1e1e1e" d="M 0.44,1.77 Q 0.44,1.77 -0.66,2.24 -1.76,2.70 -2.94,2.91 -4.12,3.12 -5.33,3.63 -6.54,4.14 -8.55,4.32 -10.55,4.49 -11.84,4.53 -13.12,4.57 -14.68,4.60 -16.25,4.63 -18.19,4.43 -20.13,4.24 -21.08,3.63 -22.02,3.03 -22.33,1.88 -22.64,0.74 -22.30,-0.44 -21.95,-1.64 -21.61,-3.16 -21.27,-4.68 -21.15,-5.84 -21.03,-7.01 -20.59,-8.14 -20.15,-9.28 -19.23,-11.89 -18.31,-14.50 -18.28,-14.71 -18.24,-14.92 -18.14,-15.10 -18.04,-15.29 -17.88,-15.44 -17.72,-15.58 -17.53,-15.67 -17.34,-15.75 -17.13,-15.77 -16.91,-15.79 -16.71,-15.75 -16.50,-15.70 -16.32,-15.59 -16.14,-15.47 -16.00,-15.31 -15.87,-15.15 -15.79,-14.95 -15.72,-14.75 -15.71,-14.54 -15.70,-14.32 -15.76,-14.12 -15.82,-13.92 -15.94,-13.74 -16.06,-13.57 -16.23,-13.44 -16.40,-13.32 -16.60,-13.25 -16.81,-13.18 -17.02,-13.19 -17.23,-13.19 -17.43,-13.26 -17.63,-13.33 -17.80,-13.46 -17.97,-13.59 -18.08,-13.77 -18.20,-13.95 -18.25,-14.15 -18.31,-14.36 -18.29,-14.57 -18.28,-14.78 -18.20,-14.98 -18.12,-15.17 -17.98,-15.33 -17.84,-15.49 -17.66,-15.60 -17.47,-15.71 -17.26,-15.75 -17.06,-15.80 -16.84,-15.77 -16.63,-15.74 -16.44,-15.65 -16.25,-15.56 -16.10,-15.41 -15.95,-15.26 -15.85,-15.08 -15.75,-14.89 -15.72,-14.68 -15.69,-14.47 -15.69,-14.47 -15.69,-14.47 -15.00,-11.88 -14.31,-9.29 -14.54,-8.03 -14.77,-6.78 -15.04,-5.59 -15.30,-4.40 -15.77,-2.92 -16.23,-1.44 -17.31,-0.84 -18.38,-0.24 -17.31,-0.43 -16.25,-0.63 -14.71,-0.60 -13.16,-0.58 -11.93,-0.57 -10.69,-0.57 -8.79,-0.62 -6.89,-0.68 -4.86,-1.12 -2.83,-1.55 -1.63,-1.66 -0.44,-1.77 -0.22,-1.80 -0.00,-1.82 0.21,-1.80 0.43,-1.77 0.63,-1.69 0.84,-1.62 1.02,-1.49 1.20,-1.37 1.35,-1.20 1.50,-1.04 1.60,-0.84 1.70,-0.65 1.76,-0.44 1.81,-0.22 1.81,-0.00 1.81,0.21 1.76,0.42 1.71,0.64 1.61,0.83 1.50,1.03 1.36,1.19 1.21,1.36 1.03,1.49 0.85,1.61 0.64,1.69 0.44,1.77 0.44,1.77 L 0.44,1.77 Z"></path></g><g transform="translate(1230 55) rotate(0 1 -14.5)" stroke="none"><path fill="#1e1e1e" d="M -1.70,0 Q -1.70,0 -2.18,-1.15 -2.67,-2.3 -2.69,-3.66 -2.71,-5.02 -2.40,-6.49 -2.09,-7.96 -2.01,-9.64 -1.93,-11.32 -1.87,-12.41 -1.82,-13.49 -1.47,-15.55 -1.13,-17.61 -0.99,-18.90 -0.86,-20.20 -0.75,-21.30 -0.64,-22.40 -0.55,-23.71 -0.45,-25.03 0.11,-26.66 0.68,-28.28 0.71,-28.49 0.75,-28.70 0.85,-28.89 0.95,-29.08 1.11,-29.22 1.26,-29.36 1.45,-29.45 1.65,-29.54 1.86,-29.56 2.07,-29.58 2.28,-29.53 2.49,-29.49 2.67,-29.38 2.85,-29.26 2.98,-29.10 3.12,-28.94 3.20,-28.74 3.27,-28.54 3.28,-28.33 3.29,-28.12 3.23,-27.91 3.18,-27.71 3.05,-27.53 2.93,-27.36 2.76,-27.23 2.59,-27.11 2.39,-27.04 2.19,-26.97 1.98,-26.98 1.76,-26.98 1.56,-27.05 1.36,-27.12 1.20,-27.25 1.03,-27.38 0.91,-27.55 0.79,-27.73 0.74,-27.94 0.68,-28.14 0.70,-28.35 0.71,-28.57 0.79,-28.76 0.87,-28.96 1.01,-29.12 1.15,-29.28 1.33,-29.39 1.51,-29.50 1.72,-29.54 1.93,-29.58 2.14,-29.56 2.35,-29.53 2.54,-29.44 2.74,-29.35 2.89,-29.20 3.04,-29.06 3.14,-28.87 3.24,-28.68 3.27,-28.47 3.30,-28.26 3.30,-28.26 3.30,-28.26 3.84,-26.60 4.38,-24.95 4.43,-23.55 4.48,-22.15 4.48,-20.92 4.47,-19.69 4.34,-18.22 4.21,-16.74 3.94,-14.99 3.67,-13.23 3.62,-12.10 3.57,-10.97 3.14,-7.98 2.71,-4.98 2.69,-3.64 2.67,-2.3 2.18,-1.15 1.70,0 1.67,0.20 1.65,0.40 1.58,0.59 1.50,0.79 1.39,0.96 1.27,1.13 1.12,1.26 0.96,1.40 0.78,1.49 0.60,1.59 0.40,1.64 0.20,1.69 -0.00,1.69 -0.20,1.69 -0.40,1.64 -0.60,1.59 -0.78,1.49 -0.96,1.40 -1.12,1.26 -1.27,1.13 -1.39,0.96 -1.50,0.79 -1.58,0.59 -1.65,0.40 -1.67,0.20 -1.70,-0.00 -1.70,-0.00 L -1.70,0 Z"></path></g><g transform="translate(1230 39) rotate(0 8.5 2)" stroke="none"><path fill="#1e1e1e" d="M 0.85,-1.70 Q 0.85,-1.70 2.13,-1.38 3.41,-1.07 4.33,-0.46 5.25,0.13 7.34,0.67 9.43,1.21 10.87,1.55 12.30,1.88 14.37,2.28 16.43,2.68 16.64,2.71 16.85,2.75 17.03,2.85 17.22,2.95 17.37,3.11 17.51,3.26 17.60,3.45 17.69,3.65 17.71,3.86 17.73,4.07 17.68,4.28 17.64,4.48 17.53,4.67 17.42,4.85 17.25,4.98 17.09,5.12 16.89,5.20 16.70,5.28 16.48,5.29 16.27,5.30 16.07,5.24 15.86,5.18 15.69,5.06 15.51,4.94 15.38,4.77 15.26,4.60 15.19,4.40 15.12,4.20 15.12,3.99 15.12,3.77 15.19,3.57 15.26,3.37 15.39,3.20 15.52,3.03 15.70,2.92 15.87,2.80 16.08,2.74 16.28,2.69 16.50,2.70 16.71,2.71 16.91,2.79 17.10,2.87 17.26,3.01 17.43,3.15 17.53,3.33 17.64,3.51 17.69,3.72 17.73,3.93 17.71,4.14 17.68,4.35 17.59,4.54 17.50,4.73 17.36,4.89 17.21,5.04 17.02,5.14 16.83,5.24 16.62,5.27 16.41,5.31 16.41,5.31 16.41,5.31 14.26,5.67 12.11,6.03 10.81,6.08 9.51,6.12 7.98,5.73 6.46,5.34 5.34,5.19 4.23,5.03 2.71,4.20 1.18,3.37 0.16,2.53 -0.85,1.70 -1.04,1.57 -1.23,1.45 -1.39,1.28 -1.54,1.11 -1.65,0.91 -1.76,0.71 -1.82,0.48 -1.88,0.26 -1.89,0.03 -1.89,-0.19 -1.84,-0.41 -1.79,-0.64 -1.69,-0.84 -1.58,-1.05 -1.44,-1.22 -1.29,-1.40 -1.10,-1.53 -0.91,-1.67 -0.70,-1.75 -0.49,-1.84 -0.26,-1.87 -0.03,-1.90 0.19,-1.88 0.41,-1.85 0.63,-1.78 0.85,-1.70 0.85,-1.70 L 0.85,-1.70 Z"></path></g><g transform="translate(1250 52) rotate(0 -0.5 -14.5)" stroke="none"><path fill="#1e1e1e" d="M -1.47,0.36 Q -1.47,0.36 -2.52,-0.59 -3.57,-1.55 -3.75,-3.13 -3.93,-4.72 -4.00,-5.93 -4.07,-7.15 -4.10,-8.26 -4.13,-9.36 -4.14,-10.98 -4.15,-12.61 -4.14,-14.46 -4.13,-16.31 -3.78,-17.77 -3.44,-19.22 -3.23,-21.34 -3.03,-23.45 -2.94,-24.75 -2.85,-26.05 -2.08,-28.35 -1.31,-30.64 -1.27,-30.85 -1.24,-31.06 -1.14,-31.25 -1.04,-31.44 -0.88,-31.58 -0.73,-31.73 -0.54,-31.82 -0.34,-31.91 -0.13,-31.93 0.07,-31.95 0.28,-31.91 0.48,-31.86 0.67,-31.75 0.85,-31.64 0.98,-31.48 1.12,-31.31 1.20,-31.12 1.28,-30.92 1.29,-30.71 1.30,-30.49 1.24,-30.29 1.18,-30.09 1.06,-29.91 0.94,-29.73 0.78,-29.61 0.61,-29.48 0.40,-29.41 0.20,-29.34 -0.00,-29.34 -0.21,-29.34 -0.41,-29.41 -0.61,-29.48 -0.78,-29.61 -0.95,-29.74 -1.07,-29.92 -1.19,-30.09 -1.25,-30.30 -1.30,-30.50 -1.29,-30.71 -1.28,-30.93 -1.20,-31.12 -1.12,-31.32 -0.98,-31.48 -0.84,-31.64 -0.66,-31.75 -0.48,-31.86 -0.27,-31.91 -0.06,-31.95 0.14,-31.93 0.35,-31.90 0.54,-31.81 0.73,-31.72 0.89,-31.58 1.04,-31.43 1.14,-31.24 1.24,-31.06 1.27,-30.85 1.31,-30.64 1.31,-30.64 1.31,-30.64 2.04,-28.30 2.78,-25.96 2.83,-24.57 2.88,-23.18 2.87,-21.98 2.87,-20.77 2.50,-18.52 2.14,-16.27 2.16,-14.46 2.18,-12.65 2.20,-10.04 2.23,-7.44 2.26,-6.36 2.29,-5.28 2.35,-4.16 2.42,-3.04 1.94,-1.70 1.47,-0.36 1.49,-0.18 1.51,-0.00 1.49,0.17 1.47,0.35 1.41,0.53 1.34,0.70 1.24,0.85 1.14,1.00 1.00,1.12 0.86,1.24 0.70,1.33 0.54,1.41 0.36,1.46 0.18,1.50 0.00,1.50 -0.17,1.50 -0.35,1.46 -0.53,1.42 -0.69,1.33 -0.85,1.25 -0.99,1.13 -1.13,1.01 -1.23,0.86 -1.34,0.71 -1.40,0.53 -1.47,0.36 -1.47,0.36 L -1.47,0.36 Z"></path></g><g transform="translate(1261 48) rotate(0 3 7.5)" stroke="none"><path fill="#1e1e1e" d="M -1.64,-0.54 Q -1.64,-0.54 -1.71,-1.61 -1.78,-2.69 -0.98,-3.59 -0.18,-4.49 1.08,-4.93 2.34,-5.38 4.36,-5.11 6.37,-4.83 7.78,-3.76 9.19,-2.69 9.74,-1.44 10.28,-0.20 10.11,1.05 9.94,2.31 9.41,3.57 8.88,4.82 7.84,6.03 6.80,7.23 5.80,8.26 4.80,9.28 3.58,10.60 2.35,11.91 1.28,12.94 0.21,13.97 1.61,14.36 3.02,14.76 5.36,15.72 7.69,16.68 7.90,16.72 8.11,16.75 8.30,16.85 8.48,16.95 8.63,17.11 8.77,17.27 8.86,17.46 8.95,17.65 8.97,17.86 8.99,18.08 8.94,18.28 8.90,18.49 8.78,18.67 8.67,18.85 8.51,18.99 8.35,19.12 8.15,19.20 7.95,19.28 7.74,19.29 7.53,19.30 7.32,19.24 7.12,19.18 6.94,19.06 6.77,18.94 6.64,18.77 6.51,18.60 6.45,18.39 6.38,18.19 6.38,17.98 6.39,17.77 6.46,17.57 6.53,17.37 6.66,17.20 6.79,17.03 6.96,16.91 7.14,16.80 7.34,16.74 7.55,16.69 7.76,16.70 7.97,16.71 8.17,16.79 8.37,16.87 8.53,17.01 8.69,17.15 8.80,17.33 8.90,17.52 8.95,17.73 8.99,17.93 8.97,18.14 8.94,18.36 8.85,18.55 8.76,18.74 8.61,18.89 8.46,19.05 8.28,19.14 8.09,19.24 7.88,19.27 7.67,19.31 7.67,19.31 7.67,19.31 5.78,20.06 3.89,20.80 2.29,20.46 0.69,20.11 -0.26,19.51 -1.22,18.91 -2.59,17.31 -3.97,15.71 -4.35,14.49 -4.74,13.27 -3.90,11.54 -3.07,9.81 -1.85,8.51 -0.64,7.21 0.49,5.72 1.64,4.24 2.53,3.31 3.42,2.39 4.36,1.86 5.30,1.34 4.11,0.29 2.93,-0.75 2.28,-0.10 1.64,0.54 1.55,0.73 1.46,0.92 1.33,1.08 1.19,1.24 1.03,1.37 0.86,1.49 0.67,1.57 0.48,1.66 0.27,1.69 0.07,1.72 -0.13,1.71 -0.34,1.69 -0.54,1.62 -0.74,1.56 -0.91,1.45 -1.09,1.34 -1.23,1.18 -1.38,1.03 -1.48,0.85 -1.59,0.67 -1.64,0.47 -1.70,0.27 -1.71,0.06 -1.72,-0.13 -1.68,-0.34 -1.64,-0.54 -1.64,-0.54 L -1.64,-0.54 Z"></path></g><g transform="translate(1293 51) rotate(0 3.5 -16)" stroke="none"><path fill="#1e1e1e" d="M 0.59,1.78 Q 0.59,1.78 -0.09,2.59 -0.78,3.40 -3.07,3.28 -5.35,3.16 -7.07,1.50 -8.79,-0.14 -9.86,-1.67 -10.94,-3.20 -11.34,-4.56 -11.74,-5.92 -11.91,-7.43 -12.09,-8.93 -11.78,-11.24 -11.46,-13.54 -10.70,-16.59 -9.94,-19.63 -8.95,-21.59 -7.95,-23.56 -7.44,-24.58 -6.92,-25.61 -6.22,-26.61 -5.53,-27.60 -4.44,-29.27 -3.35,-30.94 -2.19,-32.60 -1.03,-34.27 -0.04,-34.93 0.94,-35.59 2.48,-35.87 4.01,-36.15 6.46,-35.40 8.91,-34.65 10.17,-33.66 11.43,-32.68 12.85,-31.39 14.27,-30.10 15.03,-29.01 15.80,-27.93 16.37,-26.90 16.95,-25.87 17.61,-24.19 18.28,-22.50 18.54,-21.21 18.81,-19.91 18.89,-18.78 18.98,-17.65 19.02,-16.26 19.06,-14.86 18.70,-13.54 18.34,-12.21 17.88,-11.16 17.43,-10.12 16.95,-9.11 16.47,-8.10 15.97,-7.09 15.48,-6.09 14.85,-5.16 14.22,-4.24 13.11,-3.32 12.00,-2.40 10.94,-1.47 9.88,-0.53 8.82,0.12 7.76,0.78 6.02,1.26 4.29,1.73 2.83,1.04 1.37,0.35 1.22,0.49 1.06,0.64 0.87,0.73 0.68,0.83 0.47,0.85 0.26,0.88 0.05,0.84 -0.15,0.79 -0.33,0.69 -0.51,0.58 -0.65,0.42 -0.79,0.26 -0.88,0.06 -0.96,-0.12 -0.97,-0.34 -0.99,-0.55 -0.93,-0.75 -0.88,-0.96 -0.76,-1.14 -0.64,-1.31 -0.48,-1.44 -0.31,-1.58 -0.11,-1.65 0.08,-1.72 0.29,-1.72 0.51,-1.72 0.71,-1.66 0.91,-1.59 1.08,-1.47 1.25,-1.34 1.37,-1.17 1.50,-0.99 1.56,-0.79 1.62,-0.58 1.61,-0.37 1.60,-0.16 1.52,0.03 1.45,0.23 1.31,0.39 1.18,0.55 1.00,0.67 0.82,0.78 0.61,0.83 0.40,0.88 0.19,0.86 -0.01,0.84 -0.21,0.75 -0.40,0.66 -0.56,0.52 -0.71,0.38 -0.81,0.19 -0.92,0.00 -0.95,-0.20 -0.99,-0.41 -0.96,-0.62 -0.93,-0.83 -0.83,-1.02 -0.73,-1.20 -0.73,-1.20 -0.73,-1.20 1.30,-2.60 3.34,-4.00 4.54,-4.49 5.74,-4.98 7.03,-6.15 8.31,-7.32 9.12,-8.07 9.94,-8.82 10.85,-10.71 11.77,-12.61 12.33,-13.73 12.90,-14.86 12.85,-16.04 12.81,-17.22 12.70,-18.63 12.59,-20.04 12.15,-21.04 11.71,-22.04 11.15,-23.25 10.59,-24.46 9.72,-25.51 8.85,-26.56 7.38,-27.79 5.91,-29.02 4.79,-29.50 3.67,-29.97 3.19,-29.01 2.71,-28.05 1.85,-27.02 0.99,-25.98 -0.14,-24.21 -1.28,-22.45 -2.32,-20.98 -3.36,-19.52 -3.63,-18.45 -3.90,-17.39 -4.44,-16.10 -4.99,-14.81 -5.40,-12.80 -5.80,-10.80 -5.71,-9.06 -5.62,-7.32 -5.24,-6.21 -4.86,-5.10 -3.76,-3.68 -2.66,-2.25 -1.63,-2.02 -0.59,-1.78 -0.37,-1.83 -0.15,-1.87 0.07,-1.86 0.30,-1.86 0.52,-1.79 0.73,-1.73 0.93,-1.62 1.13,-1.50 1.29,-1.34 1.46,-1.19 1.58,-0.99 1.70,-0.80 1.77,-0.59 1.84,-0.37 1.86,-0.14 1.88,0.07 1.84,0.30 1.81,0.52 1.72,0.73 1.63,0.94 1.49,1.12 1.35,1.30 1.18,1.45 1.00,1.59 0.80,1.69 0.59,1.78 0.59,1.78 L 0.59,1.78 Z"></path></g><g transform="translate(1333 37) rotate(0 -2 7)" stroke="none"><path fill="#1e1e1e" d="M -1.52,-0.50 Q -1.52,-0.50 -1.53,-1.25 -1.55,-2.00 -0.31,-1.03 0.92,-0.05 0.37,1.43 -0.17,2.93 -0.97,4.44 -1.76,5.94 -1.91,7.13 -2.06,8.31 -2.16,9.96 -2.25,11.61 -1.81,13.70 -1.36,15.79 -1.23,15.96 -1.10,16.13 -1.03,16.33 -0.97,16.53 -0.97,16.74 -0.97,16.96 -1.04,17.16 -1.11,17.36 -1.24,17.53 -1.37,17.69 -1.55,17.81 -1.72,17.93 -1.93,17.99 -2.13,18.04 -2.35,18.03 -2.56,18.02 -2.75,17.94 -2.95,17.86 -3.11,17.72 -3.27,17.58 -3.38,17.39 -3.49,17.21 -3.53,17.00 -3.58,16.80 -3.55,16.59 -3.53,16.37 -3.44,16.18 -3.35,15.99 -3.20,15.84 -3.05,15.68 -2.86,15.59 -2.68,15.49 -2.47,15.45 -2.26,15.42 -2.05,15.46 -1.84,15.49 -1.65,15.59 -1.46,15.69 -1.32,15.85 -1.17,16.01 -1.09,16.20 -1.00,16.39 -0.98,16.60 -0.96,16.82 -1.00,17.02 -1.05,17.23 -1.16,17.41 -1.27,17.59 -1.43,17.73 -1.60,17.86 -1.80,17.94 -1.99,18.02 -2.21,18.03 -2.42,18.04 -2.62,17.98 -2.83,17.92 -3.00,17.80 -3.18,17.68 -3.18,17.68 -3.18,17.68 -5.05,15.98 -6.93,14.27 -7.33,11.93 -7.74,9.59 -7.61,7.79 -7.48,5.99 -7.15,4.68 -6.83,3.36 -6.33,2.41 -5.83,1.45 -5.14,0.43 -4.44,-0.58 -3.86,-1.61 -3.29,-2.64 -1.86,-3.75 -0.43,-4.85 1.13,-3.15 2.70,-1.44 2.11,-0.46 1.52,0.50 1.43,0.68 1.35,0.85 1.23,1.00 1.11,1.15 0.95,1.27 0.80,1.38 0.62,1.46 0.44,1.53 0.25,1.57 0.06,1.60 -0.12,1.58 -0.32,1.57 -0.50,1.51 -0.68,1.44 -0.85,1.34 -1.01,1.24 -1.14,1.10 -1.28,0.96 -1.37,0.79 -1.47,0.62 -1.52,0.44 -1.58,0.25 -1.59,0.06 -1.59,-0.12 -1.55,-0.31 -1.52,-0.50 -1.52,-0.50 L -1.52,-0.50 Z"></path></g><g transform="translate(1346 36) rotate(0 1 13)" stroke="none"><path fill="#1e1e1e" d="M 1.45,0.96 Q 1.45,0.96 1.21,2.04 0.98,3.13 0.49,5.31 -0.00,7.48 -0.12,8.84 -0.23,10.19 -0.26,11.91 -0.28,13.63 -0.28,14.89 -0.28,16.15 -0.28,17.46 -0.28,18.77 0.10,20.11 0.49,21.45 1.64,22.66 2.80,23.87 1.36,23.93 -0.06,23.99 1.96,23.54 3.99,23.08 4.18,23.00 4.38,22.91 4.59,22.90 4.80,22.88 5.01,22.93 5.21,22.98 5.39,23.09 5.57,23.21 5.70,23.37 5.84,23.54 5.91,23.74 5.99,23.93 5.99,24.15 6.00,24.36 5.94,24.56 5.88,24.77 5.75,24.94 5.63,25.11 5.46,25.24 5.28,25.36 5.08,25.42 4.88,25.49 4.67,25.48 4.45,25.48 4.25,25.40 4.05,25.33 3.89,25.20 3.72,25.07 3.61,24.89 3.49,24.71 3.44,24.50 3.39,24.30 3.41,24.09 3.42,23.87 3.51,23.68 3.59,23.48 3.73,23.32 3.87,23.17 4.06,23.06 4.24,22.96 4.45,22.91 4.66,22.87 4.87,22.90 5.08,22.93 5.27,23.02 5.46,23.12 5.61,23.27 5.76,23.42 5.86,23.61 5.95,23.80 5.98,24.01 6.01,24.22 5.97,24.43 5.93,24.64 5.83,24.82 5.72,25.01 5.57,25.15 5.41,25.29 5.41,25.29 5.41,25.29 4.19,26.44 2.98,27.58 0.51,27.29 -1.95,26.99 -2.91,25.75 -3.87,24.51 -4.45,22.99 -5.03,21.46 -5.37,19.33 -5.71,17.20 -5.70,16.08 -5.70,14.96 -5.67,13.29 -5.65,11.63 -5.54,9.90 -5.44,8.17 -4.94,6.29 -4.45,4.40 -3.86,2.36 -3.28,0.31 -2.36,-0.32 -1.45,-0.96 -1.31,-1.12 -1.17,-1.28 -1.00,-1.40 -0.83,-1.53 -0.63,-1.60 -0.44,-1.68 -0.23,-1.71 -0.02,-1.74 0.18,-1.72 0.38,-1.69 0.58,-1.62 0.78,-1.55 0.96,-1.44 1.13,-1.32 1.27,-1.16 1.41,-1.01 1.51,-0.82 1.62,-0.64 1.67,-0.44 1.72,-0.23 1.73,-0.02 1.73,0.18 1.68,0.38 1.64,0.59 1.54,0.77 1.45,0.96 1.45,0.96 L 1.45,0.96 Z"></path></g><g transform="translate(1352 35) rotate(0 6 16)" stroke="none"><path fill="#1e1e1e" d="M 0.40,-1.63 Q 0.40,-1.63 1.69,-1.85 2.98,-2.07 4.07,-1.58 5.16,-1.08 6.95,0.31 8.74,1.70 10.02,2.90 11.31,4.10 11.85,5.03 12.40,5.96 12.87,7.15 13.33,8.33 14.08,10.54 14.83,12.74 14.94,13.95 15.05,15.16 15.10,16.26 15.14,17.36 15.17,18.75 15.19,20.14 14.83,21.48 14.46,22.82 14.00,23.87 13.53,24.92 13.04,25.92 12.54,26.93 12.02,27.91 11.49,28.90 9.44,30.60 7.38,32.30 7.23,32.45 7.09,32.61 6.90,32.70 6.71,32.80 6.50,32.83 6.29,32.86 6.08,32.82 5.87,32.79 5.68,32.68 5.50,32.58 5.35,32.43 5.21,32.27 5.12,32.08 5.04,31.88 5.02,31.67 5.00,31.46 5.05,31.25 5.09,31.04 5.21,30.86 5.32,30.68 5.48,30.55 5.65,30.41 5.85,30.34 6.04,30.26 6.26,30.25 6.47,30.25 6.67,30.31 6.88,30.37 7.05,30.49 7.22,30.61 7.35,30.78 7.48,30.95 7.54,31.15 7.61,31.36 7.60,31.57 7.60,31.78 7.53,31.98 7.46,32.18 7.33,32.35 7.20,32.52 7.02,32.63 6.84,32.75 6.64,32.80 6.43,32.86 6.22,32.84 6.01,32.83 5.81,32.75 5.61,32.66 5.45,32.52 5.29,32.38 5.19,32.20 5.08,32.02 5.04,31.81 4.99,31.60 5.02,31.39 5.05,31.18 5.14,30.99 5.23,30.80 5.23,30.80 5.23,30.80 5.58,28.48 5.93,26.17 6.79,24.25 7.66,22.33 8.21,20.66 8.76,18.99 8.73,17.32 8.70,15.64 8.66,14.03 8.63,12.42 8.07,11.44 7.51,10.45 6.75,8.85 5.98,7.24 4.68,5.91 3.38,4.59 2.50,3.90 1.61,3.22 0.60,2.42 -0.40,1.63 -0.59,1.56 -0.78,1.48 -0.95,1.37 -1.12,1.25 -1.25,1.10 -1.38,0.95 -1.48,0.77 -1.57,0.59 -1.62,0.39 -1.67,0.19 -1.67,-0.00 -1.66,-0.20 -1.62,-0.40 -1.57,-0.60 -1.47,-0.78 -1.38,-0.96 -1.24,-1.11 -1.11,-1.26 -0.94,-1.37 -0.77,-1.49 -0.58,-1.56 -0.39,-1.63 -0.19,-1.65 0.00,-1.68 0.20,-1.65 0.40,-1.63 0.40,-1.63 L 0.40,-1.63 Z"></path></g></svg>