<svg version="1.1" xmlns="http://www.w3.org/2000/svg" viewBox="0 0 534 590" width="534" height="590" filter="invert(93%) hue-rotate(180deg)" class="excalidraw-svg">
  <!-- svg-source:excalidraw -->
  
  <defs>
    <style class="style-fonts">
      @font-face {
        font-family: "Virgil";
        src: url("https://excalidraw.com/Virgil.woff2");
      }
      @font-face {
        font-family: "Cascadia";
        src: url("https://excalidraw.com/Cascadia.woff2");
      }
      @font-face {
        font-family: "Assistant";
        src: url("https://excalidraw.com/Assistant-Regular.woff2");
      }
    </style>
    
  </defs>
  <g stroke-linecap="round" transform="translate(228 10) rotate(0 7 265.5)"><path d="M3.5 0 C5.68 -0.21, 7.93 -0.16, 10.5 0 M3.5 0 C5.29 0.09, 6.79 0.11, 10.5 0 M10.5 0 C13.73 -0.61, 14.26 0.93, 14 3.5 M10.5 0 C12.41 0.8, 14.2 0.55, 14 3.5 M14 3.5 C14.18 192.35, 13.68 381.22, 14 527.5 M14 3.5 C14.88 119.13, 14.77 234.72, 14 527.5 M14 527.5 C13.66 529.8, 12.06 531.9, 10.5 531 M14 527.5 C14.72 530.09, 13.43 529.93, 10.5 531 M10.5 531 C8.33 531.29, 5.42 531.06, 3.5 531 M10.5 531 C8.97 530.86, 7.36 530.91, 3.5 531 M3.5 531 C1.41 531.51, -0.01 529.58, 0 527.5 M3.5 531 C2.18 531.95, 1 530.97, 0 527.5 M0 527.5 C0.51 372.13, 0.74 216.38, 0 3.5 M0 527.5 C-0.36 360.71, -0.63 194, 0 3.5 M0 3.5 C-0.03 1.59, 1.87 -0.75, 3.5 0 M0 3.5 C0.75 0.87, 2.09 -0.61, 3.5 0" stroke="#1e1e1e" stroke-width="1" fill="none"></path></g><g stroke-linecap="round" transform="translate(231 240) rotate(0 68.5 6)"><path d="M3 0 C32.64 -0.09, 60.67 0.61, 134 0 M3 0 C41.15 -0.01, 79.52 -0.62, 134 0 M134 0 C136.26 -0.24, 136.63 1.69, 137 3 M134 0 C136.2 -0.61, 137.69 0.9, 137 3 M137 3 C136.85 5.61, 136.78 7.96, 137 9 M137 3 C137.07 5.02, 136.98 7.24, 137 9 M137 9 C136.23 11.9, 136.62 12.22, 134 12 M137 9 C137.6 9.93, 136.48 11.86, 134 12 M134 12 C88.9 12.65, 44.76 13.18, 3 12 M134 12 C106.55 11.45, 79.22 11.86, 3 12 M3 12 C0.99 11.75, 0.88 11.83, 0 9 M3 12 C2 13.13, -0.04 10.43, 0 9 M0 9 C0.17 7.18, 0.06 5.49, 0 3 M0 9 C-0.15 6.71, -0.02 4.42, 0 3 M0 3 C0.7 0.25, 1.66 -0.26, 3 0 M0 3 C0.92 0.39, 0.35 0.97, 3 0" stroke="#1e1e1e" stroke-width="1" fill="none"></path></g><g transform="translate(364 242) rotate(0 18 -22.5)" stroke="none"><path fill="#1e1e1e" d="M -1.34,-0.44 Q -1.34,-0.44 -1.53,-1.49 -1.71,-2.54 -0.55,-4.13 0.61,-5.72 1.34,-6.58 2.08,-7.43 3.28,-8.69 4.47,-9.95 5.83,-11.34 7.19,-12.73 8.55,-14.39 9.91,-16.05 10.83,-17.11 11.75,-18.16 13.85,-20.60 15.94,-23.05 17.66,-25.21 19.39,-27.37 21.05,-29.21 22.71,-31.06 23.99,-32.41 25.28,-33.77 26.69,-35.21 28.11,-36.65 28.89,-37.71 29.66,-38.76 30.36,-39.60 31.06,-40.43 31.68,-41.55 32.31,-42.67 34.00,-43.97 35.69,-45.28 35.80,-45.46 35.92,-45.64 36.08,-45.77 36.25,-45.91 36.44,-45.98 36.64,-46.06 36.86,-46.07 37.07,-46.07 37.27,-46.01 37.47,-45.95 37.65,-45.83 37.82,-45.71 37.95,-45.54 38.07,-45.36 38.14,-45.16 38.20,-44.96 38.20,-44.75 38.19,-44.53 38.12,-44.33 38.05,-44.13 37.92,-43.97 37.79,-43.80 37.61,-43.68 37.43,-43.57 37.22,-43.52 37.02,-43.46 36.81,-43.48 36.59,-43.49 36.40,-43.58 36.20,-43.66 36.04,-43.80 35.88,-43.94 35.78,-44.12 35.67,-44.31 35.63,-44.52 35.59,-44.72 35.62,-44.94 35.64,-45.15 35.74,-45.34 35.83,-45.53 35.98,-45.68 36.13,-45.83 36.32,-45.93 36.51,-46.02 36.72,-46.05 36.93,-46.08 37.13,-46.05 37.34,-46.01 37.53,-45.90 37.72,-45.80 37.86,-45.64 38.00,-45.49 38.09,-45.29 38.17,-45.10 38.19,-44.89 38.21,-44.67 38.16,-44.47 38.11,-44.26 38.11,-44.26 38.11,-44.26 37.39,-42.74 36.66,-41.23 36.28,-40.12 35.89,-39.02 34.81,-37.37 33.72,-35.73 32.74,-34.42 31.75,-33.11 30.37,-31.69 28.99,-30.27 27.76,-28.95 26.53,-27.63 24.96,-25.89 23.40,-24.15 21.61,-21.93 19.82,-19.70 17.70,-17.25 15.58,-14.80 14.70,-13.81 13.82,-12.81 12.30,-11.00 10.79,-9.19 9.43,-7.83 8.08,-6.47 6.27,-4.55 4.47,-2.63 3.67,-1.77 2.86,-0.90 2.10,-0.22 1.34,0.44 1.27,0.60 1.20,0.75 1.09,0.89 0.98,1.02 0.84,1.12 0.71,1.23 0.55,1.29 0.39,1.36 0.22,1.39 0.05,1.41 -0.11,1.40 -0.28,1.39 -0.44,1.33 -0.60,1.28 -0.75,1.19 -0.89,1.10 -1.01,0.97 -1.13,0.85 -1.22,0.70 -1.30,0.55 -1.35,0.39 -1.40,0.22 -1.40,0.05 -1.41,-0.11 -1.38,-0.28 -1.34,-0.44 -1.34,-0.44 L -1.34,-0.44 Z"></path></g><g transform="translate(364 242) rotate(0 7 8.5)" stroke="none"><path fill="#1e1e1e" d="M 1.33,-0.66 Q 1.33,-0.66 2.40,0.23 3.48,1.12 4.38,2.28 5.29,3.43 5.97,4.28 6.64,5.13 7.85,6.23 9.06,7.32 9.74,8.31 10.42,9.30 11.12,10.11 11.82,10.91 12.86,11.94 13.89,12.97 14.59,14.33 15.29,15.69 15.47,15.81 15.65,15.92 15.78,16.09 15.92,16.25 15.99,16.45 16.06,16.65 16.07,16.86 16.08,17.08 16.01,17.28 15.95,17.48 15.83,17.65 15.70,17.83 15.53,17.95 15.36,18.08 15.16,18.14 14.95,18.20 14.74,18.20 14.53,18.19 14.33,18.12 14.13,18.04 13.96,17.91 13.80,17.78 13.68,17.60 13.57,17.42 13.52,17.22 13.47,17.01 13.48,16.80 13.50,16.59 13.58,16.39 13.67,16.20 13.81,16.04 13.95,15.88 14.13,15.77 14.32,15.67 14.53,15.63 14.74,15.59 14.95,15.62 15.16,15.64 15.35,15.74 15.54,15.83 15.69,15.98 15.84,16.13 15.93,16.32 16.03,16.51 16.06,16.72 16.09,16.93 16.05,17.14 16.01,17.35 15.90,17.54 15.80,17.72 15.64,17.86 15.48,18.01 15.29,18.09 15.09,18.17 14.88,18.19 14.67,18.21 14.46,18.16 14.26,18.11 14.26,18.11 14.26,18.11 12.60,17.45 10.94,16.80 10.10,15.97 9.25,15.13 8.45,14.37 7.64,13.60 6.50,12.39 5.36,11.18 4.37,10.25 3.37,9.32 2.35,8.32 1.33,7.31 0.69,6.32 0.05,5.33 -0.56,4.40 -1.18,3.47 -1.25,2.06 -1.33,0.66 -1.39,0.49 -1.45,0.32 -1.47,0.14 -1.49,-0.02 -1.46,-0.20 -1.43,-0.38 -1.37,-0.55 -1.30,-0.71 -1.20,-0.86 -1.09,-1.01 -0.95,-1.12 -0.82,-1.24 -0.66,-1.32 -0.50,-1.40 -0.32,-1.44 -0.15,-1.48 0.02,-1.47 0.20,-1.47 0.38,-1.42 0.55,-1.38 0.71,-1.29 0.87,-1.20 1.00,-1.08 1.13,-0.96 1.23,-0.81 1.33,-0.66 1.33,-0.66 L 1.33,-0.66 Z"></path></g><g transform="translate(382 259) rotate(0 23.5 -19)" stroke="none"><path fill="#1e1e1e" d="M -1.12,-1.12 Q -1.12,-1.12 -0.54,-2.26 0.02,-3.41 1.86,-5.42 3.70,-7.43 5.36,-8.76 7.03,-10.09 8.51,-11.45 9.99,-12.80 11.59,-14.05 13.18,-15.29 14.07,-16.05 14.97,-16.80 16.68,-17.84 18.40,-18.88 19.88,-19.82 21.36,-20.76 22.46,-21.66 23.56,-22.56 25.00,-23.60 26.44,-24.63 29.07,-26.75 31.70,-28.86 32.73,-29.74 33.76,-30.62 34.74,-31.53 35.72,-32.45 37.03,-33.70 38.33,-34.95 39.42,-36.00 40.51,-37.05 43.36,-38.08 46.21,-39.10 46.42,-39.14 46.63,-39.19 46.84,-39.16 47.05,-39.14 47.24,-39.04 47.43,-38.95 47.59,-38.80 47.74,-38.65 47.83,-38.47 47.93,-38.28 47.96,-38.07 47.99,-37.86 47.96,-37.65 47.92,-37.44 47.82,-37.25 47.71,-37.06 47.56,-36.92 47.40,-36.78 47.21,-36.69 47.01,-36.60 46.80,-36.58 46.59,-36.56 46.38,-36.61 46.18,-36.66 46.00,-36.77 45.82,-36.89 45.68,-37.05 45.55,-37.21 45.47,-37.41 45.39,-37.61 45.39,-37.82 45.38,-38.04 45.44,-38.24 45.50,-38.44 45.62,-38.62 45.74,-38.79 45.91,-38.92 46.08,-39.04 46.29,-39.11 46.49,-39.17 46.70,-39.17 46.91,-39.17 47.11,-39.10 47.31,-39.03 47.48,-38.89 47.65,-38.76 47.76,-38.59 47.88,-38.41 47.93,-38.20 47.99,-38.00 47.97,-37.79 47.96,-37.57 47.88,-37.38 47.80,-37.18 47.66,-37.02 47.52,-36.86 47.33,-36.75 47.15,-36.65 47.15,-36.65 47.15,-36.65 45.55,-35.03 43.95,-33.42 42.92,-32.37 41.90,-31.31 40.57,-30.01 39.24,-28.70 38.17,-27.70 37.11,-26.70 36.02,-25.77 34.94,-24.84 33.14,-23.38 31.33,-21.93 30.40,-21.18 29.47,-20.42 28.14,-19.47 26.82,-18.52 25.48,-17.45 24.13,-16.39 22.57,-15.41 21.01,-14.43 19.64,-13.65 18.26,-12.87 17.28,-12.05 16.30,-11.23 14.85,-10.13 13.39,-9.03 11.76,-7.58 10.13,-6.12 8.52,-4.90 6.92,-3.67 5.97,-2.93 5.02,-2.20 4.22,-1.12 3.42,-0.03 2.27,0.54 1.12,1.12 0.97,1.24 0.82,1.35 0.64,1.43 0.47,1.51 0.28,1.55 0.09,1.58 -0.09,1.57 -0.28,1.56 -0.46,1.50 -0.65,1.44 -0.81,1.34 -0.98,1.25 -1.11,1.11 -1.25,0.97 -1.34,0.81 -1.44,0.65 -1.50,0.46 -1.56,0.28 -1.57,0.09 -1.58,-0.09 -1.55,-0.28 -1.51,-0.47 -1.43,-0.64 -1.35,-0.82 -1.24,-0.97 -1.12,-1.12 -1.12,-1.12 L -1.12,-1.12 Z"></path></g><g transform="translate(423 222) rotate(0 -11.5 -11.5)" stroke="none"><path fill="#1e1e1e" d="M -1.02,1.02 Q -1.02,1.02 -1.84,0.70 -2.66,0.38 -3.97,-0.73 -5.28,-1.84 -7.11,-3.10 -8.95,-4.35 -9.90,-5.06 -10.86,-5.76 -11.68,-6.45 -12.49,-7.14 -13.44,-8.03 -14.38,-8.92 -15.60,-10.47 -16.81,-12.01 -17.92,-13.19 -19.03,-14.37 -20.00,-15.75 -20.96,-17.14 -22.19,-19.43 -23.41,-21.72 -23.58,-21.85 -23.74,-21.99 -23.85,-22.17 -23.97,-22.35 -24.02,-22.56 -24.06,-22.76 -24.04,-22.97 -24.02,-23.19 -23.94,-23.38 -23.85,-23.57 -23.71,-23.73 -23.57,-23.89 -23.38,-23.99 -23.19,-24.09 -22.98,-24.13 -22.77,-24.17 -22.56,-24.14 -22.35,-24.11 -22.16,-24.01 -21.98,-23.91 -21.83,-23.76 -21.68,-23.61 -21.59,-23.42 -21.49,-23.23 -21.47,-23.02 -21.44,-22.80 -21.48,-22.60 -21.53,-22.39 -21.63,-22.20 -21.74,-22.02 -21.90,-21.88 -22.06,-21.74 -22.26,-21.66 -22.45,-21.58 -22.66,-21.56 -22.88,-21.55 -23.08,-21.60 -23.29,-21.65 -23.46,-21.77 -23.64,-21.89 -23.77,-22.05 -23.90,-22.22 -23.98,-22.42 -24.05,-22.62 -24.05,-22.83 -24.05,-23.05 -23.99,-23.25 -23.92,-23.45 -23.80,-23.62 -23.67,-23.79 -23.50,-23.92 -23.32,-24.04 -23.12,-24.10 -22.92,-24.16 -22.70,-24.15 -22.49,-24.14 -22.29,-24.07 -22.09,-23.99 -22.09,-23.99 -22.09,-23.99 -19.56,-22.22 -17.02,-20.45 -16.16,-19.34 -15.31,-18.23 -14.67,-17.33 -14.04,-16.43 -13.19,-15.37 -12.34,-14.31 -11.64,-13.42 -10.95,-12.53 -9.38,-11.07 -7.81,-9.61 -6.52,-8.53 -5.23,-7.46 -4.27,-6.61 -3.30,-5.76 -2.40,-4.91 -1.50,-4.07 -0.56,-3.37 0.36,-2.68 0.69,-1.85 1.02,-1.02 1.13,-0.88 1.23,-0.74 1.30,-0.58 1.38,-0.43 1.41,-0.25 1.44,-0.08 1.43,0.08 1.42,0.26 1.37,0.42 1.31,0.59 1.22,0.74 1.13,0.89 1.01,1.01 0.89,1.13 0.74,1.22 0.59,1.31 0.42,1.37 0.26,1.42 0.08,1.43 -0.08,1.44 -0.25,1.41 -0.43,1.38 -0.58,1.30 -0.74,1.23 -0.88,1.13 -1.02,1.02 -1.02,1.02 L -1.02,1.02 Z"></path></g><g transform="translate(402 201) rotate(0 34 -16.5)" stroke="none"><path fill="#1e1e1e" d="M -1.34,0.89 Q -1.34,0.89 -2.14,0.18 -2.94,-0.52 -3.84,-1.93 -4.75,-3.33 -5.42,-4.98 -6.09,-6.62 -6.26,-8.18 -6.43,-9.75 -6.68,-10.97 -6.92,-12.19 -6.85,-13.92 -6.79,-15.66 -6.71,-17.20 -6.64,-18.74 -6.21,-20.52 -5.77,-22.30 -5.40,-24.12 -5.03,-25.93 -4.49,-27.00 -3.96,-28.06 -3.16,-29.34 -2.36,-30.62 -1.25,-32.44 -0.15,-34.26 1.18,-36.14 2.52,-38.03 3.25,-38.83 3.99,-39.63 5.31,-41.09 6.62,-42.54 7.74,-43.66 8.85,-44.77 10.51,-46.03 12.18,-47.28 13.74,-48.42 15.30,-49.56 16.39,-50.40 17.48,-51.25 19.10,-52.00 20.71,-52.76 22.45,-53.48 24.19,-54.21 25.88,-54.73 27.57,-55.25 29.41,-55.76 31.25,-56.26 32.63,-56.33 34.02,-56.40 35.81,-56.43 37.60,-56.46 38.89,-56.45 40.18,-56.45 41.39,-56.10 42.60,-55.75 43.61,-55.30 44.62,-54.85 46.15,-54.32 47.67,-53.79 49.39,-52.66 51.11,-51.52 52.27,-50.84 53.43,-50.15 54.33,-49.49 55.24,-48.82 56.97,-47.85 58.70,-46.87 60.50,-45.41 62.29,-43.94 63.92,-42.48 65.54,-41.02 66.43,-40.07 67.33,-39.11 68.68,-37.82 70.03,-36.54 70.69,-35.36 71.34,-34.18 72.18,-32.46 73.02,-30.73 73.76,-29.07 74.51,-27.41 74.88,-25.46 75.26,-23.50 75.31,-21.45 75.37,-19.40 75.01,-18.27 74.65,-17.14 74.56,-16.07 74.47,-15.00 74.06,-13.95 73.65,-12.91 73.15,-11.36 72.65,-9.81 72.28,-8.81 71.92,-7.81 71.28,-6.23 70.64,-4.65 69.72,-3.30 68.81,-1.95 67.77,-0.26 66.73,1.42 65.82,2.87 64.91,4.32 64.24,5.49 63.57,6.66 62.55,7.46 61.53,8.26 60.03,9.32 58.53,10.39 57.52,11.26 56.51,12.14 55.01,13.27 53.52,14.40 52.54,14.94 51.57,15.48 50.17,16.27 48.77,17.05 47.37,17.98 45.97,18.91 44.23,19.75 42.50,20.59 41.52,21.06 40.55,21.54 38.92,21.92 37.30,22.31 35.66,22.81 34.02,23.32 32.19,23.23 30.37,23.15 29.11,23.09 27.85,23.03 25.60,22.67 23.35,22.31 23.14,22.27 22.93,22.24 22.74,22.14 22.55,22.04 22.40,21.89 22.26,21.73 22.17,21.54 22.08,21.35 22.06,21.14 22.03,20.92 22.08,20.72 22.13,20.51 22.23,20.33 22.34,20.14 22.51,20.01 22.67,19.87 22.87,19.79 23.06,19.71 23.27,19.70 23.49,19.69 23.69,19.75 23.90,19.80 24.07,19.92 24.25,20.04 24.38,20.21 24.51,20.38 24.57,20.58 24.64,20.78 24.64,20.99 24.64,21.21 24.57,21.41 24.51,21.61 24.38,21.78 24.25,21.95 24.07,22.07 23.90,22.19 23.69,22.24 23.49,22.30 23.28,22.29 23.06,22.28 22.87,22.20 22.67,22.12 22.51,21.98 22.34,21.85 22.23,21.66 22.13,21.48 22.08,21.27 22.03,21.07 22.06,20.85 22.08,20.64 22.17,20.45 22.26,20.26 22.40,20.10 22.55,19.95 22.74,19.85 22.93,19.75 23.14,19.72 23.35,19.68 23.35,19.68 23.34,19.68 26.16,19.27 28.98,18.86 30.53,18.75 32.09,18.63 33.31,18.51 34.53,18.38 36.42,17.70 38.32,17.02 40.23,16.06 42.14,15.10 43.38,14.56 44.62,14.02 45.77,13.17 46.92,12.31 48.02,11.67 49.12,11.03 50.58,10.22 52.04,9.42 53.21,8.34 54.39,7.27 55.84,6.30 57.28,5.33 58.72,4.18 60.16,3.04 61.09,1.65 62.02,0.26 62.79,-1.12 63.56,-2.51 64.07,-3.47 64.59,-4.43 65.51,-5.79 66.44,-7.16 66.90,-8.35 67.36,-9.54 68.08,-11.10 68.80,-12.66 69.03,-13.81 69.26,-14.97 69.53,-16.15 69.81,-17.34 70.19,-18.41 70.58,-19.48 70.54,-21.27 70.49,-23.06 70.33,-24.24 70.17,-25.42 69.71,-26.44 69.24,-27.45 68.37,-29.44 67.49,-31.42 66.59,-33.03 65.69,-34.65 64.79,-35.24 63.89,-35.84 62.91,-36.89 61.92,-37.94 60.52,-39.16 59.12,-40.38 57.78,-41.51 56.43,-42.64 55.42,-43.18 54.42,-43.71 52.69,-44.84 50.96,-45.97 49.68,-46.72 48.39,-47.47 47.08,-48.37 45.76,-49.27 44.20,-49.81 42.64,-50.35 41.37,-50.94 40.10,-51.53 38.88,-51.52 37.66,-51.50 35.97,-51.45 34.27,-51.41 32.54,-51.28 30.80,-51.16 29.61,-50.73 28.41,-50.30 26.86,-49.76 25.31,-49.22 24.11,-48.67 22.90,-48.11 21.16,-47.12 19.41,-46.12 17.93,-45.35 16.44,-44.58 15.01,-43.28 13.58,-41.99 12.46,-41.16 11.33,-40.33 10.31,-39.25 9.30,-38.17 7.92,-36.36 6.54,-34.56 5.75,-33.72 4.95,-32.88 3.96,-31.34 2.96,-29.80 2.54,-28.80 2.12,-27.81 1.07,-26.15 0.03,-24.48 -0.27,-23.43 -0.58,-22.39 -1.01,-21.11 -1.43,-19.84 -1.48,-18.23 -1.52,-16.62 -1.86,-15.21 -2.20,-13.81 -1.84,-11.86 -1.48,-9.91 -1.51,-8.69 -1.54,-7.47 -1.06,-6.23 -0.57,-4.98 0.03,-3.95 0.64,-2.92 0.99,-1.90 1.34,-0.89 1.42,-0.72 1.51,-0.54 1.55,-0.35 1.60,-0.16 1.59,0.02 1.59,0.21 1.54,0.40 1.49,0.59 1.40,0.76 1.31,0.93 1.17,1.07 1.04,1.22 0.88,1.33 0.72,1.43 0.54,1.50 0.36,1.56 0.16,1.59 -0.02,1.61 -0.21,1.58 -0.41,1.55 -0.59,1.48 -0.77,1.41 -0.92,1.30 -1.08,1.18 -1.21,1.04 -1.34,0.89 -1.34,0.89 L -1.34,0.89 Z"></path></g><g transform="translate(405 196) rotate(0 24 -4.5)" stroke="none"><path fill="#e8590c" d="M 1.02,-1.02 Q 1.02,-1.02 0.84,-1.05 0.67,-1.07 1.88,-1.72 3.09,-2.36 4.43,-3.21 5.77,-4.06 6.80,-4.93 7.83,-5.79 8.78,-6.40 9.72,-7.01 10.69,-7.54 11.65,-8.07 12.71,-8.95 13.78,-9.83 14.56,-10.58 15.33,-11.34 16.94,-12.62 18.55,-13.90 19.61,-14.91 20.66,-15.92 21.57,-17.41 22.48,-18.91 23.48,-20.40 24.48,-21.89 25.22,-22.69 25.96,-23.48 27.09,-24.90 28.23,-26.31 28.23,-25.15 28.23,-24.00 27.64,-23.03 27.04,-22.06 26.04,-21.51 25.03,-20.96 23.70,-19.65 22.37,-18.34 21.53,-17.51 20.70,-16.67 20.20,-15.71 19.71,-14.75 19.88,-13.23 20.05,-11.71 21.10,-11.38 22.15,-11.05 23.33,-11.37 24.51,-11.69 25.74,-12.33 26.98,-12.98 28.16,-13.72 29.33,-14.47 30.32,-15.46 31.31,-16.45 31.84,-17.24 32.37,-18.03 32.44,-18.29 32.51,-18.54 32.63,-18.77 32.76,-19.00 32.94,-19.20 33.12,-19.39 33.34,-19.53 33.56,-19.68 33.81,-19.77 34.06,-19.85 34.32,-19.88 34.58,-19.90 34.84,-19.87 35.10,-19.83 35.35,-19.73 35.59,-19.63 35.80,-19.48 36.02,-19.32 36.19,-19.12 36.36,-18.92 36.47,-18.68 36.59,-18.45 36.65,-18.19 36.70,-17.93 36.70,-17.67 36.69,-17.41 34.38,-17.80 32.06,-18.19 32.13,-18.45 32.20,-18.70 32.33,-18.93 32.46,-19.16 32.64,-19.35 32.82,-19.54 33.03,-19.69 33.25,-19.83 33.50,-19.92 33.75,-20.01 34.01,-20.03 34.27,-20.06 34.53,-20.02 34.79,-19.98 35.04,-19.88 35.28,-19.78 35.49,-19.63 35.71,-19.48 35.88,-19.28 36.05,-19.07 36.16,-18.84 36.28,-18.60 36.34,-18.35 36.39,-18.09 36.39,-17.83 36.38,-17.56 35.50,-16.54 34.63,-15.52 33.66,-14.53 32.69,-13.53 31.75,-12.08 30.80,-10.63 29.79,-9.15 28.77,-7.66 28.29,-6.20 27.82,-4.73 29.07,-4.95 30.33,-5.17 31.52,-5.53 32.71,-5.89 34.01,-6.68 35.32,-7.47 36.47,-8.61 37.62,-9.75 38.43,-10.57 39.24,-11.39 39.06,-11.80 38.87,-12.20 39.00,-12.43 39.14,-12.66 39.32,-12.85 39.50,-13.04 39.73,-13.19 39.95,-13.33 40.20,-13.41 40.46,-13.50 40.72,-13.52 40.98,-13.54 41.25,-13.50 41.51,-13.45 41.75,-13.35 42.00,-13.25 42.21,-13.09 42.42,-12.93 42.59,-12.72 42.76,-12.52 42.87,-12.28 42.98,-12.04 43.04,-11.78 43.09,-11.52 43.08,-11.25 43.07,-10.99 43.00,-10.73 42.92,-10.48 40.93,-11.24 38.93,-12.00 39.06,-12.23 39.20,-12.46 39.38,-12.65 39.56,-12.84 39.79,-12.98 40.01,-13.13 40.26,-13.21 40.51,-13.29 40.78,-13.32 41.04,-13.34 41.30,-13.29 41.56,-13.25 41.81,-13.15 42.05,-13.05 42.26,-12.89 42.47,-12.73 42.64,-12.52 42.81,-12.32 42.92,-12.08 43.04,-11.84 43.09,-11.58 43.14,-11.32 43.13,-11.06 43.12,-10.79 43.05,-10.54 42.98,-10.28 41.91,-9.61 40.85,-8.94 39.83,-7.76 38.80,-6.59 37.75,-5.55 36.70,-4.52 36.48,-3.45 36.26,-2.37 37.39,-1.85 38.53,-1.32 39.90,-1.30 41.28,-1.28 42.50,-1.66 43.71,-2.05 45.21,-2.53 46.71,-3.01 47.53,-2.00 48.35,-1.00 47.15,-0.30 45.96,0.40 44.64,0.79 43.32,1.19 42.07,1.34 40.82,1.48 39.42,1.72 38.03,1.95 36.24,2.59 34.44,3.24 32.94,3.75 31.44,4.26 30.47,4.75 29.50,5.23 28.01,6.20 26.53,7.17 25.24,8.03 23.95,8.89 22.93,9.84 21.91,10.78 20.91,11.78 19.91,12.78 18.91,13.78 17.91,14.78 16.62,15.84 15.33,16.91 15.27,17.11 15.21,17.31 15.08,17.49 14.96,17.66 14.78,17.78 14.61,17.90 14.40,17.96 14.20,18.02 13.99,18.02 13.78,18.01 13.58,17.93 13.38,17.86 13.21,17.72 13.05,17.59 12.94,17.41 12.82,17.23 12.77,17.02 12.72,16.82 12.74,16.60 12.76,16.39 12.85,16.20 12.93,16.00 13.08,15.85 13.22,15.69 13.41,15.59 13.59,15.48 13.80,15.45 14.01,15.41 14.22,15.44 14.43,15.47 14.62,15.56 14.81,15.66 14.96,15.81 15.11,15.96 15.20,16.16 15.29,16.35 15.32,16.56 15.35,16.77 15.31,16.98 15.26,17.18 15.16,17.37 15.05,17.55 14.89,17.69 14.73,17.83 14.54,17.92 14.34,18.00 14.13,18.01 13.92,18.03 13.71,17.98 13.51,17.92 13.33,17.81 13.15,17.69 13.02,17.52 12.89,17.36 12.81,17.16 12.74,16.96 12.74,16.74 12.74,16.53 12.74,16.53 12.74,16.53 13.47,14.30 14.21,12.08 15.21,11.08 16.21,10.08 17.21,9.07 18.21,8.07 19.26,7.00 20.31,5.93 21.16,5.17 22.01,4.40 23.18,3.66 24.35,2.92 25.32,2.13 26.29,1.34 27.30,0.85 28.31,0.35 29.37,-0.14 30.42,-0.65 31.96,-1.16 33.50,-1.67 34.89,-2.24 36.28,-2.81 38.43,-3.18 40.58,-3.55 41.74,-3.82 42.90,-4.10 44.68,-4.31 46.46,-4.52 47.52,-4.88 48.58,-5.24 49.88,-4.61 51.18,-3.98 50.22,-1.50 49.26,0.97 48.15,1.47 47.04,1.97 45.71,2.19 44.37,2.42 43.39,2.83 42.40,3.24 41.31,3.24 40.21,3.25 39.10,3.20 38.00,3.15 36.43,2.56 34.86,1.98 33.54,0.99 32.21,-0.00 32.06,-1.46 31.90,-2.93 32.60,-4.24 33.30,-5.55 33.91,-6.62 34.52,-7.70 35.50,-8.74 36.48,-9.78 37.70,-10.89 38.93,-12.00 39.06,-12.23 39.20,-12.46 39.38,-12.65 39.56,-12.84 39.79,-12.98 40.01,-13.13 40.26,-13.21 40.51,-13.29 40.78,-13.32 41.04,-13.34 41.30,-13.29 41.56,-13.25 41.81,-13.15 42.05,-13.05 42.26,-12.89 42.47,-12.73 42.64,-12.52 42.81,-12.32 42.92,-12.08 43.04,-11.84 43.09,-11.58 43.14,-11.32 43.13,-11.06 43.12,-10.79 43.05,-10.54 42.98,-10.28 40.92,-11.24 38.87,-12.20 39.00,-12.43 39.14,-12.66 39.32,-12.85 39.50,-13.04 39.73,-13.19 39.95,-13.33 40.20,-13.41 40.46,-13.50 40.72,-13.52 40.98,-13.54 41.25,-13.50 41.51,-13.45 41.75,-13.35 42.00,-13.25 42.21,-13.09 42.42,-12.93 42.59,-12.72 42.76,-12.52 42.87,-12.28 42.98,-12.04 43.04,-11.78 43.09,-11.52 43.08,-11.25 43.07,-10.99 43.00,-10.73 42.92,-10.48 42.84,-10.05 42.76,-9.62 41.77,-8.26 40.77,-6.90 39.59,-6.09 38.41,-5.29 37.30,-4.13 36.18,-2.97 34.99,-2.36 33.81,-1.75 32.60,-1.32 31.39,-0.89 30.28,-0.89 29.17,-0.89 27.89,-1.09 26.62,-1.28 25.51,-2.58 24.41,-3.88 24.67,-5.90 24.93,-7.92 25.63,-9.23 26.33,-10.53 26.92,-11.61 27.51,-12.68 28.15,-13.82 28.79,-14.96 29.66,-15.82 30.53,-16.69 31.30,-17.44 32.06,-18.19 32.13,-18.45 32.20,-18.70 32.33,-18.93 32.46,-19.16 32.64,-19.35 32.81,-19.54 33.03,-19.69 33.25,-19.83 33.50,-19.92 33.75,-20.01 34.01,-20.03 34.27,-20.06 34.53,-20.02 34.79,-19.98 35.04,-19.88 35.28,-19.78 35.49,-19.63 35.71,-19.48 35.88,-19.28 36.05,-19.07 36.16,-18.84 36.28,-18.60 36.34,-18.35 36.39,-18.09 36.39,-17.83 36.38,-17.57 34.37,-17.80 32.37,-18.03 32.44,-18.29 32.51,-18.54 32.63,-18.77 32.76,-19.00 32.94,-19.20 33.12,-19.39 33.34,-19.53 33.56,-19.68 33.81,-19.77 34.06,-19.85 34.32,-19.88 34.58,-19.90 34.84,-19.87 35.10,-19.83 35.35,-19.73 35.59,-19.63 35.80,-19.48 36.02,-19.32 36.19,-19.12 36.36,-18.92 36.47,-18.68 36.59,-18.45 36.65,-18.19 36.70,-17.93 36.70,-17.67 36.69,-17.41 36.24,-16.52 35.80,-15.64 34.62,-14.47 33.44,-13.31 32.37,-12.25 31.30,-11.19 30.36,-10.47 29.41,-9.75 28.31,-9.47 27.21,-9.19 25.75,-8.47 24.28,-7.75 22.74,-7.35 21.21,-6.94 20.08,-7.04 18.95,-7.13 17.63,-8.10 16.30,-9.07 16.14,-10.92 15.97,-12.76 16.01,-13.84 16.05,-14.91 16.73,-16.20 17.42,-17.49 18.01,-18.59 18.59,-19.70 19.61,-20.67 20.62,-21.65 21.52,-22.88 22.42,-24.11 23.90,-25.13 25.38,-26.14 26.50,-26.76 27.61,-27.37 29.40,-26.99 31.19,-26.61 30.91,-25.04 30.64,-23.46 30.13,-22.26 29.62,-21.05 28.84,-20.33 28.05,-19.62 27.09,-18.18 26.13,-16.75 25.57,-15.83 25.00,-14.90 24.09,-13.73 23.18,-12.57 22.06,-11.51 20.94,-10.46 19.59,-9.39 18.23,-8.32 17.37,-7.50 16.51,-6.69 15.06,-5.56 13.62,-4.44 12.06,-3.59 10.50,-2.74 9.12,-1.64 7.74,-0.55 6.18,0.37 4.62,1.30 3.62,1.68 2.62,2.05 1.55,2.14 0.47,2.22 -0.27,1.62 -1.02,1.02 -1.13,0.89 -1.24,0.75 -1.31,0.59 -1.38,0.43 -1.41,0.26 -1.45,0.08 -1.44,-0.08 -1.43,-0.26 -1.37,-0.42 -1.32,-0.59 -1.23,-0.74 -1.14,-0.89 -1.02,-1.02 -0.89,-1.14 -0.74,-1.23 -0.59,-1.32 -0.42,-1.37 -0.26,-1.43 -0.08,-1.44 0.08,-1.45 0.26,-1.41 0.43,-1.38 0.59,-1.31 0.75,-1.24 0.89,-1.13 1.02,-1.02 1.02,-1.02 L 1.02,-1.02 Z"></path></g><g transform="translate(428 339) rotate(0 16 99)" stroke="none"><path fill="#1e1e1e" d="M 1.42,0 Q 1.42,0 1.74,1.72 2.06,3.44 2.06,4.75 2.07,6.06 2.08,7.48 2.08,8.90 2.09,11.32 2.10,13.74 2.11,16.11 2.12,18.49 1.84,21.33 1.57,24.18 1.46,26.16 1.35,28.13 1.02,31.07 0.69,34.01 0.56,36.60 0.43,39.19 0.38,40.87 0.32,42.56 0.31,44.12 0.30,45.69 0.00,47.68 -0.30,49.67 -0.41,51.21 -0.51,52.75 -0.56,53.98 -0.60,55.21 -0.62,57.16 -0.63,59.10 -0.63,61.08 -0.62,63.06 -0.61,64.48 -0.60,65.90 -0.59,68.89 -0.58,71.89 -0.56,73.35 -0.55,74.82 -0.55,76.31 -0.54,77.80 -0.53,79.29 -0.52,80.79 -0.51,82.28 -0.50,83.78 -0.50,85.28 -0.49,86.78 -0.48,88.96 -0.47,91.14 -0.47,92.82 -0.47,94.51 -0.46,95.80 -0.46,97.09 -0.46,98.50 -0.46,99.91 -0.45,101.37 -0.45,102.83 -0.45,104.04 -0.45,105.24 -0.77,106.86 -1.08,108.49 -1.22,110.39 -1.37,112.28 -1.40,114.26 -1.43,116.23 -1.43,117.31 -1.43,118.40 -1.43,120.73 -1.43,123.07 -1.43,124.84 -1.43,126.62 -1.75,128.76 -2.07,130.91 -2.21,132.76 -2.34,134.61 -2.73,136.56 -3.11,138.51 -3.22,139.70 -3.34,140.89 -3.80,142.62 -4.27,144.34 -4.34,145.82 -4.41,147.30 -4.41,148.78 -4.42,150.26 -4.43,151.76 -4.44,153.26 -4.70,155.15 -4.95,157.05 -6.05,158.33 -7.15,159.60 -7.95,160.42 -8.76,161.23 -9.56,162.04 -10.36,162.85 -11.51,163.63 -12.66,164.40 -14.11,165.36 -15.55,166.32 -16.93,167.11 -18.31,167.90 -19.44,168.62 -20.58,169.34 -21.58,170.29 -22.59,171.23 -24.38,172.10 -26.16,172.97 -27.77,173.95 -29.39,174.94 -31.00,176.13 -32.62,177.33 -33.73,177.86 -34.85,178.40 -35.76,179.23 -36.67,180.06 -37.71,180.65 -38.75,181.25 -39.96,182.43 -41.17,183.61 -42.18,184.62 -43.19,185.62 -44.17,186.64 -45.16,187.66 -45.99,188.52 -46.81,189.39 -47.96,190.08 -49.10,190.78 -50.21,191.36 -51.32,191.93 -52.43,193.02 -53.53,194.10 -54.54,194.63 -55.56,195.15 -56.54,195.66 -57.51,196.17 -58.53,196.68 -59.55,197.19 -60.47,197.22 -61.39,197.26 -61.59,197.49 -61.80,197.71 -62.05,197.88 -62.30,198.05 -62.58,198.15 -62.87,198.25 -63.17,198.29 -63.47,198.32 -63.77,198.28 -64.07,198.24 -64.35,198.13 -64.63,198.02 -64.88,197.84 -65.13,197.67 -65.33,197.44 -65.52,197.21 -65.66,196.94 -65.80,196.67 -65.87,196.37 -65.93,196.08 -65.93,195.77 -65.93,195.47 -65.85,195.18 -65.77,194.89 -65.63,194.62 -65.49,194.35 -63.53,194.43 -61.57,194.51 -59.84,194.87 -58.10,195.23 -56.24,195.38 -54.39,195.53 -52.55,195.57 -50.70,195.60 -49.64,195.61 -48.57,195.61 -46.69,195.62 -44.80,195.62 -43.66,195.36 -42.51,195.10 -40.32,194.95 -38.13,194.81 -36.37,194.76 -34.62,194.70 -32.89,194.41 -31.16,194.12 -29.71,193.97 -28.25,193.83 -26.15,193.77 -24.05,193.71 -22.60,193.68 -21.15,193.66 -18.42,193.64 -15.69,193.63 -14.05,193.63 -12.42,193.63 -11.14,193.62 -9.87,193.62 -8.76,193.62 -7.64,193.62 -6.31,193.62 -4.97,193.62 -2.97,193.62 -0.96,193.62 0.46,193.62 1.89,193.62 4.02,193.62 6.16,193.62 7.26,193.62 8.36,193.62 10.56,193.62 12.75,193.62 13.97,193.62 15.19,193.62 16.57,193.62 17.95,193.62 19.40,193.61 20.85,193.61 22.33,193.61 23.81,193.61 25.02,193.61 26.23,193.61 27.84,193.92 29.45,194.23 31.36,194.38 33.27,194.53 34.63,194.55 35.98,194.57 38.08,194.59 40.18,194.60 42.48,194.60 44.79,194.61 46.96,194.61 49.14,194.61 50.25,194.61 51.36,194.61 53.01,194.61 54.67,194.60 56.32,194.60 57.97,194.60 59.78,194.60 61.60,194.60 63.16,194.60 64.71,194.60 65.92,194.60 67.13,194.61 68.37,194.21 69.61,193.82 70.86,193.72 72.12,193.63 74.08,194.00 76.05,194.38 77.20,194.47 78.34,194.55 79.80,194.57 81.26,194.58 82.76,194.58 84.26,194.58 85.67,194.58 87.08,194.58 88.15,194.61 89.22,194.63 90.74,194.68 92.25,194.73 93.41,194.98 94.56,195.22 95.12,194.81 95.68,194.40 95.92,194.43 96.16,194.46 96.39,194.55 96.62,194.63 96.82,194.77 97.02,194.91 97.18,195.09 97.34,195.27 97.45,195.49 97.57,195.70 97.63,195.94 97.68,196.18 97.68,196.42 97.68,196.66 97.63,196.90 97.57,197.14 97.45,197.35 97.34,197.57 97.18,197.75 97.02,197.93 96.82,198.07 96.62,198.21 96.39,198.29 96.16,198.38 95.92,198.41 95.68,198.44 94.44,197.24 93.19,196.04 91.58,194.96 89.97,193.88 88.79,193.07 87.60,192.27 86.45,191.74 85.29,191.22 84.23,190.71 83.17,190.19 81.31,189.37 79.44,188.54 77.94,188.02 76.43,187.50 75.46,187.05 74.48,186.61 72.75,186.04 71.02,185.48 69.97,185.09 68.93,184.71 67.01,184.18 65.10,183.65 64.10,183.12 63.10,182.59 61.85,181.99 60.61,181.40 59.48,181.08 58.36,180.76 57.29,180.20 56.23,179.65 54.33,178.68 52.43,177.72 51.45,177.22 50.46,176.73 48.94,176.16 47.41,175.60 46.42,175.13 45.44,174.67 44.28,174.03 43.12,173.39 41.05,172.10 38.99,170.81 37.97,170.09 36.95,169.38 35.99,168.84 35.02,168.31 33.91,167.49 32.80,166.67 31.66,166.01 30.52,165.36 29.00,164.34 27.48,163.32 26.57,162.58 25.65,161.83 24.58,160.80 23.51,159.76 22.46,159.33 21.42,158.90 20.56,157.60 19.70,156.30 19.52,156.18 19.34,156.07 19.21,155.91 19.08,155.74 19.00,155.54 18.93,155.34 18.92,155.13 18.91,154.92 18.97,154.72 19.04,154.51 19.16,154.34 19.28,154.17 19.45,154.04 19.63,153.92 19.83,153.85 20.03,153.79 20.24,153.79 20.46,153.80 20.66,153.87 20.86,153.94 21.02,154.07 21.19,154.21 21.30,154.38 21.42,154.56 21.47,154.77 21.52,154.97 21.51,155.19 21.49,155.40 21.41,155.59 21.33,155.79 21.19,155.95 21.04,156.11 20.86,156.21 20.68,156.32 20.47,156.36 20.26,156.40 20.05,156.37 19.84,156.35 19.65,156.25 19.46,156.16 19.30,156.01 19.15,155.86 19.06,155.67 18.96,155.48 18.93,155.27 18.90,155.06 18.94,154.85 18.98,154.64 19.08,154.46 19.19,154.27 19.34,154.13 19.50,153.99 19.70,153.90 19.89,153.82 20.10,153.80 20.31,153.78 20.52,153.83 20.73,153.88 20.73,153.88 20.73,153.88 23.11,155.09 25.50,156.31 26.44,157.25 27.39,158.20 28.97,159.22 30.55,160.25 31.83,161.04 33.11,161.82 34.32,162.53 35.54,163.24 36.80,164.02 38.06,164.80 39.25,165.50 40.43,166.21 41.79,167.38 43.14,168.54 44.70,169.20 46.26,169.87 47.71,170.69 49.17,171.51 50.81,172.12 52.46,172.74 53.45,173.24 54.45,173.74 55.43,174.24 56.42,174.74 58.07,175.64 59.73,176.54 61.65,177.35 63.58,178.17 65.00,178.80 66.42,179.43 68.46,180.01 70.49,180.59 72.18,181.37 73.87,182.15 75.08,182.42 76.29,182.69 77.92,183.47 79.56,184.24 81.29,184.93 83.02,185.63 84.48,186.24 85.93,186.85 87.09,187.41 88.24,187.98 89.68,188.96 91.12,189.95 91.96,190.71 92.80,191.46 93.88,191.86 94.95,192.25 95.32,193.33 95.68,194.40 95.92,194.43 96.16,194.46 96.39,194.55 96.62,194.63 96.82,194.77 97.02,194.91 97.18,195.09 97.34,195.27 97.45,195.49 97.57,195.70 97.63,195.94 97.68,196.18 97.68,196.42 97.68,196.66 97.63,196.90 97.57,197.14 97.45,197.35 97.34,197.57 97.18,197.75 97.02,197.93 96.82,198.07 96.62,198.21 96.39,198.29 96.16,198.38 95.92,198.41 95.68,198.44 95.81,198.60 95.95,198.77 94.10,199.01 92.25,199.26 90.74,199.31 89.22,199.36 88.15,199.38 87.08,199.41 85.67,199.41 84.26,199.41 82.75,199.41 81.25,199.40 79.69,199.39 78.14,199.37 76.90,199.27 75.67,199.17 73.99,198.80 72.32,198.43 70.96,198.56 69.59,198.68 68.41,199.03 67.22,199.38 65.97,199.39 64.71,199.39 63.16,199.39 61.60,199.39 59.78,199.39 57.97,199.39 56.32,199.39 54.67,199.39 53.01,199.38 51.36,199.38 50.25,199.38 49.14,199.38 46.96,199.38 44.78,199.38 42.47,199.38 40.16,199.38 38.03,199.36 35.91,199.35 34.49,199.33 33.07,199.31 30.77,199.11 28.48,198.91 27.34,198.64 26.21,198.38 25.01,198.38 23.81,198.38 22.33,198.38 20.85,198.38 19.40,198.38 17.95,198.37 16.57,198.37 15.19,198.37 13.97,198.37 12.75,198.37 10.56,198.37 8.36,198.37 7.26,198.37 6.16,198.37 4.02,198.37 1.89,198.37 0.46,198.37 -0.96,198.37 -2.96,198.37 -4.97,198.37 -6.31,198.37 -7.64,198.37 -8.76,198.37 -9.87,198.37 -11.14,198.37 -12.41,198.37 -14.04,198.37 -15.68,198.37 -18.38,198.39 -21.08,198.40 -22.50,198.42 -23.92,198.45 -25.86,198.50 -27.80,198.55 -29.10,198.67 -30.39,198.79 -32.43,199.11 -34.47,199.44 -36.16,199.49 -37.84,199.54 -39.70,199.64 -41.56,199.74 -43.17,200.05 -44.79,200.36 -46.69,200.36 -48.59,200.36 -49.67,200.36 -50.75,200.36 -52.70,200.32 -54.65,200.29 -55.76,200.22 -56.87,200.16 -59.05,199.73 -61.24,199.30 -62.30,199.16 -63.35,199.02 -64.07,198.17 -64.79,197.32 -63.09,197.29 -61.39,197.26 -61.59,197.49 -61.80,197.71 -62.05,197.88 -62.30,198.05 -62.58,198.15 -62.87,198.25 -63.17,198.29 -63.47,198.32 -63.77,198.28 -64.07,198.24 -64.35,198.13 -64.63,198.02 -64.88,197.84 -65.13,197.67 -65.33,197.44 -65.52,197.21 -65.66,196.94 -65.80,196.67 -65.87,196.37 -65.93,196.08 -65.93,195.77 -65.93,195.47 -65.85,195.18 -65.77,194.89 -65.63,194.62 -65.49,194.35 -64.30,193.60 -63.12,192.84 -61.91,192.63 -60.69,192.41 -59.14,191.71 -57.59,191.00 -56.08,190.00 -54.57,189.01 -53.58,188.51 -52.59,188.01 -51.24,186.79 -49.88,185.57 -48.77,184.86 -47.66,184.16 -46.64,183.17 -45.62,182.19 -44.62,181.18 -43.61,180.17 -42.68,178.91 -41.76,177.64 -40.79,177.08 -39.82,176.52 -38.66,175.50 -37.51,174.48 -36.27,173.87 -35.04,173.26 -33.83,172.39 -32.63,171.53 -30.94,170.46 -29.26,169.40 -28.32,168.89 -27.38,168.39 -26.33,167.85 -25.27,167.31 -24.16,166.32 -23.05,165.33 -21.54,164.40 -20.02,163.47 -18.99,162.84 -17.97,162.22 -16.52,161.25 -15.07,160.28 -13.87,159.70 -12.66,159.13 -11.65,158.16 -10.65,157.19 -10.07,156.22 -9.49,155.26 -9.53,153.76 -9.57,152.26 -9.57,150.75 -9.57,149.25 -9.55,147.69 -9.53,146.13 -9.42,144.88 -9.31,143.62 -8.90,142.09 -8.49,140.57 -8.25,138.72 -8.00,136.87 -7.75,135.61 -7.49,134.35 -7.43,133.24 -7.37,132.13 -7.22,130.90 -7.07,129.67 -6.82,128.14 -6.56,126.62 -6.56,124.84 -6.55,123.07 -6.55,120.72 -6.55,118.38 -6.54,117.28 -6.53,116.19 -6.50,114.13 -6.47,112.07 -6.26,109.76 -6.06,107.45 -5.80,106.33 -5.54,105.22 -5.54,104.02 -5.54,102.83 -5.54,101.37 -5.53,99.91 -5.53,98.50 -5.53,97.09 -5.53,95.80 -5.52,94.51 -5.52,92.82 -5.52,91.14 -5.51,88.96 -5.50,86.78 -5.49,85.28 -5.49,83.78 -5.48,82.28 -5.47,80.79 -5.46,79.29 -5.45,77.80 -5.44,76.31 -5.44,74.82 -5.42,73.35 -5.41,71.88 -5.39,68.89 -5.37,65.89 -5.36,64.46 -5.34,63.04 -5.32,61.04 -5.29,59.04 -5.26,57.03 -5.23,55.02 -5.17,53.71 -5.10,52.40 -4.95,50.66 -4.80,48.93 -4.52,47.27 -4.23,45.61 -4.18,44.00 -4.14,42.39 -4.07,40.67 -4.01,38.94 -3.85,36.22 -3.69,33.49 -3.34,30.68 -2.99,27.87 -2.85,25.80 -2.72,23.73 -2.42,21.11 -2.12,18.48 -2.11,16.11 -2.10,13.74 -2.09,11.32 -2.08,8.90 -2.08,7.48 -2.07,6.06 -2.06,4.75 -2.06,3.44 -1.74,1.72 -1.42,0 -1.40,-0.17 -1.37,-0.34 -1.31,-0.50 -1.25,-0.66 -1.16,-0.80 -1.06,-0.94 -0.93,-1.05 -0.80,-1.16 -0.65,-1.24 -0.50,-1.32 -0.33,-1.36 -0.17,-1.41 0.00,-1.41 0.17,-1.41 0.33,-1.36 0.50,-1.32 0.65,-1.24 0.80,-1.16 0.93,-1.05 1.06,-0.94 1.16,-0.80 1.25,-0.66 1.31,-0.50 1.37,-0.33 1.40,-0.16 1.42,0.00 1.42,0.00 L 1.42,0 Z"></path></g><g transform="translate(448 493) rotate(0 -11 -80)" stroke="none"><path fill="#1e1e1e" d="M -1.38,0.27 Q -1.38,0.27 -1.88,-1.11 -2.38,-2.51 -2.61,-4.17 -2.83,-5.84 -3.31,-7.58 -3.79,-9.33 -3.91,-10.68 -4.02,-12.02 -4.48,-13.68 -4.94,-15.34 -5.47,-17.38 -6.00,-19.43 -6.12,-21.17 -6.23,-22.91 -6.26,-24.09 -6.28,-25.27 -6.51,-26.67 -6.75,-28.07 -6.95,-29.54 -7.15,-31.01 -7.22,-32.15 -7.28,-33.29 -7.32,-35.26 -7.36,-37.23 -7.37,-38.31 -7.38,-39.40 -7.63,-41.12 -7.88,-42.85 -8.05,-44.35 -8.21,-45.86 -8.27,-47.04 -8.33,-48.22 -8.37,-50.22 -8.41,-52.22 -8.41,-53.30 -8.42,-54.39 -8.42,-56.15 -8.43,-57.92 -8.43,-59.38 -8.43,-60.84 -8.44,-62.32 -8.44,-63.80 -8.45,-65.69 -8.45,-67.57 -8.45,-69.26 -8.45,-70.95 -8.45,-72.49 -8.45,-74.02 -8.45,-75.17 -8.45,-76.33 -8.12,-77.70 -7.79,-79.07 -7.66,-80.85 -7.53,-82.63 -7.50,-84.58 -7.47,-86.54 -7.47,-88.12 -7.46,-89.70 -7.46,-91.22 -7.46,-92.73 -7.47,-94.52 -7.47,-96.31 -7.47,-97.70 -7.47,-99.09 -7.47,-100.16 -7.47,-101.23 -7.47,-103.03 -7.47,-104.83 -7.47,-106.41 -7.47,-108.00 -7.12,-109.80 -6.76,-111.60 -6.63,-112.96 -6.51,-114.32 -6.49,-115.79 -6.48,-117.26 -6.08,-119.18 -5.68,-121.10 -5.59,-122.63 -5.50,-124.15 -5.46,-125.66 -5.42,-127.17 -5.01,-128.22 -4.60,-129.26 -4.50,-130.78 -4.40,-132.30 -4.36,-133.86 -4.33,-135.42 -3.90,-136.41 -3.48,-137.41 -3.41,-138.86 -3.35,-140.30 -3.30,-141.86 -3.26,-143.41 -2.84,-144.40 -2.43,-145.38 -2.37,-146.84 -2.30,-148.30 -2.29,-149.78 -2.27,-151.26 -2.23,-152.76 -2.19,-154.26 -2.15,-155.76 -2.10,-157.26 -3.20,-157.51 -4.30,-157.77 -5.68,-157.26 -7.07,-156.75 -8.50,-156.70 -9.93,-156.65 -11.80,-156.15 -13.66,-155.64 -15.15,-155.21 -16.65,-154.78 -19.10,-154.75 -21.56,-154.72 -21.77,-154.73 -21.98,-154.74 -22.18,-154.82 -22.38,-154.90 -22.54,-155.03 -22.71,-155.17 -22.82,-155.35 -22.93,-155.53 -22.98,-155.74 -23.02,-155.94 -23.00,-156.15 -22.98,-156.37 -22.90,-156.56 -22.81,-156.75 -22.66,-156.91 -22.52,-157.07 -22.33,-157.17 -22.15,-157.27 -21.94,-157.31 -21.73,-157.34 -21.52,-157.31 -21.31,-157.28 -21.12,-157.18 -20.93,-157.08 -20.78,-156.93 -20.63,-156.78 -20.54,-156.59 -20.45,-156.39 -20.43,-156.18 -20.40,-155.97 -20.44,-155.76 -20.49,-155.56 -20.60,-155.37 -20.70,-155.19 -20.86,-155.05 -21.02,-154.91 -21.22,-154.83 -21.42,-154.75 -21.63,-154.74 -21.84,-154.72 -22.05,-154.78 -22.25,-154.83 -22.43,-154.95 -22.61,-155.07 -22.74,-155.23 -22.87,-155.40 -22.94,-155.60 -23.01,-155.80 -23.01,-156.02 -23.01,-156.23 -22.95,-156.43 -22.88,-156.63 -22.75,-156.80 -22.63,-156.97 -22.45,-157.09 -22.28,-157.21 -22.07,-157.27 -21.87,-157.33 -21.87,-157.33 -21.87,-157.33 -19.59,-158.47 -17.32,-159.61 -16.29,-160.02 -15.27,-160.44 -13.78,-160.50 -12.30,-160.56 -10.61,-160.97 -8.93,-161.39 -7.47,-161.63 -6.00,-161.87 -4.60,-162.01 -3.21,-162.15 -2.07,-162.04 -0.94,-161.92 0.40,-160.93 1.75,-159.94 1.93,-158.60 2.10,-157.26 2.15,-155.76 2.19,-154.26 2.23,-152.75 2.27,-151.25 2.27,-149.73 2.27,-148.21 2.24,-147.12 2.21,-146.02 1.73,-144.56 1.26,-143.10 1.29,-141.66 1.32,-140.21 1.29,-139.11 1.25,-138.01 0.79,-136.55 0.32,-135.10 0.35,-133.65 0.37,-132.21 0.35,-131.10 0.32,-129.99 -0.12,-128.45 -0.58,-126.91 -0.57,-125.44 -0.55,-123.97 -0.65,-122.31 -0.75,-120.65 -1.13,-118.95 -1.52,-117.24 -1.53,-115.68 -1.55,-114.12 -1.65,-112.85 -1.74,-111.59 -2.13,-109.79 -2.52,-108.00 -2.52,-106.41 -2.52,-104.83 -2.52,-103.03 -2.52,-101.23 -2.52,-100.16 -2.52,-99.09 -2.52,-97.70 -2.52,-96.31 -2.52,-94.52 -2.53,-92.73 -2.53,-91.21 -2.53,-89.69 -2.54,-88.09 -2.54,-86.49 -2.58,-84.43 -2.61,-82.37 -2.67,-81.28 -2.73,-80.19 -3.14,-78.24 -3.54,-76.28 -3.54,-75.15 -3.54,-74.02 -3.54,-72.49 -3.54,-70.95 -3.54,-69.26 -3.54,-67.57 -3.54,-65.69 -3.55,-63.80 -3.55,-62.32 -3.55,-60.84 -3.56,-59.38 -3.56,-57.92 -3.56,-56.17 -3.56,-54.41 -3.56,-53.33 -3.55,-52.26 -3.53,-50.35 -3.50,-48.44 -3.46,-47.38 -3.41,-46.31 -3.33,-45.23 -3.25,-44.15 -2.93,-41.78 -2.60,-39.41 -2.60,-38.34 -2.60,-37.27 -2.58,-35.40 -2.56,-33.52 -2.47,-31.62 -2.39,-29.73 -2.03,-28.61 -1.68,-27.49 -1.68,-26.40 -1.68,-25.31 -1.68,-24.19 -1.69,-23.07 -1.64,-21.60 -1.60,-20.14 -1.19,-18.68 -0.78,-17.23 -0.67,-15.86 -0.57,-14.49 -0.22,-12.82 0.12,-11.15 0.21,-9.76 0.30,-8.38 0.64,-7.28 0.98,-6.17 1.11,-4.70 1.23,-3.23 1.31,-1.75 1.38,-0.27 1.40,-0.10 1.41,0.06 1.38,0.23 1.35,0.39 1.29,0.55 1.22,0.71 1.12,0.84 1.01,0.98 0.88,1.09 0.75,1.20 0.59,1.27 0.44,1.34 0.27,1.37 0.10,1.41 -0.06,1.40 -0.23,1.39 -0.39,1.34 -0.56,1.30 -0.70,1.21 -0.85,1.12 -0.97,1.01 -1.10,0.89 -1.19,0.74 -1.28,0.60 -1.33,0.44 -1.38,0.27 -1.38,0.27 L -1.38,0.27 Z"></path></g><g transform="translate(434 333) rotate(0 9.5 -52.5)" stroke="none"><path fill="#f08c00" d="M -0.45,1.35 Q -0.45,1.35 -1.50,1.41 -2.56,1.47 -3.51,0.79 -4.46,0.11 -5.34,-0.88 -6.22,-1.87 -7.05,-3.14 -7.89,-4.41 -8.46,-5.48 -9.03,-6.56 -9.40,-7.75 -9.77,-8.94 -10.18,-9.94 -10.58,-10.94 -10.91,-12.15 -11.23,-13.36 -11.33,-14.64 -11.44,-15.93 -11.95,-17.45 -12.46,-18.98 -12.51,-20.09 -12.56,-21.20 -12.57,-22.73 -12.59,-24.25 -12.59,-25.66 -12.60,-27.07 -12.60,-28.72 -12.60,-30.37 -12.60,-32.14 -12.60,-33.92 -12.24,-35.76 -11.89,-37.61 -11.36,-39.38 -10.84,-41.14 -10.27,-42.85 -9.70,-44.56 -9.25,-46.39 -8.80,-48.23 -8.24,-49.90 -7.69,-51.57 -7.29,-52.72 -6.88,-53.87 -5.79,-55.35 -4.69,-56.82 -4.29,-57.87 -3.89,-58.92 -3.30,-59.98 -2.71,-61.04 -1.66,-62.49 -0.60,-63.94 0.23,-65.07 1.07,-66.20 2.20,-67.55 3.33,-68.91 4.16,-70.39 4.98,-71.88 6.14,-73.36 7.30,-74.84 8.25,-76.23 9.20,-77.63 9.64,-78.75 10.08,-79.88 10.68,-81.21 11.27,-82.54 11.69,-83.70 12.10,-84.86 12.42,-86.46 12.74,-88.06 13.03,-89.23 13.32,-90.39 13.35,-91.83 13.39,-93.27 13.02,-94.46 12.65,-95.64 12.58,-96.82 12.51,-98.00 12.05,-99.50 11.58,-100.99 11.30,-102.32 11.01,-103.64 10.96,-103.90 10.90,-104.16 10.91,-104.42 10.93,-104.68 11.00,-104.93 11.07,-105.19 11.20,-105.41 11.33,-105.64 11.52,-105.83 11.70,-106.02 11.92,-106.16 12.14,-106.30 12.39,-106.38 12.64,-106.47 12.90,-106.49 13.16,-106.51 13.42,-106.47 13.68,-106.42 13.92,-106.32 14.16,-106.22 14.37,-106.06 14.58,-105.90 14.75,-105.70 14.91,-105.50 15.03,-105.26 15.14,-105.02 15.07,-103.81 15.00,-102.61 15.01,-101.17 15.03,-99.72 15.05,-98.23 15.06,-96.73 15.09,-94.95 15.11,-93.16 15.13,-91.99 15.14,-90.83 15.57,-88.81 16.00,-86.79 16.47,-85.08 16.94,-83.36 17.43,-82.36 17.92,-81.36 18.42,-79.92 18.93,-78.47 19.83,-77.51 20.72,-76.54 21.81,-75.41 22.89,-74.27 24.28,-72.95 25.67,-71.62 26.29,-70.50 26.92,-69.37 27.44,-68.39 27.97,-67.42 28.49,-66.43 29.01,-65.44 29.56,-64.43 30.10,-63.42 30.64,-61.88 31.19,-60.34 31.35,-59.08 31.51,-57.82 31.55,-56.50 31.59,-55.17 31.61,-53.58 31.63,-51.99 31.66,-50.48 31.69,-48.96 31.68,-47.78 31.67,-46.60 31.25,-45.52 30.82,-44.44 30.81,-43.11 30.80,-41.78 30.44,-40.54 30.08,-39.31 29.49,-37.32 28.90,-35.33 28.46,-34.24 28.02,-33.15 27.54,-31.41 27.05,-29.67 26.54,-28.40 26.03,-27.14 25.51,-26.21 24.98,-25.29 24.58,-24.14 24.17,-22.99 23.60,-21.94 23.03,-20.88 22.56,-19.87 22.10,-18.86 21.06,-17.10 20.02,-15.33 18.94,-14.06 17.86,-12.78 16.62,-11.43 15.38,-10.07 14.63,-9.00 13.87,-7.92 12.81,-6.78 11.74,-5.65 10.60,-4.92 9.45,-4.20 8.13,-3.92 6.80,-3.65 5.40,-3.01 4.00,-2.36 3.07,-1.82 2.14,-1.28 2.01,-1.11 1.88,-0.94 1.71,-0.82 1.54,-0.70 1.33,-0.64 1.13,-0.58 0.91,-0.59 0.70,-0.60 0.50,-0.67 0.31,-0.75 0.14,-0.89 -0.01,-1.02 -0.12,-1.20 -0.23,-1.38 -0.28,-1.59 -0.33,-1.80 -0.31,-2.01 -0.29,-2.22 -0.20,-2.42 -0.11,-2.61 0.02,-2.76 0.17,-2.92 0.35,-3.02 0.54,-3.12 0.75,-3.16 0.96,-3.20 1.17,-3.16 1.38,-3.13 1.57,-3.03 1.76,-2.94 1.91,-2.78 2.05,-2.63 2.14,-2.44 2.23,-2.25 2.26,-2.03 2.28,-1.82 2.24,-1.62 2.20,-1.41 2.09,-1.22 1.98,-1.04 1.82,-0.90 1.66,-0.76 1.46,-0.68 1.27,-0.60 1.05,-0.59 0.84,-0.58 0.64,-0.63 0.43,-0.69 0.26,-0.80 0.08,-0.92 -0.04,-1.09 -0.17,-1.26 -0.24,-1.46 -0.31,-1.66 -0.31,-1.87 -0.32,-2.08 -0.25,-2.28 -0.18,-2.49 -0.18,-2.49 -0.18,-2.49 0.80,-4.81 1.80,-7.13 3.23,-7.83 4.67,-8.54 6.16,-9.18 7.66,-9.81 8.65,-10.86 9.64,-11.91 10.97,-13.35 12.30,-14.79 12.92,-15.76 13.54,-16.74 14.50,-17.79 15.46,-18.83 16.48,-20.79 17.51,-22.74 18.19,-24.05 18.86,-25.36 19.47,-26.87 20.08,-28.37 20.56,-29.45 21.03,-30.53 21.64,-31.55 22.26,-32.57 22.67,-34.53 23.08,-36.49 23.75,-37.99 24.42,-39.49 24.84,-40.77 25.26,-42.05 25.38,-43.72 25.50,-45.38 25.90,-47.17 26.30,-48.96 26.33,-50.47 26.35,-51.99 26.37,-53.56 26.39,-55.14 26.40,-56.36 26.41,-57.58 26.14,-58.73 25.88,-59.89 25.66,-60.97 25.45,-62.04 24.99,-63.03 24.54,-64.02 24.09,-65.15 23.64,-66.28 22.90,-67.86 22.15,-69.44 20.92,-70.30 19.69,-71.17 18.70,-72.21 17.72,-73.26 16.71,-74.39 15.70,-75.52 15.07,-76.89 14.44,-78.27 14.03,-79.41 13.62,-80.56 13.09,-81.72 12.56,-82.87 12.15,-83.86 11.73,-84.85 11.59,-86.46 11.46,-88.07 11.16,-89.99 10.87,-91.91 10.89,-93.32 10.91,-94.73 10.92,-96.23 10.94,-97.73 10.95,-99.23 10.97,-100.72 10.99,-102.18 11.01,-103.64 10.96,-103.90 10.90,-104.16 10.91,-104.42 10.93,-104.68 11.00,-104.93 11.07,-105.19 11.20,-105.41 11.33,-105.64 11.51,-105.83 11.70,-106.02 11.92,-106.16 12.14,-106.30 12.39,-106.38 12.64,-106.47 12.90,-106.49 13.16,-106.51 13.42,-106.47 13.68,-106.42 13.92,-106.32 14.16,-106.22 14.37,-106.06 14.58,-105.90 14.75,-105.70 14.91,-105.50 15.03,-105.26 15.14,-105.02 15.61,-104.05 16.09,-103.09 16.36,-101.81 16.63,-100.53 17.16,-98.52 17.69,-96.52 18.14,-94.87 18.59,-93.23 18.58,-92.16 18.56,-91.10 18.46,-89.81 18.37,-88.52 17.83,-86.49 17.30,-84.47 16.78,-82.98 16.26,-81.50 15.76,-80.44 15.25,-79.38 14.68,-77.82 14.10,-76.25 13.28,-74.84 12.46,-73.43 11.84,-72.44 11.21,-71.45 10.37,-70.42 9.53,-69.40 8.99,-68.42 8.46,-67.44 7.82,-66.44 7.19,-65.45 6.33,-64.45 5.47,-63.46 4.83,-62.47 4.18,-61.48 3.17,-60.40 2.15,-59.31 1.47,-58.01 0.79,-56.71 0.04,-55.12 -0.69,-53.54 -1.41,-52.66 -2.13,-51.78 -2.82,-50.31 -3.52,-48.84 -3.82,-47.38 -4.12,-45.92 -4.39,-44.76 -4.67,-43.59 -5.17,-42.05 -5.68,-40.51 -6.14,-39.38 -6.61,-38.24 -7.00,-36.08 -7.39,-33.92 -7.39,-32.14 -7.39,-30.37 -7.39,-28.72 -7.39,-27.08 -7.40,-25.67 -7.40,-24.26 -7.40,-22.78 -7.40,-21.30 -7.37,-19.88 -7.34,-18.45 -6.91,-17.44 -6.47,-16.42 -6.43,-14.91 -6.39,-13.41 -5.84,-12.07 -5.28,-10.73 -4.91,-9.18 -4.54,-7.63 -3.61,-6.22 -2.68,-4.82 -1.78,-3.72 -0.88,-2.62 -0.21,-1.98 0.45,-1.35 0.60,-1.27 0.76,-1.20 0.89,-1.09 1.02,-0.98 1.13,-0.84 1.23,-0.71 1.30,-0.55 1.36,-0.39 1.39,-0.22 1.42,-0.05 1.40,0.11 1.39,0.28 1.34,0.44 1.28,0.61 1.19,0.75 1.10,0.90 0.97,1.01 0.85,1.13 0.70,1.22 0.55,1.31 0.39,1.35 0.22,1.40 0.05,1.41 -0.11,1.41 -0.28,1.38 -0.45,1.35 -0.45,1.35 L -0.45,1.35 Z"></path></g><g transform="translate(441 337) rotate(0 -2 -30.5)" stroke="none"><path fill="#f08c00" d="M 0.50,1.51 Q 0.50,1.51 -0.28,2.01 -1.07,2.51 -2.18,2.59 -3.28,2.67 -4.31,2.23 -5.34,1.79 -6.15,0.91 -6.95,0.03 -7.75,-0.73 -8.55,-1.50 -9.13,-2.56 -9.72,-3.62 -10.44,-4.73 -11.15,-5.84 -11.67,-6.95 -12.18,-8.06 -12.56,-9.52 -12.94,-10.98 -13.38,-12.36 -13.81,-13.75 -13.91,-14.96 -14.02,-16.16 -14.02,-18.03 -14.02,-19.91 -13.65,-20.91 -13.28,-21.92 -12.74,-23.11 -12.21,-24.31 -11.69,-25.35 -11.17,-26.40 -10.17,-27.52 -9.16,-28.64 -8.16,-30.05 -7.16,-31.47 -6.16,-32.96 -5.17,-34.45 -4.30,-35.67 -3.43,-36.88 -2.39,-38.54 -1.36,-40.20 -0.79,-41.43 -0.22,-42.67 0.30,-43.75 0.83,-44.83 1.33,-45.83 1.82,-46.83 2.31,-48.07 2.79,-49.32 2.86,-50.78 2.93,-52.25 2.55,-53.47 2.16,-54.69 2.08,-55.86 2.01,-57.03 1.52,-58.53 1.03,-60.04 0.71,-60.81 0.40,-61.59 0.41,-61.83 0.43,-62.08 0.51,-62.31 0.59,-62.55 0.72,-62.75 0.85,-62.96 1.02,-63.13 1.20,-63.31 1.41,-63.43 1.62,-63.55 1.86,-63.62 2.10,-63.69 2.34,-63.70 2.59,-63.72 2.83,-63.67 3.07,-63.62 3.29,-63.52 3.52,-63.41 3.71,-63.26 3.90,-63.10 4.05,-62.91 4.20,-62.71 4.29,-62.48 4.39,-62.26 4.43,-62.02 4.47,-61.77 4.27,-60.66 4.06,-59.55 3.62,-58.13 3.18,-56.70 3.50,-55.44 3.81,-54.18 3.91,-53.00 4.00,-51.82 4.42,-49.70 4.85,-47.58 5.33,-46.10 5.82,-44.63 6.30,-43.51 6.77,-42.39 7.77,-40.86 8.76,-39.32 9.33,-37.81 9.91,-36.29 10.05,-35.07 10.19,-33.84 10.24,-32.29 10.30,-30.74 10.32,-29.24 10.35,-27.73 9.93,-26.17 9.51,-24.60 9.14,-23.05 8.77,-21.49 8.28,-19.92 7.79,-18.35 7.21,-16.95 6.62,-15.55 6.11,-14.49 5.60,-13.42 5.16,-12.06 4.73,-10.70 4.20,-9.53 3.68,-8.36 3.19,-7.32 2.69,-6.27 2.21,-4.79 1.73,-3.30 0.71,-2.08 -0.30,-0.86 -1.75,0.16 -3.20,1.19 -4.28,1.16 -5.35,1.12 -5.56,1.05 -5.77,0.97 -5.93,1.15 -6.10,1.33 -6.30,1.47 -6.50,1.61 -6.73,1.69 -6.96,1.78 -7.20,1.81 -7.45,1.84 -7.69,1.80 -7.93,1.77 -8.16,1.69 -8.39,1.60 -8.59,1.46 -8.79,1.32 -8.95,1.13 -9.11,0.95 -9.23,0.73 -9.34,0.51 -9.40,0.28 -9.45,0.04 -9.45,-0.20 -9.45,-0.44 -9.39,-0.68 -9.33,-0.92 -9.22,-1.13 -9.10,-1.35 -6.11,-1.37 -3.12,-1.39 -2.92,-1.35 -2.71,-1.31 -2.52,-1.21 -2.34,-1.10 -2.19,-0.94 -2.05,-0.78 -1.97,-0.59 -1.88,-0.39 -1.87,-0.18 -1.85,0.02 -1.90,0.22 -1.95,0.43 -2.06,0.61 -2.18,0.79 -2.34,0.92 -2.51,1.06 -2.71,1.13 -2.91,1.20 -3.12,1.21 -3.33,1.22 -3.54,1.15 -3.74,1.09 -3.91,0.97 -4.09,0.84 -4.21,0.67 -4.33,0.50 -4.40,0.30 -4.46,0.09 -4.45,-0.11 -4.45,-0.32 -4.37,-0.52 -4.30,-0.72 -4.17,-0.89 -4.04,-1.05 -3.86,-1.17 -3.68,-1.28 -3.47,-1.33 -3.27,-1.38 -3.05,-1.37 -2.84,-1.35 -2.65,-1.27 -2.45,-1.18 -2.29,-1.04 -2.14,-0.90 -2.03,-0.72 -1.93,-0.53 -1.89,-0.32 -1.84,-0.11 -1.87,0.09 -1.90,0.30 -2.00,0.49 -2.09,0.68 -2.24,0.83 -2.39,0.98 -2.58,1.07 -2.77,1.17 -2.98,1.20 -3.19,1.23 -3.19,1.23 -3.19,1.23 -4.48,1.10 -5.77,0.97 -5.93,1.15 -6.10,1.33 -6.30,1.47 -6.50,1.61 -6.73,1.69 -6.96,1.78 -7.20,1.81 -7.45,1.84 -7.69,1.80 -7.93,1.77 -8.16,1.69 -8.39,1.60 -8.59,1.46 -8.79,1.32 -8.95,1.13 -9.11,0.95 -9.23,0.73 -9.34,0.51 -9.40,0.28 -9.45,0.04 -9.45,-0.20 -9.45,-0.44 -9.39,-0.68 -9.33,-0.92 -9.22,-1.13 -9.10,-1.35 -8.82,-1.72 -8.53,-2.09 -6.86,-2.90 -5.18,-3.70 -4.32,-4.59 -3.45,-5.48 -2.88,-6.48 -2.31,-7.49 -1.78,-8.50 -1.26,-9.52 -0.73,-10.52 -0.21,-11.51 0.27,-12.59 0.77,-13.67 1.31,-15.08 1.85,-16.49 2.34,-17.52 2.83,-18.55 3.33,-20.03 3.83,-21.51 4.32,-23.02 4.80,-24.54 5.23,-25.71 5.66,-26.89 5.66,-28.31 5.66,-29.73 5.69,-31.21 5.72,-32.69 5.72,-34.12 5.71,-35.54 5.45,-36.63 5.19,-37.72 4.46,-38.68 3.73,-39.64 3.19,-40.81 2.64,-41.98 2.15,-43.50 1.65,-45.01 1.17,-46.54 0.69,-48.06 0.32,-49.06 -0.05,-50.06 -0.09,-51.67 -0.14,-53.29 -0.52,-54.52 -0.89,-55.75 -0.43,-57.31 0.01,-58.87 0.20,-60.23 0.40,-61.59 0.41,-61.83 0.43,-62.08 0.51,-62.31 0.59,-62.55 0.72,-62.75 0.85,-62.96 1.02,-63.13 1.20,-63.31 1.41,-63.43 1.62,-63.55 1.86,-63.62 2.10,-63.69 2.34,-63.70 2.59,-63.72 2.83,-63.67 3.07,-63.62 3.29,-63.52 3.52,-63.41 3.71,-63.26 3.90,-63.10 4.05,-62.91 4.20,-62.71 4.29,-62.48 4.39,-62.26 4.43,-62.02 4.47,-61.77 4.61,-61.86 4.74,-61.95 4.96,-60.85 5.17,-59.75 5.61,-58.58 6.04,-57.42 6.19,-55.97 6.35,-54.52 6.69,-53.39 7.03,-52.26 6.99,-51.14 6.95,-50.02 6.42,-48.47 5.90,-46.92 5.52,-45.51 5.15,-44.11 4.64,-43.08 4.13,-42.06 3.57,-40.89 3.01,-39.72 2.03,-38.20 1.05,-36.69 0.54,-35.74 0.02,-34.79 -1.18,-33.15 -2.40,-31.52 -3.42,-29.99 -4.45,-28.47 -5.34,-27.17 -6.22,-25.87 -7.04,-24.98 -7.85,-24.10 -8.31,-23.12 -8.78,-22.14 -9.37,-20.95 -9.97,-19.76 -9.94,-18.53 -9.92,-17.30 -9.86,-16.03 -9.80,-14.76 -9.36,-13.62 -8.92,-12.47 -8.82,-11.39 -8.72,-10.30 -8.13,-9.07 -7.54,-7.84 -6.69,-6.23 -5.83,-4.61 -4.90,-3.69 -3.97,-2.76 -3.17,-2.06 -2.37,-1.36 -1.43,-1.43 -0.50,-1.51 -0.31,-1.54 -0.12,-1.58 0.06,-1.57 0.25,-1.57 0.44,-1.51 0.62,-1.46 0.79,-1.36 0.95,-1.27 1.09,-1.13 1.23,-1.00 1.33,-0.84 1.43,-0.68 1.49,-0.49 1.56,-0.31 1.57,-0.12 1.59,0.06 1.56,0.25 1.52,0.44 1.45,0.62 1.37,0.79 1.26,0.95 1.14,1.10 0.99,1.22 0.85,1.34 0.67,1.42 0.50,1.51 0.50,1.51 L 0.50,1.51 Z"></path></g><g stroke-linecap="round"><g transform="translate(378 258) rotate(0 -138.5 0.5)"><path d="M0.46 -0.68 C-45.75 -0.8, -229.95 -0.34, -276.06 0.05 M-0.76 1.58 C-47.14 1.51, -230.55 1.41, -276.52 1.09" stroke="#1e1e1e" stroke-width="1" fill="none"></path></g></g><mask></mask><g stroke-linecap="round"><g transform="translate(363 244) rotate(0 -148 -1.5)"><path d="M0.94 -0.95 C-48.34 -1.23, -245.88 -1.97, -295.19 -2.36 M-0.03 1.16 C-49.43 0.59, -246.53 -3.6, -295.71 -4.14" stroke="#1e1e1e" stroke-width="1" fill="none"></path></g></g><mask></mask><g stroke-linecap="round"><g transform="translate(98 261) rotate(0 1.5 101)"><path d="M0.81 0.64 C1.33 34.42, 3.64 168.31, 4.06 201.74 M-0.22 -0.07 C0.15 33.98, 3.17 169.43, 3.67 203.13" stroke="#1e1e1e" stroke-width="1" fill="none"></path></g></g><mask></mask><g stroke-linecap="round"><g transform="translate(65 243) rotate(0 -0.5 111.5)"><path d="M1.06 -0.26 C0.82 36.66, -0.22 185.02, -0.63 222.22 M0.16 -1.45 C-0.28 35.56, -0.96 185.73, -1.38 223.35" stroke="#1e1e1e" stroke-width="1" fill="none"></path></g></g><mask></mask><g stroke-linecap="round" transform="translate(165 534) rotate(0 79.5 13)"><path d="M6.5 0 C61.92 -1.13, 119.87 -1.99, 152.5 0 M6.5 0 C63.94 -1.25, 120.75 -0.44, 152.5 0 M152.5 0 C157.59 1.28, 160.59 0.46, 159 6.5 M152.5 0 C157.13 -1.73, 160.51 0.09, 159 6.5 M159 6.5 C158.51 11, 159.58 14.87, 159 19.5 M159 6.5 C159.68 10.71, 159.09 13.32, 159 19.5 M159 19.5 C159.06 23.79, 157.75 27.11, 152.5 26 M159 19.5 C158.97 24.25, 157.8 28, 152.5 26 M152.5 26 C103.59 24.58, 54.64 26.04, 6.5 26 M152.5 26 C120.45 25.09, 86.24 26.46, 6.5 26 M6.5 26 C2.03 24.56, 0.93 22.93, 0 19.5 M6.5 26 C1.69 25.88, 2.28 25.16, 0 19.5 M0 19.5 C-0.59 16.81, -0.88 12.77, 0 6.5 M0 19.5 C-0.53 14.42, 0.01 9.1, 0 6.5 M0 6.5 C1.59 3.33, 2.89 -0.59, 6.5 0 M0 6.5 C-1.9 3.08, 0.64 -2.03, 6.5 0" stroke="#1e1e1e" stroke-width="1" fill="none"></path></g><g stroke-linecap="round" transform="translate(10 461) rotate(0 67.5 59.5)"><path d="M29.75 0 C54.66 -1.28, 81.5 1.51, 105.25 0 M29.75 0 C54.5 0.58, 78.81 1.34, 105.25 0 M105.25 0 C126.67 -1.71, 135.26 8.41, 135 29.75 M105.25 0 C126.59 -2.08, 135.52 8.55, 135 29.75 M135 29.75 C135.83 47.62, 134.31 67.29, 135 89.25 M135 29.75 C135.48 52.03, 135.54 75.28, 135 89.25 M135 89.25 C135.91 110.19, 125.06 119.37, 105.25 119 M135 89.25 C135.97 111.09, 125.96 118.84, 105.25 119 M105.25 119 C90.54 120.39, 72.64 120.29, 29.75 119 M105.25 119 C84.01 119.44, 63.82 117.88, 29.75 119 M29.75 119 C10.84 118.1, -0.42 108.98, 0 89.25 M29.75 119 C12.2 120.33, -1.82 108.18, 0 89.25 M0 89.25 C-1.13 73.38, 1.86 59.84, 0 29.75 M0 89.25 C0.48 65.36, 1.32 43.79, 0 29.75 M0 29.75 C0.72 9.33, 8.26 0.79, 29.75 0 M0 29.75 C-1.53 7.89, 10.52 -2, 29.75 0" stroke="#1e1e1e" stroke-width="1" fill="none"></path></g><g transform="translate(77 521) rotate(0 1.5 7.5)" stroke="none"><path fill="#1e1e1e" d="M -0.84,-1.13 Q -0.84,-1.13 1.23,-3.15 3.30,-5.17 4.54,-6.16 5.77,-7.16 6.74,-8.33 7.71,-9.49 8.90,-10.47 10.09,-11.44 10.95,-12.52 11.82,-13.59 12.56,-14.42 13.30,-15.26 14.91,-16.60 16.51,-17.95 17.43,-18.78 18.35,-19.61 19.11,-20.50 19.88,-21.39 21.08,-22.42 22.27,-23.46 23.23,-24.91 24.18,-26.36 25.19,-27.86 26.20,-29.35 26.42,-29.88 26.64,-30.40 26.89,-30.51 27.14,-30.62 27.41,-30.67 27.68,-30.72 27.95,-30.70 28.23,-30.68 28.49,-30.60 28.75,-30.51 28.98,-30.37 29.21,-30.23 29.40,-30.03 29.59,-29.84 29.73,-29.60 29.87,-29.36 29.95,-29.10 30.03,-28.84 30.05,-28.57 30.06,-28.30 30.01,-28.03 29.96,-27.76 29.84,-27.51 29.73,-27.26 29.56,-27.05 29.39,-26.84 29.17,-26.67 28.95,-26.50 27.85,-28.32 26.75,-30.15 27.00,-30.26 27.25,-30.37 27.52,-30.41 27.79,-30.46 28.07,-30.44 28.34,-30.42 28.60,-30.34 28.86,-30.25 29.10,-30.11 29.33,-29.97 29.52,-29.77 29.71,-29.58 29.85,-29.34 29.99,-29.10 30.07,-28.84 30.15,-28.58 30.17,-28.31 30.18,-28.03 30.13,-27.76 30.08,-27.49 29.96,-27.24 29.85,-27.00 29.68,-26.78 29.50,-26.57 29.29,-26.40 29.07,-26.23 27.85,-24.77 26.64,-23.32 25.73,-22.41 24.83,-21.51 24.10,-19.95 23.37,-18.38 22.39,-17.29 21.40,-16.19 21.03,-15.17 20.65,-14.15 20.08,-13.10 19.51,-12.05 19.00,-10.78 18.50,-9.50 17.99,-8.46 17.49,-7.41 17.00,-6.40 16.50,-5.39 16.12,-4.28 15.73,-3.16 15.16,-2.08 14.59,-1.00 13.97,0.16 13.34,1.33 12.74,2.33 12.14,3.34 11.33,4.59 10.52,5.83 9.74,6.69 8.96,7.56 10.00,8.11 11.04,8.66 12.17,9.22 13.31,9.79 14.29,10.39 15.27,11.00 16.74,13.28 18.22,15.57 17.39,16.80 16.56,18.03 15.04,19.08 13.52,20.12 12.08,21.12 10.65,22.11 9.54,22.86 8.44,23.60 7.00,24.59 5.56,25.57 4.44,26.12 3.32,26.67 2.02,27.46 0.72,28.25 -0.33,28.81 -1.40,29.37 -2.83,30.34 -4.26,31.31 -5.32,31.86 -6.39,32.41 -7.75,33.78 -9.11,35.16 -10.04,36.05 -10.96,36.95 -11.89,37.49 -12.81,38.02 -14.06,39.16 -15.31,40.30 -16.60,41.16 -17.89,42.01 -18.77,42.85 -19.65,43.69 -20.82,44.33 -21.98,44.97 -21.96,44.94 -21.93,44.92 -22.10,45.21 -22.28,45.50 -22.52,45.74 -22.76,45.97 -23.04,46.15 -23.33,46.32 -23.65,46.42 -23.97,46.52 -24.31,46.54 -24.64,46.56 -24.97,46.50 -25.31,46.43 -25.61,46.30 -25.92,46.16 -26.18,45.95 -26.45,45.74 -26.65,45.48 -26.86,45.21 -27.00,44.90 -27.13,44.60 -27.19,44.27 -27.25,43.94 -27.23,43.60 -27.21,43.27 -27.11,42.95 -27.01,42.62 -25.76,42.16 -24.51,41.69 -23.69,40.95 -22.88,40.20 -22.06,39.36 -21.24,38.51 -20.37,37.69 -19.49,36.86 -18.51,35.89 -17.52,34.92 -16.52,33.94 -15.52,32.95 -14.51,31.95 -13.51,30.96 -11.40,29.82 -9.29,28.68 -9.18,28.50 -9.06,28.32 -8.89,28.19 -8.72,28.06 -8.52,27.99 -8.32,27.92 -8.11,27.92 -7.90,27.92 -7.69,27.99 -7.49,28.05 -7.32,28.18 -7.15,28.31 -7.03,28.48 -6.91,28.66 -6.85,28.86 -6.79,29.06 -6.80,29.28 -6.81,29.49 -6.89,29.69 -6.96,29.89 -7.10,30.05 -7.24,30.21 -7.42,30.32 -7.60,30.43 -7.81,30.48 -8.01,30.53 -8.22,30.51 -8.44,30.49 -8.63,30.40 -8.82,30.31 -8.98,30.17 -9.13,30.02 -9.24,29.84 -9.34,29.65 -9.37,29.44 -9.41,29.23 -9.38,29.02 -9.34,28.81 -9.25,28.62 -9.15,28.43 -9.00,28.29 -8.84,28.14 -8.65,28.05 -8.46,27.96 -8.25,27.93 -8.04,27.91 -7.83,27.95 -7.62,27.99 -7.44,28.10 -7.25,28.21 -7.12,28.37 -6.98,28.53 -6.90,28.73 -6.82,28.92 -6.80,29.14 -6.79,29.35 -6.84,29.55 -6.90,29.76 -6.90,29.76 -6.90,29.76 -7.96,31.65 -9.03,33.54 -9.99,34.53 -10.95,35.52 -11.95,36.52 -12.94,37.53 -13.94,38.53 -14.94,39.53 -15.95,40.52 -16.96,41.52 -18.11,42.22 -19.25,42.91 -20.37,44.08 -21.49,45.26 -22.69,45.68 -23.88,46.11 -22.91,45.52 -21.93,44.92 -22.10,45.21 -22.28,45.50 -22.52,45.74 -22.76,45.97 -23.04,46.15 -23.33,46.32 -23.65,46.42 -23.97,46.52 -24.31,46.54 -24.64,46.56 -24.97,46.50 -25.31,46.43 -25.61,46.30 -25.92,46.16 -26.18,45.95 -26.45,45.74 -26.65,45.48 -26.86,45.21 -27.00,44.90 -27.13,44.60 -27.19,44.27 -27.25,43.94 -27.23,43.60 -27.21,43.27 -27.11,42.95 -27.01,42.62 -25.91,41.72 -24.82,40.82 -23.33,39.82 -21.84,38.81 -20.50,37.53 -19.17,36.25 -18.03,35.20 -16.89,34.15 -15.83,33.51 -14.77,32.87 -13.37,31.87 -11.97,30.87 -10.92,29.53 -9.87,28.19 -8.86,27.69 -7.86,27.19 -6.35,26.20 -4.85,25.22 -3.83,24.72 -2.82,24.22 -1.87,23.73 -0.92,23.24 0.58,22.20 2.10,21.15 3.21,20.68 4.32,20.20 5.76,19.29 7.20,18.38 8.64,17.42 10.07,16.47 11.30,15.57 12.52,14.67 13.49,14.03 14.46,13.40 14.55,14.68 14.63,15.96 13.61,15.45 12.58,14.95 10.97,13.90 9.35,12.85 7.98,11.81 6.61,10.77 5.92,9.48 5.24,8.20 5.09,6.88 4.94,5.55 5.89,4.06 6.85,2.56 7.36,1.54 7.88,0.53 8.68,-0.81 9.48,-2.16 10.05,-3.23 10.62,-4.30 11.26,-5.36 11.90,-6.42 12.42,-7.44 12.93,-8.45 13.42,-9.43 13.91,-10.41 14.48,-11.99 15.04,-13.57 15.74,-14.87 16.44,-16.16 17.21,-17.72 17.99,-19.27 19.02,-20.35 20.05,-21.42 20.60,-22.43 21.14,-23.45 22.12,-24.81 23.09,-26.18 24.07,-27.22 25.04,-28.26 25.90,-29.20 26.75,-30.15 27.00,-30.26 27.25,-30.37 27.52,-30.41 27.79,-30.46 28.07,-30.44 28.34,-30.42 28.60,-30.34 28.86,-30.25 29.10,-30.11 29.33,-29.97 29.52,-29.77 29.71,-29.58 29.85,-29.34 29.99,-29.10 30.07,-28.84 30.15,-28.58 30.17,-28.31 30.18,-28.03 30.13,-27.76 30.08,-27.49 29.96,-27.25 29.85,-27.00 29.68,-26.78 29.50,-26.57 29.29,-26.40 29.07,-26.23 27.86,-28.32 26.64,-30.40 26.89,-30.51 27.14,-30.62 27.41,-30.67 27.68,-30.72 27.95,-30.70 28.23,-30.68 28.49,-30.60 28.75,-30.51 28.98,-30.37 29.21,-30.23 29.40,-30.03 29.59,-29.84 29.73,-29.60 29.87,-29.37 29.95,-29.10 30.03,-28.84 30.05,-28.57 30.06,-28.30 30.01,-28.03 29.96,-27.76 29.84,-27.51 29.73,-27.26 29.56,-27.05 29.39,-26.84 29.17,-26.67 28.95,-26.50 28.82,-26.47 28.68,-26.45 28.09,-25.37 27.49,-24.30 26.85,-23.16 26.21,-22.02 25.35,-21.15 24.48,-20.28 23.64,-19.03 22.80,-17.78 21.50,-16.84 20.19,-15.91 18.94,-14.73 17.70,-13.56 16.42,-12.18 15.15,-10.80 13.98,-9.43 12.81,-8.07 11.90,-7.37 10.99,-6.66 9.73,-5.24 8.48,-3.81 7.18,-2.77 5.89,-1.72 3.36,-0.29 0.84,1.13 0.70,1.21 0.55,1.30 0.38,1.34 0.22,1.39 0.05,1.40 -0.11,1.40 -0.28,1.37 -0.44,1.34 -0.60,1.26 -0.75,1.19 -0.88,1.08 -1.02,0.97 -1.12,0.84 -1.22,0.70 -1.29,0.54 -1.35,0.39 -1.38,0.22 -1.41,0.05 -1.39,-0.11 -1.38,-0.28 -1.33,-0.44 -1.27,-0.60 -1.18,-0.75 -1.09,-0.89 -0.97,-1.01 -0.84,-1.13 -0.84,-1.13 L -0.84,-1.13 Z"></path></g><g transform="translate(81 538) rotate(0 0.00005000000000165983 0.00005000000000165983)" stroke="none"><path fill="#1e1e1e" d="M 2.12,-2.12 Q 2.12,-2.12 2.40,-1.73 2.69,-1.33 2.83,-0.87 2.97,-0.40 2.96,0.08 2.95,0.56 2.78,1.02 2.61,1.47 2.31,1.85 2.00,2.23 1.59,2.49 1.18,2.76 0.71,2.87 0.24,2.99 -0.24,2.95 -0.72,2.91 -1.17,2.72 -1.61,2.53 -1.98,2.20 -2.34,1.88 -2.58,1.45 -2.82,1.03 -2.91,0.55 -3.00,0.08 -2.93,-0.40 -2.87,-0.88 -2.65,-1.31 -2.44,-1.75 -2.09,-2.09 -1.75,-2.44 -1.31,-2.65 -0.88,-2.87 -0.39,-2.93 0.08,-3.00 0.55,-2.91 1.03,-2.82 1.46,-2.58 1.88,-2.34 2.20,-1.97 2.53,-1.61 2.72,-1.17 2.91,-0.72 2.95,-0.23 2.99,0.24 2.87,0.71 2.76,1.18 2.49,1.59 2.23,2.00 1.85,2.31 1.47,2.61 1.02,2.78 0.56,2.95 0.07,2.96 -0.40,2.97 -0.87,2.83 -1.33,2.69 -1.73,2.40 -2.12,2.12 -2.12,2.12 -2.12,2.12 -2.34,1.83 -2.57,1.55 -2.72,1.22 -2.86,0.89 -2.93,0.53 -2.99,0.18 -2.97,-0.18 -2.95,-0.54 -2.84,-0.88 -2.74,-1.23 -2.55,-1.54 -2.36,-1.85 -2.10,-2.10 -1.85,-2.36 -1.54,-2.55 -1.23,-2.74 -0.88,-2.84 -0.54,-2.95 -0.17,-2.97 0.18,-2.99 0.53,-2.93 0.89,-2.86 1.22,-2.72 1.55,-2.57 1.84,-2.34 2.12,-2.12 2.12,-2.12 L 2.12,-2.12 Z"></path></g><g transform="translate(84 540) rotate(0 -5 -11.5)" stroke="none"><path fill="#1e1e1e" d="M -0.81,1.22 Q -0.81,1.22 -1.93,1.04 -3.05,0.86 -4.29,0.24 -5.54,-0.36 -6.70,-0.75 -7.87,-1.13 -8.95,-1.70 -10.04,-2.26 -11.21,-2.89 -12.39,-3.52 -13.60,-4.77 -14.81,-6.01 -15.07,-5.77 -15.34,-5.53 -15.61,-5.69 -15.88,-5.84 -16.10,-6.05 -16.32,-6.27 -16.49,-6.53 -16.66,-6.79 -16.76,-7.08 -16.86,-7.37 -16.88,-7.68 -16.91,-7.99 -16.86,-8.30 -16.82,-8.60 -16.70,-8.89 -16.58,-9.17 -16.39,-9.42 -16.21,-9.67 -15.97,-9.87 -15.73,-10.06 -15.45,-10.20 -15.17,-10.33 -14.87,-10.39 -14.57,-10.46 -14.26,-10.45 -13.95,-10.44 -13.65,-10.35 -13.35,-10.27 -11.89,-9.91 -10.42,-9.56 -9.30,-9.17 -8.17,-8.78 -6.23,-8.28 -4.30,-7.77 -2.42,-7.17 -0.54,-6.58 0.98,-6.06 2.51,-5.54 3.23,-5.22 3.96,-4.91 4.25,-4.84 4.54,-4.77 4.80,-4.64 5.06,-4.50 5.29,-4.30 5.51,-4.11 5.68,-3.87 5.86,-3.62 5.96,-3.34 6.07,-3.07 6.11,-2.77 6.15,-2.48 6.12,-2.18 6.08,-1.89 5.98,-1.61 5.88,-1.33 5.71,-1.08 5.54,-0.83 5.32,-0.64 5.10,-0.44 4.84,-0.30 4.58,-0.16 4.29,-0.08 4.00,-0.01 3.70,-0.00 3.40,-0.00 3.77,-2.61 4.14,-5.22 4.43,-5.15 4.72,-5.08 4.98,-4.95 5.25,-4.81 5.47,-4.61 5.69,-4.42 5.87,-4.18 6.04,-3.93 6.14,-3.65 6.25,-3.38 6.29,-3.08 6.33,-2.79 6.30,-2.49 6.26,-2.20 6.16,-1.92 6.06,-1.64 5.89,-1.39 5.72,-1.15 5.50,-0.95 5.28,-0.75 5.02,-0.61 4.76,-0.47 4.47,-0.39 4.18,-0.32 3.88,-0.32 3.59,-0.31 2.54,-0.68 1.50,-1.05 0.34,-1.77 -0.82,-2.50 -1.77,-2.97 -2.72,-3.45 -4.14,-4.37 -5.57,-5.29 -6.62,-5.85 -7.68,-6.41 -9.14,-7.69 -10.60,-8.97 -11.71,-9.40 -12.82,-9.84 -13.03,-10.05 -13.24,-10.26 -13.39,-10.51 -13.54,-10.77 -13.63,-11.05 -13.72,-11.34 -13.73,-11.63 -13.75,-11.93 -13.70,-12.22 -13.64,-12.52 -13.52,-12.79 -13.40,-13.06 -13.21,-13.29 -13.03,-13.52 -12.79,-13.71 -12.56,-13.89 -12.29,-14.01 -12.01,-14.13 -11.72,-14.18 -11.43,-14.24 -11.13,-14.22 -10.83,-14.20 -10.55,-14.11 -10.27,-14.02 -10.01,-13.86 -9.76,-13.71 -7.94,-13.13 -6.13,-12.55 -4.40,-11.55 -2.66,-10.54 -1.55,-9.99 -0.44,-9.44 1.09,-8.43 2.62,-7.41 3.71,-6.71 4.79,-6.01 4.97,-5.80 5.16,-5.59 5.29,-5.34 5.42,-5.09 5.49,-4.82 5.55,-4.55 5.55,-4.27 5.55,-4.00 5.49,-3.72 5.42,-3.45 5.29,-3.21 5.16,-2.96 4.97,-2.75 4.79,-2.54 4.56,-2.38 4.33,-2.23 4.07,-2.13 3.81,-2.03 3.53,-1.99 3.26,-1.96 2.98,-1.99 2.70,-2.03 2.44,-2.13 2.18,-2.23 1.95,-2.38 1.72,-2.54 3.09,-2.44 4.46,-2.34 2.81,-2.43 1.16,-2.53 -0.63,-2.98 -2.43,-3.43 -3.97,-3.94 -5.51,-4.45 -6.56,-4.95 -7.60,-5.46 -8.85,-5.68 -10.09,-5.90 -11.83,-6.69 -13.58,-7.49 -14.33,-9.77 -15.08,-12.05 -14.25,-12.92 -13.42,-13.80 -11.98,-14.80 -10.53,-15.80 -9.38,-16.87 -8.23,-17.94 -7.13,-18.60 -6.04,-19.26 -5.03,-19.77 -4.03,-20.29 -2.66,-21.25 -1.29,-22.20 -0.15,-22.74 0.97,-23.28 1.75,-23.62 2.53,-23.96 2.70,-24.17 2.87,-24.38 3.08,-24.55 3.30,-24.71 3.55,-24.82 3.79,-24.93 4.06,-24.97 4.33,-25.02 4.60,-25.00 4.87,-24.98 5.13,-24.89 5.38,-24.81 5.61,-24.66 5.84,-24.52 6.03,-24.33 6.22,-24.13 6.36,-23.90 6.49,-23.66 6.57,-23.40 6.65,-23.14 6.66,-22.87 6.67,-22.60 6.62,-22.34 6.57,-22.07 6.45,-21.83 6.34,-21.58 4.77,-21.21 3.20,-20.85 2.72,-19.89 2.25,-18.93 0.93,-18.05 -0.38,-17.17 -1.06,-16.18 -1.73,-15.20 -2.98,-14.32 -4.23,-13.44 -5.25,-12.46 -6.26,-11.48 -6.32,-12.67 -6.39,-13.87 -5.42,-14.86 -4.45,-15.86 -3.33,-16.95 -2.22,-18.05 -1.23,-18.94 -0.23,-19.83 0.98,-20.65 2.20,-21.48 2.52,-21.96 2.84,-22.44 3.09,-22.51 3.34,-22.58 3.60,-22.59 3.87,-22.60 4.12,-22.55 4.38,-22.49 4.62,-22.38 4.85,-22.27 5.05,-22.10 5.25,-21.93 5.41,-21.72 5.57,-21.51 5.67,-21.27 5.77,-21.03 5.81,-20.77 5.85,-20.51 5.83,-20.25 5.80,-19.99 5.72,-19.74 5.63,-19.49 5.49,-19.27 5.35,-19.05 5.16,-18.87 4.97,-18.69 4.74,-18.56 4.52,-18.43 5.19,-19.93 5.85,-21.43 5.65,-19.39 5.44,-17.35 4.46,-16.23 3.48,-15.10 2.48,-13.61 1.47,-12.11 0.23,-10.77 -1.01,-9.42 -2.03,-7.94 -3.05,-6.46 -3.31,-5.96 -3.56,-5.45 -3.83,-5.33 -4.10,-5.21 -4.38,-5.16 -4.67,-5.11 -4.96,-5.13 -5.26,-5.15 -5.54,-5.24 -5.81,-5.33 -6.06,-5.48 -6.31,-5.64 -6.52,-5.85 -6.72,-6.06 -6.87,-6.31 -7.02,-6.56 -7.11,-6.84 -7.19,-7.12 -7.21,-7.41 -7.22,-7.71 -7.17,-7.99 -7.11,-8.28 -6.99,-8.55 -6.87,-8.81 -6.68,-9.04 -6.50,-9.27 -6.27,-9.45 -6.04,-9.63 -5.76,-10.80 -5.48,-11.98 -4.95,-12.97 -4.43,-13.96 -3.76,-15.09 -3.09,-16.22 -2.42,-17.19 -1.75,-18.15 -1.58,-18.07 -1.41,-17.99 -1.35,-18.22 -1.29,-18.45 -1.17,-18.66 -1.06,-18.86 -0.90,-19.04 -0.74,-19.21 -0.54,-19.34 -0.34,-19.47 -0.12,-19.55 0.10,-19.63 0.33,-19.66 0.57,-19.68 0.80,-19.65 1.04,-19.62 1.26,-19.53 1.48,-19.44 1.67,-19.30 1.86,-19.16 2.02,-18.98 2.17,-18.80 2.28,-18.59 2.38,-18.38 2.44,-18.14 2.49,-17.91 2.48,-17.67 2.48,-17.44 1.46,-16.83 0.45,-16.21 -0.49,-15.45 -1.44,-14.68 -2.31,-13.83 -3.17,-12.97 -4.36,-12.71 -5.55,-12.46 -6.65,-11.43 -7.75,-10.41 -9.24,-9.97 -10.74,-9.53 -10.88,-9.37 -11.02,-9.21 -11.20,-9.10 -11.38,-8.99 -11.59,-8.95 -11.80,-8.90 -12.01,-8.92 -12.22,-8.95 -12.41,-9.04 -12.60,-9.13 -12.76,-9.27 -12.91,-9.42 -13.01,-9.61 -13.11,-9.79 -13.14,-10.00 -13.18,-10.21 -13.14,-10.42 -13.11,-10.63 -13.01,-10.82 -12.91,-11.01 -12.75,-11.15 -12.60,-11.30 -12.41,-11.39 -12.21,-11.48 -12.00,-11.50 -11.79,-11.52 -11.58,-11.48 -11.38,-11.43 -11.19,-11.32 -11.01,-11.21 -10.88,-11.05 -10.74,-10.89 -10.66,-10.69 -10.58,-10.49 -10.57,-10.28 -10.56,-10.07 -10.62,-9.86 -10.67,-9.66 -10.79,-9.48 -10.91,-9.31 -11.08,-9.18 -11.25,-9.05 -11.45,-8.98 -11.65,-8.91 -11.87,-8.92 -12.08,-8.92 -12.28,-8.98 -12.48,-9.05 -12.65,-9.18 -12.82,-9.31 -12.94,-9.49 -13.06,-9.66 -13.11,-9.87 -13.17,-10.07 -13.16,-10.28 -13.15,-10.50 -13.07,-10.69 -12.99,-10.89 -12.99,-10.89 -12.99,-10.89 -11.12,-12.24 -9.25,-13.58 -8.12,-14.65 -7.00,-15.72 -5.63,-16.15 -4.27,-16.58 -2.84,-17.28 -1.41,-17.99 -1.35,-18.22 -1.29,-18.45 -1.17,-18.66 -1.06,-18.86 -0.90,-19.04 -0.74,-19.21 -0.54,-19.34 -0.34,-19.47 -0.12,-19.55 0.10,-19.63 0.33,-19.66 0.57,-19.68 0.80,-19.65 1.04,-19.62 1.26,-19.53 1.48,-19.44 1.67,-19.30 1.86,-19.16 2.02,-18.98 2.17,-18.80 2.28,-18.59 2.38,-18.38 2.44,-18.14 2.49,-17.91 2.48,-17.68 2.48,-17.44 2.13,-16.55 1.78,-15.66 0.89,-14.11 0.00,-12.56 -0.46,-11.56 -0.93,-10.57 -1.88,-9.04 -2.82,-7.51 -3.19,-6.48 -3.56,-5.45 -3.83,-5.33 -4.09,-5.21 -4.38,-5.16 -4.67,-5.11 -4.96,-5.13 -5.26,-5.15 -5.54,-5.24 -5.81,-5.33 -6.06,-5.48 -6.31,-5.64 -6.52,-5.85 -6.72,-6.06 -6.87,-6.31 -7.02,-6.56 -7.11,-6.84 -7.19,-7.12 -7.21,-7.41 -7.22,-7.71 -7.17,-7.99 -7.11,-8.28 -6.99,-8.55 -6.87,-8.81 -6.68,-9.04 -6.50,-9.27 -6.27,-9.45 -6.04,-9.63 -5.95,-9.63 -5.87,-9.64 -5.28,-10.74 -4.68,-11.84 -3.89,-13.11 -3.10,-14.37 -2.03,-15.50 -0.96,-16.64 0.45,-17.79 1.87,-18.93 2.35,-20.69 2.84,-22.44 3.09,-22.51 3.34,-22.58 3.60,-22.59 3.87,-22.60 4.12,-22.55 4.38,-22.49 4.61,-22.38 4.85,-22.27 5.05,-22.10 5.25,-21.93 5.41,-21.72 5.57,-21.51 5.67,-21.27 5.77,-21.03 5.81,-20.77 5.85,-20.51 5.83,-20.25 5.80,-19.99 5.72,-19.74 5.63,-19.49 5.49,-19.27 5.35,-19.05 5.16,-18.87 4.97,-18.69 4.74,-18.56 4.52,-18.43 3.59,-17.57 2.66,-16.70 1.44,-15.62 0.21,-14.55 -0.70,-13.66 -1.62,-12.77 -2.55,-12.25 -3.48,-11.72 -4.50,-11.27 -5.52,-10.82 -7.34,-10.99 -9.16,-11.16 -8.34,-13.46 -7.53,-15.76 -6.34,-16.98 -5.15,-18.20 -4.43,-19.25 -3.72,-20.29 -2.77,-20.84 -1.82,-21.38 -0.79,-22.35 0.23,-23.31 1.28,-23.91 2.34,-24.50 3.75,-24.73 5.16,-24.95 3.84,-24.46 2.53,-23.96 2.70,-24.17 2.87,-24.38 3.08,-24.55 3.30,-24.71 3.55,-24.82 3.79,-24.93 4.06,-24.97 4.33,-25.02 4.60,-25.00 4.87,-24.98 5.13,-24.89 5.38,-24.81 5.61,-24.66 5.84,-24.52 6.03,-24.33 6.22,-24.13 6.36,-23.90 6.49,-23.66 6.57,-23.40 6.65,-23.14 6.66,-22.87 6.67,-22.60 6.62,-22.34 6.57,-22.07 6.45,-21.83 6.34,-21.58 5.25,-20.73 4.17,-19.88 2.97,-19.24 1.78,-18.60 0.75,-18.14 -0.27,-17.67 -1.65,-16.66 -3.03,-15.64 -4.13,-15.14 -5.24,-14.64 -6.31,-13.65 -7.39,-12.65 -8.79,-11.70 -10.20,-10.75 -11.25,-9.84 -12.29,-8.93 -11.62,-10.11 -10.94,-11.30 -9.44,-10.81 -7.95,-10.33 -6.43,-9.93 -4.91,-9.52 -3.90,-8.91 -2.88,-8.30 -1.37,-7.80 0.13,-7.30 0.94,-6.60 1.75,-5.89 3.27,-5.95 4.79,-6.01 4.97,-5.80 5.16,-5.59 5.29,-5.34 5.42,-5.09 5.49,-4.82 5.55,-4.55 5.55,-4.27 5.55,-4.00 5.49,-3.72 5.42,-3.45 5.29,-3.21 5.16,-2.96 4.97,-2.75 4.79,-2.54 4.56,-2.38 4.33,-2.23 4.07,-2.13 3.81,-2.03 3.53,-1.99 3.26,-1.96 2.98,-1.99 2.70,-2.03 2.44,-2.13 2.18,-2.23 1.95,-2.38 1.72,-2.54 0.57,-3.32 -0.56,-4.11 -2.02,-5.05 -3.47,-5.99 -4.56,-6.49 -5.65,-6.98 -6.90,-7.66 -8.15,-8.34 -9.18,-8.60 -10.22,-8.85 -11.52,-9.34 -12.82,-9.84 -13.03,-10.05 -13.24,-10.26 -13.39,-10.51 -13.54,-10.77 -13.63,-11.05 -13.72,-11.34 -13.73,-11.63 -13.75,-11.93 -13.70,-12.22 -13.64,-12.52 -13.52,-12.79 -13.40,-13.06 -13.21,-13.29 -13.03,-13.52 -12.79,-13.71 -12.56,-13.89 -12.29,-14.01 -12.01,-14.13 -11.72,-14.18 -11.43,-14.24 -11.13,-14.22 -10.83,-14.20 -10.55,-14.11 -10.27,-14.02 -10.01,-13.86 -9.76,-13.71 -9.29,-13.59 -8.83,-13.47 -7.95,-12.64 -7.08,-11.82 -5.92,-11.15 -4.77,-10.48 -3.68,-9.89 -2.59,-9.30 -1.21,-8.41 0.17,-7.51 1.14,-7.00 2.12,-6.48 3.13,-5.85 4.14,-5.22 4.43,-5.15 4.72,-5.08 4.98,-4.95 5.25,-4.81 5.47,-4.61 5.69,-4.42 5.87,-4.18 6.04,-3.93 6.14,-3.66 6.25,-3.38 6.29,-3.08 6.33,-2.79 6.30,-2.49 6.26,-2.20 6.16,-1.92 6.06,-1.64 5.89,-1.39 5.72,-1.15 5.50,-0.95 5.28,-0.75 5.02,-0.61 4.76,-0.47 4.47,-0.39 4.18,-0.32 3.88,-0.32 3.59,-0.31 3.77,-2.61 3.96,-4.91 4.25,-4.84 4.54,-4.77 4.80,-4.64 5.06,-4.50 5.29,-4.30 5.51,-4.11 5.68,-3.87 5.86,-3.62 5.96,-3.34 6.07,-3.07 6.11,-2.77 6.15,-2.48 6.12,-2.18 6.08,-1.89 5.98,-1.61 5.88,-1.33 5.71,-1.08 5.54,-0.83 5.32,-0.64 5.10,-0.44 4.84,-0.30 4.58,-0.16 4.29,-0.08 4.00,-0.01 3.70,-0.00 3.40,-0.00 2.52,-0.42 1.64,-0.84 0.13,-1.33 -1.36,-1.82 -2.90,-2.30 -4.44,-2.77 -5.77,-3.20 -7.10,-3.62 -8.62,-3.92 -10.13,-4.21 -11.47,-4.88 -12.80,-5.54 -14.07,-5.54 -15.34,-5.53 -15.61,-5.69 -15.88,-5.84 -16.10,-6.05 -16.32,-6.27 -16.49,-6.53 -16.66,-6.79 -16.76,-7.08 -16.86,-7.37 -16.88,-7.68 -16.91,-7.99 -16.86,-8.30 -16.82,-8.60 -16.70,-8.89 -16.58,-9.17 -16.39,-9.42 -16.21,-9.67 -15.97,-9.87 -15.73,-10.06 -15.45,-10.20 -15.17,-10.33 -14.87,-10.39 -14.57,-10.46 -14.26,-10.45 -13.95,-10.44 -13.65,-10.35 -13.35,-10.27 -12.21,-9.56 -11.06,-8.86 -9.69,-8.02 -8.32,-7.17 -7.04,-6.49 -5.76,-5.80 -4.27,-5.14 -2.78,-4.47 -1.59,-3.82 -0.39,-3.16 0.20,-2.19 0.81,-1.22 0.94,-1.10 1.08,-0.99 1.18,-0.84 1.28,-0.70 1.35,-0.53 1.42,-0.37 1.44,-0.19 1.46,-0.02 1.44,0.15 1.43,0.32 1.37,0.49 1.31,0.66 1.21,0.80 1.11,0.95 0.98,1.07 0.85,1.19 0.69,1.27 0.54,1.36 0.37,1.40 0.20,1.45 0.02,1.45 -0.15,1.46 -0.32,1.42 -0.49,1.38 -0.65,1.30 -0.81,1.22 -0.81,1.22 L -0.81,1.22 Z"></path></g><g transform="translate(80 535) rotate(0 -9.5 13)" stroke="none"><path fill="#1e1e1e" d="M 1.36,0.34 Q 1.36,0.34 1.48,1.60 1.59,2.85 1.09,3.88 0.59,4.90 -0.47,6.27 -1.55,7.65 -2.06,8.61 -2.58,9.56 -3.08,10.58 -3.59,11.59 -4.77,12.91 -5.94,14.23 -6.42,15.24 -6.91,16.26 -8.05,17.42 -9.19,18.59 -9.97,19.75 -10.75,20.91 -11.74,21.91 -12.74,22.92 -13.97,23.76 -15.20,24.60 -17.23,25.86 -19.26,27.11 -19.47,27.16 -19.67,27.21 -19.89,27.19 -20.10,27.17 -20.29,27.09 -20.49,27.00 -20.64,26.86 -20.80,26.72 -20.91,26.53 -21.01,26.35 -21.05,26.14 -21.09,25.93 -21.06,25.72 -21.03,25.51 -20.93,25.32 -20.84,25.13 -20.69,24.98 -20.54,24.83 -20.35,24.74 -20.15,24.64 -19.94,24.62 -19.73,24.59 -19.52,24.63 -19.32,24.67 -19.13,24.78 -18.95,24.88 -18.81,25.04 -18.66,25.20 -18.58,25.39 -18.50,25.59 -18.48,25.80 -18.47,26.01 -18.52,26.22 -18.57,26.43 -18.69,26.60 -18.80,26.78 -18.97,26.92 -19.13,27.05 -19.33,27.12 -19.53,27.19 -19.75,27.20 -19.96,27.20 -20.16,27.14 -20.36,27.08 -20.54,26.95 -20.71,26.83 -20.83,26.65 -20.95,26.48 -21.02,26.28 -21.08,26.07 -21.07,25.86 -21.06,25.65 -20.99,25.45 -20.91,25.25 -20.78,25.08 -20.65,24.92 -20.47,24.81 -20.29,24.69 -20.29,24.69 -20.29,24.69 -18.92,22.91 -17.54,21.12 -16.68,20.25 -15.82,19.38 -14.87,18.46 -13.93,17.53 -12.77,16.37 -11.61,15.21 -10.74,14.20 -9.86,13.20 -9.26,12.19 -8.66,11.17 -7.80,9.85 -6.93,8.53 -6.37,7.45 -5.80,6.37 -4.97,5.05 -4.13,3.72 -3.43,2.73 -2.74,1.74 -2.05,0.69 -1.36,-0.34 -1.30,-0.50 -1.24,-0.65 -1.14,-0.79 -1.05,-0.93 -0.92,-1.05 -0.79,-1.16 -0.64,-1.24 -0.49,-1.31 -0.33,-1.35 -0.16,-1.39 0.00,-1.39 0.17,-1.39 0.33,-1.35 0.50,-1.31 0.65,-1.23 0.80,-1.15 0.93,-1.04 1.05,-0.93 1.15,-0.79 1.25,-0.65 1.31,-0.49 1.36,-0.33 1.38,-0.16 1.40,0.00 1.38,0.17 1.36,0.34 1.36,0.34 L 1.36,0.34 Z"></path></g><g transform="translate(83 542) rotate(0 -2 1.5)" stroke="none"><path fill="#1e1e1e" d="M 0.78,1.17 Q 0.78,1.17 -0.05,1.74 -0.89,2.32 -0.61,2.09 -0.34,1.87 -0.44,1.99 -0.54,2.11 -0.68,2.20 -0.81,2.29 -0.95,2.35 -1.10,2.40 -1.26,2.42 -1.42,2.44 -1.57,2.42 -1.73,2.40 -1.88,2.35 -2.03,2.29 -2.16,2.20 -2.29,2.11 -2.39,1.99 -2.50,1.87 -2.57,1.73 -2.64,1.59 -2.68,1.44 -2.72,1.29 -2.72,1.13 -2.72,0.97 -2.68,0.82 -2.64,0.66 -2.57,0.52 -2.50,0.38 -2.18,0.14 -1.86,-0.10 -1.66,-0.14 -1.45,-0.17 -1.24,-0.15 -1.03,-0.12 -0.84,-0.02 -0.65,0.06 -0.50,0.22 -0.35,0.37 -0.25,0.56 -0.16,0.75 -0.13,0.96 -0.10,1.17 -0.14,1.38 -0.19,1.59 -0.29,1.77 -0.40,1.96 -0.56,2.10 -0.71,2.24 -0.91,2.32 -1.10,2.40 -1.32,2.42 -1.53,2.44 -1.73,2.38 -1.94,2.33 -2.12,2.22 -2.30,2.10 -2.43,1.94 -2.56,1.77 -2.63,1.57 -2.71,1.37 -2.71,1.16 -2.72,0.95 -2.65,0.74 -2.59,0.54 -2.47,0.37 -2.34,0.20 -2.17,0.07 -1.99,-0.04 -1.79,-0.10 -1.59,-0.16 -1.38,-0.16 -1.16,-0.15 -0.96,-0.08 -0.77,-0.00 -0.60,0.12 -0.44,0.26 -0.32,0.43 -0.21,0.61 -0.16,0.82 -0.11,1.03 -0.13,1.24 -0.14,1.45 -0.23,1.65 -0.31,1.84 -0.46,2.00 -0.60,2.16 -0.47,2.01 -0.34,1.87 -0.44,1.99 -0.54,2.11 -0.68,2.20 -0.81,2.29 -0.95,2.35 -1.10,2.40 -1.26,2.42 -1.42,2.44 -1.57,2.42 -1.73,2.40 -1.88,2.35 -2.03,2.29 -2.16,2.20 -2.29,2.11 -2.39,1.99 -2.50,1.87 -2.57,1.73 -2.64,1.59 -2.68,1.44 -2.72,1.29 -2.72,1.13 -2.72,0.97 -2.68,0.82 -2.64,0.66 -2.57,0.52 -2.50,0.38 -2.52,0.18 -2.55,-0.02 -1.66,-0.59 -0.78,-1.17 -0.63,-1.24 -0.47,-1.32 -0.31,-1.36 -0.14,-1.40 0.02,-1.39 0.19,-1.39 0.35,-1.35 0.52,-1.30 0.67,-1.22 0.81,-1.14 0.94,-1.03 1.07,-0.91 1.16,-0.77 1.25,-0.63 1.31,-0.47 1.37,-0.31 1.39,-0.14 1.40,0.02 1.38,0.19 1.36,0.35 1.30,0.51 1.23,0.67 1.13,0.81 1.03,0.95 0.91,1.06 0.78,1.17 0.78,1.17 L 0.78,1.17 Z"></path></g></svg>